<svg width="24" height="24" viewBox="0 0 24 24" fill="none" xmlns="http://www.w3.org/2000/svg">
<path d="M8.5 19.0001H8C4 19.0001 2 18.0001 2 13.0001V8.00012C2 4.00012 4 2.00012 8 2.00012H16C20 2.00012 22 4.00012 22 8.00012V13.0001C22 17.0001 20 19.0001 16 19.0001H15.5C15.19 19.0001 14.89 19.1501 14.7 19.4001L13.2 21.4001C12.54 22.2801 11.46 22.2801 10.8 21.4001L9.3 19.4001C9.14 19.1801 8.77 19.0001 8.5 19.0001Z" stroke="#1E4C2F" stroke-width="1.5" stroke-miterlimit="10" stroke-linecap="round" stroke-linejoin="round"/>
<path d="M15.9965 11.0001H16.0054" stroke="#1E4C2F" stroke-width="2" stroke-linecap="round" stroke-linejoin="round"/>
<path d="M11.9955 11.0001H12.0045" stroke="#1E4C2F" stroke-width="2" stroke-linecap="round" stroke-linejoin="round"/>
<path d="M7.99451 11.0001H8.00349" stroke="#1E4C2F" stroke-width="2" stroke-linecap="round" stroke-linejoin="round"/>
</svg>
