<svg width="20" height="21" viewBox="0 0 20 21" fill="none" xmlns="http://www.w3.org/2000/svg">
<path d="M3.32408 12.7171L2.05742 11.4504C1.54076 10.9337 1.54076 10.0837 2.05742 9.56705L3.32408 8.30036C3.54075 8.0837 3.71575 7.65869 3.71575 7.35869V5.567C3.71575 4.83367 4.31575 4.23369 5.04909 4.23369H6.84075C7.14075 4.23369 7.56575 4.05872 7.78242 3.84205L9.04908 2.57537C9.56574 2.0587 10.4158 2.0587 10.9324 2.57537L12.1991 3.84205C12.4158 4.05872 12.8407 4.23369 13.1407 4.23369H14.9324C15.6658 4.23369 16.2657 4.83367 16.2657 5.567V7.35869C16.2657 7.65869 16.4407 8.0837 16.6574 8.30036L17.9241 9.56705C18.4408 10.0837 18.4408 10.9337 17.9241 11.4504L16.6574 12.7171C16.4407 12.9337 16.2657 13.3587 16.2657 13.6587V15.4503C16.2657 16.1837 15.6658 16.7837 14.9324 16.7837H13.1407C12.8407 16.7837 12.4158 16.9587 12.1991 17.1754L10.9324 18.4421C10.4158 18.9587 9.56574 18.9587 9.04908 18.4421L7.78242 17.1754C7.56575 16.9587 7.14075 16.7837 6.84075 16.7837H5.04909C4.31575 16.7837 3.71575 16.1837 3.71575 15.4503V13.6587C3.71575 13.3504 3.54075 12.9254 3.32408 12.7171Z" stroke="#1D9E34" stroke-width="1.5" stroke-linecap="round" stroke-linejoin="round"/>
<path d="M7.5 13L12.5 8" stroke="#1D9E34" stroke-width="1.5" stroke-linecap="round" stroke-linejoin="round"/>
<path d="M12.0791 12.5833H12.0866" stroke="#1D9E34" stroke-width="2" stroke-linecap="round" stroke-linejoin="round"/>
<path d="M7.91209 8.41667H7.91957" stroke="#1D9E34" stroke-width="2" stroke-linecap="round" stroke-linejoin="round"/>
</svg>
