<svg width="24" height="24" viewBox="0 0 24 24" fill="none" xmlns="http://www.w3.org/2000/svg">
<g clip-path="url(#clip0_61_4034)">
<path d="M7.48047 5.6502L10.5805 3.2502C10.9805 2.8502 11.8805 2.6502 12.4805 2.6502H16.2805C17.4805 2.6502 18.7805 3.5502 19.0805 4.7502L21.4805 12.0502C21.9805 13.4502 21.0805 14.6502 19.5805 14.6502H15.5805C14.9805 14.6502 14.4805 15.1502 14.5805 15.8502L15.0805 19.0502C15.2805 19.9502 14.6805 20.9502 13.7805 21.2502C12.9805 21.5502 11.9805 21.1502 11.5805 20.5502L7.48047 14.4502" stroke="#0B0F0E" stroke-width="1.5" stroke-miterlimit="10"/>
<path d="M2.37988 5.6502V15.4502C2.37988 16.8502 2.97988 17.3502 4.37988 17.3502H5.37988C6.77988 17.3502 7.37988 16.8502 7.37988 15.4502V5.6502C7.37988 4.2502 6.77988 3.7502 5.37988 3.7502H4.37988C2.97988 3.7502 2.37988 4.2502 2.37988 5.6502Z" stroke="#0B0F0E" stroke-width="1.5" stroke-linecap="round" stroke-linejoin="round"/>
</g>
<defs>
<clipPath id="clip0_61_4034">
<rect width="24" height="24" fill="white" transform="matrix(1 0 0 -1 0 24.0002)"/>
</clipPath>
</defs>
</svg>
