<svg width="25" height="24" viewBox="0 0 25 24" fill="none" xmlns="http://www.w3.org/2000/svg">
<path d="M7.98047 18.3502L11.0805 20.7502C11.4805 21.1502 12.3805 21.3502 12.9805 21.3502H16.7805C17.9805 21.3502 19.2805 20.4502 19.5805 19.2502L21.9805 11.9502C22.4805 10.5502 21.5805 9.3502 20.0805 9.3502H16.0805C15.4805 9.3502 14.9805 8.8502 15.0805 8.1502L15.5805 4.9502C15.7805 4.0502 15.1805 3.0502 14.2805 2.7502C13.4805 2.4502 12.4805 2.8502 12.0805 3.4502L7.98047 9.5502" stroke="#0B0F0E" stroke-width="1.5" stroke-miterlimit="10"/>
<path d="M2.87988 18.3502V8.5502C2.87988 7.1502 3.47988 6.6502 4.87988 6.6502H5.87988C7.27988 6.6502 7.87988 7.1502 7.87988 8.5502V18.3502C7.87988 19.7502 7.27988 20.2502 5.87988 20.2502H4.87988C3.47988 20.2502 2.87988 19.7502 2.87988 18.3502Z" stroke="#0B0F0E" stroke-width="1.5" stroke-linecap="round" stroke-linejoin="round"/>
</svg>
