<svg width="20" height="18" viewBox="0 0 20 18" fill="none" xmlns="http://www.w3.org/2000/svg">
<path d="M3.95897 4.56708C4.17393 3.09304 5.43794 2 6.92757 2H15.0724C16.5621 2 17.8261 3.09304 18.041 4.56708L19.4994 14.5671C19.7633 16.3771 18.3599 18 16.5308 18H5.46923C3.64006 18 2.23667 16.3771 2.50063 14.5671L3.95897 4.56708Z" fill="#143C23"/>
<path d="M1.95897 2.56708C2.17393 1.09304 3.43794 0 4.92757 0H13.0724C14.5621 0 15.8261 1.09304 16.041 2.56708L17.4994 12.5671C17.7633 14.3771 16.3599 16 14.5308 16H3.46923C1.64006 16 0.236672 14.3771 0.500634 12.5671L1.95897 2.56708Z" fill="white"/>
<path d="M12.3256 6C12.7288 6 13.0623 6.32942 12.9901 6.72608C12.9387 7.00857 12.8573 7.28548 12.7469 7.55203C12.5431 8.04408 12.2444 8.49117 11.8678 8.86777C11.4912 9.24437 11.0441 9.54311 10.552 9.74693C10.06 9.95074 9.53259 10.0556 9 10.0556C8.46741 10.0556 7.94003 9.95074 7.44797 9.74692C6.95592 9.54311 6.50883 9.24437 6.13223 8.86777C5.75563 8.49117 5.45689 8.04408 5.25308 7.55203C5.14267 7.28548 5.06129 7.00857 5.00988 6.72608C4.9377 6.32942 5.2712 6 5.67437 6C6.07755 6 6.39447 6.3331 6.50637 6.72043C6.53309 6.81291 6.56499 6.90401 6.60197 6.9933C6.73241 7.30821 6.9236 7.59435 7.16463 7.83537C7.40565 8.0764 7.69179 8.26759 8.0067 8.39803C8.32162 8.52847 8.65914 8.59561 9 8.59561C9.34086 8.59561 9.67838 8.52847 9.9933 8.39803C10.3082 8.26759 10.5943 8.0764 10.8354 7.83537C11.0764 7.59435 11.2676 7.30821 11.398 6.9933C11.435 6.90401 11.4669 6.81291 11.4936 6.72043C11.6055 6.3331 11.9225 6 12.3256 6Z" fill="#1E4C2F"/>
</svg>
