<svg width="25" height="24" viewBox="0 0 25 24" fill="none" xmlns="http://www.w3.org/2000/svg">
<path d="M3.50977 11.2201V15.7101C3.50977 20.2001 5.30977 22.0001 9.79977 22.0001H15.1898C19.6798 22.0001 21.4798 20.2001 21.4798 15.7101V11.2201" stroke="#1E4C2F" stroke-width="1.5" stroke-linecap="round" stroke-linejoin="round"/>
<path d="M12.5005 12.0001C14.3305 12.0001 15.6805 10.5101 15.5005 8.68012L14.8405 2.00012H10.1705L9.50048 8.68012C9.32048 10.5101 10.6705 12.0001 12.5005 12.0001Z" stroke="#1E4C2F" stroke-width="1.5" stroke-linecap="round" stroke-linejoin="round"/>
<path d="M18.8098 12.0001C20.8298 12.0001 22.3098 10.3601 22.1098 8.35012L21.8298 5.60012C21.4698 3.00012 20.4698 2.00012 17.8498 2.00012H14.7998L15.4998 9.01012C15.6698 10.6601 17.1598 12.0001 18.8098 12.0001Z" stroke="#1E4C2F" stroke-width="1.5" stroke-linecap="round" stroke-linejoin="round"/>
<path d="M6.14037 12.0001C7.79037 12.0001 9.28037 10.6601 9.44037 9.01012L9.66037 6.80012L10.1404 2.00012H7.09037C4.47037 2.00012 3.47037 3.00012 3.11037 5.60012L2.84037 8.35012C2.64037 10.3601 4.12037 12.0001 6.14037 12.0001Z" stroke="#1E4C2F" stroke-width="1.5" stroke-linecap="round" stroke-linejoin="round"/>
<path d="M12.5 17.0001C10.83 17.0001 10 17.8301 10 19.5001V22.0001H15V19.5001C15 17.8301 14.17 17.0001 12.5 17.0001Z" stroke="#1B2124" stroke-width="1.5" stroke-linecap="round" stroke-linejoin="round"/>
</svg>
