<svg width="53" height="52" viewBox="0 0 53 52" fill="none" xmlns="http://www.w3.org/2000/svg">
<rect x="1" y="1" width="51" height="50" rx="8" fill="#705DF2"/>
<path d="M5.29261 26.3111V24.7699C6.67637 24.7699 7.64169 24.4799 8.18857 23.8999C8.74373 23.3198 9.02131 22.3504 9.02131 20.9915V17.0142C9.02131 15.8707 9.12902 14.8806 9.34446 14.0437C9.56818 13.2068 9.92862 12.5149 10.4258 11.968C10.9229 11.4212 11.5858 11.0152 12.4144 10.75C13.243 10.4848 14.2663 10.3523 15.4844 10.3523V12.7884C14.5232 12.7884 13.765 12.9375 13.2099 13.2358C12.663 13.5341 12.2736 13.9981 12.0415 14.6278C11.8178 15.2493 11.706 16.0447 11.706 17.0142V21.9858C11.706 22.6321 11.619 23.2204 11.445 23.7507C11.2792 24.281 10.9685 24.7367 10.5128 25.1179C10.0571 25.4991 9.40661 25.7932 8.56143 26.0004C7.72455 26.2075 6.63494 26.3111 5.29261 26.3111ZM15.4844 42.1705C14.2663 42.1705 13.243 42.0379 12.4144 41.7727C11.5858 41.5076 10.9229 41.1016 10.4258 40.5547C9.92862 40.0078 9.56818 39.3159 9.34446 38.479C9.12902 37.6422 9.02131 36.652 9.02131 35.5085V31.5312C9.02131 30.1723 8.74373 29.2029 8.18857 28.6229C7.64169 28.0428 6.67637 27.7528 5.29261 27.7528V26.2116C6.63494 26.2116 7.72455 26.3152 8.56143 26.5224C9.40661 26.7295 10.0571 27.0237 10.5128 27.4048C10.9685 27.786 11.2792 28.2417 11.445 28.772C11.619 29.3023 11.706 29.8906 11.706 30.5369V35.5085C11.706 36.478 11.8178 37.2734 12.0415 37.8949C12.2736 38.5163 12.663 38.9762 13.2099 39.2745C13.765 39.5811 14.5232 39.7344 15.4844 39.7344V42.1705ZM5.29261 27.7528V24.7699H8.22585V27.7528H5.29261Z" fill="white"/>
<path d="M47.3849 26.2116V27.7528C46.0012 27.7528 45.0317 28.0428 44.4766 28.6229C43.9297 29.2029 43.6562 30.1723 43.6562 31.5312V35.5085C43.6562 36.652 43.5444 37.6422 43.3207 38.479C43.1052 39.3159 42.7489 40.0078 42.2518 40.5547C41.7546 41.1016 41.0917 41.5076 40.2631 41.7727C39.4345 42.0379 38.4112 42.1705 37.1932 42.1705V39.7344C38.1544 39.7344 38.9084 39.5811 39.4553 39.2745C40.0104 38.9762 40.3999 38.5163 40.6236 37.8949C40.8556 37.2734 40.9716 36.478 40.9716 35.5085V30.5369C40.9716 29.8906 41.0545 29.3023 41.2202 28.772C41.3942 28.2417 41.709 27.786 42.1648 27.4048C42.6205 27.0237 43.2668 26.7295 44.1037 26.5224C44.9489 26.3152 46.0426 26.2116 47.3849 26.2116ZM37.1932 10.3523C38.4112 10.3523 39.4345 10.4848 40.2631 10.75C41.0917 11.0152 41.7546 11.4212 42.2518 11.968C42.7489 12.5149 43.1052 13.2068 43.3207 14.0437C43.5444 14.8806 43.6562 15.8707 43.6562 17.0142V20.9915C43.6562 22.3504 43.9297 23.3198 44.4766 23.8999C45.0317 24.4799 46.0012 24.7699 47.3849 24.7699V26.3111C46.0426 26.3111 44.9489 26.2075 44.1037 26.0004C43.2668 25.7932 42.6205 25.4991 42.1648 25.1179C41.709 24.7367 41.3942 24.281 41.2202 23.7507C41.0545 23.2204 40.9716 22.6321 40.9716 21.9858V17.0142C40.9716 16.0447 40.8556 15.2493 40.6236 14.6278C40.3999 13.9981 40.0104 13.5341 39.4553 13.2358C38.9084 12.9375 38.1544 12.7884 37.1932 12.7884V10.3523ZM47.3849 24.7699V27.7528H44.4517V24.7699H47.3849Z" fill="white"/>
<path d="M18.255 19.5C18.365 19.52 18.52 19.6 18.72 19.74C18.92 19.88 19.115 20.03 19.305 20.19C19.495 20.35 19.635 20.48 19.725 20.58L19.44 29.055C19.31 29.535 19.09 29.985 18.78 30.405C18.48 30.825 18.125 31.205 17.715 31.545C17.305 31.895 16.875 32.195 16.425 32.445C15.985 32.705 15.555 32.915 15.135 33.075C14.975 32.945 14.815 32.74 14.655 32.46C14.495 32.19 14.38 31.895 14.31 31.575L14.595 30.915L17.4 30.15L17.895 24.96L17.835 21.21L16.32 21.405C16.07 21.245 15.855 21.08 15.675 20.91C15.495 20.74 15.305 20.525 15.105 20.265L15.39 19.5H18.255Z" fill="white"/>
<path d="M35.255 19.5C35.365 19.52 35.52 19.6 35.72 19.74C35.92 19.88 36.115 20.03 36.305 20.19C36.495 20.35 36.635 20.48 36.725 20.58L36.44 29.055C36.31 29.535 36.09 29.985 35.78 30.405C35.48 30.825 35.125 31.205 34.715 31.545C34.305 31.895 33.875 32.195 33.425 32.445C32.985 32.705 32.555 32.915 32.135 33.075C31.975 32.945 31.815 32.74 31.655 32.46C31.495 32.19 31.38 31.895 31.31 31.575L31.595 30.915L34.4 30.15L34.895 24.96L34.835 21.21L33.32 21.405C33.07 21.245 32.855 21.08 32.675 20.91C32.495 20.74 32.305 20.525 32.105 20.265L32.39 19.5H35.255Z" fill="white"/>
<path d="M27.4784 21.5385C27.3511 21.5385 27.2172 21.6151 27.1743 21.7308L24.8077 28.1971C24.7647 28.3504 24.892 28.4615 25.0192 28.4615H25.4026C25.5299 28.4615 25.6505 28.3849 25.6935 28.2692L28.0601 21.8029C28.1031 21.6496 27.9758 21.5385 27.8486 21.5385H27.4784ZM23.1418 22.6923C23.084 22.7013 23.0261 22.7254 22.9832 22.7644L21.0397 24.8798C20.9967 24.9564 20.9967 25.0436 21.0397 25.1202L22.9832 27.2356C23.0675 27.3122 23.1997 27.3482 23.3269 27.2716L23.5781 27.0793C23.6624 27.0027 23.7021 26.8434 23.6178 26.7668L21.9784 25L23.5781 23.2332C23.6624 23.1565 23.6657 22.9973 23.5385 22.9207L23.3269 22.7284C23.2641 22.6893 23.1997 22.6833 23.1418 22.6923ZM29.7656 22.6923C29.7342 22.6983 29.7045 22.7088 29.6731 22.7284L29.4219 22.9207C29.3376 22.9973 29.2979 23.1565 29.3822 23.2332L30.982 25L29.3822 26.7668C29.2979 26.8434 29.2946 27.0027 29.4219 27.0793L29.6731 27.2716C29.7574 27.3482 29.9325 27.3513 30.0168 27.2356L31.9603 25.1202C32.0033 25.0436 32.0033 24.9564 31.9603 24.8798L30.0168 22.7644C29.954 22.7073 29.8582 22.6743 29.7656 22.6923Z" fill="#FF81A3"/>
</svg>
