<svg width="61" height="65" viewBox="0 0 61 65" fill="none" xmlns="http://www.w3.org/2000/svg">
<rect y="7.38636" width="61" height="57.6136" rx="8" fill="#1E4C2F"/>
<path d="M11.3603 52.8154C13.1309 57 18.4 57 18.4 57C19.2837 57 20 56.1792 20 55.1667C20 54.1541 19.2837 53.3333 18.4 53.3333C15.1357 53.3333 14.2397 51.2158 14.2397 51.2158C13.8315 50.2511 13.6925 48.6088 13.6925 48.6088C13.6 47.5154 13.6 45.0833 13.6 45.0833C13.6 42.4738 13.4925 41.204 13.4925 41.204C13.2982 38.9074 12.6397 37.3513 12.6397 37.3513C12.0411 35.9365 11.0425 35 11.0425 35C12.0411 34.0635 12.6397 32.6488 12.6397 32.6488C13.2982 31.0926 13.4925 28.796 13.4925 28.796C13.6 27.5262 13.6 24.9167 13.6 24.9167C13.6 22.4845 13.6925 21.3911 13.6925 21.3911C13.8315 19.7489 14.2397 18.7842 14.2397 18.7842C15.1357 16.6667 18.4 16.6667 18.4 16.6667C19.2837 16.6667 20 15.8458 20 14.8333C20 13.8208 19.2837 13 18.4 13C13.1309 13 11.3603 17.1845 11.3603 17.1845C10.7018 18.7407 10.5075 21.0372 10.5075 21.0372C10.4 22.3072 10.4 24.9167 10.4 24.9167C10.4 27.3488 10.3075 28.4422 10.3075 28.4422C10.1685 30.0845 9.7603 31.0492 9.7603 31.0492C8.86427 33.1667 5.6 33.1667 5.6 33.1667C4.71635 33.1667 4 33.9874 4 35C4 36.0126 4.71635 36.8333 5.6 36.8333C8.86427 36.8333 9.7603 38.9508 9.7603 38.9508C10.1685 39.9155 10.3075 41.5578 10.3075 41.5578C10.4 42.6512 10.4 45.0833 10.4 45.0833C10.4 47.6929 10.5075 48.9627 10.5075 48.9627C10.7018 51.2593 11.3603 52.8154 11.3603 52.8154Z" fill="white"/>
<path d="M46.7603 51.2158C45.8643 53.3333 42.6 53.3333 42.6 53.3333C41.7163 53.3333 41 54.1541 41 55.1667C41 56.1792 41.7163 57 42.6 57C47.8691 57 49.6397 52.8154 49.6397 52.8154C50.2982 51.2593 50.4925 48.9627 50.4925 48.9627C50.6 47.6929 50.6 45.0833 50.6 45.0833C50.6 42.6512 50.6925 41.5578 50.6925 41.5578C50.8315 39.9155 51.2397 38.9508 51.2397 38.9508C52.1357 36.8333 55.4 36.8333 55.4 36.8333C56.2837 36.8333 57 36.0126 57 35C57 33.9874 56.2837 33.1667 55.4 33.1667C52.1357 33.1667 51.2397 31.0492 51.2397 31.0492C50.8315 30.0845 50.6925 28.4422 50.6925 28.4422C50.6 27.3488 50.6 24.9167 50.6 24.9167C50.6 22.3072 50.4925 21.0372 50.4925 21.0372C50.2982 18.7407 49.6397 17.1845 49.6397 17.1845C47.8691 13 42.6 13 42.6 13C41.7163 13 41 13.8208 41 14.8333C41 15.8458 41.7163 16.6667 42.6 16.6667C45.8643 16.6667 46.7603 18.7842 46.7603 18.7842C47.1685 19.7489 47.3075 21.3911 47.3075 21.3911C47.4 22.4845 47.4 24.9167 47.4 24.9167C47.4 27.5262 47.5075 28.796 47.5075 28.796C47.7018 31.0926 48.3603 32.6488 48.3603 32.6488C48.9589 34.0635 49.9574 35 49.9574 35C48.9589 35.9365 48.3603 37.3512 48.3603 37.3512C47.7018 38.9074 47.5075 41.204 47.5075 41.204C47.4 42.4738 47.4 45.0833 47.4 45.0833C47.4 47.5154 47.3075 48.6088 47.3075 48.6088C47.1685 50.2511 46.7603 51.2158 46.7603 51.2158Z" fill="white"/>
<path d="M20.148 31.313C19.9553 31.347 19.859 31.466 19.859 31.67V37.671C19.859 38.385 19.808 39.0027 19.706 39.524C19.6153 40.034 19.4397 40.4703 19.179 40.833C18.9297 41.1957 18.5727 41.5073 18.108 41.768C17.6433 42.04 17.0427 42.2893 16.306 42.516L15.932 41.7C16.4647 41.3827 16.867 41.071 17.139 40.765C17.411 40.459 17.5923 40.0907 17.683 39.66C17.785 39.218 17.836 38.6457 17.836 37.943V31.67C17.836 31.466 17.734 31.347 17.53 31.313L16.561 31.109V30.276H20.998V31.109L20.148 31.313Z" fill="white"/>
<path d="M44.148 31.313C43.9553 31.347 43.859 31.466 43.859 31.67V37.671C43.859 38.385 43.808 39.0027 43.706 39.524C43.6153 40.034 43.4397 40.4703 43.179 40.833C42.9297 41.1957 42.5727 41.5073 42.108 41.768C41.6433 42.04 41.0427 42.2893 40.306 42.516L39.932 41.7C40.4647 41.3827 40.867 41.071 41.139 40.765C41.411 40.459 41.5923 40.0907 41.683 39.66C41.785 39.218 41.836 38.6457 41.836 37.943V31.67C41.836 31.466 41.734 31.347 41.53 31.313L40.561 31.109V30.276H44.998V31.109L44.148 31.313Z" fill="white"/>
<path d="M22.7311 36.5151L25.9568 39.0539C26.0534 39.13 26.1755 39.1719 26.3013 39.1719C26.4609 39.1719 26.6122 39.1049 26.7143 38.9892C26.7949 38.8979 26.839 38.7828 26.839 38.6641C26.839 38.6486 26.8382 38.6333 26.8367 38.6181C26.8238 38.4839 26.755 38.3602 26.6455 38.274L23.9152 36.125L26.6454 33.9761C26.755 33.8898 26.8238 33.7661 26.8367 33.6319C26.8382 33.6166 26.839 33.6013 26.839 33.5859L26.8389 33.5829C26.8382 33.4652 26.7942 33.3513 26.7143 33.2608C26.6122 33.1451 26.4609 33.0781 26.3013 33.0781L26.2944 33.0782C26.171 33.0796 26.0519 33.1212 25.9571 33.1958L22.7311 35.7349C22.7062 35.7546 22.6831 35.7763 22.6623 35.7999C22.4722 36.0154 22.503 36.3356 22.7311 36.5151Z" fill="white"/>
<path d="M37.29 36.125L34.56 38.2737C34.4504 38.3599 34.3813 38.4839 34.3684 38.6181C34.3669 38.6334 34.3662 38.6487 34.3662 38.6641V38.6671C34.3669 38.7848 34.411 38.8987 34.4908 38.9892C34.593 39.1049 34.7443 39.1719 34.9038 39.1719L34.9107 39.1718C35.0341 39.1704 35.1532 39.1288 35.2481 39.0542L38.474 36.5151C38.7021 36.3356 38.733 36.0154 38.5428 35.7999C38.522 35.7763 38.499 35.7546 38.474 35.7349L35.2481 33.1959C35.1514 33.1198 35.0296 33.0781 34.9038 33.0781C34.7442 33.0781 34.5929 33.1451 34.4908 33.2608C34.4103 33.3521 34.3662 33.4672 34.3662 33.5859C34.3662 33.7367 34.4371 33.8796 34.5596 33.976L37.29 36.125Z" fill="white"/>
<path d="M32.2479 30.3655L27.9466 41.5374C27.9252 41.593 27.9143 41.6517 27.9143 41.7109L27.9145 41.7253C27.9207 41.9335 28.0609 42.117 28.2682 42.1882C28.3271 42.2084 28.3892 42.2188 28.4519 42.2188C28.4598 42.2188 28.4677 42.2186 28.4755 42.2182C28.5461 42.2153 28.6153 42.1993 28.6793 42.1711C28.8085 42.1141 28.9085 42.0111 28.9572 41.8845L33.2585 30.7126C33.2799 30.657 33.2909 30.5982 33.2909 30.5391C33.2909 30.5316 33.2907 30.5242 33.2903 30.5168C33.2873 30.4501 33.2703 30.3847 33.2404 30.3243C33.1801 30.2023 33.071 30.1078 32.9369 30.0618C32.8781 30.0416 32.8159 30.0312 32.7532 30.0312L32.738 30.0315C32.5176 30.0373 32.3233 30.1698 32.2479 30.3655Z" fill="white"/>
</svg>
