<svg xmlns="http://www.w3.org/2000/svg" viewBox="0 0 1600 1600" width="1600" height="1600"><g transform="translate(416.0 188.0) rotate(0.0 562.0 666.5) scale(0.9998523349754396 0.9992241582867015)"><svg width="1124.166" height="1334.035" viewBox="0 0 1124.166 1334.035"><path d="M414.045 693.859c43.02 19.494 86.339 40.008 86.339 40.008 63.653 14.046 66.496-42.81 70.964-100.674l-111.147-55.535-46.157 116.2z" fill="#fff"/><path d="M500.383 735.868c-.287 0-.578-.062-.854-.193-.433-.205-43.797-20.731-86.308-39.994a2 2 0 0 1-1.033-2.56l46.156-116.201a1.997 1.997 0 0 1 2.752-1.05l111.147 55.535a2 2 0 1 1-1.788 3.578l-109.198-54.562-44.648 112.404c41.979 19.045 84.205 39.033 84.632 39.235a2.002 2.002 0 0 1-.857 3.809z" fill="#28242e"/><path d="M493.833 595.409c23.448-4.266 58.021-9.205 80.292-6.671s21.714 28.368-3.549 34.308-48.619 9.287-51.775 9.719c-17.73 2.43-52.042-32.43-24.968-37.356z" fill="#fff"/><path d="M518.799 634.764a2 2 0 0 1-.269-3.982c1.019-.14 25.249-3.492 51.589-9.684 13.041-3.066 18.472-11.331 18.07-18.162-.387-6.574-5.862-11.253-14.289-12.212-23.101-2.63-59.855 3.039-79.708 6.652a2 2 0 0 1-.716-3.936c20.07-3.652 57.265-9.376 80.876-6.691 10.33 1.176 17.329 7.437 17.83 15.952.5 8.502-5.844 18.692-21.148 22.291-26.522 6.236-50.935 9.613-51.961 9.753a1.962 1.962 0 0 1-.274.019z" fill="#28242e"/><path d="M487.738 660.876c-.517 0-1.032-.016-1.546-.048a2 2 0 1 1 .248-3.992c6.733.413 13.907-2.446 20.188-8.068 6.377-5.707 10.002-12.555 10.175-16.101a2 2 0 0 1 1.726-1.884c1.019-.14 25.249-3.492 51.589-9.684a2 2 0 1 1 .916 3.893c-23.106 5.433-44.612 8.695-50.446 9.539-1.018 5.166-5.433 11.974-11.291 17.217-6.618 5.923-14.216 9.126-21.558 9.127z" fill="#28242e"/><path d="M549.167 657.859c36.873 18.785 48.05 9.342 52.397 1.186 8.969-16.827-14.638-33.412-26.081-38.573-18.137-8.179-29.014-1.289-31.503 5.095-3.812 9.775.031 22.284 23.767 34.027z" fill="#fff"/><path d="M583.934 670.746c-9.231 0-21.144-3.702-35.675-11.104a2 2 0 0 1 1.094-3.774l9.138.853c-19.884-12.591-19.015-25.11-16.375-31.881 1.408-3.61 4.68-6.687 8.976-8.441 4.842-1.978 13.146-3.191 25.213 2.25 7.836 3.534 23.804 13.584 28.152 26.331 1.779 5.215 1.399 10.264-1.128 15.006-3.823 7.173-10.31 10.76-19.395 10.76zm-23.477-9.824c20.538 8.606 33.751 7.672 39.342-2.818 2.014-3.778 2.299-7.649.872-11.833-3.622-10.619-17.539-20.156-26.01-23.976-10.772-4.858-17.94-3.874-22.056-2.193-3.238 1.322-5.765 3.637-6.762 6.191-4.327 11.096 3.554 21.991 22.791 31.508a2 2 0 0 1 1.037 2.338 1.992 1.992 0 0 1-2.11 1.446l-7.103-.663z" fill="#28242e"/><path d="M534.552 684.726c36.873 18.785 48.05 9.342 52.397 1.186 8.969-16.827-14.638-33.412-26.081-38.573-18.137-8.179-29.014-1.289-31.503 5.095-3.812 9.775.031 22.284 23.767 34.027z" fill="#fff"/><path d="M569.319 697.613c-9.231 0-21.144-3.702-35.675-11.104a2 2 0 0 1 1.094-3.774l9.138.853c-19.884-12.591-19.015-25.11-16.375-31.881 1.408-3.61 4.68-6.687 8.976-8.441 4.842-1.977 13.146-3.191 25.213 2.25 7.836 3.534 23.804 13.584 28.152 26.331 1.779 5.215 1.399 10.264-1.128 15.006-3.823 7.173-10.31 10.76-19.395 10.76zm-23.477-9.824c20.538 8.606 33.751 7.672 39.342-2.818 2.014-3.778 2.299-7.649.872-11.833-3.622-10.619-17.539-20.156-26.01-23.976-10.772-4.857-17.94-3.873-22.056-2.193-3.238 1.322-5.765 3.637-6.762 6.191-4.327 11.096 3.554 21.991 22.791 31.508a2 2 0 0 1 1.037 2.338 1.993 1.993 0 0 1-2.11 1.446l-7.103-.663z" fill="#28242e"/><path d="M516.784 710.089c36.873 18.785 48.05 9.342 52.397 1.186 8.969-16.827-14.638-33.412-26.081-38.573-18.137-8.179-29.014-1.289-31.503 5.095-3.812 9.775.031 22.284 23.767 34.027z" fill="#fff"/><path d="M551.551 722.975c-9.23 0-21.143-3.701-35.675-11.104a2 2 0 0 1 1.094-3.774l9.138.853c-19.884-12.591-19.015-25.11-16.375-31.881 1.408-3.61 4.679-6.687 8.976-8.441 4.841-1.977 13.146-3.192 25.213 2.25 7.836 3.534 23.804 13.584 28.152 26.331 1.779 5.216 1.399 10.264-1.128 15.006-3.823 7.173-10.31 10.76-19.396 10.76zm-23.476-9.823c20.539 8.607 33.751 7.671 39.342-2.818 2.014-3.778 2.299-7.649.872-11.833-3.622-10.618-17.539-20.156-26.01-23.976-10.772-4.858-17.941-3.874-22.057-2.193-3.237 1.322-5.765 3.637-6.761 6.191-4.327 11.096 3.554 21.991 22.791 31.508a2 2 0 0 1 1.037 2.338 1.992 1.992 0 0 1-2.11 1.446l-7.103-.663z" fill="#28242e"/><path d="M500.384 733.868c36.873 18.785 48.009 9.403 52.357 1.246 8.969-16.827-14.638-33.412-26.081-38.573-18.137-8.179-29.014-1.289-31.503 5.095-3.812 9.775.031 22.284 23.767 34.027l-18.539-1.795z" fill="#fff"/><path d="M535.176 746.768c-9.229 0-21.149-3.706-35.7-11.118a2 2 0 0 1 1.816-3.565c26.508 13.506 43.224 14.208 49.684 2.087 2.014-3.778 2.299-7.649.872-11.833-3.622-10.619-17.539-20.156-26.01-23.976-10.772-4.858-17.94-3.874-22.056-2.193-3.238 1.322-5.765 3.637-6.762 6.191-4.327 11.096 3.554 21.991 22.791 31.508a2 2 0 1 1-1.774 3.585c-28.441-14.071-27.71-28.938-24.743-36.546 1.408-3.61 4.68-6.687 8.976-8.441 4.842-1.976 13.146-3.191 25.213 2.25 7.836 3.534 23.804 13.584 28.152 26.331 1.779 5.215 1.399 10.264-1.128 15.006-3.806 7.142-10.272 10.713-19.33 10.713z" fill="#28242e"/><path d="m460.202 577.659-125.28-63.549 53.613-110.488-74.664-141.507c-29.926 24.629-34.45 29.307-62.834 82.523 0 0-34.545 63.081-47.082 88.119-33.747 67.394-42.15 143.972 37.835 190.902 18.564 10.892 81.762 45.355 108.643 59.976a64.014 64.014 0 0 0 26.163 7.627l37.449 2.598 34.411 15.755 45.691-114.994-33.945-16.961z" fill="#fff"/><path d="M414.045 695.86a2 2 0 0 1-1.858-2.739l46.156-116.201a2 2 0 1 1 3.717 1.476l-46.156 116.201a2.002 2.002 0 0 1-1.859 1.262z" fill="#28242e"/><path d="M448.456 711.614c-.284 0-.569-.061-.833-.182l-34.08-15.603-37.086-2.573a65.594 65.594 0 0 1-26.981-7.865c-26.474-14.4-90.062-49.073-108.699-60.008-37.396-21.941-58.438-51.981-62.543-89.283-3.379-30.707 4.673-65.778 23.932-104.239 12.411-24.784 46.771-87.553 47.117-88.184 18.833-35.312 30.833-54.925 48.064-70.832a2 2 0 1 1 2.713 2.939c-16.807 15.516-28.63 34.868-47.258 69.794-.356.65-34.681 63.354-47.059 88.073-29.404 58.721-46.843 139.053 37.059 188.281 18.587 10.906 82.129 45.554 108.586 59.944a61.617 61.617 0 0 0 25.346 7.389l37.449 2.598c.24.017.475.077.694.177l32.497 14.878 44.235-111.332-32.302-16.14-125.291-63.555a2 2 0 0 1-.895-2.657l53.613-110.487a1.999 1.999 0 1 1 3.598 1.746l-52.755 108.72 123.528 62.66 33.934 16.956a2 2 0 0 1 .965 2.527l-45.691 114.995a1.997 1.997 0 0 1-1.859 1.262z" fill="#28242e"/><path d="M314.865 559.049a2 2 0 0 1-1.811-2.846l20.055-42.939a1.999 1.999 0 0 1 3.81.761l1.207 28.147a1.999 1.999 0 0 1-1.912 2.083 1.997 1.997 0 0 1-2.084-1.913l-.857-19.979-16.595 35.531a2 2 0 0 1-1.813 1.154z" fill="#28242e"/><path d="m379.522 45.938 21.53-12.55c-20.578-21.959-43.729-27.672-70.791-8.706l49.261 21.255z" fill="#dda6ff"/><path d="M379.524 47.939a2.001 2.001 0 0 1-1.009-3.728l21.53-12.549a2 2 0 0 1 2.014 3.456l-21.53 12.549a1.986 1.986 0 0 1-1.005.272z" fill="#dda6ff"/><path d="M396.439 66.966c-24.117-38.027-59.762-53.474-98.705-24.477-40.293 30.003-32.81 71.074-11.595 106.608-18.054-5.451-25.709 15.295-16.15 28.121 7.073 9.49 24.515 11.755 35.886-5.377 34.267 23.842 76.498 12.662 103.042-12.931 32.497-31.334 28.46-81.138-12.478-91.944z" fill="#fff"/><path d="M347.473 186.987c-14.676 0-28.661-4.193-41.089-12.385-5.54 7.503-12.806 11.724-20.637 11.938-6.942.196-13.428-2.849-17.361-8.125-5.636-7.563-6.066-18.268-1.024-25.454 3.451-4.919 8.71-7.241 14.833-6.678-17.632-31.344-28.143-73.76 14.344-105.397 17.133-12.758 34.306-17.659 51.043-14.564 18.673 3.452 35.994 16.904 50.126 38.917 17.149 4.771 28.925 16.411 33.203 32.852 5.439 20.903-2.457 44.76-20.607 62.261-13.969 13.468-31.614 22.538-49.685 25.537a80.235 80.235 0 0 1-13.147 1.1zm-41.597-17.146c.406 0 .805.124 1.142.358 34.843 24.243 76.527 10.396 100.511-12.729 17.111-16.499 24.588-38.866 19.512-58.374-3.961-15.223-15.01-25.947-31.113-30.197a1.997 1.997 0 0 1-1.178-.862c-13.597-21.439-30.158-34.505-47.894-37.783-15.598-2.886-31.722 1.772-47.927 13.839-41.854 31.165-29.123 73.746-11.072 103.979a2 2 0 0 1-2.296 2.94c-6.357-1.918-11.657-.411-14.925 4.246-4.08 5.814-3.677 14.548.957 20.766 3.156 4.235 8.406 6.687 14.044 6.518 7.051-.192 13.646-4.385 18.572-11.805a1.996 1.996 0 0 1 1.667-.894z" fill="#28242e"/><path d="M286.139 100.113s7.858 14.924 14.29 29.9c9.016 20.995-6.36 28.341-14.29 19.083-12.428-16.096-18.256-33.2-19.251-51.042l19.251 2.058z" fill="#dda6ff"/><path d="M294.04 155.042c-3.378 0-6.821-1.61-9.42-4.644a2.45 2.45 0 0 1-.064-.079c-12.153-15.74-18.585-32.799-19.665-52.152a2 2 0 0 1 2.21-2.1l19.251 2.058a1.998 1.998 0 0 1 1.557 1.057c.079.15 7.968 15.166 14.357 30.043 5.632 13.113 2.279 21.124-2.736 24.247a10.315 10.315 0 0 1-5.49 1.571zm-6.35-7.209c2.747 3.177 6.74 4.102 9.725 2.243 3.44-2.143 5.813-8.476 1.176-19.273-5.413-12.603-11.914-25.311-13.73-28.815l-15.816-1.69c1.406 17.538 7.518 33.11 18.645 47.536z" fill="#dda6ff"/><g fill="#28242e"><path d="M281.96 175.555a2 2 0 0 1-1.964-2.391l3.027-15.201a2 2 0 0 1 3.923.781l-3.027 15.201a2.001 2.001 0 0 1-1.959 1.61z"/><path d="M290.289 169.353c-.122 0-.245-.011-.369-.034l-15.033-2.802a2.001 2.001 0 0 1 .733-3.933l15.033 2.802a2.001 2.001 0 0 1-.364 3.967zm51.453-69.298a2 2 0 0 1-1.86-1.265c-3.594-9.082-2.09-21.224 9.703-26.421a2 2 0 0 1 1.614 3.66c-9.423 4.153-10.605 13.686-7.597 21.29a2.001 2.001 0 0 1-1.859 2.737z"/><path d="M352.796 87.915c4.34 6.077 5.655 12.577 2.937 14.518s-8.439-1.413-12.779-7.49c-1.735-2.43-2.987-4.927-3.69-7.173 1.073-3.695 3.694-7.897 4.475-7.631 4.545 1.545 7.64 5.792 9.057 7.777zM375.32 73.05a2 2 0 0 1-1.86-1.265c-3.315-8.377-2.344-19.413 7.298-25.182a2 2 0 1 1 2.054 3.432c-8.15 4.876-8.128 13.971-5.632 20.278a2.001 2.001 0 0 1-1.859 2.737z"/><path d="M386.374 60.91c4.34 6.077 5.655 12.577 2.937 14.518s-8.439-1.413-12.779-7.49c-1.735-2.43-2.987-4.927-3.69-7.173 1.073-3.695 3.694-7.897 4.475-7.631 4.545 1.545 7.64 5.792 9.057 7.777z"/></g><path d="M386.766 107.18c-8.146-8.128 9.447-25.347 16.866-16.523 4.805 2.05 7.267 9.992 1.481 16.506-5.577 6.279-16.496 6.662-18.347.017z" fill="#fff"/><path d="M386.766 107.18c-8.146-8.128 9.447-25.347 16.866-16.523 4.805 2.05 7.267 9.992 1.481 16.506-5.577 6.279-16.496 6.662-18.347.017z" fill="#dda6ff"/><path d="M373.243 115.563a2 2 0 0 1-.6-3.908c11.414-3.593 25.396-11.919 29.119-21.708a2 2 0 1 1 3.739 1.422c-4.823 12.677-22.168 21.115-31.657 24.102-.2.063-.402.093-.601.093z" fill="#28242e"/><path d="M322.441 26.01c-61.021 4.851-84.511 58.571-73.277 114.383l63.608-49.735c1.149-8.846 2.809-18.166 4.085-22.889l3.75 17.669 8.821-6.785c2.264-10.589 2.806-21.764 2.46-33.239 6.142 6.646 9.621 14.457 10.084 23.589l18.718-14.398c1.941-13.447-4.02-23.83-17.884-31.149 22.278-11.526 43.609-2.223 54.699 12l6.127-3.572c-13.021-28.285-51.884-48.003-81.191-5.875z" fill="#dda6ff"/><path d="M249.163 142.392a2 2 0 0 1-1.961-1.605c-6.642-32.997-1.1-64.314 15.205-85.922 13.531-17.933 33.895-28.56 58.934-30.77 15.498-21.807 32.12-25.232 43.388-24.237 16.693 1.476 32.676 13.719 40.719 31.19a2 2 0 0 1-.809 2.564l-6.127 3.572a1.999 1.999 0 0 1-2.584-.498c-10.068-12.912-28.762-21.518-48.795-13.054 12.21 7.607 17.435 18.108 15.537 31.258a1.999 1.999 0 0 1-.76 1.3l-18.718 14.398a2 2 0 0 1-3.217-1.484c-.332-6.537-2.344-12.528-5.994-17.875.013 10.48-.843 19.634-2.598 27.841-.099.464-.36.878-.736 1.167l-8.821 6.785a1.999 1.999 0 0 1-3.176-1.17l-1.798-8.474a282.08 282.08 0 0 0-2.097 13.536 2.003 2.003 0 0 1-.751 1.318l-63.608 49.735a2 2 0 0 1-1.232.424zM361.264 3.704c-13.673 0-26.469 8.049-37.182 23.447a2 2 0 0 1-1.483.852c-24.297 1.932-44.006 12.053-56.998 29.271-15.092 20.001-20.527 48.835-15.083 79.521l60.377-47.209c1.166-8.772 2.768-17.667 4.031-22.339a1.982 1.982 0 0 1 1.986-1.477 2 2 0 0 1 1.902 1.584l3.091 14.563 5.718-4.398c1.896-9.216 2.638-19.708 2.267-32.045a1.999 1.999 0 0 1 3.468-1.417c5.694 6.161 9.135 13.264 10.26 21.159l15.201-11.692c1.482-12.238-4.068-21.501-16.944-28.298a2.002 2.002 0 0 1 .015-3.545c22.621-11.704 44.177-2.973 56.092 11.185l3.05-1.778c-7.59-15.097-22.117-25.959-36.652-27.245a35.402 35.402 0 0 0-3.113-.138z" fill="#dda6ff"/><path d="M266.733 128.656a2 2 0 0 1-1.233-3.576l26.875-21.014a2 2 0 1 1 2.463 3.152l-26.875 21.014c-.366.286-.8.424-1.23.424zm130.773-91.2a1.999 1.999 0 0 1-1.579-.771c-10.636-13.641-30.902-22.474-52.203-11.453a2 2 0 0 1-1.838-3.552c23.338-12.075 45.542-2.399 57.195 12.546a2 2 0 0 1-1.575 3.23z" fill="#28242e"/><path d="m207.504 1037.49-80.517 78.135c-48.189 63.121-12.11 93.969 37.765 119.532l118.376-71.94z" fill="#fff"/><path d="M164.752 1237.157a2 2 0 0 1-.912-.22c-26.51-13.587-54.414-31.03-60.378-57.381-4.277-18.899 2.898-40.208 21.935-65.144.06-.079.126-.153.197-.222l80.517-78.135a2.002 2.002 0 0 1 3.107.405l75.624 125.727a2 2 0 0 1-.675 2.74l-118.376 71.94a2.002 2.002 0 0 1-1.039.291zm-36.265-120.201c-18.206 23.884-25.116 44.073-21.123 61.716 5.528 24.426 31.921 41.105 57.307 54.194l115.718-70.325-73.299-121.861-78.602 76.276z" fill="#28242e"/><path d="M264.561 1223.22s183.782-134.286 234.794-178.315c35.234-30.411 46.42-53.239 65.929-100.377 19.51-47.139 110.14-309.05 127.052-376.556-50.932-87.758-199.228-147.444-242.391-19.243-10.173 25.951-5.254 72.58 18.184 96.758-31.293 88.203-82.951 231.215-82.951 231.215-59.032 41.267-118.631 102.845-177.674 160.789l57.056 185.729z" fill="#dda6ff"/><path d="M264.561 1225.22a1.999 1.999 0 0 1-1.911-1.413l-57.057-185.729a2.003 2.003 0 0 1 .511-2.015 9417.225 9417.225 0 0 0 23.949-23.616c50.362-49.779 102.427-101.245 153.46-137.021 3.663-10.144 52.374-145.061 82.322-229.452-23.334-25.062-28.145-71.462-17.751-97.976 19.058-56.61 56.333-71.869 84.241-74.685 28.108-2.835 60.467 5.641 91.112 23.868 29.672 17.649 54.756 42.433 70.631 69.786a2 2 0 0 1 .21 1.49c-17.349 69.247-107.796 330.086-127.145 376.835-20.02 48.372-31.638 71.062-66.47 101.126-50.49 43.578-233.083 177.072-234.921 178.416a2.003 2.003 0 0 1-1.18.385zm-54.787-187.154 55.874 181.881c21.266-15.57 185.094-135.725 232.401-176.556 34.338-29.637 45.204-50.861 65.388-99.627 19.249-46.509 108.958-305.178 126.761-375.488-33.243-56.634-102.249-96.547-157.472-90.981-38.343 3.868-66.313 28.791-80.885 72.073-10.089 25.744-4.631 71.666 17.725 94.728a2 2 0 0 1 .449 2.061c-30.937 87.2-82.438 229.795-82.955 231.226-.14.388-.397.723-.735.959-50.919 35.595-103.047 87.122-153.46 136.951a9803.325 9803.325 0 0 1-23.091 22.774z" fill="#dda6ff"/><path d="M246.897 1165.765a2 2 0 0 1-1.069-3.691c1.435-.905 143.94-90.791 185.116-116.679 60.195-37.847 85.931-56.997 118.76-152.118 5.715-16.559 20.627-61.829 36.415-109.758 17.81-54.067 36.227-109.975 45.999-138.603a2 2 0 1 1 3.786 1.292c-9.765 28.608-28.178 84.506-45.985 138.563-15.793 47.942-30.709 93.226-36.433 109.811-33.271 96.402-59.369 115.82-120.412 154.2-41.173 25.887-183.676 115.771-185.111 116.676-.331.209-.7.309-1.065.309z" fill="#28242e"/><path d="M206.516 1310.124c6.756 18.943-21.868 21.516-36.977 21.516-29.379 0-45.617-14.586-47.553-31.404-10.532-5.17-17.77-9.934-29.552-28.521-12.557-19.811-12.506-35.822-12.506-35.822s-20.058-15.553-27.503-27.299-4.945-30.292-4.945-30.292-18.172-6.18-34.842-32.479c-16.669-26.299-9.842-42.671 4.145-47.359 18.493-6.198 50.826-11.324 61.799 3.274 6.07 8.075 55.203 118.921 76.811 193.17 7.123 24.477 49.11 9.578 51.12 15.216z" fill="#fff"/><path d="M169.539 1333.64c-32.949 0-47.103-17.034-49.393-32.083-9.892-4.927-17.503-10.002-29.4-28.771-11.089-17.495-12.586-32.008-12.786-35.897-3.776-2.99-20.41-16.475-27.223-27.224-6.546-10.328-5.845-25.227-5.406-30.07-4.802-2.097-20.098-10.167-34.38-32.7-11.582-18.272-11.122-30.25-8.696-37.079 2.233-6.288 7.168-10.993 13.895-13.247 18.112-6.07 51.981-12.066 64.033 3.968 5.875 7.816 55.448 119.302 77.133 193.813 4.36 14.98 24.013 13.628 37.018 12.733 8.047-.553 12.904-.888 14.066 2.371 1.837 5.151 1.444 9.642-1.169 13.348-6.65 9.432-26.469 10.84-37.691 10.84zM52.3 1094.244c-12.443 0-26.194 3.206-34.88 6.117-5.617 1.882-9.558 5.614-11.397 10.792-2.128 5.993-2.415 16.686 8.305 33.599 16.034 25.296 33.625 31.597 33.801 31.658.9.311 1.46 1.215 1.334 2.158-.024.179-2.307 17.976 4.652 28.955 7.17 11.313 26.842 26.636 27.04 26.789.49.38.776.967.774 1.587 0 .152.14 15.727 12.195 34.745 11.746 18.531 18.695 22.863 28.744 27.796.611.3 1.028.891 1.106 1.567 1.573 13.67 14.45 29.633 45.566 29.633 17.778 0 30.324-3.333 34.422-9.145 1.807-2.563 2.055-5.659.756-9.457-1.25-.575-6.146-.239-10.109.034-13.416.924-35.873 2.469-41.133-15.605-21.583-74.16-70.691-184.813-76.49-192.527-4.865-6.472-14.321-8.696-24.685-8.696z" fill="#28242e"/><path d="m179.603 1245.362.585 38.918s13.43 7.282 19.224 10.722c7.148 4.244 10.213 9.192 7.103 15.122-48.976 0-59.954-3.633-71.362-25.351-29.237-55.659-53.768-121.843-55.973-128.026-14.599-40.938 5.775-44.251-.64-55.132 17.117.053 58.381 2.193 58.381 2.193l5.467-19.95c3.035-8.657 15.46-9.509 19.024-1.045 1.062 2.523 1.203 5.463-.31 8.82-2.119 4.699-11.399 18.036-16.531 24.372-13.107 16.183-33.674 33.289-25.863 58.81 3.598 11.755 26.582 28.87 33.859 43.432l7.294-6.055c6.879-5.71 17.152-4.482 22.508 2.691l6.564 8.791c3.642 4.877 2.807 11.748-1.895 15.6l-7.435 6.09z" fill="#b153e0"/><path d="M206.516 1312.124c-49.84 0-61.46-4.198-73.133-26.42-30.817-58.668-55.847-127.615-56.086-128.285-9.465-26.542-4.577-37.857-1.343-45.345 1.885-4.365 2.644-6.422.863-9.443a1.998 1.998 0 0 1-.012-2.01 1.957 1.957 0 0 1 1.741-1.005c15.05.047 49.078 1.72 56.87 2.113l5.042-18.399c.012-.045.026-.089.042-.133 1.71-4.878 6.208-8.134 11.46-8.295 5.045-.167 9.376 2.579 11.294 7.135 1.399 3.324 1.288 6.829-.33 10.418-2.284 5.064-11.799 18.634-16.8 24.808-2.081 2.569-4.292 5.098-6.633 7.775-12.355 14.129-25.131 28.74-18.872 49.19 1.73 5.654 8.614 12.981 15.901 20.737 6.283 6.688 12.758 13.58 16.639 20.188l5.424-4.502c3.75-3.112 8.484-4.511 13.327-3.934 4.853.577 9.136 3.051 12.061 6.968l6.564 8.791a13.348 13.348 0 0 1-2.23 18.344l-6.688 5.479.553 36.784c3.263 1.776 13.44 7.337 18.263 10.201 10.822 6.426 10.244 13.21 7.854 17.771a1.999 1.999 0 0 1-1.771 1.071zM81.547 1103.642c.885 3.522-.438 6.587-1.92 10.018-2.986 6.912-7.498 17.358 1.438 42.416.238.667 25.168 69.339 55.86 127.768 10.75 20.466 21.071 24.215 68.312 24.28 1.094-2.825.928-6.786-6.845-11.401-5.695-3.381-19.022-10.611-19.156-10.684a2.002 2.002 0 0 1-1.047-1.728l-.585-38.918c-.009-.61.26-1.191.732-1.578l7.435-6.09a9.352 9.352 0 0 0 1.56-12.855l-6.564-8.791a13.53 13.53 0 0 0-9.328-5.389c-3.745-.443-7.403.634-10.3 3.04l-7.294 6.055a2.002 2.002 0 0 1-3.066-.645c-3.37-6.744-10.387-14.212-17.172-21.435-7.615-8.105-14.808-15.761-16.811-22.305-6.911-22.579 7.219-38.738 19.686-52.994 2.315-2.648 4.502-5.149 6.536-7.66 5.273-6.51 14.277-19.535 16.262-23.935 1.159-2.57 1.254-4.933.29-7.222-1.28-3.041-4.073-4.785-7.485-4.689-3.562.109-6.611 2.288-7.786 5.558l-5.448 19.88a1.99 1.99 0 0 1-2.032 1.468c-.389-.02-36.996-1.909-55.271-2.163z" fill="#b153e0"/><path d="M191.242 1300.759c-.223 0-.445-.038-.656-.111l-21.841-7.585a17.643 17.643 0 0 1-10.344-9.563l-17.45-39.855a1.736 1.736 0 0 1-.04-.1c-2.931-7.81-.845-16.49 5.316-22.114l4.949-4.518a2 2 0 0 1 2.696 2.954l-4.949 4.518a16.211 16.211 0 0 0-4.286 17.706l17.428 39.805a13.635 13.635 0 0 0 7.992 7.389l21.487 7.462c.75-.063 1.263-.369 1.527-.912.368-.756.218-1.804-.365-2.546a2 2 0 0 1 3.147-2.47c1.516 1.933 1.844 4.651.815 6.766-.981 2.017-2.959 3.174-5.426 3.174zm193.939-422.058a2 2 0 0 1-1.035-3.713l24.597-14.843a2 2 0 0 1 2.067 3.425l-24.597 14.843c-.323.195-.68.288-1.031.288z" fill="#28242e"/><path d="m864.025 1108.909 29.16 109.984c27.515 74.494 72.885 60.536 121.178 32.095l2.202-116.784-152.539-25.295z" fill="#fff"/><path d="M951.696 1275.83c-5.847 0-11.576-.871-17.109-2.842-18.252-6.505-32.409-23.973-43.279-53.402a1.88 1.88 0 0 1-.057-.18l-29.16-109.984a2.001 2.001 0 0 1 2.26-2.485l152.539 25.295a2.002 2.002 0 0 1 1.673 2.011l-2.202 116.784a2 2 0 0 1-.985 1.686c-20.088 11.831-42.631 23.119-63.68 23.119zm-56.603-57.542c10.429 28.195 23.788 44.855 40.837 50.932 23.589 8.407 51.807-4.955 76.453-19.389l2.148-113.937-147.78-24.506z" fill="#28242e"/><path d="M1120.906 1314.411c3.944 19.721-19.931 17.23-30.516 17.23s-25.118-1.246-40.36-8.615c-11.123 4.463-21.5 8.615-43.507 8.615-23.456 0-36.951-8.615-36.951-8.615s-23.875 8.615-37.781 8.615c-13.907 0-28.232-12.04-28.232-12.04s-14.949 12.04-46.085 12.04-41.311-14.531-37.781-28.855c4.666-18.938 17.645-48.991 35.85-50.445 14.342-1.145 261.423 42.365 265.364 62.07z" fill="#fff"/><path d="M1098.034 1333.741c-1.551 0-3.035-.029-4.406-.056a171.548 171.548 0 0 0-3.238-.044c-15.141 0-28.377-2.759-40.429-8.432-10.931 4.381-21.558 8.432-43.437 8.432-20.713 0-33.772-6.505-37.164-8.418-4.547 1.588-24.842 8.418-37.569 8.418-12.228 0-24.437-8.569-28.292-11.532-4.342 2.934-19.347 11.532-46.025 11.532-21.634 0-31.504-6.801-35.974-12.505-4.115-5.252-5.447-11.939-3.75-18.828 4.57-18.548 17.638-50.363 37.633-51.959 7.724-.611 73.837 10.208 137.145 23.251 35.816 7.379 66.183 14.543 87.818 20.717 36.265 10.349 41.774 15.966 42.521 19.703 1.101 5.505.273 9.954-2.461 13.224-4.797 5.735-14.442 6.499-22.372 6.499zm-48.003-12.715c.298 0 .596.067.871.199 11.711 5.663 24.628 8.416 39.489 8.416 1 0 2.116.022 3.317.045 7.616.148 19.126.375 23.631-5.01 1.945-2.326 2.471-5.555 1.607-9.873-.386-1.929-8.333-12.791-127.224-37.286-65.731-13.542-129.324-23.719-136.02-23.182-17.76 1.417-30.05 32.625-34.067 48.929-1.417 5.752-.375 11.078 3.015 15.404 3.922 5.006 12.801 10.973 32.825 10.973 30.083 0 44.687-11.481 44.831-11.598a2.003 2.003 0 0 1 2.541.026c.138.116 13.948 11.572 26.947 11.572 13.393 0 36.867-8.411 37.103-8.496a2.002 2.002 0 0 1 1.755.195c.128.082 13.358 8.301 35.875 8.301 21.65 0 31.905-4.115 42.762-8.471.239-.096.492-.144.745-.144z" fill="#28242e"/><path d="m1030.932 1243.908 86.301 52.901c5.98 3.666 7.612 11.618 3.56 17.35s-208.388-30.592-218.47-32.872c-42.393-9.586-34.284-28.568-46.909-28.975 9.209-14.429 33.107-48.136 33.107-48.136l-13.924-15.298c-5.688-7.198.245-18.149 9.302-16.627 2.7.453 5.259 1.909 7.283 4.984 2.835 4.306 9.131 19.284 11.735 27.01 6.652 19.735 10.089 46.263 35.826 53.329 11.855 3.254 38.616-6.996 54.81-5.347l-1.209-9.403c-1.14-8.867 5.397-16.886 14.323-17.57l10.939-.838c6.069-.465 11.425 3.918 12.161 9.952l1.164 9.54z" fill="#b153e0"/><path d="M1120.794 1316.159c-.097 0-.194-.007-.291-.021-8.512-1.25-208.579-30.63-218.62-32.9-27.485-6.215-34.426-16.401-39.019-23.142-2.677-3.93-4.009-5.672-7.514-5.785a2 2 0 0 1-1.622-3.075c8.097-12.687 27.728-40.531 32.231-46.902l-12.842-14.109a1.8 1.8 0 0 1-.09-.106c-3.205-4.056-3.547-9.598-.871-14.12 2.572-4.347 7.199-6.541 12.073-5.719 3.556.597 6.457 2.568 8.622 5.856 3.054 4.639 9.422 19.941 11.96 27.471 1.056 3.133 2.008 6.354 3.016 9.764 5.319 18 10.82 36.613 31.445 42.275 5.703 1.566 15.575-.326 26.028-2.329 9.012-1.727 18.3-3.515 25.959-3.245l-.899-6.992c-.622-4.833.732-9.579 3.812-13.362 3.085-3.791 7.469-6.083 12.342-6.457l10.939-.838a13.343 13.343 0 0 1 14.3 11.704l1.047 8.582 85.478 52.397a13.986 13.986 0 0 1 6.455 9.198c.796 3.871-.024 7.782-2.307 11.011a2 2 0 0 1-1.633.846zm-262.057-65.301c3.449 1.138 5.329 3.896 7.433 6.985 4.24 6.222 10.647 15.625 36.595 21.493 9.481 2.144 199.421 30.067 217.029 32.654a10.029 10.029 0 0 0 1.022-6.883 10.029 10.029 0 0 0-4.627-6.594l-86.301-52.901a2 2 0 0 1-.94-1.463l-1.164-9.54a9.347 9.347 0 0 0-10.023-8.2l-10.939.838a13.53 13.53 0 0 0-9.546 4.994 13.485 13.485 0 0 0-2.947 10.327l1.209 9.402a1.998 1.998 0 0 1-2.186 2.244c-7.501-.766-17.565 1.164-27.298 3.029-10.923 2.092-21.24 4.067-27.839 2.257-22.771-6.251-28.854-26.836-34.221-44.999-.997-3.373-1.938-6.559-2.97-9.621-2.676-7.939-8.856-22.518-11.51-26.549-1.55-2.355-3.495-3.7-5.944-4.111-3.257-.543-6.233.878-7.968 3.812-1.815 3.067-1.606 6.809.526 9.552l13.874 15.244a2 2 0 0 1 .153 2.503c-.226.318-21.419 30.226-31.417 45.525z" fill="#b153e0"/><path d="M1096.299 1293.784c-.404 0-.812-.042-1.219-.126l-86.398-18.042c-8.165-1.705-14.38-8.114-15.832-16.328l-1.166-6.598a2 2 0 0 1 3.939-.696l1.166 6.598a16.212 16.212 0 0 0 12.711 13.109l86.398 18.042c1.025.214 1.651-.391 1.873-.661.221-.271.691-1.003.279-1.967a2 2 0 0 1 3.678-1.574 5.896 5.896 0 0 1-.861 6.075 5.893 5.893 0 0 1-4.567 2.168z" fill="#28242e"/><path d="M1016.564 1134.204s4.12-193.44 4.83-260.822-20.279-98.209-61.258-149.528c-31.833-39.866-202.573-223.489-253.461-270.959-50.137 1.037-151.886 1.463-171.045 36.627-23.317 42.793-4.838 138.727 83.233 155.021 35.758 39.095 209.911 214.145 209.911 214.145l-7.488 282.229 195.278-6.712z" fill="#dda6ff"/><path d="M821.285 1142.916a1.999 1.999 0 0 1-1.999-2.053l7.466-281.373c-11.283-11.346-173.628-174.65-208.914-213.105-36.708-6.989-65.562-28.995-81.292-62.021-15.068-31.639-16.168-71.033-2.673-95.799 18.904-34.694 111.059-36.475 166.119-37.539l6.641-.131a2.005 2.005 0 0 1 1.406.537c51.546 48.083 221.343 230.702 253.66 271.173 39.89 49.956 62.423 81.59 61.695 150.797-.702 66.622-4.789 258.909-4.83 260.844a2.001 2.001 0 0 1-1.931 1.957l-195.278 6.712h-.069zM705.902 454.91l-5.832.115c-50.637.979-144.893 2.8-162.684 35.454-12.92 23.711-11.78 61.611 2.772 92.165 15.259 32.038 43.339 53.322 79.069 59.932a2 2 0 0 1 1.112.617c35.321 38.617 208.112 212.333 209.853 214.083.386.388.596.917.582 1.464l-7.432 280.104 191.263-6.574c.428-20.222 4.125-195.866 4.789-258.91.714-67.848-21.498-99.015-60.821-148.259-32.14-40.25-200.508-221.351-252.67-270.191z" fill="#dda6ff"/><path d="M978.398 1137.444h-.039a2.001 2.001 0 0 1-1.962-2.038c.036-1.891 3.597-189.673 4.666-238.3 1.259-57.291-24.973-117.201-77.968-178.066-13.11-15.058-72.151-78.075-129.248-139.017-48.587-51.859-94.479-100.843-112.19-120.369a2 2 0 0 1 2.963-2.687c17.689 19.502 63.571 68.475 112.146 120.321 57.121 60.968 116.187 124.013 129.345 139.125 53.669 61.641 80.232 122.464 78.95 180.781-1.069 48.622-4.63 236.397-4.666 238.289a2 2 0 0 1-1.999 1.962z" fill="#28242e"/><path d="M828.774 860.687a2 2 0 0 1-1.999-2.044l.631-28.722c.024-1.104.927-2.006 2.043-1.956a2 2 0 0 1 1.956 2.043l-.568 25.833 13.652-4.798a2 2 0 1 1 1.326 3.774l-16.378 5.756c-.216.076-.44.113-.663.113zM663.139 692.793a1.992 1.992 0 0 1-1.433-.605c-21.248-21.825-36.001-37.229-43.868-45.802-36.708-6.989-65.562-28.995-81.292-62.021-15.068-31.639-16.168-71.033-2.673-95.799a2 2 0 1 1 3.513 1.914c-12.92 23.711-11.78 61.611 2.772 92.165 15.259 32.038 43.339 53.322 79.069 59.932a2 2 0 0 1 1.112.617c7.718 8.438 22.6 23.984 44.234 46.205a2 2 0 0 1-1.433 3.395z" fill="#28242e"/><path d="M313.871 262.115c-39.395 23.066-33.913 97.22 17.663 115.343-11.84 45.472 12.677 86.911 50.038 92.292-6.117 44.06 38.249 89.423 68.373 78.978l256.729-95.834c18.695-5.552-4.345-80.02-59.597-82.574 15.422-41.124-14.195-79.298-56.97-89.386 17.243-31.636-3.002-82.784-47.016-97.466-8.242.367-19.743.83-34.848 3.551-50.912 9.171-148.619 46.747-181.249 66.832-6.125 3.77-8.041 4.811-13.124 8.261z" fill="#28242e"/><path d="M440.653 552.242c-10.007 0-20.992-4.492-31.394-13.034-17.176-14.104-32.834-40.354-29.906-67.79-16.203-2.887-30.389-12.442-40.111-27.072-12.114-18.229-15.754-42.055-10.084-65.63-23.819-9.129-40.142-31.489-42.769-58.8-2.47-25.683 7.65-48.472 26.413-59.493 3.771-2.559 5.784-3.783 9.109-5.806 1.148-.699 2.451-1.491 4.036-2.467 32.965-20.292 130.789-57.882 181.942-67.097 14.887-2.682 26.244-3.187 34.536-3.556l.577-.026c.246-.015.49.023.722.101 22.444 7.487 40.394 24.684 49.247 47.181 7.048 17.911 7.039 36.28.062 50.853 23.187 6.129 42.794 20.74 52.776 39.445 8.283 15.521 9.661 32.564 4.033 49.452 21.656 1.9 36.576 14.297 45.39 24.587 10.379 12.118 17.854 28.072 19.507 41.638 1.33 10.912-1.377 18.219-7.426 20.064l-256.668 95.811c-3.169 1.099-6.522 1.639-9.992 1.64zm102.155-366.757-.205.009c-8.179.364-19.382.862-34.005 3.496-50.784 9.148-147.858 46.441-180.555 66.567-1.592.98-2.9 1.776-4.054 2.478-3.287 2-5.271 3.207-8.995 5.735a1.648 1.648 0 0 1-.113.071c-17.441 10.211-26.833 31.552-24.511 55.692 1.99 20.684 14.022 46.268 41.827 56.038a2 2 0 0 1 1.272 2.391c-6 23.045-2.682 46.435 9.103 64.17 9.468 14.249 23.42 23.354 39.284 25.639a2 2 0 0 1 1.696 2.254c-3.693 26.602 11.524 52.363 28.243 66.092 12.908 10.599 26.574 14.507 37.493 10.722l256.685-95.818c.043-.016.086-.031.13-.044 3.979-1.181 5.722-7.076 4.663-15.767-2.561-21.021-23.9-61.048-63.783-62.891a2 2 0 0 1-1.78-2.7c6.225-16.601 5.214-33.436-2.924-48.686-9.801-18.366-29.477-32.591-52.632-38.051a2.003 2.003 0 0 1-1.297-2.904c7.558-13.867 7.885-32.004.898-49.761-8.372-21.275-25.288-37.561-46.441-44.733z" fill="#28242e"/><path d="M486.186 432.574a2.001 2.001 0 0 1-.701-3.873l160.892-60.252a2 2 0 0 1 1.402 3.746l-160.892 60.252a2.006 2.006 0 0 1-.701.127zM381.573 471.75a2.001 2.001 0 0 1-.701-3.873l29.798-11.159a2 2 0 1 1 1.402 3.746l-29.798 11.159a2.006 2.006 0 0 1-.701.127zm122.45-156.679a2 2 0 0 1-.7-3.874l86.085-32.135a2 2 0 1 1 1.399 3.747l-86.085 32.135c-.23.086-.467.127-.699.127zm-172.488 64.387a2 2 0 0 1-.7-3.874l146.196-54.573a2 2 0 1 1 1.399 3.747l-146.196 54.573c-.23.086-.467.127-.699.127z" fill="#fff"/><path d="M517.782 667.391c-.152 0-.307-.018-.461-.054-21.563-5.1-40.255-10.157-50.601-20.432a2 2 0 1 1 2.818-2.838c9.323 9.259 26.681 14.129 46.861 18.94l11.931-40.388c-15.231-19.314-25.156-44.102-26.898-67.039l-55.71 20.796a2 2 0 0 1-1.399-3.747l58.239-21.74c.599-.225 1.267-.148 1.8.204s.866.937.897 1.575c1.108 23.193 11.143 48.714 26.844 68.269.41.511.544 1.19.358 1.818l-12.762 43.203a2 2 0 0 1-1.917 1.434zm128.549-41.437c-.044 0-.087-.001-.132-.004-18.747-1.231-45.482-5.869-66.386-20.97a2.02 2.02 0 0 1-.335-.305c-16.849-19.291-26.74-42.789-29.396-69.842a2 2 0 0 1 1.291-2.069l92.293-34.451a2.002 2.002 0 0 1 2.658 1.469c3.574 17.302 21.063 56.166 27.42 68.713a2 2 0 0 1 .026 1.754l-25.629 54.555a2 2 0 0 1-1.81 1.149zm-63.991-24.083c19.612 14.083 44.682 18.668 62.763 19.993l24.633-52.436c-5.341-10.729-22.105-47.225-26.817-66.567L554.22 535.97c2.782 25.485 12.237 47.646 28.119 65.9z" fill="#28242e"/><path d="M885.866 94.747c-19.51 29.799-52.755 79.891-52.755 79.891l107.825 57.676s40.542-84.065 50.254-100.925-90.72-58.945-105.323-36.641z" fill="#fff"/><path d="M940.935 234.314c-.326 0-.65-.08-.943-.236l-107.825-57.676a2.002 2.002 0 0 1-.723-2.87c.333-.501 33.465-50.428 52.749-79.881 11.669-17.82 66.28.452 92.128 16.339 14.253 8.762 19.994 16.506 16.601 22.396-9.565 16.604-49.78 99.956-50.185 100.796a2.002 2.002 0 0 1-1.802 1.132zm-104.943-60.402 104.048 55.655c6.188-12.812 40.468-83.644 49.415-99.177 2.002-3.476-3.833-9.986-15.23-16.992-27.006-16.6-77.641-31.374-86.687-17.556l-1.673-1.096 1.673 1.096c-17.19 26.255-45.377 68.768-51.547 78.069z" fill="#28242e"/><path d="M914.175 114.554s27.142-40.274 36.416-60.814-10.379-36.314-31.928-7.841c-5.837 7.712-22.706 33.225-38.84 57.935z" fill="#fff"/><path d="M914.174 116.554a2 2 0 0 1-1.657-3.117c.271-.401 27.153-40.369 36.251-60.52 3.708-8.211 2.631-16.124-2.618-19.241-5.005-2.972-14.789-1.24-25.892 13.431-4.795 6.336-18.198 26.331-38.76 57.821a1.999 1.999 0 1 1-3.349-2.186c20.906-32.018 34-51.548 38.92-58.048 12.681-16.756 24.393-18.455 31.125-14.456 7.059 4.193 8.795 14.196 4.221 24.327-9.238 20.459-35.468 59.458-36.58 61.108a1.997 1.997 0 0 1-1.66.882z" fill="#28242e"/><path d="M933.861 121.195s34.27-54.041 40.88-66.56c16.361-30.987-12.92-46.045-32.97-14.295-8.96 14.188-42.705 68.166-42.705 68.166-8.332 12.976 27.908 22.207 34.795 12.689z" fill="#fff"/><path d="M933.859 123.195a2 2 0 0 1-1.687-3.072c.342-.54 34.303-54.116 40.801-66.422 7.506-14.215 4.827-24.072-1.158-27.534-6.816-3.944-18.744.025-28.353 15.24-8.855 14.022-37.625 60.043-37.915 60.506a2.001 2.001 0 0 1-3.392-2.12c.29-.463 29.065-46.493 37.925-60.522 11.468-18.16 25.528-21.316 33.739-16.567 7.642 4.422 11.438 16.299 2.691 32.864-6.572 12.446-39.559 64.488-40.96 66.697a1.998 1.998 0 0 1-1.691.929z" fill="#28242e"/><path d="M922.683 119.699s38.406-62.133 49.53-75.395c23.87-28.458 39.51-2.8 30.294 16.632-8.707 18.36-42.087 69.975-42.087 69.975-12.993 18.34-52.227 14.679-37.738-11.212z" fill="#fff"/><path d="M960.419 132.911a2 2 0 0 1-1.677-3.086c.333-.515 33.408-51.714 41.959-69.746 4.467-9.419 2.791-20.872-3.659-25.009-5.979-3.836-14.47-.002-23.296 10.519-10.905 13.001-44.854 67.909-45.195 68.462a2.001 2.001 0 0 1-3.404-2.103c1.401-2.268 34.444-55.709 45.534-68.93 14.575-17.377 24.801-13.702 28.52-11.316 8.056 5.168 10.398 18.948 5.114 30.09-8.664 18.269-40.848 68.092-42.214 70.204a1.998 1.998 0 0 1-1.681.914z" fill="#28242e"/><path d="M975.99 162.68s45.134-75.261 48.639-86.872c6.798-22.523-13.927-32.928-31.213-14.963-9.638 10.017-45.33 62.871-45.33 62.871-15.715 26.511 11.653 57.069 27.904 38.964z" fill="#fff"/><path d="M975.988 164.68a2 2 0 0 1-1.714-3.029c.45-.75 45.046-75.179 48.439-86.421 2.703-8.956.867-16.577-4.792-19.89-6.385-3.737-15.439-1.033-23.064 6.892-9.409 9.779-44.758 62.077-45.114 62.604a2 2 0 0 1-3.315-2.238c1.461-2.164 35.9-53.112 45.547-63.139 8.952-9.304 19.93-12.275 27.968-7.571 7.336 4.295 9.865 13.682 6.601 24.498-3.536 11.714-46.99 84.241-48.838 87.323a2 2 0 0 1-1.717.972z" fill="#28242e"/><path d="M958.068 202.963s14.461-8.087 20.236-12.539c28.401-21.894 24.903-42.535 15.534-69.427-10.602-30.432-41.141-24.255-35.981 4.3.766 4.24 2.511 10.05 5.261 20.65-36.271-9.858-54.855 25.378-54.855 25.378z" fill="#fff"/><path d="M958.07 204.964a2 2 0 0 1-.978-3.746c.143-.08 14.399-8.067 19.991-12.377 28.006-21.589 23.827-41.464 14.866-67.185-5.355-15.37-15.608-20.319-22.869-18.408-6.261 1.646-11.551 8.992-9.255 21.694.496 2.745 1.416 6.173 2.808 11.363.696 2.593 1.502 5.6 2.421 9.141a2 2 0 0 1-2.531 2.412c-16.979-5.291-29.207 1.244-32.55 3.373a2 2 0 1 1-2.148-3.374c9.013-5.739 20.937-7.438 32.484-4.744-.563-2.132-1.076-4.043-1.539-5.771-1.418-5.286-2.355-8.779-2.881-11.688-2.75-15.217 4.133-24.161 12.174-26.274 8.986-2.359 21.473 3.191 27.663 20.96 9.208 26.433 13.862 48.494-16.202 71.669-5.824 4.49-19.885 12.368-20.48 12.701a1.99 1.99 0 0 1-.975.255z" fill="#28242e"/><path d="m854.188 142.719-19.076 28.888-79.617 120.57s-57.821-38.64-96.491-64.712c-51.351-34.622-81.765-44.707-115.749-43.975-36.008.002-40.791 111.028-1.488 142.855 0 0 98.926 71.488 132.302 90.591 63.485 36.337 129.289 44.19 182.047-23.38 23.963-30.69 61.037-85.41 76.438-108.375a44.216 44.216 0 0 0 7.471-23.274l.909-29.592 17.133-29.351-103.88-60.245z" fill="#fff"/><path d="M762.147 446.427c-26.937 0-56.858-9.318-89.071-27.755-33.086-18.938-131.49-89.991-132.48-90.706a1.433 1.433 0 0 1-.087-.067c-13.261-10.738-22.682-30.936-26.527-56.872-3.457-23.314-1.811-47.709 4.402-65.256 5.544-15.658 14.377-24.281 24.871-24.281 36.107-.781 67.796 11.232 116.867 44.316 34.562 23.302 85.03 57.05 94.813 63.59l97.584-147.78a1.997 1.997 0 0 1 2.672-.628l103.88 60.245a2 2 0 0 1 .724 2.739l-16.877 28.912-.894 29.084a46.177 46.177 0 0 1-7.809 24.326c-14.981 22.34-52.427 77.631-76.523 108.492-24.992 32.009-54.752 49.309-88.452 51.42-2.34.147-4.707.22-7.094.22zM542.985 324.756c2.582 1.864 99.451 71.768 132.079 90.444 75.161 43.019 133.869 35.538 179.477-22.875 24.016-30.758 61.396-85.955 76.353-108.258a42.174 42.174 0 0 0 7.134-22.222l.909-29.592a2 2 0 0 1 .272-.947l16.122-27.619-100.512-58.292-97.653 147.883a2 2 0 0 1-2.78.561c-.578-.387-58.267-38.941-96.498-64.717-48.303-32.567-79.366-44.394-114.587-43.633-11.743 0-18.285 13.544-21.144 21.617-12.477 35.238-5.312 96.42 20.83 117.65z" fill="#28242e"/><path d="M940.933 234.315c-.337 0-.679-.085-.993-.266l-105.822-60.708a2 2 0 0 1 1.99-3.47l105.822 60.708a2 2 0 0 1-.997 3.735zm-173.442 97.457a2 2 0 0 1-1.905-1.393l-11.996-37.595a2 2 0 0 1 3.022-2.267l21.299 14.338a2 2 0 0 1-2.234 3.318l-16.529-11.127 10.248 32.117a2 2 0 0 1-1.905 2.608z" fill="#28242e"/><path d="M348.207 242.571c38.404-17.798 73.563-31.118 106.111-41.347l-57.75 145.528c-33.502-31.891-51.761-66.269-48.361-104.181z" fill="#fff"/><path d="M359.498 237.343v32.017a24.555 24.555 0 0 0 11.188 20.597l14.692 9.534s33.043-66.27 50.532-100.446c23.544-46.01 54.071-20.39 68.114-11.22 0 0-11.444 2.377-19.834 4.741-12.419 15.508-8.318 56.173-9.196 75.446a73.393 73.393 0 0 1-6.569 27.185l-32.814 71.747c-9.012 19.704-34.422 25.231-50.805 11.051l-52.046-45.05c-11.663-10.095-16.572-25.789-13.215-40.844 3.728-16.722 8.974-35.952 13.064-49.674 8.203-27.52 25.648-40.758 60.559-19.303-15.702 6.167-33.669 14.22-33.669 14.22z" fill="#fff"/><path d="M377.516 317.217a2 2 0 0 1-1.788-2.894l7.859-15.725a2 2 0 0 1 3.578 1.788l-7.859 15.725a2 2 0 0 1-1.791 1.106z" fill="#28242e"/><path d="M405.951 387.936c-8.181 0-16.087-2.917-22.455-8.429l-52.046-45.05c-12.098-10.472-17.408-26.869-13.859-42.792 3.249-14.57 8.146-33.19 13.099-49.811 4.715-15.817 12.165-25.771 22.144-29.584 10.839-4.142 24.761-1.063 41.379 9.149a2 2 0 0 1-.316 3.566c-13.184 5.177-28.146 11.768-32.4 13.657v30.718a22.474 22.474 0 0 0 10.276 18.919l12.813 8.315c5.664-11.35 33.952-67.995 49.541-98.46 7.712-15.072 17.027-24.095 27.685-26.82 15.587-3.989 30.292 6.015 40.022 12.632 1.174.798 2.271 1.544 3.281 2.204a2.001 2.001 0 0 1-.686 3.632c-.111.023-10.904 2.272-19.065 4.531-8.769 11.713-8.493 38.331-8.291 57.841.061 5.929.119 11.529-.082 15.947a75.052 75.052 0 0 1-6.749 27.926l-32.814 71.747c-4.56 9.97-13.32 17.025-24.032 19.355-2.483.54-4.977.806-7.445.806zM362.968 214.48c-3.136 0-6.041.508-8.705 1.527-8.756 3.346-15.397 12.427-19.738 26.99-4.929 16.536-9.799 35.055-13.029 49.538-3.229 14.485 1.588 29.389 12.572 38.897l52.046 45.05c7.328 6.343 16.962 8.8 26.432 6.739 9.47-2.06 17.214-8.296 21.245-17.11l32.814-71.747a71.046 71.046 0 0 0 6.39-26.443c.196-4.307.139-9.853.078-15.724-.223-21.53-.5-48.326 9.554-60.881a1.997 1.997 0 0 1 1.019-.675c5.043-1.421 11.228-2.857 15.366-3.777-9.134-6.207-22.656-15.136-36.208-11.675-9.498 2.428-17.948 10.761-25.115 24.767-17.284 33.776-50.192 99.765-50.522 100.428a2 2 0 0 1-2.878.785l-14.692-9.534a26.461 26.461 0 0 1-12.099-22.275v-32.017a2 2 0 0 1 1.182-1.825c.166-.074 15.405-6.896 29.958-12.747-9.758-5.52-18.346-8.291-25.669-8.291z" fill="#28242e"/><path d="M393.167 225.123a2.002 2.002 0 0 1-.702-3.873l37.668-14.123a2 2 0 1 1 1.404 3.745l-37.668 14.123a1.99 1.99 0 0 1-.702.128z" fill="#28242e"/></svg></g><g transform="translate(1147.0 79.0) rotate(0.0 149.0 159.5) scale(0.991518853830823 0.9937385128189153)"><svg width="300.549" height="321.01" viewBox="0 0 300.549 321.01"><path d="m296.212 65.702-7.774-13.023c-.204-.39-286.342 199.691-284.183 202.577l-.019.008 8.455 14.165.019-.013a11.148 11.148 0 0 0 6.606 4.599l181.917 44.669a11.206 11.206 0 0 0 13.234-7.14l83.392-235.333c1.317-3.717.735-6.516-1.647-10.509z" fill="#fff"/><g fill="#28242e"><path d="M203.94 321.014a13.31 13.31 0 0 1-3.183-.387L18.84 275.958a13.165 13.165 0 0 1-7.607-5.164 1.903 1.903 0 0 1-.258-.34L2.52 256.289a2 2 0 0 1-.252-1.375c.033-.23.103-.459.211-.677.625-1.266 2.285-4.63 143.642-104.41a26760.12 26760.12 0 0 1 96.9-68.067c44.449-31.069 44.557-31.07 45.394-31.08a1.991 1.991 0 0 1 1.742.975l7.774 13.024c2.312 3.875 3.504 7.432 1.815 12.202l-83.392 235.333a13.162 13.162 0 0 1-12.413 8.801zM14.254 268.143c.04.049.078.099.114.153a9.177 9.177 0 0 0 5.426 3.777l181.917 44.669a9.177 9.177 0 0 0 10.872-5.865l83.392-235.333c1.066-3.009.707-5.152-1.479-8.816L287.793 55.5c-11.077 7.536-75.628 52.604-139.467 97.666C34.342 233.624 10.85 251.683 6.682 255.458l7.572 12.686zm-8.296-13.937.002.003zm-.088-.131zm-.004-.005.004.005zm-.004-.006.003.004zm-.005-.007.004.005z"/><path d="m192.454 304.093-181.916-44.67c-6.439-1.581-10.104-8.376-7.89-14.625L86.039 9.465a11.207 11.207 0 0 1 13.234-7.14L281.19 46.994c6.439 1.581 10.104 8.376 7.89 14.625l-83.391 235.334a11.207 11.207 0 0 1-13.234 7.14z"/><path d="M195.161 306.422a13.36 13.36 0 0 1-3.183-.387L10.061 261.366a13.226 13.226 0 0 1-8.473-6.555 13.227 13.227 0 0 1-.825-10.68L84.154 8.797A13.165 13.165 0 0 1 99.75.383l181.917 44.669a13.228 13.228 0 0 1 8.473 6.555 13.23 13.23 0 0 1 .825 10.681l-83.392 235.333a13.162 13.162 0 0 1-12.413 8.801zM96.578 3.997a9.175 9.175 0 0 0-8.653 6.135L4.533 245.466a9.223 9.223 0 0 0 .575 7.445 9.22 9.22 0 0 0 5.907 4.569l181.917 44.669a9.177 9.177 0 0 0 10.872-5.865l83.391-235.333c.867-2.447.657-5.161-.575-7.446s-3.385-3.95-5.906-4.569L98.797 4.267a9.314 9.314 0 0 0-2.219-.27z"/></g><path d="M187.742 290.073 23 250.025c-4.895-1.19-7.686-6.351-6.004-11.099L93.967 21.764a8.5 8.5 0 0 1 10.019-5.42l164.741 40.048c4.895 1.19 7.686 6.351 6.004 11.099L197.76 284.653a8.5 8.5 0 0 1-10.019 5.42z" fill="#fff"/></svg></g><g transform="translate(62.0 402.0) rotate(0.0 528.5 557.0) scale(0.9929544387036168 0.9931637525542318)"><svg width="1064.5" height="1121.668" viewBox="0 0 1064.5 1121.668"><path d="M237.488 540.038c-48.738-7.125-81.728-9.797-81.728-9.797-63.778-23.529-34.246-75.031-5.572-128.332l106.928 12.573c30.291 42.613 8.688 107.508-19.628 125.556z" fill="#fff"/><path d="M237.488 542.038c-.096 0-.193-.007-.289-.021-48.106-7.033-81.271-9.755-81.6-9.782a2 2 0 1 1 .323-3.987c.329.027 33.27 2.73 81.109 9.702 14.116-9.38 26.147-30.52 30.756-54.145 4.955-25.395.766-49.304-11.793-67.441l-106.039-12.469a2 2 0 0 1 .467-3.973l106.928 12.573a1.997 1.997 0 0 1 1.396.828c13.594 19.125 18.199 44.427 12.966 71.248-4.876 24.992-17.888 47.426-33.149 57.153a1.998 1.998 0 0 1-1.075.313z" fill="#28242e"/><path d="M239.504 412.412c-18.176-16.953-45.737-40.763-66.711-51.084s-35.037 12.666-16.211 32.11 37.44 35.538 39.966 37.695c14.192 12.12 63.943.853 42.956-18.721z" fill="#fff"/><path d="M196.547 433.133c-.459 0-.921-.157-1.298-.479-.821-.702-20.34-17.413-40.104-37.825-11.37-11.742-11.204-24.214-5.996-31.365 5.21-7.155 14.838-8.698 24.527-3.93 22 10.826 51.039 36.38 66.712 50.969l4.442.522a2 2 0 0 1-.467 3.973l-5.093-.599a2.002 2.002 0 0 1-1.131-.524c-15.393-14.357-44.465-40.042-66.23-50.752-7.975-3.925-15.458-2.892-19.528 2.696-4.222 5.797-4.116 16.156 5.637 26.229 19.634 20.277 39.013 36.869 39.828 37.565a2 2 0 0 1-1.3 3.521z" fill="#28242e"/><path d="M210.373 474.31c-.33 0-.664-.082-.972-.253-7.111-3.965-12.482-11.398-15.122-20.931-2.192-7.916-2.226-16.392-.192-21.474-4.576-3.965-21.665-18.98-38.942-36.824a2 2 0 1 1 2.874-2.782c19.634 20.277 39.013 36.869 39.828 37.565a2 2 0 0 1 .435 2.518c-1.854 3.225-2.536 11.305-.148 19.929 2.352 8.493 7.045 15.065 13.215 18.504a2 2 0 0 1-.976 3.747z" fill="#28242e"/><path d="M155.761 436.052c-42.943-4.284-47.434-18.868-46.655-28.475 1.607-19.821 31.669-21.079 44.619-19.162 20.525 3.038 26.19 15.213 24.779 22.217-2.161 10.726-12.58 19.54-40.027 16.476z" fill="#fff"/><path d="M155.763 438.052c-.066 0-.133-.003-.2-.01-33.526-3.345-49.827-13.649-48.45-30.627.451-5.561 2.951-10.185 7.431-13.745 10.973-8.719 30.62-8.543 39.474-7.233 13.625 2.017 20.212 7.743 23.338 12.192 2.769 3.941 3.903 8.46 3.109 12.399-1.499 7.439-7.832 18.961-32.605 18.685l8.82 4.563a2 2 0 0 1-.918 3.776zm-11.626-48.288c-9.276 0-20.423 1.728-27.105 7.038-3.578 2.844-5.574 6.523-5.932 10.937-1.014 12.504 10.264 20.832 33.56 24.821l-7.101-3.674a2 2 0 0 1 1.141-3.764c22.296 2.49 35.382-2.658 37.845-14.884.569-2.826-.351-6.306-2.461-9.309-2.676-3.808-8.43-8.726-20.651-10.535-2.614-.387-5.825-.629-9.295-.629z" fill="#28242e"/><path d="M153.453 467.864c-42.943-4.284-47.434-18.868-46.655-28.475 1.607-19.821 31.669-21.079 44.619-19.162 20.525 3.038 26.19 15.213 24.779 22.217-2.161 10.726-12.58 19.54-40.027 16.476z" fill="#fff"/><path d="M153.455 469.864c-.066 0-.133-.003-.2-.01-33.526-3.344-49.827-13.649-48.45-30.627.451-5.561 2.951-10.186 7.431-13.746 10.973-8.719 30.619-8.544 39.474-7.233 13.626 2.017 20.212 7.744 23.338 12.193 2.769 3.94 3.902 8.459 3.109 12.398-1.499 7.44-7.824 18.94-32.604 18.685l8.819 4.563a2 2 0 0 1-.918 3.776zm-11.625-48.288c-9.276 0-20.423 1.728-27.105 7.038-3.579 2.844-5.575 6.523-5.933 10.937-1.014 12.504 10.265 20.832 33.56 24.821l-7.102-3.675a2 2 0 0 1 1.141-3.764c22.296 2.49 35.382-2.658 37.845-14.884.569-2.826-.351-6.306-2.461-9.309-2.676-3.808-8.43-8.726-20.651-10.535-2.614-.387-5.825-.629-9.295-.629z" fill="#28242e"/><path d="M154.76 500.134c-42.943-4.284-47.434-18.868-46.655-28.475 1.607-19.821 31.669-21.079 44.619-19.162 20.525 3.038 26.19 15.213 24.779 22.217-2.161 10.726-12.58 19.54-40.027 16.476z" fill="#fff"/><path d="M154.762 502.134c-.066 0-.133-.003-.2-.01-33.526-3.345-49.827-13.649-48.45-30.627.451-5.561 2.951-10.186 7.431-13.746 10.973-8.719 30.619-8.543 39.474-7.233 13.626 2.017 20.212 7.744 23.338 12.193 2.769 3.94 3.902 8.459 3.109 12.398-1.499 7.44-7.828 18.943-32.605 18.685l8.82 4.564a2 2 0 0 1-.918 3.776zm-11.625-48.289c-9.276 0-20.423 1.728-27.105 7.038-3.579 2.844-5.575 6.523-5.933 10.937-1.014 12.504 10.265 20.833 33.561 24.821l-7.102-3.675a2 2 0 0 1 1.141-3.764c22.296 2.49 35.382-2.658 37.845-14.884.569-2.826-.351-6.306-2.461-9.309-2.676-3.808-8.43-8.726-20.651-10.535-2.614-.387-5.825-.629-9.295-.629z" fill="#28242e"/><path d="M155.76 530.242c-42.943-4.284-47.432-18.792-46.653-28.4 1.607-19.821 31.669-21.079 44.619-19.162 20.525 3.038 26.19 15.213 24.779 22.217-2.161 10.726-12.58 19.54-40.027 16.476l17.282 8.868z" fill="#fff"/><path d="M155.762 532.242a1.96 1.96 0 0 1-.201-.01c-33.521-3.344-49.821-13.623-48.448-30.551.451-5.561 2.951-10.186 7.431-13.746 10.973-8.719 30.619-8.543 39.474-7.233 13.626 2.017 20.212 7.744 23.338 12.193 2.769 3.94 3.902 8.459 3.109 12.398-1.676 8.321-9.389 21.73-42.21 18.069a2 2 0 0 1-1.766-2.209 2.003 2.003 0 0 1 2.21-1.766c22.295 2.49 35.382-2.658 37.845-14.884.569-2.826-.351-6.306-2.461-9.309-2.676-3.808-8.43-8.726-20.651-10.535-9.601-1.421-27.218-.888-36.4 6.408-3.579 2.844-5.575 6.523-5.933 10.937-1.162 14.331 13.93 23.162 44.858 26.248a2 2 0 0 1-.196 3.99z" fill="#28242e"/><path d="M567.381 307.755c-12.744 46.378-20.212 74.767-44.871 151.513-14.298 44.5-38.568 110.764-124.466 101.108-42.374-4.763-90.155 62.724-123.389-15.181l19.463-126.361 90.519 10.644S396.451 397 408.1 364.76c21.725-60.125 37.963-99.829 83.046-137.819l76.234 80.815z" fill="#b153e0"/><path d="M316.559 584.966c-4.48 0-8.895-.723-13.212-2.432-12.093-4.786-22.079-16.743-30.531-36.555a2 2 0 0 1-.137-1.089l19.463-126.362a2 2 0 0 1 2.21-1.682l88.947 10.459c2.449-6.735 12.806-35.232 22.921-63.227 22.041-61.001 38.669-100.775 83.638-138.669a2 2 0 0 1 2.744.157l76.234 80.815a2 2 0 0 1 .474 1.902l-2.982 10.868c-11.16 40.701-19.223 70.108-41.913 140.727-7.622 23.722-17.302 50.772-35.792 71.58-22.041 24.802-52.59 35.2-90.802 30.904-13.64-1.533-28.346 4.926-42.567 11.172-12.85 5.645-26.026 11.431-38.695 11.431zm-39.839-40.033c7.959 18.464 17.154 29.55 28.099 33.882 14.974 5.927 31.418-1.296 48.826-8.942 14.706-6.458 29.911-13.142 44.622-11.484 87.148 9.794 110.04-61.455 122.339-99.733 22.663-70.537 30.717-99.909 41.864-140.561l2.685-9.785-74.161-78.617c-43.125 36.891-59.436 76.032-81.012 135.746-11.516 31.874-23.346 64.397-23.464 64.722a1.998 1.998 0 0 1-2.113 1.303l-88.603-10.418-19.082 123.888z" fill="#b153e0"/><path d="M540.368 408.741a1.998 1.998 0 0 1-1.78-1.086c-8.029-15.613-27.997-30.275-54.785-40.227-25.558-9.495-52.56-12.952-72.227-9.25a2 2 0 1 1-.741-3.93c41.716-7.854 112.885 15.747 131.309 51.579a2 2 0 0 1-1.777 2.915z" fill="#28242e"/><path d="M786.635 324.906c94.801 39.246 149.88 127.7 73.425 234.366-63.768 88.964-107.877 149.161-138.084 188.613 75.502 24.254 118.535 67.938 199.777 126.341-2.825 42.167-22.752 104.975-75.689 113.982-49.481-20.587-109.972-46.113-161.332-68.838-130.646-57.804-210.139-125.617-142.647-236.681 24.785-40.786 167.963-233.535 167.963-233.535s-3.25-157.299 76.587-124.248z" fill="#fff"/><path d="M681.539 337.581c76.119 48.17 131.266 134.274 46.87 235.588-70.39 84.501-185.596 198.945-223.906 240.294-41.001 44.254-91.4 104.501-214.798 185.441-100.108 3.02-105.168-84.845-105.168-84.845L579.71 449.154s25.709-159.743 101.828-111.573z" fill="#fff"/><path d="M846.065 990.207c-.263 0-.524-.052-.768-.153-63.971-26.616-118.265-49.782-161.373-68.855-45.806-20.267-80.706-39.79-106.692-59.683-30.281-23.18-48.959-47.062-57.102-73.011-10.24-32.63-3.617-67.583 20.248-106.855 23.899-39.328 159.188-221.728 167.661-233.143-.127-9.469-.311-98.379 36.575-123.586 11.838-8.09 26.234-8.718 42.788-1.864 26.733 11.067 49.472 25.53 67.584 42.988 19.051 18.362 31.983 39.132 38.438 61.733 11.808 41.345.834 87.217-31.737 132.657-61.297 85.518-105.954 146.55-136.406 186.421 55.805 18.461 94.647 48.079 143.617 85.419 16.746 12.77 34.063 25.974 54.024 40.324a2 2 0 0 1 .828 1.758c-1.68 25.083-8.711 50.685-19.289 70.244-13.911 25.72-33.988 41.48-58.06 45.576a1.993 1.993 0 0 1-.335.028zm-79.988-667.839c-7.075 0-13.494 1.952-19.206 5.854-36.368 24.85-34.843 119.933-34.823 120.891.009.443-.129.877-.394 1.233-1.431 1.927-143.405 193.141-167.859 233.381-23.232 38.231-29.725 72.112-19.85 103.58 7.888 25.135 26.113 48.37 55.717 71.032 25.732 19.699 60.366 39.063 105.879 59.201 42.96 19.008 97.043 42.086 160.754 68.597 22.878-4.079 41.262-18.69 54.646-43.438 10.16-18.785 16.966-43.328 18.738-67.502-19.625-14.13-36.695-27.146-53.209-39.739-49.448-37.705-88.504-67.487-145.106-85.669a2.001 2.001 0 0 1-.976-3.12c30.456-39.778 75.611-101.457 138.046-188.563 31.834-44.413 42.603-89.099 31.141-129.228-12.363-43.289-49.194-79.557-103.707-102.125-7.062-2.924-13.673-4.385-19.793-4.385z" fill="#28242e"/><path d="M284.787 1000.979c-49.353.002-74.454-22.799-86.893-42.289-13.899-21.778-15.301-43.598-15.354-44.516-.03-.513.14-1.018.473-1.41l394.814-464.482c1.469-8.778 17.548-99.039 60.079-118.211 13.758-6.202 28.798-4.244 44.702 5.821 50.376 31.879 81.903 73.486 88.772 117.155 6.292 39.999-7.649 80.844-41.435 121.403-50.765 60.942-123.45 136.03-176.522 190.857-19.725 20.377-36.761 37.976-47.453 49.517-3.628 3.916-7.33 7.958-11.15 12.128-38.547 42.083-91.339 99.717-204.018 173.625a2.003 2.003 0 0 1-1.037.327c-1.684.051-3.347.076-4.978.076zm-98.188-86.258c.387 4.059 2.794 23.288 14.755 41.954 17.809 27.792 47.326 41.314 87.727 40.246 111.936-73.486 164.438-130.804 202.789-172.672 3.825-4.176 7.532-8.223 11.166-12.145 10.722-11.572 27.771-29.186 47.513-49.58 53.029-54.782 125.654-129.808 176.323-190.635 33.016-39.635 46.661-79.41 40.556-118.221-6.688-42.515-37.571-83.142-86.96-114.396-14.696-9.3-28.462-11.169-40.916-5.556-41.809 18.843-57.712 114.79-57.867 115.756a2 2 0 0 1-.451.978L186.599 914.722z" fill="#28242e"/><path d="M789.957 326.519c-38.567-15.748-57.61 10.107-67.397 43.184-12.313-12.02-26.27-22.786-41.022-32.121-76.119-48.171-101.828 111.573-101.828 111.573L287.948 792.401C369.063 805.243 438 940.819 500.206 960.135l266.389-349.182-54.158 149.39s84.286-110.845 147.623-201.071c75.757-107.919 26.008-193.507-70.103-232.753z" fill="#fff"/><path d="M500.206 962.135a1.99 1.99 0 0 1-.593-.09c-28.181-8.751-57.407-40.586-88.349-74.292-38.975-42.456-79.277-86.356-123.629-93.377a2 2 0 0 1-1.211-3.271L528.545 506.26a2 2 0 0 1 3.048 2.59L291.724 791.045c44.329 8.868 84.046 52.13 122.486 94.002 30.071 32.755 58.5 63.724 85.264 72.748l265.531-348.057a2 2 0 0 1 3.471 1.895l-49.643 136.935c17.875-23.69 62.884-83.62 105.66-142.833a2 2 0 0 1 3.242 2.342C773 683.844 714.613 760.783 714.03 761.551a2 2 0 0 1-3.473-1.891l49.707-137.112-258.468 338.799a2 2 0 0 1-1.59.787z" fill="#28242e"/><path d="M826.114 606.906c-19.981-89.445-164.538-111.905-295.192-100.355l25.469-29.963c150.53-29.897 297.214 6.317 292.429 98.605z" fill="#b153e0"/><path d="M826.115 608.906a2 2 0 0 1-1.952-1.564c-8.935-39.998-45.133-69.93-104.68-86.56-50.671-14.152-117.574-18.498-188.384-12.238a1.987 1.987 0 0 1-1.953-1.074 2 2 0 0 1 .253-2.214l25.469-29.963a2 2 0 0 1 1.134-.667c53.577-10.641 106.93-13.111 154.289-7.144 48.115 6.063 86.462 20.441 110.896 41.582 20.999 18.169 30.969 40.453 29.632 66.232-.02.382-.149.75-.371 1.061l-22.706 31.712a2 2 0 0 1-1.626.836zM593.102 501.754c47.652 0 91.563 5.151 127.457 15.176 29.06 8.116 52.818 19.342 70.614 33.366 18.322 14.439 30.362 31.888 35.839 51.922l19.84-27.71c1.09-24.238-8.424-45.236-28.283-62.418-23.834-20.623-61.449-34.675-108.778-40.639-46.738-5.889-99.395-3.48-152.327 6.964l-21.872 25.732c19.566-1.6 38.832-2.393 57.511-2.393z" fill="#b153e0"/><path d="m719.52 250.689 53.699 69.653c103.674 30.432 176.44 126.349 75.601 254.852-19.981-89.445-161.776-110.155-292.429-98.605-18.051-15.644-11.234-34.151-1.754-48.245-19.787-20.77-45.957-48.846-50.134-56.329-6.849-12.272-18.662-71.149-17.025-141.922 30.181-26.637 94.522-58.68 138.479-74.01l93.563 94.607z" fill="#b153e0"/><path d="M487.479 232.092a2 2 0 0 1-1.324-3.5c30.338-26.775 94.571-58.854 139.144-74.399a2 2 0 0 1 1.317 3.777c-44.208 15.417-107.845 47.171-137.814 73.621-.38.335-.853.5-1.323.5zM848.82 577.194a2 2 0 0 1-1.952-1.564c-19.819-88.723-162.954-108.306-290.301-97.049a2 2 0 0 1-1.486-.481c-14.893-12.907-15.896-29.565-2.99-49.529-20.47-21.511-45.183-48.143-49.335-55.582-4.854-8.698-11.605-38.036-15.114-77.282a2 2 0 0 1 3.984-.356c3.423 38.277 10.088 67.565 14.623 75.689 3.138 5.622 20.837 25.483 49.836 55.924a2 2 0 0 1 .211 2.496c-12.497 18.579-12.247 33.329.775 45.061 71.203-6.215 137.781-2.111 187.566 11.568 28.696 7.885 52.137 18.91 69.674 32.77 18.11 14.312 30.024 31.736 35.459 51.842 40.364-52.779 54.112-104.25 39.76-149.06-14.62-45.646-57.219-81.868-116.875-99.379a1.996 1.996 0 0 1-1.021-.698l-53.699-69.653a2 2 0 0 1 3.168-2.442l53.303 69.14c28.358 8.406 53.999 21.63 74.191 38.267 21.986 18.115 37.039 39.495 44.743 63.547 15.07 47.052.219 100.999-42.947 156.008a2 2 0 0 1-1.573.765z" fill="#b153e0"/><path d="M848.818 577.194a2 2 0 0 1-1.95-1.564c-19.819-88.723-162.956-108.306-290.301-97.049a2 2 0 1 1-.352-3.984c71.524-6.323 138.44-2.241 188.423 11.493 28.696 7.885 52.137 18.91 69.674 32.77 19.318 15.266 31.585 34.073 36.46 55.899a2 2 0 0 1-1.954 2.436zM540.887 415.8a1.991 1.991 0 0 1-1.459-.632c-21.528-22.963-33.866-37.154-36.67-42.179-4.854-8.698-11.605-38.036-15.114-77.282a2 2 0 0 1 3.984-.356c3.423 38.277 10.089 67.565 14.623 75.689 1.819 3.259 9.558 13.085 36.096 41.393a2 2 0 0 1-1.458 3.368zm16.602-312.558c27.018 14.702 49.784 14.62 67.787-2.024 0 0-16.468-4.231-13.404-17.146s30.638-32.475 8.17-60.106c-21.6-26.563-50.962-11.377-62.936.383-11.106 3.447-36.21-36.701-91.674-16.77-47.73 17.152-54.751 54.765-51.127 76.492l143.185 19.171z" fill="#28242e"/><path d="M593.627 115.97c-11.173 0-23.45-3.597-36.767-10.794L414.04 86.054a2 2 0 0 1-1.707-1.653c-4.346-26.054 6.776-62.3 52.424-78.703 39.539-14.21 64.222 1.536 78.97 10.944 5.242 3.344 9.81 6.257 12.385 5.887 7.975-7.644 22.369-16.078 37.404-15.236 10.808.604 20.255 5.79 28.08 15.412 17.389 21.385 6.317 38.307-1.768 50.664-2.828 4.322-5.271 8.056-6.008 11.165-2.571 10.835 11.364 14.594 11.959 14.749a2 2 0 0 1 .857 3.405c-9.577 8.854-20.612 13.283-33.008 13.283zM416.054 82.288l141.701 18.972c.242.033.476.109.691.226 25.606 13.933 46.224 14.109 62.904.499-6.238-2.633-13.75-8.566-11.423-18.375.899-3.79 3.519-7.794 6.553-12.431 7.822-11.956 17.556-26.834 2.011-45.951-7.084-8.712-15.563-13.403-25.2-13.942-13.987-.78-27.48 7.317-34.783 14.49a1.991 1.991 0 0 1-.809.483c-4.26 1.322-9.237-1.852-16.124-6.246-15.043-9.596-37.776-24.096-75.466-10.552-42.479 15.266-53.496 48.412-50.055 72.826zm3.065 18.93s5.604 11.145 5.604 22.578c0 11.489-11.1 16.13-18.59 21.65-6.328 4.663-9.611 14.691-4.775 24.148 3.745 7.323 13.88 11.513 24.639 7.438 13.862-5.251 24.223-1.539 33.8 6.493-3.925-26.015-14.505-22.904-18.701-29.653-4.123-6.632 2.881-9.323-3.608-20.691-3.372-5.908-8.07-21.385-8.07-21.385" fill="#28242e"/><path d="M459.799 185.524c-.46 0-.917-.159-1.286-.468-10.341-8.672-20.15-10.571-31.806-6.155-12.424 4.705-23.25-.814-27.128-8.397-5.479-10.714-1.323-21.737 5.369-26.669 1.444-1.064 3.033-2.107 4.571-3.115 6.492-4.259 13.206-8.663 13.206-16.925 0-10.802-5.337-21.573-5.391-21.68a2 2 0 0 1 3.574-1.796c.238.472 5.817 11.705 5.817 23.476 0 10.422-7.975 15.654-15.012 20.27-1.561 1.024-3.036 1.991-4.392 2.99-5.366 3.955-8.655 12.879-4.181 21.628 3.088 6.038 11.902 10.359 22.15 6.479 11.412-4.323 21.573-3.176 31.619 3.659-2.876-13.185-7.806-16.308-11.85-18.869-2.151-1.363-4.183-2.649-5.659-5.024-2.214-3.562-1.775-6.294-1.35-8.936.481-2.99.979-6.082-2.297-11.821-3.444-6.034-8.052-21.154-8.247-21.794a2 2 0 0 1 3.828-1.162c.046.153 4.671 15.33 7.893 20.974 3.975 6.964 3.308 11.108 2.772 14.438-.378 2.347-.627 3.897.797 6.188.993 1.598 2.498 2.551 4.403 3.757 4.926 3.12 11.671 7.393 14.577 26.654a2 2 0 0 1-1.977 2.298z" fill="#28242e"/><path d="M429.467 121.144c-7.964-12.427-13.218-25.034-15.162-37.072-2.644-24.467 5.91-47.236 34.63-62.741 44.205-23.866 80.268-4.335 101.542 34.482 2.678-18.668 24.716-16.852 32.31-2.772 5.619 10.417.31 27.186-20.02 30.264 9.252 46.674-20.807 74.695-55.212 87.957-42.122 16.237-85.569-8.443-78.088-50.117z" fill="#fff"/><path d="M480.98 178.339c-14.245 0-27.613-4.356-37.847-12.807-13.1-10.817-18.682-26.406-15.77-43.966-8.044-12.707-13.102-25.211-15.034-37.175a1.852 1.852 0 0 1-.014-.104c-3.08-28.501 8.92-50.275 35.668-64.716 21.585-11.653 42.126-13.795 61.051-6.367 15.772 6.191 29.782 19.059 40.736 37.355 2.139-5.51 6.384-9.117 12.132-10.14 8.643-1.536 18.167 3.371 22.644 11.671 3.125 5.792 3.139 12.958.04 19.168-3.492 6.997-10.366 11.797-19.482 13.661 9.902 55.971-36.309 80.297-56.83 88.208-9.07 3.496-18.354 5.212-27.293 5.212zm-64.693-94.535c1.884 11.611 6.884 23.81 14.863 36.26.272.424.374.936.285 1.433-2.943 16.392 2.116 30.935 14.245 40.951 15.542 12.834 38.975 15.496 61.155 6.947 19.82-7.64 64.756-31.285 53.969-85.702a2.002 2.002 0 0 1 1.662-2.367c8.806-1.333 15.39-5.543 18.541-11.854 2.519-5.046 2.526-10.834.019-15.483-3.681-6.825-11.428-10.878-18.422-9.631-5.601.997-9.205 5.166-10.148 11.739a2 2 0 0 1-3.734.678c-23.395-42.688-59.42-54.965-98.837-33.684-25.161 13.584-36.464 34.013-33.597 60.714z" fill="#28242e"/><path d="M494.739 111.191c2.769-13.928-15.112-12.365-14.552-.891-14.07-9.427-21.6 8.388-6.322 10.926-2.171 3.346.547 13.941 11.203 11.626 14.306-3.108 14.342-17.105 9.671-21.661z" fill="#fff"/><path d="M494.739 111.191c2.769-13.928-15.112-12.365-14.552-.891-14.07-9.427-21.6 8.388-6.322 10.926-2.171 3.346.547 13.941 11.203 11.626 14.306-3.108 14.342-17.105 9.671-21.661z" fill="#dda6ff"/><g fill="#28242e"><path d="M471.684 123.071a2 2 0 0 1-.193-3.99c12.589-1.239 26.866-10.707 31.177-20.676a2 2 0 0 1 3.671 1.588c-4.9 11.333-20.357 21.682-34.456 23.068-.067.007-.133.01-.198.01zm102.732-58.727c-.157 0-.316-.019-.475-.058l-15.059-3.671a2 2 0 0 1-1.469-2.417 1.998 1.998 0 0 1 2.417-1.469l15.059 3.671a2.001 2.001 0 0 1-.472 3.944z"/><path d="M565.278 69.277a2 2 0 0 1-1.938-2.498l3.804-14.812a2 2 0 1 1 3.874.996l-3.804 14.812a2 2 0 0 1-1.936 1.503zm-131.395 29.71a2 2 0 0 1-1.771-2.927c3.543-6.775 8.107-8.828 11.312-9.357 4.946-.815 10.48 1.29 15.183 5.778a2 2 0 1 1-2.762 2.894c-3.785-3.612-8.075-5.334-11.77-4.725-3.355.553-6.188 2.997-8.418 7.264a2 2 0 0 1-1.774 1.074z"/><path d="M444.489 100.899c3.678 6.499 9.016 10.435 11.922 8.79s2.281-8.247-1.397-14.746c-1.47-2.598-3.206-4.787-4.946-6.373-3.803-.587-8.718.016-8.807.836-.517 4.772 2.026 9.37 3.228 11.493zm37.372-27.904a2 2 0 0 1-1.771-2.927c3.542-6.775 8.107-8.828 11.312-9.357 4.946-.816 10.48 1.29 15.183 5.778a2 2 0 1 1-2.762 2.894c-3.785-3.613-8.075-5.334-11.77-4.725-3.355.554-6.188 2.997-8.418 7.264a2 2 0 0 1-1.774 1.074z"/><path d="M492.468 74.907c3.678 6.499 9.016 10.435 11.922 8.79s2.281-8.247-1.397-14.746c-1.47-2.598-3.206-4.787-4.946-6.373-3.803-.587-8.718.016-8.807.836-.517 4.772 2.026 9.37 3.228 11.493z"/><path d="M550.476 55.812c-30.518-.825-69.191-19.68-78.789-43.224-4.198 27.845-23.781 55.077-57.382 71.483-1.262-5.723-8.092-60.106 57.382-75.68 62.451-14.855 78.789 47.421 78.789 47.421s7.253 12.919 10.384 18.958c6.025 11.621 2.173 15.424 6.025 22.216 3.92 6.913 13.009 4.231 15.881 30.383-9.245-8.412-19.448-12.539-33.511-7.851-10.915 3.638-20.872-.957-24.319-8.426-4.452-9.645-.766-19.532 5.745-23.936 7.707-5.213 12.447-8.809 6.166-19.88-4.592-8.096-11.657-15.68-11.657-15.68"/><path d="M582.766 129.37c-.488 0-.97-.178-1.346-.521-9.982-9.083-19.708-11.375-31.532-7.433-12.603 4.2-23.198-1.75-26.768-9.485-5.043-10.926-.446-21.772 6.44-26.431 7.878-5.33 10.863-7.866 5.548-17.237-3.876-6.832-9.639-13.379-11.057-14.949-21.19-6.333-42.082-18.849-51.489-34.548-6.304 28.003-26.92 52.23-57.379 67.102a2.002 2.002 0 0 1-2.831-1.367c-.036-.164-3.524-16.576 3.754-35.301 5.792-14.901 20.056-34.415 55.119-42.756 33.236-7.905 53.576 5.847 64.787 18.775 11.366 13.108 15.723 27.656 16.329 29.828.964 1.72 7.407 13.231 10.295 18.801 3.525 6.798 3.858 11.19 4.127 14.72.203 2.676.364 4.789 1.862 7.43.927 1.636 2.227 2.634 3.872 3.898 4.508 3.463 10.118 7.774 12.258 27.253a1.997 1.997 0 0 1-1.988 2.218zm-22.375-13.799c6.918 0 13.385 2.312 19.708 7.005-2.219-13.497-6.351-16.672-10.04-19.506-1.764-1.355-3.587-2.756-4.915-5.097-1.939-3.419-2.149-6.179-2.371-9.101-.253-3.332-.54-7.107-3.689-13.182-2.58-4.977-8.053-14.791-9.803-17.918-5.863-.244-12.11-1.151-18.434-2.641 2.389 2.967 5.367 6.976 7.74 11.159 7.352 12.96.485 17.605-6.785 22.524-5.521 3.735-9.167 12.519-5.049 21.441 2.842 6.158 11.473 10.833 21.871 7.366 4.09-1.363 7.996-2.05 11.769-2.05zM490.258 8.078c-5.735 0-11.773.752-18.108 2.259-58.377 13.886-57.456 59.305-56.252 70.698 29.978-15.433 49.533-40.36 53.812-68.745a2 2 0 0 1 3.83-.457c7.029 17.242 29.291 31.146 51.919 37.781.196.026.388.082.571.166 7.374 2.123 14.771 3.469 21.681 3.905-1.702-4.949-6.169-16.024-14.811-25.948-11.392-13.083-25.686-19.659-42.642-19.659z"/></g><path d="M550.478 57.812c-.04 0-.08 0-.121-.003-9.404-.56-19.627-2.496-30.385-5.753a2 2 0 1 1 1.16-3.828c10.459 3.167 20.372 5.047 29.464 5.588a2 2 0 0 1-.117 3.996zm29.647 58.186a2.002 2.002 0 0 1-1.901-1.379c-2.301-7.044-5.282-9.335-8.165-11.55-1.764-1.355-3.587-2.756-4.915-5.096-1.939-3.419-2.149-6.179-2.371-9.101-.253-3.332-.54-7.107-3.689-13.182a2 2 0 0 1 3.551-1.841c3.525 6.799 3.858 11.19 4.127 14.72.203 2.676.364 4.789 1.862 7.43.927 1.636 2.227 2.634 3.872 3.898 3.05 2.343 6.845 5.259 9.53 13.479a2 2 0 0 1-1.902 2.621zm222.027 331.849-21.936 9.86-52.497-117.748 15.95-8.046c57.228 12.874 65.809 79.021 58.483 115.934z" fill="#fff"/><path d="M716.37 456.235c35.714 16.395 63.846 1.473 63.846 1.473 26.944-12.886-22.578-119.971-52.497-117.748 0 0-47.062 99.88-11.349 116.275z" fill="#fff"/><path d="M750.519 465.901c-10.098 0-22.072-1.921-34.984-7.848-5.603-2.572-9.644-7.164-12.01-13.646-11.753-32.193 20.985-102.33 22.384-105.3.19-.404.51-.732.908-.933l15.95-8.046a1.998 1.998 0 0 1 1.34-.166c58.216 13.096 67.702 79.497 60.006 118.274a2 2 0 0 1-1.142 1.435l-21.935 9.86-.003-.006c-1.963.989-13.608 6.376-30.515 6.376zm-21.278-124.47c-3.247 7.08-32.583 72.505-21.958 101.605 2.015 5.519 5.26 9.241 9.921 11.381 34.328 15.758 61.803 1.667 62.076 1.523a1.74 1.74 0 0 1 .115-.056l20.99-9.435c7.013-37.271-2.134-99.691-56.461-112.424l-14.684 7.407z" fill="#28242e"/><path d="M727.719 339.959c-56.41-30.699-96.538-25.642-119.405-10.745-19.791 12.893-12.348 38.177 15.064 32.149 7.238-1.592 39.477-11.553 69.67 11.708 15.591 12.011 57.372-20.758 34.671-33.112z" fill="#fff"/><path d="M693.046 375.072c-.426 0-.855-.135-1.219-.416-27.423-21.127-56.616-14.081-66.209-11.765-.711.171-1.317.317-1.81.426-15.698 3.453-24.438-2.827-27.384-9.854-3.662-8.736.779-19.396 10.798-25.924 13.111-8.542 29.808-12.706 48.287-12.049 22.318.796 46.935 8.438 73.166 22.713a2 2 0 0 1-1.912 3.514c-25.682-13.977-49.704-21.456-71.397-22.229-17.647-.628-33.543 3.314-45.96 11.403-8.374 5.456-12.195 14.102-9.293 21.026 2.323 5.54 9.542 10.417 22.836 7.495a98.032 98.032 0 0 0 1.73-.408c10.054-2.427 40.648-9.812 69.589 12.484a2 2 0 0 1-1.222 3.584z" fill="#28242e"/><path d="M708.862 356.492s-70.504 12.482-96.89 22.494c-36.826 13.973-32.787 44.733.521 40.819 44.406-5.217 102.074-22.16 102.074-22.16 21.71-7.6 17.429-39.66-5.705-41.153z" fill="#fff"/><path d="M607.075 422.133c-12.015 0-20.698-4.929-22.74-13.28-2.397-9.802 5-23.417 26.927-31.737 26.26-9.964 94.365-22.082 97.251-22.593a2 2 0 1 1 .697 3.939c-.703.125-70.621 12.564-96.529 22.395-19.537 7.413-26.375 19.217-24.461 27.047 1.84 7.523 11.277 11.415 24.039 9.916 43.725-5.137 101.168-21.924 101.743-22.093a2.001 2.001 0 0 1 1.128 3.838c-.578.17-58.34 17.05-102.404 22.228-1.952.229-3.84.341-5.652.341z" fill="#28242e"/><path d="M711.774 380.777s-77.725 21.3-94.11 27.532c-36.113 13.737-29.447 46.454 2.81 40.548 48.021-8.792 99.908-25.946 99.908-25.946 23.546-5.131 5.847-45.835-8.608-42.134z" fill="#fff"/><path d="M612.937 451.587c-12.661 0-19.213-6.598-21.028-13.1-2.738-9.806 3.931-24.017 25.044-32.047 16.287-6.195 91.115-26.721 94.292-27.592a2 2 0 0 1 1.058 3.858c-.776.213-77.82 21.346-93.927 27.473-18.768 7.139-24.878 19.122-22.614 27.233 2.249 8.055 11.808 11.776 24.352 9.479 47.329-8.666 99.123-25.708 99.641-25.878a2 2 0 1 1 1.256 3.798c-.52.172-52.569 17.298-100.176 26.015-2.859.523-5.489.762-7.897.762z" fill="#28242e"/><path d="M711.382 413.116c-25.004 10.506-53.058 29.827-68.632 47.26-15.573 17.433 2.795 37.152 26.579 24.236 23.784-12.915 44.285-26.525 47.041-28.378 15.485-10.417 21.469-54.236-4.988-43.118z" fill="#fff"/><path d="M654.426 490.807c-7.063 0-12.677-2.925-15.967-7.081-5.494-6.94-4.395-16.628 2.799-24.682 15.69-17.563 44.207-37.208 69.349-47.771a2 2 0 0 1 1.549 3.688c-24.652 10.358-52.579 29.583-67.915 46.749-5.922 6.629-6.936 14.115-2.646 19.535 4.451 5.624 14.458 8.302 26.779 1.611 24.815-13.475 45.99-27.682 46.879-28.28a2.001 2.001 0 0 1 2.233 3.319c-.896.603-22.224 14.912-47.203 28.477-5.758 3.126-11.132 4.436-15.857 4.436z" fill="#28242e"/><path d="m1061.221 952.57-80.831 140.242a50.837 50.837 0 0 1-44.045 25.451h-56.963a9 9 0 0 1-9-9 9 9 0 0 1 9-9h58.522a27.889 27.889 0 0 0 24.163-13.962l82.583-143.282c2.724-4.726 8.842-6.22 13.438-3.281a9.564 9.564 0 0 1 3.134 12.833z" fill="#fff"/><path d="m979.787 912.731-58.034-38.506-45.835 79.803c-4.857-1.979-10.49-.097-13.14 4.516l-16.714 29.664 77.904 32.127.196.081v.005c-.028.11-7.764 31.449-13.25 49.484-23.552 4.7-38.871 9.806-34.531 30.359h61.234a28.355 28.355 0 0 0 14.963-4.281l.044-.028a28.547 28.547 0 0 0 1.552-1.04l.113-.08c.476-.346.941-.707 1.396-1.082.061-.05.123-.099.183-.15.422-.354.832-.722 1.233-1.101.083-.079.169-.155.251-.235.369-.357.726-.728 1.077-1.106.101-.109.205-.214.305-.324.324-.361.634-.735.941-1.114.11-.135.224-.265.332-.403.297-.381.578-.776.856-1.174.1-.142.206-.278.303-.422.357-.53.698-1.074 1.021-1.632l.025-.039 84.372-146.386c-21.603-14.348-44.455-23.742-66.795-26.934z" fill="#28242e"/><path d="M937.617 1102.263h-61.234a2.001 2.001 0 0 1-1.957-1.587c-1.542-7.304-.802-13.114 2.262-17.763 5.607-8.504 18.567-11.885 32.658-14.735 4.675-15.571 10.826-40.011 12.462-46.573l-76.505-31.55a1.998 1.998 0 0 1-.98-2.831l16.714-29.664c2.825-4.919 8.593-7.278 13.955-5.936l45.028-78.396a2 2 0 0 1 2.84-.67l57.659 38.258c22.034 3.229 45.249 12.624 67.171 27.183a2 2 0 0 1 .626 2.665l-84.372 146.386a2.59 2.59 0 0 1-.069.112 28.06 28.06 0 0 1-1.05 1.677 9.084 9.084 0 0 1-.221.311l-.104.144c-.297.424-.599.847-.916 1.255a9.05 9.05 0 0 1-.241.295l-.115.138c-.326.404-.659.804-1.006 1.19l-.328.35c-.374.403-.756.799-1.151 1.182l-.271.254c-.428.404-.867.798-1.319 1.177l-.135.111c-.548.451-1.045.837-1.555 1.207l-.121.087c-.542.389-1.095.759-1.66 1.112-4.877 3.027-10.416 4.612-16.066 4.612zm-59.577-4h59.577a26.356 26.356 0 0 0 15.392-4.972l1.28 1.544-1.175-1.618c.443-.322.875-.657 1.298-1.006l.082-.067.089-.073c.392-.329.773-.671 1.146-1.023l.231-.216c.345-.334.677-.678 1.002-1.03l.287-.305c.297-.331.585-.679.87-1.031l.31-.375c.275-.353.536-.72.794-1.09l.284-.395c.33-.491.647-.996.947-1.515.018-.03.048-.08.068-.109l83.386-144.68c-21.113-13.743-43.344-22.58-64.404-25.589a2.007 2.007 0 0 1-.823-.313l-56.256-37.327-44.773 77.953a1.999 1.999 0 0 1-2.489.856c-3.949-1.61-8.528-.036-10.651 3.66l-15.596 27.68 76.009 31.346a2 2 0 0 1 1.199 2.241c-.098.406-7.831 31.708-13.298 49.679a1.998 1.998 0 0 1-1.522 1.379c-16.439 3.28-26.828 6.5-31.278 13.25-2.233 3.388-2.888 7.7-1.988 13.148z" fill="#28242e"/><path d="M942.819 1048.636c-1.54 0-3.101-.198-4.65-.608l-18.879-4.998a2 2 0 0 1 1.023-3.867l18.879 4.998a13.985 13.985 0 0 0 15.938-6.902l12.328-22.855a11.5 11.5 0 0 0 .83-9.071 11.502 11.502 0 0 0-5.974-6.875l-86.61-42.348a2 2 0 1 1 1.757-3.593l86.605 42.346c3.858 1.873 6.711 5.156 8.029 9.243s.922 8.418-1.116 12.197l-12.328 22.855a17.97 17.97 0 0 1-15.832 9.479zm52.775-77.027c-11.028 0-20-8.972-20-20s8.972-20 20-20 20 8.972 20 20-8.972 20-20 20zm0-36c-8.823 0-16 7.178-16 16s7.177 16 16 16 16-7.178 16-16-7.177-16-16-16zm-57.98 166.654a2 2 0 0 1-1.983-1.757c-2.548-20.841-20.995-28.528-24.757-28.603a2 2 0 0 1-1.96-2.039c.022-1.104.937-2.02 2.039-1.96 6.825.134 25.971 10.214 28.648 32.116a2 2 0 0 1-1.987 2.243z" fill="#fff"/><path d="M936.345 1120.263h-56.963c-6.065 0-11-4.935-11-11s4.935-11 11-11a2 2 0 0 1 0 4c-3.86 0-7 3.14-7 7s3.14 7 7 7h56.963c17.407 0 33.62-9.369 42.312-24.449l80.831-140.242a7.552 7.552 0 0 0-2.478-10.149 7.501 7.501 0 0 0-5.869-.976 7.499 7.499 0 0 0-4.759 3.57 2 2 0 1 1-3.465-1.998 11.461 11.461 0 0 1 7.275-5.458 11.457 11.457 0 0 1 8.972 1.491 11.546 11.546 0 0 1 3.789 15.516l-80.831 140.242c-9.404 16.316-26.945 26.452-45.778 26.452z" fill="#28242e"/><path d="M11.703 1119.668h66.104l171.105-13.601c5.342-.423 9.329-5.097 8.906-10.439-.423-5.342-5.097-9.329-10.439-8.906l-170.145 13.54H11.703A9.703 9.703 0 0 0 2 1109.965a9.703 9.703 0 0 0 9.703 9.703z" fill="#fff"/><path d="m289.705 998.904-75.152-51.396.191-.21c3.882-4.281 3.054-11.012-1.751-14.223l-28.455-19.016-96.186 113.158-23.845 28.053s-8.72 3.631-17.507 6.951c-25.278 9.548-35.879 17.042-35.876 38.042h66.683l172.675-13.717c.536-20.873-1.116-40.668-8.019-57.881 15.402-9.295 31.188-19.286 47.242-29.76z" fill="#28242e"/><path d="M77.807 1102.262H11.123a2 2 0 0 1-2-2c-.003-22.137 11.464-30.204 37.17-39.913 7.542-2.849 15.12-5.964 17.002-6.743l119.718-140.843a2.001 2.001 0 0 1 2.635-.368l28.455 19.016a11.454 11.454 0 0 1 5.007 8.128 11.455 11.455 0 0 1-1.679 7.514l73.403 50.199a1.999 1.999 0 0 1-.036 3.326c-16.634 10.854-31.654 20.327-45.859 28.926 5.752 15.145 8.152 33.351 7.543 57.091a2 2 0 0 1-1.841 1.942l-172.675 13.717a2.086 2.086 0 0 1-.158.006zm-64.651-4h64.572l170.796-13.568c.448-23.121-2.077-40.727-7.916-55.286a2 2 0 0 1 .823-2.457c13.875-8.373 28.514-17.577 44.673-28.088l-72.679-49.705a1.998 1.998 0 0 1-.352-2.995l.191-.21a7.459 7.459 0 0 0-1.381-11.216l-26.973-18.026-118.877 139.854c-.205.241-.463.43-.755.551-.088.037-8.851 3.683-17.569 6.976-24.638 9.306-33.937 16.07-34.55 34.17z" fill="#28242e"/><path d="M77.619 1102.262a2 2 0 0 1-1.997-2.13c1.226-18.751-3.754-36.161-12.391-43.322a2 2 0 0 1 2.553-3.079c9.727 8.064 15.155 26.38 13.83 46.662a2 2 0 0 1-1.994 1.87zm40.756-53.689c-3.453 0-6.921-1.088-9.821-3.316l-21.421-16.454a2 2 0 1 1 2.436-3.172l21.421 16.454c4.987 3.83 12.202 3.182 16.427-1.476l85.653-94.445a2.001 2.001 0 0 1 2.963 2.687l-85.653 94.445c-3.156 3.48-7.569 5.276-12.006 5.276zm113.071-14.607a2.001 2.001 0 0 1-.573-3.916l8.4-2.517-7.692-11.292a2 2 0 1 1 3.306-2.252l9.229 13.55a2 2 0 0 1-1.079 3.042l-11.017 3.301a2.016 2.016 0 0 1-.575.084zm-17.999 41.304c-11.028 0-20-8.972-20-20s8.972-20 20-20 20 8.972 20 20-8.972 20-20 20zm0-36c-8.822 0-16 7.178-16 16s7.178 16 16 16 16-7.178 16-16-7.177-16-16-16z" fill="#fff"/><path d="M77.807 1121.667H11.703c-6.453 0-11.703-5.25-11.703-11.702s5.25-11.703 11.703-11.703a2 2 0 0 1 0 4c-4.247 0-7.703 3.456-7.703 7.703s3.455 7.703 7.703 7.703h66.025l171.026-13.594a7.65 7.65 0 0 0 5.252-2.68 7.655 7.655 0 0 0 1.819-5.607c-.336-4.234-4.056-7.407-8.288-7.07a1.996 1.996 0 0 1-2.152-1.835 2.001 2.001 0 0 1 1.836-2.152c6.435-.513 12.081 4.309 12.591 10.741.247 3.116-.734 6.142-2.763 8.52s-4.862 3.824-7.979 4.071l-171.105 13.601a2.105 2.105 0 0 1-.158.006z" fill="#28242e"/><path d="M607.617 162.973c11.34 24.333 5.55 68.858-45.532 88.992-40.788 16.076-66.064-6.255-64.577-29.868.621-9.707 10.769-16.409 16.64-11.677-4.148 16.013 10.405 38.354 42.958 25.523 38.939-15.347 38.425-50.871 31.965-65.156-3.242-7.035 14.758-16.035 18.546-7.814z" fill="#b153e0"/><path d="M535.892 259.367c-10.036 0-19.035-2.623-26.198-7.836-9.606-6.991-14.908-18.041-14.183-29.559.389-6.083 4.23-11.743 9.557-14.085 3.751-1.65 7.517-1.294 10.334.977a2 2 0 0 1 .681 2.059c-1.929 7.447.714 15.937 6.577 21.125 7.726 6.836 19.698 7.56 33.712 2.036 15.116-5.958 25.395-15.424 30.551-28.136 5.178-12.767 3.895-26.443.325-34.335-1.015-2.202-.659-4.721 1.009-7.08 2.975-4.208 9.515-7.253 14.581-6.787 3.076.283 5.417 1.84 6.592 4.385 6.647 14.264 6.794 32.362.39 48.412-5.347 13.403-17.842 31.792-47.003 43.285-9.388 3.7-18.522 5.541-26.926 5.541zm-26.205-48.501c-1.19 0-2.278.362-3.008.683-3.217 1.415-6.834 5.359-7.175 10.677-.639 10.143 4.051 19.89 12.545 26.071 12.032 8.757 30.002 9.417 49.303 1.808 27.831-10.969 39.699-28.375 44.754-41.046 6.002-15.044 5.889-31.957-.302-45.241l-.004-.008c-.575-1.248-1.664-1.929-3.329-2.083-3.599-.335-8.822 2.105-10.948 5.113-.831 1.176-1.045 2.222-.636 3.11 3.927 8.682 5.366 23.635-.257 37.5-5.505 13.573-16.844 24.069-32.791 30.354-20.893 8.235-32.669 1.804-37.829-2.762-6.699-5.928-9.799-15.092-8.122-23.698a5.082 5.082 0 0 0-2.202-.479z" fill="#28242e"/><path d="m743.668 331.91 32.826-16.56 58.484 115.934-32.826 16.56z" fill="#b153e0"/><path d="M802.153 449.848a2 2 0 0 1-1.787-1.1l-58.483-115.934a2 2 0 0 1 .885-2.687l32.826-16.559a2 2 0 0 1 2.687.885l58.483 115.934a1.999 1.999 0 0 1-.885 2.686l-32.826 16.559a1.988 1.988 0 0 1-.899.215zm-55.798-117.049 56.681 112.362 29.254-14.757-56.681-112.362z" fill="#b153e0"/><path d="m736.782 289.917 65.066 12.648-25.354 12.79 58.483 115.934c67.645 42.981 81.424-41.153 111.318-57.386 75.962-41.248 78.827-145.656-10.807-173.384-81.969-25.357-142.851-42.766-192.917-53.234-32.202-6.733-71.147-5.84-116.615 8.797l110.825 133.835z" fill="#b153e0"/><path d="M869.599 445.379c-10.844 0-22.664-4.124-35.694-12.403a1.995 1.995 0 0 1-.713-.787l-58.483-115.934a1.999 1.999 0 0 1 .885-2.686l20.134-10.157-59.327-11.532a2.001 2.001 0 0 1 .763-3.927l65.067 12.648a2 2 0 0 1 .519 3.749l-23.569 11.889 57.333 113.654c20.03 12.599 36.815 14.776 51.303 6.662 12.998-7.279 22.559-21.495 31.805-35.243 8.282-12.314 16.105-23.946 25.719-29.167 37.337-20.274 59.034-57.901 55.274-95.858-3.476-35.093-27.429-62.013-65.718-73.858-91.303-28.245-147.142-43.654-192.735-53.187-35.575-7.438-74.466-4.496-115.593 8.744a2 2 0 0 1-1.226-3.808c41.795-13.455 81.375-16.435 117.637-8.851 45.724 9.56 101.668 24.996 193.099 53.281 20.575 6.365 37.101 16.84 49.119 31.133 10.994 13.075 17.701 29.034 19.397 46.151 3.918 39.563-18.591 78.724-57.346 99.768-8.751 4.751-16.308 15.988-24.309 27.884-9.508 14.137-19.339 28.755-33.17 36.5-6.345 3.553-13.049 5.334-20.173 5.334z" fill="#b153e0"/><path d="M801.851 304.565c-.127 0-.255-.012-.384-.037l-96.625-18.782a2.001 2.001 0 0 1 .763-3.927l96.625 18.782a2.001 2.001 0 0 1-.379 3.964zm33.128 128.724a2 2 0 0 1-1.787-1.1l-58.483-115.934a2 2 0 0 1 3.572-1.802l58.483 115.934a2 2 0 0 1-1.784 2.902z" fill="#28242e"/><path d="M800.769 450.47a2 2 0 0 1-.899-3.788l34.21-17.182a1.997 1.997 0 0 1 1.97.099c20.234 12.856 37.168 15.132 51.767 6.955 12.998-7.279 22.559-21.495 31.805-35.243 8.282-12.314 16.105-23.946 25.719-29.167a2 2 0 1 1 1.909 3.515c-8.751 4.751-16.308 15.988-24.309 27.884-9.508 14.137-19.339 28.755-33.17 36.5-15.764 8.828-33.733 6.716-54.905-6.463l-33.202 16.675a1.986 1.986 0 0 1-.896.213z" fill="#28242e"/><path d="m274.656 545.195-37.168-5.157 19.628-125.555 37.003 4.351z" fill="#b153e0"/><path d="M274.658 547.195c-.092 0-.184-.006-.277-.019l-37.168-5.157a2.005 2.005 0 0 1-1.331-.788 2.005 2.005 0 0 1-.371-1.502l19.628-125.556a1.998 1.998 0 0 1 2.21-1.677l37.003 4.351a1.999 1.999 0 0 1 1.743 2.291L276.632 545.5a2 2 0 0 1-1.974 1.695zm-34.88-8.858 33.201 4.606 18.848-122.366-33.032-3.884-19.016 121.644z" fill="#b153e0"/><path d="M274.658 547.196a2.004 2.004 0 0 1-1.979-2.305l19.463-126.362a2 2 0 1 1 3.953.609L276.632 545.5a2 2 0 0 1-1.974 1.696zm479.035-252.16a2 2 0 0 1-1.91-1.409c-5.201-16.783-6.686-45.494-3.875-74.929 3.008-31.502 10.052-55.863 19.325-66.836a2.001 2.001 0 0 1 3.056 2.582c-19.083 22.582-25.236 103.95-14.684 138a2 2 0 0 1-1.911 2.592zM554.635 430.344a2 2 0 0 1-.135-3.995l20.94-1.444c1.105-.088 2.057.755 2.133 1.857a2 2 0 0 1-1.858 2.133l-20.94 1.444a2.209 2.209 0 0 1-.14.005zm183.406-93.59a2 2 0 0 1-.902-3.787l132.519-66.85a2 2 0 1 1 1.802 3.572l-132.519 66.85a1.988 1.988 0 0 1-.899.215zm-42.758 447.989a2 2 0 0 1-1.586-3.216l31.044-40.542a2 2 0 1 1 3.176 2.432l-31.044 40.542a1.997 1.997 0 0 1-1.589.784zm-273.527-348.22c-.09 0-.18-.006-.272-.018l-37.116-5.045a2.001 2.001 0 0 1-.216-3.922l26.152-6.542a2 2 0 1 1 .971 3.881l-16.07 4.02 26.817 3.646a2 2 0 0 1-.267 3.981z" fill="#28242e"/></svg></g><g transform="translate(164.0 754.0) rotate(0.0 68.0 87.0) scale(0.9941665813827687 1.003929171066069)"><svg width="136.798" height="173.319" viewBox="0 0 136.798 173.319"><path d="M134.798 55.684C116.632 38.721 89.084 14.896 68.116 4.563S33.072 17.21 51.887 36.664s37.42 35.559 39.945 37.718c.775.663-9.375 21.989 13.804 41.185 14.702 12.176 29.163-40.277 29.163-59.882z" fill="#fff"/><path d="M105.634 117.566c-.449 0-.901-.151-1.274-.46-13.633-11.29-18.591-25.245-14.736-41.476l.1-.425C85.75 71.767 68.202 56.408 50.45 38.053 39.087 26.304 39.259 13.832 44.471 6.684c5.215-7.153 14.844-8.69 24.53-3.916 22.218 10.949 51.617 36.937 67.163 51.453a2 2 0 0 1-2.73 2.924C118.049 42.779 88.99 17.078 67.233 6.356c-7.974-3.929-15.457-2.9-19.529 2.685-4.225 5.795-4.125 16.153 5.622 26.232 19.627 20.293 38.992 36.891 39.807 37.588 1.048.896.784 2.009.384 3.693-1.295 5.452-5.234 22.042 13.396 37.471a2 2 0 0 1-1.277 3.54z" fill="#28242e"/><path d="M51.042 79.278C8.101 74.97 3.619 60.383 4.403 50.776c1.618-19.82 31.681-21.061 44.63-19.137C69.557 34.689 75.215 46.866 73.8 53.87c-2.167 10.725-12.591 19.533-40.036 16.454l17.279 8.953z" fill="#fff"/><path d="M51.043 81.278c-.066 0-.134-.003-.201-.01C17.319 77.905 1.023 67.591 2.41 50.613c.454-5.561 2.957-10.184 7.439-13.741 10.978-8.714 30.624-8.528 39.478-7.211 13.624 2.025 20.208 7.755 23.331 12.205 2.767 3.942 3.898 8.462 3.102 12.4-1.503 7.438-7.843 18.959-32.615 18.667l8.817 4.569a2 2 0 0 1-.919 3.776zM39.402 32.984c-9.268 0-20.392 1.725-27.067 7.022-3.58 2.842-5.578 6.52-5.939 10.934-1.021 12.504 10.253 20.838 33.546 24.84l-7.1-3.679a2 2 0 0 1 1.143-3.763C56.28 70.84 69.369 65.7 71.838 53.475c.571-2.826-.347-6.306-2.456-9.31-2.673-3.809-8.425-8.731-20.645-10.547-2.625-.39-5.85-.634-9.337-.634z" fill="#28242e"/><path d="M48.716 111.089C5.775 106.781 1.293 92.194 2.077 82.587c1.618-19.82 31.681-21.061 44.63-19.137 20.524 3.05 26.182 15.227 24.767 22.231-2.167 10.725-12.591 19.533-40.036 16.454l17.279 8.953z" fill="#fff"/><path d="M48.717 113.089c-.066 0-.134-.003-.201-.01C14.993 109.715-1.302 99.402.084 82.424c.454-5.561 2.957-10.184 7.439-13.741 10.978-8.714 30.625-8.528 39.478-7.211 13.625 2.025 20.208 7.755 23.331 12.205 2.767 3.942 3.898 8.462 3.102 12.4-1.503 7.438-7.873 18.949-32.615 18.667l8.817 4.569a2 2 0 0 1-.919 3.776zM37.075 64.795c-9.268 0-20.392 1.724-27.066 7.022-3.58 2.842-5.578 6.52-5.939 10.934-1.021 12.504 10.252 20.838 33.546 24.84l-7.099-3.678a2 2 0 0 1 1.143-3.763c22.294 2.502 35.384-2.638 37.853-14.863.571-2.826-.347-6.306-2.455-9.31-2.673-3.809-8.425-8.731-20.645-10.547-2.625-.39-5.85-.634-9.337-.634z" fill="#28242e"/><path d="M50.005 143.359c-42.941-4.308-47.423-18.895-46.639-28.502 1.618-19.82 31.681-21.061 44.63-19.137 20.524 3.05 26.182 15.227 24.767 22.231-2.167 10.725-12.591 19.533-40.036 16.454l17.279 8.953z" fill="#fff"/><path d="M50.006 145.359c-.066 0-.134-.003-.201-.01-33.523-3.364-49.819-13.677-48.432-30.655.454-5.561 2.957-10.184 7.439-13.741 10.978-8.714 30.624-8.528 39.478-7.211 13.625 2.025 20.208 7.755 23.331 12.206 2.767 3.942 3.898 8.462 3.102 12.4-1.503 7.438-7.868 18.95-32.615 18.667l8.817 4.569a2 2 0 0 1-.919 3.776zM38.365 97.065c-9.268 0-20.392 1.725-27.067 7.022-3.58 2.842-5.578 6.52-5.939 10.934-1.021 12.504 10.253 20.838 33.546 24.84l-7.1-3.679a2 2 0 0 1 1.143-3.763c22.294 2.502 35.384-2.638 37.853-14.863.571-2.826-.347-6.306-2.455-9.31-2.673-3.809-8.425-8.731-20.645-10.547-2.625-.39-5.85-.634-9.337-.634z" fill="#28242e"/><path d="M35.957 171.319C8.64 165.344 3.684 153.206 4.351 145.041c1.618-19.82 31.681-21.061 44.63-19.137 20.524 3.05 26.182 15.227 24.767 22.231-2.167 10.725-12.591 19.533-40.036 16.454 0 0 2.528.821 3.147 1.919-.265 1.89-.666 3.322-.901 4.811z" fill="#fff"/><path d="M35.958 173.32a2.03 2.03 0 0 1-.407-.042c-23.5-4.856-34.359-14.146-33.195-28.399.454-5.561 2.957-10.184 7.439-13.741 10.978-8.714 30.623-8.527 39.479-7.211 13.625 2.025 20.208 7.755 23.331 12.205 2.767 3.942 3.898 8.462 3.102 12.4-1.681 8.32-9.402 21.729-42.22 18.046a2 2 0 0 1 .445-3.975c22.294 2.502 35.384-2.638 37.853-14.863.571-2.826-.347-6.306-2.455-9.31-2.673-3.809-8.425-8.731-20.645-10.547-9.6-1.427-27.219-.903-36.404 6.388-3.58 2.842-5.578 6.52-5.939 10.934-.356 4.367-1.441 17.656 30.018 24.156a2.001 2.001 0 0 1-.403 3.96z" fill="#28242e"/></svg></g><g transform="translate(109.0 543.0) rotate(0.0 79.5 208.0) scale(0.9853743182944967 0.9877481242283217)"><svg width="161.36" height="421.16" viewBox="0 0 161.36 421.16"><path d="M60.366 2.858c-41.969 7.618-66.897 63.9-55.678 125.71s54.337 105.74 96.306 98.122 66.898-63.9 55.678-125.709c-11.218-61.81-54.337-105.74-96.306-98.123zm40.423 202.634c-29.301.81-58.735-34.372-67.404-82.134-8.669-47.761 6.522-91.044 34.239-100.583 28.691 1.47 56.809 36.069 65.242 82.526s-5.732 88.732-32.076 100.191z" fill="#28242e"/><path d="M91.524 229.542c-39.71.004-78.273-42.601-88.804-100.617-5.497-30.284-2.644-60.238 8.033-84.344C21.545 20.215 39.04 4.698 60.009.891c20.971-3.808 42.801 4.572 61.469 23.593 18.468 18.815 31.666 45.856 37.162 76.14 11.398 62.796-14.302 120.232-57.289 128.035a55.064 55.064 0 0 1-9.828.884zM69.958 3.996a51.58 51.58 0 0 0-9.234.831C41.097 8.389 24.65 23.083 14.41 46.201 4.054 69.582 1.3 98.707 6.656 128.211c10.179 56.082 47.025 97.333 84.8 97.337 3.061 0 6.122-.27 9.181-.825 40.817-7.409 65.072-62.759 54.068-123.385-5.355-29.504-18.169-55.803-36.082-74.053C103.674 12.054 86.692 3.996 69.958 3.996zm29.818 203.511c-30.378 0-59.637-35.741-68.359-83.791-8.823-48.61 6.462-92.818 35.556-102.832.242-.083.497-.115.753-.106 14.547.746 29.349 9.675 41.679 25.144 12.287 15.415 21.317 36.376 25.428 59.023s3.023 45.445-3.063 64.195c-6.107 18.815-16.827 32.377-30.184 38.188a2.002 2.002 0 0 1-.742.165c-.355.01-.714.015-1.069.015zM67.91 24.795c-12.701 4.535-23.046 16.8-29.158 34.589-6.306 18.354-7.513 40.948-3.398 63.618s13.185 43.398 25.54 58.366c11.973 14.505 25.966 22.347 39.454 22.135 25.495-11.425 38.623-53.373 30.552-97.843-8.072-44.47-35.105-79.128-62.989-80.864z" fill="#28242e"/><path d="M86.199 210.536c-13.75 0-27.747-7.276-40.065-20.993-14.152-15.759-24.446-38.217-28.988-63.236-9.437-51.992 9.283-99.081 41.73-104.97a38.885 38.885 0 0 1 12.441-.217 2 2 0 1 1-.562 3.96 34.897 34.897 0 0 0-11.165.193c-30.276 5.495-47.551 50.498-38.508 100.319 4.411 24.3 14.365 46.063 28.028 61.278 13.426 14.951 28.796 21.736 43.281 19.109 5.168-.938 10.07-3.058 14.57-6.301a2 2 0 0 1 2.339 3.245c-4.986 3.594-10.435 5.946-16.194 6.992a38.566 38.566 0 0 1-6.906.621z" fill="#fff"/><g fill="#28242e"><path d="m81.295 218.33 35.205-6.391 33.786 186.133c1.763 9.715-4.692 19.034-14.408 20.797-9.715 1.763-19.034-4.692-20.797-14.407z"/><path d="M132.673 421.159c-9.426 0-17.82-6.744-19.561-16.339L79.327 218.688a2 2 0 0 1 1.611-2.325l35.205-6.39a2.001 2.001 0 0 1 2.325 1.611l33.785 186.132c.949 5.228-.195 10.512-3.22 14.879s-7.57 7.295-12.798 8.244a19.931 19.931 0 0 1-3.561.322zM83.619 219.941l33.428 184.164a15.784 15.784 0 0 0 6.586 10.224 15.79 15.79 0 0 0 11.887 2.573c8.621-1.565 14.362-9.852 12.797-18.472l-33.428-184.165zm-36.281-96.783a2 2 0 0 1-1.788-2.892l33.34-66.921a2 2 0 0 1 3.58 1.784L49.129 122.05a2 2 0 0 1-1.792 1.108zm26.552-17.899a2 2 0 0 1-1.746-2.972L84.91 79.308a2 2 0 1 1 3.496 1.943L75.64 104.23a1.998 1.998 0 0 1-1.75 1.029z"/></g></svg></g><g transform="translate(1241.0 148.0) rotate(0.0 59.0 83.5) scale(0.9885810510794802 0.9936690784463063)"><svg width="119.363" height="168.064" viewBox="0 0 119.363 168.064"><g fill="#b153e0"><path d="m38.847 135.333-15.768-3.642 13.532-38.139 7.884 1.821c22.252 5.14 46.467-7.906 53.981-29.083C105.99 45.114 94 23.704 71.748 18.564S25.28 26.47 17.767 47.647L1.999 44.005C12.45 14.553 46.127-3.591 77.073 3.557s47.621 36.924 37.171 66.375c-9.546 26.905-38.477 44.374-67.003 41.742l-8.394 23.658z"/><ellipse cx="23.361" cy="154.936" rx="12.213" ry="10.882" transform="matrix(.90855922 -.41775608 .41775608 .90855922 -62.589 23.927)"/><path d="M38.848 137.333c-.149 0-.3-.017-.451-.052l-15.768-3.642a2.003 2.003 0 0 1-1.435-2.617l13.532-38.139a2.001 2.001 0 0 1 2.335-1.28l7.884 1.821c21.291 4.919 44.461-7.554 51.646-27.803 3.399-9.58 2.718-19.513-1.917-27.97-4.751-8.668-13.053-14.755-23.376-17.139-21.294-4.919-44.461 7.553-51.646 27.802a2 2 0 0 1-2.335 1.28L1.549 45.952a2.003 2.003 0 0 1-1.435-2.617C10.894 12.957 45.618-5.762 77.523 1.609c15.702 3.627 28.354 12.931 35.626 26.197 7.111 12.972 8.169 28.171 2.98 42.795-9.514 26.814-38.345 45.155-67.516 43.189l-7.881 22.211a2.001 2.001 0 0 1-1.884 1.332zm-13.134-7.087 11.845 2.736 7.798-21.977a2 2 0 0 1 2.069-1.323c27.926 2.576 55.844-14.8 64.934-40.419 4.802-13.535 3.837-27.576-2.718-39.535C102.926 17.475 91.2 8.873 76.623 5.506 47.379-1.25 15.622 15.291 4.679 42.569l11.837 2.734c8.495-21.112 33.063-33.913 55.683-28.689 11.449 2.645 20.676 9.433 25.983 19.114 5.191 9.47 5.965 20.561 2.179 31.23-6.688 18.848-26.047 31.528-45.994 31.53-3.445 0-6.904-.378-10.322-1.167l-6.145-1.42-12.186 34.344zm-3.431 37.813a14.2 14.2 0 0 1-3.208-.363c-3.632-.839-6.564-3.001-8.256-6.088-1.659-3.027-1.909-6.567-.703-9.966 2.444-6.889 10.308-11.136 17.532-9.468 3.632.839 6.565 3.001 8.256 6.088 1.659 3.027 1.909 6.567.703 9.966-2.085 5.876-8.114 9.83-14.324 9.83zm2.097-22.254c-4.556 0-8.972 2.885-10.495 7.176-.82 2.31-.663 4.692.441 6.706 1.136 2.073 3.143 3.534 5.649 4.113 5.305 1.226 11.076-1.873 12.862-6.908.82-2.31.663-4.692-.441-6.706-1.136-2.073-3.143-3.534-5.649-4.113a10.52 10.52 0 0 0-2.368-.268z"/></g></svg></g><g transform="translate(1373.0 288.0) rotate(0.0 23.0 51.5) scale(0.9771018310038658 0.9873371612618744)"><svg width="47.078" height="104.321" viewBox="0 0 47.078 104.321"><path d="M4.881 102.321s12.283-6.854 18.024-11.279c28.233-21.764 24.756-42.284 15.443-69.017C27.808-8.228-2.551-2.087 2.579 26.299c.762 4.215 2.496 9.99 5.23 20.528L4.88 102.32Z" style="fill:#fff"/><path d="M4.882 104.321a2 2 0 0 1-.976-3.747c.122-.068 12.221-6.833 17.778-11.116 27.834-21.457 23.681-41.211 14.775-66.775C31.138 7.41 20.953 2.496 13.739 4.391 7.52 6.025 2.266 13.323 4.547 25.944c.604 3.338 2.862 11.982 5.045 20.341.532 2.036 1.068 4.087 1.588 6.091a1.999 1.999 0 1 1-3.872 1.004 4665.26 4665.26 0 0 0-1.586-6.084c-2.304-8.82-4.48-17.151-5.111-20.641C-2.124 11.521 4.723 2.625 12.722.522c8.936-2.35 21.357 3.172 27.514 20.845 9.156 26.28 13.783 48.215-16.11 71.259-5.792 4.464-17.764 11.159-18.271 11.441a1.992 1.992 0 0 1-.973.254Z" style="fill:#28242e"/></svg></g></svg>