<svg xmlns="http://www.w3.org/2000/svg" viewBox="0 0 1200 800" width="1200" height="800"><path fill="#FFF" d="M0 0h1200v800H0z"/><g transform="translate(522.0 290.0) rotate(0.0 78.0 110.0) scale(0.9991289644924938 0.9968915110156512)"><svg width="156.136" height="220.686" viewBox="0 0 156.136 220.686"><path d="M154.63 220.686H0L3.391 15.854l149.354 4.696z" fill="#B153E0"/><path d="M3.391 15.854h152.745V215.99H3.391z" fill="#fff"/><g fill="#B153E0"><path d="M20.547 72.471h8.87v20.087h-8.87zm15.652-7.565h8.87v27.652h-8.87zm15.652-10.435h8.87v38.087h-8.87zm15.652 3.392h8.87v34.696h-8.87zm15.652-5.218h8.87v39.913h-8.87zm15.652 0h8.87v39.913h-8.87zm15.653-6.782h8.87v46.696h-8.87zm15.652-10.435h8.87v57.13h-8.87z"/></g><path d="M20.547 116.863h118.435v2.087H20.547zm0 11.478h118.435v2.087H20.547zm0 11.478h118.435v2.087H20.547zm0 11.478h118.435v2.087H20.547zm0 11.479h118.435v2.087H20.547zm0 11.478h118.435v2.087H20.547z" fill="#006"/><circle cx="65.469" cy="16.802" fill="#006" r="14.906"/><circle cx="68.226" cy="14.906" fill="#B153E0" r="14.906"/></svg></g></svg>