<svg height="1500" viewBox="0 0 1800 1500" width="1800" xmlns="http://www.w3.org/2000/svg"><path d="M1322.361 457.103c-.286 0-.57-.122-.769-.358a18.99 18.99 0 0 0-.896-1 1 1 0 1 1 1.441-1.387c.341.354.671.722.99 1.103a1 1 0 0 1-.766 1.642zm-4.991-4.361a.995.995 0 0 1-.545-.162c-.676-.44-1.41-.872-2.182-1.284a1 1 0 1 1 .942-1.765c.823.439 1.607.901 2.332 1.373.463.301.594.92.292 1.383a.997.997 0 0 1-.839.455zm-7.036-3.492a.986.986 0 0 1-.363-.069 75.189 75.189 0 0 0-2.432-.896 1 1 0 0 1 .66-1.888c.854.298 1.687.604 2.498.92.515.2.769.78.568 1.294a1 1 0 0 1-.931.639zm-7.463-2.532a1 1 0 0 1-.294-.045c-.822-.253-1.659-.506-2.51-.763a1 1 0 1 1 .576-1.915c.854.257 1.695.512 2.521.767a1 1 0 0 1-.293 1.956zm-7.548-2.293c-.098 0-.197-.015-.295-.045-.829-.256-1.669-.521-2.519-.794a1 1 0 1 1 .613-1.903c.842.271 1.674.533 2.495.787a1 1 0 0 1-.294 1.955zm-7.483-2.481a.986.986 0 0 1-.339-.06 128.47 128.47 0 0 1-2.483-.923 1 1 0 1 1 .717-1.867c.821.315 1.636.618 2.444.908a1 1 0 0 1-.339 1.942zm-7.322-2.916a.996.996 0 0 1-.403-.085c-.8-.354-1.604-.721-2.414-1.105a1 1 0 1 1 .857-1.807c.792.376 1.581.736 2.365 1.082a1.001 1.001 0 0 1-.405 1.915zm-7.07-3.476a1 1 0 0 1-.479-.122 89.902 89.902 0 0 1-2.312-1.307 1 1 0 1 1 1.01-1.726c.757.443 1.511.869 2.262 1.278a1 1 0 0 1-.481 1.877zm-6.737-4.077a.995.995 0 0 1-.555-.169 89.485 89.485 0 0 1-2.187-1.508 1 1 0 0 1 1.161-1.63c.715.509 1.427 1 2.138 1.476a.999.999 0 0 1-.557 1.831zm-6.347-4.66a.991.991 0 0 1-.625-.221 91.847 91.847 0 0 1-2.046-1.691 1 1 0 0 1 1.295-1.524 98.96 98.96 0 0 0 2.003 1.656 1 1 0 0 1-.627 1.78zm-5.926-5.185a.998.998 0 0 1-.688-.274 96.426 96.426 0 0 1-1.899-1.852 1 1 0 1 1 1.414-1.415 95.297 95.297 0 0 0 1.862 1.814 1.001 1.001 0 0 1-.689 1.727zm-5.499-5.637a.997.997 0 0 1-.741-.329c-.585-.646-1.17-1.308-1.756-1.984a1.002 1.002 0 0 1 1.514-1.309c.574.666 1.149 1.315 1.725 1.95a1 1 0 0 1-.742 1.672zm-450.836-4.096a1 1 0 0 1-.713-1.701c.614-.626 1.239-1.25 1.874-1.871a1 1 0 1 1 1.398 1.429c-.625.612-1.24 1.227-1.847 1.843-.195.2-.454.3-.712.3zm445.754-1.919a.999.999 0 0 1-.786-.38c-.54-.684-1.08-1.382-1.62-2.094a1 1 0 0 1 1.594-1.207c.531.702 1.063 1.389 1.596 2.062a1 1 0 0 1-.784 1.619zm-440.071-3.546a1 1 0 0 1-.673-1.74 154.78 154.78 0 0 1 1.971-1.763 1 1 0 0 1 1.322 1.501 158.92 158.92 0 0 0-1.947 1.742.998.998 0 0 1-.673.26zm435.378-2.779a.997.997 0 0 1-.821-.428c-.498-.715-.996-1.442-1.493-2.183a1 1 0 0 1 1.66-1.116c.491.731.981 1.449 1.474 2.154a1.002 1.002 0 0 1-.82 1.573zm-429.411-2.377a1 1 0 0 1-.635-1.773 177.05 177.05 0 0 1 2.057-1.662 1 1 0 1 1 1.246 1.564 163.36 163.36 0 0 0-2.033 1.644 1.001 1.001 0 0 1-.635.227zm425.079-4.203a1 1 0 0 1-.85-.471c-.461-.739-.921-1.491-1.38-2.255a1.001 1.001 0 0 1 1.715-1.031c.453.755.907 1.497 1.362 2.228a1 1 0 0 1-.847 1.529zm-418.871-.657a1 1 0 0 1-.6-1.801c.702-.524 1.412-1.046 2.131-1.566a1 1 0 1 1 1.171 1.62c-.71.514-1.411 1.03-2.105 1.548a.987.987 0 0 1-.597.199zm6.42-4.582a.999.999 0 0 1-.565-1.826c.724-.495 1.454-.986 2.193-1.476a1 1 0 1 1 1.104 1.668c-.73.483-1.452.97-2.168 1.459a1 1 0 0 1-.564.175zm408.444-1.544a1 1 0 0 1-.873-.511c-.427-.76-.852-1.531-1.275-2.314a.999.999 0 1 1 1.757-.953c.42.774.841 1.537 1.262 2.289a.998.998 0 0 1-.871 1.489zm-401.844-2.772a1 1 0 0 1-.532-1.847c.742-.465 1.491-.928 2.246-1.388a1 1 0 1 1 1.041 1.708c-.749.456-1.49.915-2.227 1.375a.987.987 0 0 1-.528.152zm6.758-4.064a1 1 0 0 1-.501-1.866c.76-.438 1.524-.873 2.294-1.306a1 1 0 1 1 .98 1.743c-.764.429-1.522.861-2.274 1.295a.992.992 0 0 1-.499.134zm391.377-.117c-.364 0-.716-.199-.893-.546-.396-.777-.789-1.564-1.182-2.361a1 1 0 0 1 1.795-.884c.389.79.778 1.569 1.17 2.338a1 1 0 0 1-.89 1.453zm-384.48-3.708a1 1 0 0 1-.472-1.883c.773-.412 1.552-.822 2.336-1.229a1 1 0 1 1 .922 1.775c-.778.403-1.551.81-2.316 1.218a.991.991 0 0 1-.47.119zm381.086-3.407a1 1 0 0 1-.918-.602 110.72 110.72 0 0 1-1.029-2.446 1 1 0 0 1 1.854-.753c.325.8.661 1.6 1.01 2.401a1 1 0 0 1-.917 1.4zm-374.069-.191a1 1 0 0 1-.442-1.897c.786-.387 1.577-.772 2.373-1.154a1 1 0 1 1 .865 1.802c-.79.379-1.575.761-2.355 1.146a.98.98 0 0 1-.441.103zm7.126-3.38a1 1 0 0 1-.416-1.91c.797-.364 1.598-.725 2.404-1.084a1 1 0 0 1 .814 1.827c-.801.357-1.598.716-2.389 1.077a.974.974 0 0 1-.413.09zm7.22-3.171a1 1 0 0 1-.39-1.922c.807-.341 1.617-.68 2.434-1.017a1 1 0 1 1 .764 1.848c-.811.335-1.617.671-2.418 1.01a.981.981 0 0 1-.39.081zm356.852-.601a1 1 0 0 1-.944-.672c-.292-.841-.571-1.681-.838-2.521a1 1 0 1 1 1.906-.604c.261.822.534 1.646.82 2.469a1 1 0 0 1-.944 1.328zm-349.547-2.373a1 1 0 0 1-.366-1.932 350.18 350.18 0 0 1 2.459-.952 1 1 0 1 1 .715 1.868c-.819.313-1.634.628-2.443.946a.981.981 0 0 1-.365.07zm7.379-2.782a1 1 0 0 1-.34-1.941c.823-.299 1.651-.595 2.482-.89a.999.999 0 1 1 .668 1.885c-.827.292-1.649.587-2.469.884a.976.976 0 0 1-.341.062zm339.879-2.391a1 1 0 0 1-.967-.749 94.983 94.983 0 0 1-.634-2.58 1 1 0 1 1 1.949-.45c.194.841.4 1.683.62 2.527a1 1 0 0 1-.968 1.252zm-332.434-.209a1 1 0 0 1-.318-1.949c.831-.278 1.665-.555 2.502-.829a.999.999 0 1 1 .623 1.9c-.833.273-1.663.548-2.488.825a.992.992 0 0 1-.319.053zm7.506-2.424a1 1 0 0 1-.296-1.955c.836-.259 1.676-.517 2.521-.771a1 1 0 0 1 .578 1.914c-.839.254-1.675.51-2.506.768-.1.03-.199.044-.297.044zm7.557-2.253a1 1 0 0 1-.275-1.962c.843-.241 1.688-.48 2.537-.716a1 1 0 0 1 .537 1.927c-.845.235-1.687.473-2.523.712a1.016 1.016 0 0 1-.276.039zm7.606-2.089a1 1 0 0 1-.254-1.967c.847-.224 1.698-.444 2.552-.663a.999.999 0 1 1 .496 1.937c-.85.217-1.695.437-2.538.659a.98.98 0 0 1-.256.034zm308.093-.729a1 1 0 0 1-.984-.827 96.567 96.567 0 0 1-.422-2.623 1 1 0 0 1 .844-1.135.99.99 0 0 1 1.135.844c.126.854.263 1.71.414 2.567a1.001 1.001 0 0 1-.987 1.174zm-300.447-1.201a1 1 0 0 1-.234-1.972 370.29 370.29 0 0 1 2.564-.61 1 1 0 0 1 .455 1.948c-.853.2-1.703.402-2.551.607a.966.966 0 0 1-.234.027zm7.684-1.776a1 1 0 0 1-.215-1.976c.855-.189 1.715-.375 2.575-.56a1 1 0 1 1 .418 1.956c-.856.183-1.71.369-2.562.557a.998.998 0 0 1-.216.023zm245.827-.605h-.002c-.875-.002-1.753-.007-2.637-.015a1 1 0 0 1 .01-2h.01c.878.008 1.752.013 2.621.015a1 1 0 0 1-.002 2zm5.257-.032a1 1 0 0 1-.015-2c.879-.013 1.752-.029 2.62-.048h.022a1.001 1.001 0 0 1 .022 2c-.874.02-1.752.036-2.636.048h-.013zm-13.143-.073h-.024c-.874-.021-1.753-.046-2.636-.074a1 1 0 1 1 .064-1.999c.877.028 1.75.053 2.62.074a1 1 0 0 1-.024 1.999zm21.024-.137a1 1 0 0 1-.038-1.999c.878-.035 1.75-.073 2.617-.115.506-.021 1.02.399 1.047.951a1 1 0 0 1-.951 1.047c-.873.042-1.751.081-2.635.115l-.04.001zm-28.905-.143-.047-.001c-.874-.04-1.752-.084-2.634-.131a1 1 0 1 1 .108-1.997c.876.047 1.748.09 2.618.13a1 1 0 0 1-.045 1.999zm36.781-.274a1 1 0 0 1-.065-1.998c.877-.059 1.748-.121 2.612-.187a1 1 0 0 1 .152 1.994c-.872.066-1.749.129-2.632.188-.022.003-.045.003-.067.003zm-44.656-.171c-.022 0-.045 0-.067-.002-.872-.058-1.749-.119-2.629-.184a1 1 0 0 1-.924-1.071.991.991 0 0 1 1.07-.924c.876.064 1.747.125 2.615.184a1 1 0 0 1-.065 1.997zm-214.467-.191a1 1 0 0 1-.196-1.98 455.29 455.29 0 0 1 2.586-.511.998.998 0 0 1 1.172.792 1 1 0 0 1-.791 1.172c-.861.167-1.719.336-2.573.508a1.037 1.037 0 0 1-.198.019zm266.982-.274a1 1 0 0 1-.094-1.996 224.73 224.73 0 0 0 2.604-.263 1.004 1.004 0 0 1 1.1.889 1 1 0 0 1-.889 1.1c-.868.092-1.744.18-2.625.265a.782.782 0 0 1-.096.005zm-60.378-.137a.857.857 0 0 1-.087-.004c-.871-.075-1.746-.153-2.625-.234a1 1 0 1 1 .184-1.991c.875.081 1.746.159 2.613.233a.999.999 0 0 1-.085 1.996zm68.215-.734a1 1 0 0 1-.125-1.992c.871-.111 1.735-.226 2.594-.345a1.001 1.001 0 0 1 .275 1.982c-.866.12-1.738.236-2.617.348a1.093 1.093 0 0 1-.127.007zm-76.066-.016a1.23 1.23 0 0 1-.105-.005c-.869-.092-1.742-.186-2.618-.282a1 1 0 0 1-.885-1.104 1.006 1.006 0 0 1 1.104-.884c.874.097 1.743.19 2.608.281a1 1 0 0 1-.104 1.994zm-191.007-.319a1 1 0 0 1-.177-1.984c.862-.157 1.727-.311 2.593-.463a1 1 0 0 1 .347 1.97c-.864.152-1.725.306-2.583.461a1.012 1.012 0 0 1-.18.016zm183.171-.571a1.01 1.01 0 0 1-.122-.007c-.868-.106-1.739-.215-2.614-.328a1 1 0 0 1-.865-1.119.996.996 0 0 1 1.119-.865c.871.111 1.738.22 2.603.326a1 1 0 0 1-.121 1.993zm91.707-.219a1 1 0 0 1-.158-1.987l.523-.085c-.072-.811-.134-1.62-.186-2.426a1 1 0 0 1 .935-1.062.998.998 0 0 1 1.062.934c.047.739.103 1.479.168 2.221a2.18 2.18 0 0 0 .079-.014 1 1 0 0 1 .342 1.971c-.861.149-1.729.295-2.604.436a1.122 1.122 0 0 1-.161.012zm-267.105-.55a1.001 1.001 0 0 1-.16-1.987c.864-.141 1.731-.28 2.602-.417a1.001 1.001 0 0 1 .311 1.976c-.866.137-1.729.275-2.59.415-.055.009-.11.013-.163.013zm167.577-.256c-.046 0-.092-.003-.139-.009-.867-.121-1.734-.239-2.601-.355a1 1 0 1 1 .268-1.983c.868.117 1.737.236 2.608.356a1 1 0 0 1-.136 1.991zm107.288-.591a.999.999 0 0 1-.194-1.981c.86-.172 1.715-.348 2.562-.528a1.002 1.002 0 0 1 1.187.77 1.002 1.002 0 0 1-.771 1.187c-.854.182-1.717.36-2.587.533a1.034 1.034 0 0 1-.197.019zm-267.07-.355a1 1 0 0 1-.143-1.99c.867-.126 1.736-.25 2.608-.372a.994.994 0 0 1 1.129.852 1 1 0 0 1-.852 1.128c-.868.122-1.733.245-2.597.371a.885.885 0 0 1-.145.011zm151.966-.091a.926.926 0 0 1-.128-.008c-.867-.11-1.733-.219-2.599-.325a.999.999 0 0 1-.87-1.115.994.994 0 0 1 1.114-.871c.867.107 1.737.215 2.608.326a1 1 0 0 1-.125 1.993zm-7.823-.947c-.038 0-.076-.002-.115-.006-.869-.1-1.736-.198-2.604-.294a1 1 0 0 1 .22-1.988c.869.097 1.74.195 2.611.295a1 1 0 0 1-.112 1.993zm-136.329-.03a1 1 0 0 1-.126-1.992c.869-.111 1.74-.22 2.613-.328a.992.992 0 0 1 1.114.871 1 1 0 0 1-.87 1.114c-.871.106-1.738.215-2.604.326a.775.775 0 0 1-.127.009zm266.957-.269a1.001 1.001 0 0 1-.234-1.973c.854-.206 1.7-.416 2.537-.63a1 1 0 0 1 .496 1.938c-.847.216-1.701.429-2.564.637a1 1 0 0 1-.235.028zm-138.463-.553a.927.927 0 0 1-.104-.005c-.87-.09-1.738-.177-2.606-.263a.999.999 0 0 1-.896-1.094.983.983 0 0 1 1.094-.896c.87.086 1.742.173 2.614.264a1 1 0 0 1-.102 1.994zm-120.663-.115a1 1 0 0 1-.109-1.994c.87-.097 1.743-.192 2.618-.285a1 1 0 1 1 .211 1.989c-.871.093-1.74.188-2.608.284a1.065 1.065 0 0 1-.112.006zm112.817-.643a.923.923 0 0 1-.091-.004l-2.609-.231a.998.998 0 0 1-.91-1.082.984.984 0 0 1 1.082-.91l2.617.231a1 1 0 0 1-.089 1.996zm-104.972-.167a1 1 0 0 1-.094-1.995 520.47 520.47 0 0 1 2.623-.243 1 1 0 0 1 .18 1.992c-.874.078-1.745.159-2.613.242a1.027 1.027 0 0 1-.096.004zm97.119-.494c-.026 0-.053-.001-.079-.003-.871-.068-1.742-.134-2.612-.199-.551-.041-.964-.52-.923-1.071s.493-.968 1.071-.923c.872.064 1.745.13 2.62.199a1 1 0 0 1-.077 1.997zm161.786-.04a1 1 0 0 1-.277-1.962c.844-.243 1.679-.491 2.505-.743a1 1 0 0 1 .584 1.913c-.836.255-1.681.505-2.534.751a.937.937 0 0 1-.278.041zm-251.047-.151a1 1 0 0 1-.078-1.997c.874-.069 1.749-.136 2.627-.201a.99.99 0 0 1 1.071.923 1 1 0 0 1-.923 1.071c-.874.065-1.747.132-2.617.201a1.07 1.07 0 0 1-.08.003zm81.399-.372c-.021 0-.044 0-.066-.002-.872-.057-1.744-.112-2.613-.166a1 1 0 0 1-.938-1.059c.033-.551.52-.972 1.059-.937.873.053 1.747.108 2.623.166a1 1 0 0 1-.065 1.998zm-73.534-.191a1 1 0 0 1-.062-1.999 545.79 545.79 0 0 1 2.629-.161 1 1 0 1 1 .118 1.996c-.874.052-1.747.105-2.619.161-.023.003-.044.003-.066.003zm65.667-.272-.054-.001c-.873-.046-1.746-.089-2.616-.131a1 1 0 0 1-.951-1.047c.028-.553.498-.958 1.047-.951.874.042 1.749.086 2.626.132a1 1 0 0 1-.052 1.998zm-57.792-.172a1 1 0 0 1-.048-1.999c.875-.042 1.751-.083 2.631-.122a1.011 1.011 0 0 1 1.043.955 1 1 0 0 1-.955 1.043c-.876.039-1.75.079-2.621.122l-.05.001zm49.918-.19-.04-.001-2.618-.097a1 1 0 0 1-.964-1.035c.019-.553.525-.984 1.034-.964l2.626.098a1 1 0 0 1-.038 1.999zm-42.038-.136a1 1 0 0 1-.033-2c.876-.03 1.754-.058 2.633-.083a.988.988 0 0 1 1.029.971 1 1 0 0 1-.971 1.028c-.877.025-1.751.053-2.623.083l-.035.001zm34.159-.123h-.025a787.63 787.63 0 0 0-2.619-.062 1.001 1.001 0 0 1-.979-1.022c.012-.551.455-1.018 1.021-.978.875.019 1.75.04 2.627.062a1 1 0 0 1-.025 2zm-26.273-.09a1 1 0 0 1-.02-2c.875-.017 1.753-.032 2.633-.046.578-.035 1.007.432 1.016.984s-.433 1.007-.984 1.016c-.878.014-1.752.029-2.625.046h-.02zm18.394-.063h-.013c-.874-.011-1.748-.02-2.62-.027a1 1 0 0 1-.991-1.008c.006-.552.477-1 1.009-.992.874.007 1.75.017 2.628.027a1 1 0 0 1-.013 2zm-10.51-.037a1 1 0 0 1-.006-2c.876-.005 1.753-.008 2.631-.009h.002a1 1 0 0 1 .002 2c-.876.001-1.751.004-2.623.009h-.006zm219.179-.564a1 1 0 0 1-.323-1.947c.831-.284 1.652-.572 2.463-.865a1 1 0 0 1 .679 1.881c-.82.297-1.653.589-2.496.876a.983.983 0 0 1-.323.055zm-29.619-1.354a1 1 0 0 1-1-.99l-.004-.848c0-.604.006-1.206.017-1.807.01-.552.418-.987 1.018-.982a1 1 0 0 1 .982 1.018 94.81 94.81 0 0 0-.017 1.771l.004.828a1 1 0 0 1-.989 1.01h-.011zm37.009-1.391a1 1 0 0 1-.374-1.928c.814-.328 1.618-.661 2.411-.999a1 1 0 1 1 .784 1.84c-.805.343-1.62.681-2.446 1.014a.996.996 0 0 1-.375.073zm7.222-3.165a1 1 0 0 1-.43-1.903c.792-.377 1.572-.759 2.34-1.146a1 1 0 0 1 .901 1.786c-.781.394-1.575.782-2.381 1.166-.14.066-.287.097-.43.097zm-43.976-3.322a1 1 0 0 1-.998-1.074 99.17 99.17 0 0 1 .231-2.645 1 1 0 0 1 1.991.201 99.79 99.79 0 0 0-.228 2.592 1 1 0 0 1-.996.926zm50.974-.307a1 1 0 0 1-.493-1.871c.764-.432 1.514-.868 2.249-1.309a.999.999 0 1 1 1.029 1.715c-.751.45-1.515.895-2.294 1.335a.995.995 0 0 1-.491.13zm6.702-4.145a1 1 0 0 1-.561-1.828 88.4 88.4 0 0 0 2.13-1.488 1 1 0 1 1 1.169 1.623 91.605 91.605 0 0 1-2.179 1.521.99.99 0 0 1-.559.172zm-56.777-3.38a1 1 0 0 1-.989-1.155c.138-.878.286-1.75.446-2.618a1.001 1.001 0 0 1 1.967.363c-.156.85-.303 1.705-.437 2.564a1 1 0 0 1-.987.846zm63.092-1.334a1 1 0 0 1-.637-1.772 69.303 69.303 0 0 0 1.969-1.685 1 1 0 1 1 1.328 1.495c-.655.582-1.33 1.16-2.023 1.732a.997.997 0 0 1-.637.23zm5.788-5.342a1 1 0 0 1-.719-1.694 61.195 61.195 0 0 0 1.752-1.898 1.001 1.001 0 0 1 1.5 1.325 60.688 60.688 0 0 1-1.812 1.961.999.999 0 0 1-.721.306zm-67.346-1.059a1 1 0 0 1-.973-1.235c.209-.864.428-1.722.657-2.573a1 1 0 0 1 1.932.521c-.226.834-.44 1.675-.645 2.521a1 1 0 0 1-.971.766zm72.422-4.961a.999.999 0 0 1-.808-1.588 49.638 49.638 0 0 0 1.461-2.12 1 1 0 0 1 1.676 1.091 50.914 50.914 0 0 1-1.52 2.206.995.995 0 0 1-.809.411zm-70.269-2.623a1 1 0 0 1-.95-1.312c.277-.844.565-1.682.863-2.512a1 1 0 0 1 1.883.675 97.485 97.485 0 0 0-.846 2.46 1.001 1.001 0 0 1-.95.689zm74.368-4.094a1 1 0 0 1-.894-1.444 38.63 38.63 0 0 0 1.064-2.328 1 1 0 1 1 1.846.772 41.69 41.69 0 0 1-1.119 2.446c-.175.35-.529.554-.897.554zm-71.605-3.292a1 1 0 0 1-.921-1.39c.346-.819.701-1.63 1.064-2.433a1 1 0 0 1 1.822.826 100.93 100.93 0 0 0-1.045 2.385.998.998 0 0 1-.92.612zm74.385-4.062a1 1 0 0 1-.969-1.253c.215-.822.4-1.659.55-2.488a1 1 0 0 1 1.969.356 35.087 35.087 0 0 1-.583 2.637c-.118.45-.523.748-.967.748zm-71.025-3.073a1 1 0 0 1-.885-1.464 99.71 99.71 0 0 1 1.265-2.336 1 1 0 0 1 1.746.977 94.047 94.047 0 0 0-1.239 2.288c-.179.34-.527.535-.887.535zm72.104-4.708h-.013a1 1 0 0 1-.987-1.012l.004-.467c0-.689-.024-1.39-.073-2.078a1 1 0 0 1 .926-1.068.993.993 0 0 1 1.068.927c.053.735.079 1.484.079 2.225l-.004.486a.999.999 0 0 1-1 .987zm-68.153-2.116a1 1 0 0 1-.841-1.539c.48-.751.968-1.491 1.464-2.219a1 1 0 0 1 1.653 1.126 95.904 95.904 0 0 0-1.433 2.171 1 1 0 0 1-.843.461zm67.258-5.697c-.448 0-.856-.304-.97-.758-.204-.82-.446-1.64-.72-2.436a1 1 0 1 1 1.891-.65c.293.851.552 1.727.771 2.603a1 1 0 0 1-.972 1.241zm-62.716-.751a1 1 0 0 1-.79-1.612 79.182 79.182 0 0 1 1.666-2.077 1 1 0 1 1 1.539 1.277 74.793 74.793 0 0 0-1.623 2.024 1 1 0 0 1-.792.388zm5.139-5.983a1 1 0 0 1-.724-1.69 74.668 74.668 0 0 1 1.872-1.897 1 1 0 0 1 1.398 1.431 70.599 70.599 0 0 0-1.821 1.845 1.001 1.001 0 0 1-.725.311zm54.72-.593a1 1 0 0 1-.881-.525 32.785 32.785 0 0 0-1.299-2.194 1 1 0 1 1 1.68-1.085 34.61 34.61 0 0 1 1.379 2.329 1 1 0 0 1-.879 1.475zm-48.971-4.803a1.002 1.002 0 0 1-.642-1.768 62.196 62.196 0 0 1 2.089-1.667 1 1 0 1 1 1.213 1.59 60.701 60.701 0 0 0-2.021 1.613.995.995 0 0 1-.639.232zm43.718-1.997a29.722 29.722 0 0 0-1.747-1.85 1 1 0 1 1 1.393-1.435 31.896 31.896 0 0 1 1.812 1.914l-.705.714zm-37.343-2.635a1 1 0 0 1-.531-1.849c.762-.475 1.54-.932 2.312-1.358a1 1 0 1 1 .966 1.751c-.742.409-1.489.848-2.221 1.305a.99.99 0 0 1-.526.151zm32.197-2.215a.999.999 0 0 1-.544-.161 23.643 23.643 0 0 0-2.183-1.257 1 1 0 0 1 .903-1.785c.807.408 1.604.867 2.37 1.364a1 1 0 0 1-.546 1.839zm-25.191-1.381a1.001 1.001 0 0 1-.374-1.927c.844-.34 1.695-.651 2.533-.923a1 1 0 1 1 .619 1.901 38.2 38.2 0 0 0-2.404.876.988.988 0 0 1-.374.073zm18.001-1.764a.976.976 0 0 1-.244-.03 23.111 23.111 0 0 0-2.473-.477 1 1 0 0 1 .271-1.981c.903.123 1.808.297 2.688.518a1 1 0 0 1-.242 1.97zm-10.434-.375a1 1 0 0 1-.155-1.988 29.934 29.934 0 0 1 2.698-.304 1 1 0 1 1 .132 1.995c-.829.055-1.677.15-2.519.284a.912.912 0 0 1-.156.013zM725.821 459.953l58.854-3.338-8.578-29.816z" fill="#141414"/><path d="m725.821 459.953 45.522-67.67 4.754 34.516z" fill="#fff"/><path d="M725.821 460.953a1 1 0 0 1-.83-1.558l45.521-67.67a1.001 1.001 0 0 1 1.821.422l4.754 34.516a1 1 0 0 1-.439.971l-50.275 33.154c-.17.111-.361.165-.552.165zm44.889-65.938-41.274 61.356 45.585-30.061z" fill="#141414"/><path d="m725.821 459.953 96.158-31.129-45.882-2.025z" fill="#fff"/><path d="M725.821 460.953a.999.999 0 0 1-.55-1.835l50.275-33.154a1.04 1.04 0 0 1 .595-.164l45.882 2.026a1 1 0 0 1 .263 1.95l-96.157 31.128a.996.996 0 0 1-.308.049zm50.556-33.141-43.856 28.921 83.88-27.154zm-162.052-14.385-1.157 4.669c-.32 1.29-2.154 1.29-2.473 0l-1.157-4.669a11.065 11.065 0 0 0-8.078-8.078l-4.669-1.157c-1.29-.32-1.29-2.154 0-2.473l4.669-1.157a11.065 11.065 0 0 0 8.078-8.078l1.157-4.669c.32-1.29 2.154-1.29 2.473 0l1.157 4.669a11.065 11.065 0 0 0 8.078 8.078l4.669 1.157c1.29.32 1.29 2.154 0 2.473l-4.669 1.157a11.065 11.065 0 0 0-8.078 8.078zm-209.087-176.7-1.157 4.669c-.32 1.29-2.154 1.29-2.473 0l-1.157-4.669a11.065 11.065 0 0 0-8.078-8.078l-4.669-1.157c-1.29-.32-1.29-2.154 0-2.473l4.669-1.157a11.065 11.065 0 0 0 8.078-8.078l1.157-4.669c.32-1.29 2.154-1.29 2.473 0l1.157 4.669a11.065 11.065 0 0 0 8.078 8.078l4.669 1.157c1.29.32 1.29 2.154 0 2.473l-4.669 1.157a11.065 11.065 0 0 0-8.078 8.078zm1067.037 0-1.157 4.669c-.32 1.29-2.154 1.29-2.474 0l-1.157-4.669a11.065 11.065 0 0 0-8.078-8.078l-4.669-1.157c-1.29-.32-1.29-2.154 0-2.473l4.669-1.157a11.065 11.065 0 0 0 8.078-8.078l1.157-4.669c.32-1.29 2.154-1.29 2.474 0l1.157 4.669a11.065 11.065 0 0 0 8.078 8.078l4.669 1.157c1.29.32 1.29 2.154 0 2.473l-4.669 1.157a11.065 11.065 0 0 0-8.078 8.078zM1159.772 134l-1.157 4.669c-.32 1.29-2.154 1.29-2.474 0l-1.157-4.669a11.065 11.065 0 0 0-8.078-8.078l-4.669-1.157c-1.29-.32-1.29-2.154 0-2.473l4.669-1.157a11.065 11.065 0 0 0 8.078-8.078l1.157-4.669c.32-1.29 2.154-1.29 2.474 0l1.157 4.669a11.065 11.065 0 0 0 8.078 8.078l4.669 1.157c1.29.32 1.29 2.154 0 2.473l-4.669 1.157a11.065 11.065 0 0 0-8.078 8.078zM69.458 524.347l-1.157 4.669c-.32 1.29-2.154 1.29-2.473 0l-1.157-4.669a11.065 11.065 0 0 0-8.078-8.078l-4.669-1.157c-1.29-.32-1.29-2.154 0-2.473l4.669-1.157a11.065 11.065 0 0 0 8.078-8.078l1.157-4.669c.32-1.29 2.154-1.29 2.473 0l1.157 4.669a11.065 11.065 0 0 0 8.078 8.078l4.669 1.157c1.29.32 1.29 2.154 0 2.473l-4.669 1.157a11.065 11.065 0 0 0-8.078 8.078zm1635.686 1.082-1.157 4.669c-.32 1.29-2.154 1.29-2.473 0l-1.157-4.669a11.065 11.065 0 0 0-8.078-8.078l-4.669-1.157c-1.29-.32-1.29-2.154 0-2.473l4.669-1.157a11.065 11.065 0 0 0 8.078-8.078l1.157-4.669c.32-1.29 2.154-1.29 2.473 0l1.157 4.669a11.065 11.065 0 0 0 8.078 8.078l4.669 1.157c1.29.32 1.29 2.154 0 2.473l-4.669 1.157a11.065 11.065 0 0 0-8.078 8.078zM901.448 123.528l-33.173 48.729-21.14-22.709z" fill="#141414"/><path d="m901.448 123.528-81.45 4.167 27.137 21.853z" fill="#fff"/><path d="M847.136 150.547a.998.998 0 0 1-.627-.221l-27.138-21.852a1 1 0 0 1 .576-1.777l81.45-4.167a.999.999 0 0 1 .483 1.9l-54.312 26.019a.998.998 0 0 1-.432.098zm-24.47-21.987 24.606 19.813 49.244-23.591z" fill="#141414"/><path d="m901.448 123.528-76.207 66.391 21.894-40.371z" fill="#fff"/><path d="M825.241 190.92a1 1 0 0 1-.879-1.477l21.895-40.372a.999.999 0 0 1 .447-.425l54.312-26.019a1 1 0 0 1 1.089 1.656l-76.207 66.391a1.002 1.002 0 0 1-.657.246zm22.619-40.611-19.1 35.218 66.478-57.915zM535.207 524.905h-.035a34.669 34.669 0 0 1-2.7-.201 1 1 0 0 1 .228-1.987c.845.097 1.699.161 2.54.189a1 1 0 0 1-.033 1.999zm5.242-.259a1 1 0 0 1-.134-1.99 28.016 28.016 0 0 0 2.495-.455 1 1 0 0 1 .447 1.949c-.876.201-1.775.365-2.673.487a1.02 1.02 0 0 1-.135.009zm-13.021-.918c-.086 0-.173-.011-.259-.034-.862-.23-1.73-.494-2.579-.784a1 1 0 1 1 .647-1.893c.806.275 1.63.525 2.448.744a1 1 0 0 1-.257 1.967zm20.587-1.203a1 1 0 0 1-.405-1.915c.769-.339 1.529-.72 2.263-1.133a1 1 0 0 1 .98 1.743c-.788.444-1.608.854-2.436 1.22a.991.991 0 0 1-.402.085zm-27.954-1.575a1 1 0 0 1-.439-.102 45.652 45.652 0 0 1-2.377-1.256 1 1 0 0 1 .986-1.74c.75.425 1.515.829 2.271 1.2a1 1 0 0 1-.441 1.898zm34.601-2.608a1 1 0 0 1-.65-1.761 27.155 27.155 0 0 0 1.846-1.733 1 1 0 1 1 1.435 1.392 28.976 28.976 0 0 1-1.982 1.862.993.993 0 0 1-.649.24zm-41.34-1.468a.996.996 0 0 1-.587-.191 50.634 50.634 0 0 1-2.126-1.633 1 1 0 1 1 1.26-1.553 49.668 49.668 0 0 0 2.042 1.569.999.999 0 0 1-.589 1.808zm46.555-4.407a1.001 1.001 0 0 1-.828-1.56 32.09 32.09 0 0 0 1.34-2.166.999.999 0 1 1 1.74.985 33.579 33.579 0 0 1-1.424 2.301.995.995 0 0 1-.828.44zm-52.546-.706a.993.993 0 0 1-.704-.291 54.936 54.936 0 0 1-1.854-1.931 1 1 0 1 1 1.476-1.349 54.533 54.533 0 0 0 1.785 1.861.999.999 0 0 1-.703 1.71zm-5.186-5.93a1 1 0 0 1-.797-.394 59.324 59.324 0 0 1-1.571-2.162 1.001 1.001 0 0 1 1.645-1.14 56.228 56.228 0 0 0 1.519 2.089 1 1 0 0 1-.796 1.607zm61.352-.347a1 1 0 0 1-.931-1.363c.302-.776.587-1.59.848-2.417a1.001 1.001 0 0 1 1.908.601 40.969 40.969 0 0 1-.893 2.541 1 1 0 0 1-.932.638zm-65.713-6.215a1 1 0 0 1-.866-.499 70.03 70.03 0 0 1-1.291-2.334 1 1 0 0 1 1.77-.934c.406.771.824 1.526 1.252 2.266a1 1 0 0 1-.865 1.501zm67.87-1.356a.999.999 0 0 1-.982-1.191 51.56 51.56 0 0 0 .428-2.542 1.001 1.001 0 0 1 1.981.284c-.13.9-.278 1.781-.445 2.64a1.002 1.002 0 0 1-.982.809zm-71.417-5.679c-.386 0-.754-.225-.918-.601a71.153 71.153 0 0 1-1.02-2.462 1 1 0 0 1 1.861-.731c.319.812.65 1.609.992 2.393a1 1 0 0 1-.915 1.401zm72.362-2.142-.055-.001a1 1 0 0 1-.945-1.052c.046-.846.074-1.708.087-2.587.008-.552.426-.983 1.015-.986a1 1 0 0 1 .985 1.014 69.538 69.538 0 0 1-.089 2.665c-.03.534-.471.947-.998.947zm-75.125-5.239a1 1 0 0 1-.953-.699 86.349 86.349 0 0 1-.763-2.547 1 1 0 0 1 1.923-.545c.238.842.486 1.671.745 2.488a1 1 0 0 1-.952 1.303zm75.093-2.641a1 1 0 0 1-.997-.938 61.103 61.103 0 0 0-.214-2.576.998.998 0 0 1 .89-1.099.998.998 0 0 1 1.099.89c.093.878.166 1.765.222 2.661a1 1 0 0 1-.937 1.06l-.063.002zm-77.115-4.976c-.461 0-.875-.32-.977-.789a90.164 90.164 0 0 1-.524-2.605 1 1 0 1 1 1.967-.366c.16.86.331 1.71.513 2.548a1.001 1.001 0 0 1-.979 1.212zm76.121-2.834a.999.999 0 0 1-.98-.807 55.49 55.49 0 0 0-.556-2.52 1 1 0 0 1 1.943-.476c.21.86.402 1.73.575 2.609a1 1 0 0 1-.982 1.194zm-77.453-4.934a1 1 0 0 1-.991-.873c-.111-.869-.213-1.748-.304-2.637a1 1 0 1 1 1.991-.203c.089.872.188 1.733.298 2.585a1 1 0 0 1-.994 1.128zm75.404-2.664a.998.998 0 0 1-.944-.672 54.419 54.419 0 0 0-.903-2.415 1 1 0 1 1 1.856-.745c.331.824.644 1.659.937 2.504a.999.999 0 0 1-.946 1.328zm-76.103-5.187a1 1 0 0 1-.998-.949c-.044-.875-.078-1.758-.104-2.649a1 1 0 0 1 .973-1.027h.028c.539 0 .983.43.999.972.023.877.058 1.745.102 2.604a1 1 0 0 1-.948 1.049h-.052zm73.001-2.046c-.362 0-.712-.197-.89-.541a54.944 54.944 0 0 0-1.237-2.264 1 1 0 0 1 1.732-1c.445.771.872 1.553 1.282 2.346a1.001 1.001 0 0 1-.887 1.459zm-73.121-5.837h-.02a1 1 0 0 1-.98-1.019c.017-.875.044-1.759.08-2.649a1 1 0 1 1 1.998.082c-.036.876-.062 1.745-.078 2.605a1.001 1.001 0 0 1-1 .981zm-102.101-.075a1 1 0 0 1-.801-1.597 63.686 63.686 0 0 1 1.635-2.105.998.998 0 0 1 1.406-.148c.43.347.496.977.148 1.406a65.154 65.154 0 0 0-1.586 2.042.995.995 0 0 1-.802.402zm171.132-.813a.996.996 0 0 1-.818-.424 57.015 57.015 0 0 0-1.536-2.077 1 1 0 0 1 1.581-1.225 58.125 58.125 0 0 1 1.59 2.15 1 1 0 0 1-.817 1.576zm-166.061-5.215a1 1 0 0 1-.727-1.687 73.947 73.947 0 0 1 1.861-1.898 1 1 0 1 1 1.402 1.426 71.664 71.664 0 0 0-1.811 1.847.994.994 0 0 1-.725.312zm161.105-.915a.994.994 0 0 1-.736-.323 65.559 65.559 0 0 0-1.79-1.869.999.999 0 1 1 1.416-1.412c.63.631 1.245 1.273 1.846 1.926a.999.999 0 0 1-.736 1.678zm-63.671-.857-.083-.003a1 1 0 0 1-.915-1.079c.072-.872.154-1.75.243-2.636a1 1 0 0 1 1.991.201c-.089.873-.169 1.74-.239 2.599a1.001 1.001 0 0 1-.997.918zm-91.723-3.647a1 1 0 0 1-.65-1.761 75.552 75.552 0 0 1 2.057-1.694 1 1 0 1 1 1.244 1.565c-.679.54-1.346 1.09-2.002 1.65a.993.993 0 0 1-.649.24zm149.725-.968a.996.996 0 0 1-.651-.241 74.53 74.53 0 0 0-1.997-1.654 1 1 0 1 1 1.248-1.563 77.04 77.04 0 0 1 2.052 1.699 1 1 0 0 1-.652 1.759zm-57.126-3.222a1 1 0 0 1-.992-1.139c.122-.866.253-1.739.393-2.618a1 1 0 1 1 1.975.314c-.138.867-.267 1.728-.387 2.583a1 1 0 0 1-.989.86zm-86.354-.623a1 1 0 0 1-.572-1.82 89.335 89.335 0 0 1 2.204-1.487 1.001 1.001 0 0 1 1.094 1.675c-.729.475-1.446.959-2.155 1.453a1 1 0 0 1-.571.179zm137.238-.968a.995.995 0 0 1-.568-.178 81.007 81.007 0 0 0-2.158-1.444 1 1 0 1 1 1.086-1.68c.747.483 1.484.977 2.211 1.479a1.001 1.001 0 0 1-.571 1.823zm-130.575-3.247a1 1 0 0 1-.498-1.867c.766-.439 1.54-.869 2.322-1.29a1 1 0 0 1 .947 1.761c-.767.412-1.525.833-2.275 1.263a.98.98 0 0 1-.496.133zm123.891-.929a.996.996 0 0 1-.489-.128 96.181 96.181 0 0 0-2.285-1.244 1 1 0 1 1 .932-1.77 96.71 96.71 0 0 1 2.334 1.27 1.001 1.001 0 0 1-.492 1.872zm-42.894-2.01a.999.999 0 0 1-.982-1.191c.167-.859.342-1.723.526-2.593a1 1 0 0 1 1.958.416c-.183.858-.355 1.712-.521 2.559a1.001 1.001 0 0 1-.981.809zm-74.004-.703a1 1 0 0 1-.427-1.904c.798-.376 1.603-.745 2.415-1.103a1 1 0 0 1 .806 1.83 99.95 99.95 0 0 0-2.368 1.082 1.014 1.014 0 0 1-.426.095zm109.869-.862a.999.999 0 0 1-.416-.091c-.786-.36-1.58-.712-2.381-1.054a1 1 0 1 1 .787-1.838c.816.349 1.626.708 2.428 1.075a1 1 0 0 1-.418 1.908zm-102.62-2.239a1 1 0 0 1-.361-1.933c.823-.318 1.651-.627 2.486-.927a1 1 0 1 1 .675 1.882c-.819.295-1.633.598-2.441.91a.981.981 0 0 1-.359.068zm95.334-.772c-.115 0-.232-.021-.348-.062-.812-.301-1.631-.594-2.454-.877a1 1 0 0 1 .651-1.891c.839.289 1.671.586 2.499.892a1 1 0 0 1-.348 1.938zm-87.886-1.818a1.001 1.001 0 0 1-.297-1.955c.84-.262 1.684-.515 2.532-.759a1 1 0 1 1 .552 1.922c-.835.24-1.665.489-2.491.746a.952.952 0 0 1-.296.046zm80.4-.665a1 1 0 0 1-.283-.042c-.831-.245-1.668-.481-2.509-.71a1 1 0 1 1 .524-1.93c.856.232 1.707.473 2.552.722a1 1 0 0 1-.284 1.96zm-19.401-.643a1 1 0 0 1-.972-1.236c.207-.85.424-1.704.646-2.563a.998.998 0 0 1 .789-.733.997.997 0 0 1 1.11-.726c.875.128 1.747.265 2.616.409a1 1 0 1 1-.326 1.973c-.755-.125-1.512-.244-2.271-.357-.214.829-.423 1.652-.622 2.471a1 1 0 0 1-.97.762zm-53.41-.795a1.001 1.001 0 0 1-.237-1.972c.854-.208 1.712-.409 2.574-.602a1 1 0 1 1 .435 1.952c-.849.189-1.694.387-2.535.593a1.011 1.011 0 0 1-.237.029zm65.18-.551c-.073 0-.147-.008-.223-.025-.847-.192-1.697-.376-2.551-.553a1 1 0 1 1 .405-1.959c.867.179 1.729.366 2.59.562a1 1 0 0 1-.221 1.975zm-57.475-1.092a1 1 0 0 1-.178-1.984c.865-.158 1.733-.309 2.604-.451a1 1 0 0 1 .324 1.973c-.858.141-1.715.289-2.568.445a1.036 1.036 0 0 1-.182.017zm7.788-1.201a1 1 0 0 1-.124-1.992c.874-.11 1.751-.212 2.628-.306a.992.992 0 0 1 1.101.888 1 1 0 0 1-.888 1.101c-.865.093-1.729.194-2.591.302a1.349 1.349 0 0 1-.126.007zm34.131-.295a.977.977 0 0 1-.108-.006c-.868-.094-1.737-.18-2.608-.259a1 1 0 0 1-.906-1.086c.05-.55.553-.952 1.086-.906.883.08 1.764.167 2.644.263a1 1 0 0 1-.108 1.994zm-26.285-.477a1 1 0 0 1-.069-1.997c.879-.062 1.76-.117 2.641-.164a1.016 1.016 0 0 1 1.053.945 1 1 0 0 1-.945 1.052c-.869.046-1.738.101-2.607.162a1.88 1.88 0 0 1-.073.002zm18.405-.161-.055-.001a151.4 151.4 0 0 0-2.614-.116 1 1 0 0 1-.964-1.035c.02-.553.536-.981 1.034-.964.885.032 1.77.071 2.651.118a1 1 0 0 1-.052 1.998zm-10.524-.188a1 1 0 0 1-.018-2c.879-.016 1.758-.023 2.635-.023.553 0 1.006.448 1.006 1s-.442 1-.995 1c-.876 0-1.743.008-2.61.023h-.018zm24.23-2.857a1 1 0 0 1-.96-1.281c.244-.839.496-1.683.756-2.531a.999.999 0 1 1 1.912.584c-.256.84-.506 1.676-.748 2.507a1 1 0 0 1-.96.721zm2.359-7.524a1 1 0 0 1-.947-1.321c.282-.835.573-1.667.876-2.495a1 1 0 1 1 1.879.686 99.9 99.9 0 0 0-.86 2.448 1.003 1.003 0 0 1-.948.682zm2.778-7.358a1 1 0 0 1-.923-1.386c.341-.815.69-1.625 1.051-2.433a.999.999 0 1 1 1.826.813c-.353.793-.696 1.59-1.031 2.391a1 1 0 0 1-.923.615zm3.282-7.16a1 1 0 0 1-.893-1.446c.394-.789.797-1.575 1.209-2.357a1 1 0 1 1 1.77.934c-.406.769-.802 1.541-1.189 2.317-.176.349-.53.552-.897.552zm3.745-6.931a.998.998 0 0 1-.863-1.503c.442-.762.895-1.521 1.355-2.276a1 1 0 0 1 1.707 1.042 130.67 130.67 0 0 0-1.334 2.239.997.997 0 0 1-.865.498zm4.165-6.689a1 1 0 0 1-.832-1.553c.488-.734.983-1.464 1.486-2.191a1 1 0 1 1 1.645 1.14 132.16 132.16 0 0 0-1.465 2.159.999.999 0 0 1-.834.445zm4.542-6.44a.999.999 0 0 1-.8-1.599c.526-.705 1.061-1.407 1.601-2.105a1 1 0 0 1 1.582 1.225 147.76 147.76 0 0 0-1.581 2.078.997.997 0 0 1-.802.401zm4.879-6.192a1 1 0 0 1-.769-1.638 168.71 168.71 0 0 1 1.703-2.022 1 1 0 0 1 1.519 1.301c-.568.663-1.129 1.329-1.684 1.998a.996.996 0 0 1-.769.361zm5.177-5.948a1 1 0 0 1-.739-1.674 171.11 171.11 0 0 1 1.796-1.94 1 1 0 1 1 1.457 1.37c-.598.636-1.189 1.276-1.774 1.918a1.002 1.002 0 0 1-.74.326zm5.436-5.713a.999.999 0 0 1-.71-1.705c.619-.624 1.244-1.244 1.874-1.863a.999.999 0 1 1 1.4 1.428c-.624.612-1.241 1.227-1.854 1.844a.998.998 0 0 1-.71.296zm5.664-5.487a1 1 0 0 1-.681-1.731c.643-.599 1.29-1.196 1.943-1.79a1.001 1.001 0 0 1 1.346 1.48 235.12 235.12 0 0 0-1.926 1.773 1 1 0 0 1-.682.268zm5.864-5.275a.999.999 0 0 1-.655-1.755 225.25 225.25 0 0 1 2.002-1.72 1 1 0 1 1 1.295 1.524c-.666.567-1.328 1.135-1.986 1.706a.995.995 0 0 1-.656.245zm6.04-5.074a1 1 0 0 1-.631-1.776c.682-.554 1.366-1.105 2.056-1.655a1 1 0 0 1 1.246 1.563 256.62 256.62 0 0 0-2.04 1.643.994.994 0 0 1-.631.225zm6.193-4.886a.999.999 0 0 1-.609-1.794c.697-.534 1.397-1.065 2.103-1.595a1 1 0 0 1 1.4.198 1.001 1.001 0 0 1-.199 1.4c-.699.526-1.396 1.054-2.087 1.584a1 1 0 0 1-.608.207zm6.327-4.712a.999.999 0 0 1-.587-1.81c.711-.515 1.425-1.028 2.144-1.538a1.002 1.002 0 0 1 1.395.235c.319.45.214 1.075-.236 1.395-.713.507-1.423 1.017-2.13 1.528a.999.999 0 0 1-.586.19zm6.446-4.55a.999.999 0 0 1-.568-1.824c.724-.498 1.45-.994 2.181-1.487a1 1 0 0 1 1.119 1.658c-.727.49-1.447.983-2.165 1.477a1.005 1.005 0 0 1-.567.176zm6.549-4.398a1 1 0 0 1-.55-1.836c.733-.481 1.471-.961 2.211-1.439a1 1 0 1 1 1.084 1.681c-.736.475-1.468.952-2.197 1.43a.986.986 0 0 1-.548.164zm6.643-4.259a1 1 0 0 1-.533-1.846c.743-.467 1.489-.932 2.238-1.394a.999.999 0 1 1 1.051 1.701c-.745.46-1.487.922-2.227 1.386a.983.983 0 0 1-.529.153zm6.723-4.13a1 1 0 0 1-.516-1.857c.752-.453 1.505-.904 2.262-1.353a1 1 0 1 1 1.021 1.72c-.753.447-1.504.896-2.252 1.346a.99.99 0 0 1-.515.144zm6.796-4.012a1 1 0 0 1-.502-1.866c.759-.44 1.521-.878 2.284-1.315a1.001 1.001 0 0 1 .992 1.737c-.76.435-1.518.871-2.274 1.309a.99.99 0 0 1-.5.135zm6.857-3.902a1 1 0 0 1-.488-1.873c.766-.428 1.533-.854 2.302-1.28a1 1 0 0 1 .968 1.75c-.767.424-1.532.849-2.295 1.276a1 1 0 0 1-.487.127zm6.897-3.793a1 1 0 0 1-.477-1.879l2.312-1.244a1 1 0 1 1 .946 1.763l-2.306 1.241a1.007 1.007 0 0 1-.475.119zm6.945-3.702a1 1 0 0 1-.466-1.885l2.331-1.218a1 1 0 1 1 .924 1.774l-2.325 1.215a.997.997 0 0 1-.464.114zm7.003-3.625a1 1 0 0 1-.456-1.89l2.35-1.194a1.001 1.001 0 0 1 .905 1.784l-2.344 1.191a1.008 1.008 0 0 1-.455.109zm7.054-3.556a1 1 0 0 1-.446-1.896l2.365-1.172a1 1 0 1 1 .885 1.793l-2.359 1.17a.985.985 0 0 1-.445.105zm7.102-3.494a1 1 0 0 1-.438-1.899l2.368-1.148a1 1 0 1 1 .871 1.8l-2.364 1.146a.99.99 0 0 1-.437.101zm7.109-3.423a1 1 0 0 1-.431-1.903l2.379-1.129a.999.999 0 1 1 .855 1.808l-2.373 1.127c-.14.066-.286.097-.43.097zm7.137-3.369a1 1 0 0 1-.425-1.906l2.386-1.113a1 1 0 0 1 .844 1.814l-2.382 1.111a1 1 0 0 1-.423.094zm7.158-3.322a1 1 0 0 1-.42-1.909l2.392-1.099a1.001 1.001 0 0 1 .834 1.819l-2.388 1.097a1.002 1.002 0 0 1-.418.092zm7.176-3.284a1 1 0 0 1-.415-1.91l2.396-1.087a1 1 0 1 1 .824 1.823l-2.393 1.085c-.134.06-.274.089-.412.089zm7.192-3.249a1 1 0 0 1-.411-1.913l2.4-1.077a.998.998 0 0 1 1.321.504.998.998 0 0 1-.503 1.321l-2.398 1.076a.984.984 0 0 1-.409.089zm7.203-3.225a1 1 0 0 1-.408-1.914l2.403-1.07a.999.999 0 1 1 .812 1.827l-2.401 1.07a1 1 0 0 1-.406.087zm7.212-3.206a1 1 0 0 1-.406-1.914l2.404-1.066a.999.999 0 1 1 .81 1.828l-2.404 1.066a.989.989 0 0 1-.404.086zm7.214-3.195a1 1 0 0 1-.405-1.915l2.405-1.064a1 1 0 1 1 .808 1.829l-2.405 1.064a.974.974 0 0 1-.403.086zm7.218-3.194a1 1 0 0 1-.406-1.914l2.405-1.065a.999.999 0 1 1 .81 1.828l-2.405 1.066a.997.997 0 0 1-.404.085zm7.215-3.199a1 1 0 0 1-.407-1.914l2.402-1.069a1 1 0 1 1 .814 1.827l-2.404 1.07c-.132.058-.27.086-.405.086zm7.207-3.215a.999.999 0 0 1-.409-1.912l2.398-1.076a.999.999 0 1 1 .82 1.824l-2.402 1.077a.997.997 0 0 1-.407.087zm7.197-3.242a1.001 1.001 0 0 1-.414-1.91l2.393-1.088a1 1 0 0 1 .83 1.821l-2.396 1.089a1.01 1.01 0 0 1-.413.088zm7.18-3.279a1.001 1.001 0 0 1-.42-1.909l2.386-1.103a1 1 0 0 1 .842 1.815l-2.39 1.105a1.006 1.006 0 0 1-.418.092zm7.154-3.332a1 1 0 0 1-.426-1.905l2.375-1.123a1 1 0 1 1 .857 1.807l-2.38 1.126a1.014 1.014 0 0 1-.426.095zm7.123-3.4a1 1 0 0 1-.437-1.9l2.362-1.15a1 1 0 0 1 .879 1.796l-2.368 1.153a1 1 0 0 1-.436.101zm7.079-3.488a1.001 1.001 0 0 1-.45-1.893c.786-.395 1.568-.79 2.345-1.183a1 1 0 0 1 .905 1.783c-.778.396-1.562.791-2.353 1.187a.992.992 0 0 1-.447.106zm7.027-3.596a1 1 0 0 1-.465-1.886c.78-.409 1.554-.817 2.32-1.225a1.001 1.001 0 0 1 .94 1.766c-.771.41-1.548.82-2.332 1.231a1.005 1.005 0 0 1-.463.114zm6.952-3.736a.999.999 0 0 1-.484-1.876c.771-.426 1.534-.852 2.289-1.277a1 1 0 1 1 .982 1.742c-.761.429-1.528.857-2.305 1.286a.99.99 0 0 1-.482.125zm6.853-3.911a1 1 0 0 1-.509-1.862 222.58 222.58 0 0 0 2.247-1.344 1 1 0 0 1 1.037 1.711c-.747.452-1.502.904-2.267 1.356a1 1 0 0 1-.508.139zm6.722-4.135a.999.999 0 0 1-.542-1.841c.741-.476 1.472-.953 2.19-1.43a.999.999 0 1 1 1.106 1.667c-.727.482-1.465.963-2.214 1.445a.992.992 0 0 1-.54.159zm6.533-4.418a1 1 0 0 1-.583-1.813c.717-.512 1.419-1.024 2.106-1.538a1 1 0 1 1 1.197 1.602c-.699.521-1.413 1.042-2.14 1.562a.99.99 0 0 1-.58.187zm6.261-4.789a1 1 0 0 1-.636-1.772 93.31 93.31 0 0 0 1.984-1.68 1 1 0 1 1 1.312 1.509 96.744 96.744 0 0 1-2.025 1.715.993.993 0 0 1-.635.228zm5.845-5.274a.999.999 0 0 1-.707-1.707 63.102 63.102 0 0 0 1.79-1.862 1.001 1.001 0 0 1 1.471 1.356 67.157 67.157 0 0 1-1.847 1.92.993.993 0 0 1-.707.293zm5.173-5.902a1 1 0 0 1-.798-1.601c.52-.69 1.016-1.395 1.476-2.092a1 1 0 1 1 1.67 1.1 42.4 42.4 0 0 1-1.548 2.193.999.999 0 0 1-.8.4zm4.069-6.766a.926.926 0 0 1-.386-.083c-.502-.229-.744-.779-.516-1.281l.05-.11a1 1 0 1 1 1.81.852 1.071 1.071 0 0 1-.958.622z" fill="#141414"/><path d="M1709.922 895.617h-106.863l-98.552 180.592 47.293 8.721a114.124 114.124 0 0 0 39.967.253c44.401-7.608 80.171-40.625 91.303-84.275z" fill="#fff"/><path d="M1572.487 1087.827c-6.977 0-13.95-.638-20.87-1.914l-47.293-8.721a1.001 1.001 0 0 1-.697-1.462l98.553-180.592c.176-.321.512-.521.878-.521h106.863a1.002 1.002 0 0 1 .969 1.247l-26.853 105.29c-11.216 43.979-47.369 77.348-92.104 85.014a115.058 115.058 0 0 1-19.446 1.659zm-66.442-12.351 45.936 8.47a112.804 112.804 0 0 0 39.616.25c43.957-7.532 79.482-40.322 90.504-83.536l26.534-104.043h-104.982z" fill="#141414"/><path d="m1686.962 910.803-23.945 104.87c-7.614 33.348-37.276 57-71.482 57h-141.722v37.899h173.098c34.037 0 63.599-23.424 71.38-56.56l31.517-134.214c2.612-11.124-4.64-22.163-15.887-24.182-10.48-1.88-20.589 4.806-22.959 15.187z" fill="#fff"/><path d="M1622.911 1111.573h-173.098a1 1 0 0 1-1-1v-37.899a1 1 0 0 1 1-1h141.722c16.318 0 32.331-5.603 45.089-15.776 12.759-10.174 21.785-24.538 25.418-40.447l23.945-104.87c2.492-10.921 13.081-17.926 24.111-15.948 5.712 1.025 10.613 4.262 13.8 9.112 3.187 4.851 4.211 10.633 2.884 16.283l-31.518 134.214c-7.925 33.756-37.678 57.331-72.353 57.331zm-172.098-2h172.098c33.741 0 62.693-22.941 70.406-55.788l31.518-134.214c1.2-5.11.273-10.34-2.608-14.728-2.882-4.387-7.314-7.314-12.481-8.241a18.91 18.91 0 0 0-21.809 14.424l-23.945 104.87c-3.732 16.349-13.009 31.11-26.12 41.565s-29.566 16.213-46.336 16.213h-140.722v35.899zm236.149-198.77h.01z" fill="#141414"/><path d="M1571.686 1348.676h-38.385v-222.862h38.385z" fill="#fff"/><path d="M1571.686 1349.676h-38.385a1 1 0 0 1-1-1v-222.861a1 1 0 0 1 1-1h38.385a1 1 0 0 1 1 1v222.861a1 1 0 0 1-1 1zm-37.385-2h36.385v-220.861h-36.385z" fill="#141414"/><path d="M1519.08 1376.41h66.827a4.012 4.012 0 0 0 4.012-4.012v-22.315a4.012 4.012 0 0 0-4.012-4.012h-66.827a4.012 4.012 0 0 0-4.012 4.012v22.315a4.012 4.012 0 0 0 4.012 4.012z" fill="#fff"/><path d="M1585.907 1377.41h-66.827a5.017 5.017 0 0 1-5.012-5.012v-22.315a5.017 5.017 0 0 1 5.012-5.012h66.827a5.017 5.017 0 0 1 5.012 5.012v22.315a5.017 5.017 0 0 1-5.012 5.012zm-66.827-30.339a3.015 3.015 0 0 0-3.012 3.012v22.315a3.015 3.015 0 0 0 3.012 3.012h66.827a3.015 3.015 0 0 0 3.012-3.012v-22.315a3.015 3.015 0 0 0-3.012-3.012z" fill="#141414"/><path d="M1584.161 1132.31h-63.335v-21.737h63.335z" fill="#fff"/><path d="M1584.161 1133.31h-63.335a1 1 0 0 1-1-1v-21.737a1 1 0 0 1 1-1h63.335a1 1 0 0 1 1 1v21.737a1 1 0 0 1-1 1zm-62.335-2h61.335v-19.737h-61.335z" fill="#141414"/><path d="M1471.246 1391.58h162.495a4.012 4.012 0 0 0 4.012-4.012v-22.315a4.012 4.012 0 0 0-4.012-4.012h-162.495a4.012 4.012 0 0 0-4.012 4.012v22.315a4.012 4.012 0 0 0 4.012 4.012z" fill="#fff"/><path d="M1633.741 1392.58h-162.495a5.017 5.017 0 0 1-5.012-5.012v-22.315a5.017 5.017 0 0 1 5.012-5.012h162.495a5.017 5.017 0 0 1 5.012 5.012v22.315a5.017 5.017 0 0 1-5.012 5.012zm-162.495-30.339a3.015 3.015 0 0 0-3.012 3.012v22.315a3.015 3.015 0 0 0 3.012 3.012h162.495a3.015 3.015 0 0 0 3.012-3.012v-22.315a3.015 3.015 0 0 0-3.012-3.012z" fill="#141414"/><path d="M1405.066 829.81v60.973l-110.173 34.899a107.78 107.78 0 0 0-72.469 78.496l-95.059 322.571h131.986l76.972-244.989 20.795 244.989h124.571l13.287-253.342h26.283c79.081 0 144.29-61.973 148.31-140.952l5.226-102.646h-269.729z" fill="#fff"/><path d="M1481.688 1327.749h-124.571a1 1 0 0 1-.996-.916l-20.366-239.932-75.45 240.147a1 1 0 0 1-.954.7h-131.986a1 1 0 0 1-.959-1.283l95.059-322.57c8.601-37.248 36.627-67.604 73.127-79.167l109.476-34.678v-60.24a1 1 0 0 1 1-1h269.729a1 1 0 0 1 .999 1.051l-5.226 102.646c-4.051 79.571-69.636 141.901-149.31 141.901h-25.334l-13.237 252.394c-.03.531-.468.947-1.001.947zm-123.652-2h122.703l13.237-252.394a1 1 0 0 1 .999-.948h26.283c78.608 0 143.315-61.497 147.312-140.003l5.173-101.595h-267.677v59.973a.998.998 0 0 1-.698.953l-110.174 34.899c-35.829 11.35-63.34 41.149-71.797 77.769l-94.696 321.345h129.915l76.752-244.289a1 1 0 0 1 1.95.216zm47.03-434.966h.01z" fill="#141414"/><path d="M1465.602 1391.575h-171.776a21.61 21.61 0 0 1-15.383-6.386 21.608 21.608 0 0 1-6.387-15.383 21.75 21.75 0 0 1 15.135-20.727l34.519-11.034 35.414-11.308h124.558l4.697 34.271.795 5.865c1.788 13.072-8.376 24.702-21.572 24.702z" fill="#141414"/><path d="M1465.602 1392.575h-171.776c-6.096 0-11.811-2.373-16.092-6.682-4.306-4.277-6.679-9.992-6.679-16.087a22.686 22.686 0 0 1 15.83-21.68l69.935-22.342c.098-.031.2-.047.304-.047h124.558a1 1 0 0 1 .991.864l5.492 40.137a22.74 22.74 0 0 1-5.396 18.036 22.777 22.777 0 0 1-17.167 7.801zm-108.323-64.838-69.785 22.294a20.69 20.69 0 0 0-14.439 19.774c0 5.559 2.164 10.77 6.093 14.673 3.907 3.933 9.118 6.096 14.678 6.096h171.776a20.778 20.778 0 0 0 15.66-7.116 20.743 20.743 0 0 0 4.92-16.451l-.795-5.866-4.578-33.405h-123.53zm-114.016 63.838h-171.776a21.61 21.61 0 0 1-15.383-6.386 21.608 21.608 0 0 1-6.387-15.383 21.752 21.752 0 0 1 15.135-20.727l34.519-11.034 35.414-11.308h124.558l4.697 34.271.795 5.865c1.789 13.072-8.375 24.702-21.572 24.702z" fill="#141414"/><path d="M1243.264 1392.575h-171.776c-6.096 0-11.811-2.373-16.093-6.682-4.305-4.278-6.678-9.993-6.678-16.088a22.685 22.685 0 0 1 15.83-21.68l69.934-22.342c.098-.031.2-.047.304-.047h124.559a1 1 0 0 1 .991.864l5.492 40.137a22.74 22.74 0 0 1-5.396 18.036 22.774 22.774 0 0 1-17.167 7.802zm-108.324-64.838-69.784 22.294a20.69 20.69 0 0 0-14.439 19.774c0 5.559 2.163 10.77 6.092 14.673 3.908 3.933 9.12 6.096 14.679 6.096h171.776a20.778 20.778 0 0 0 15.66-7.116 20.743 20.743 0 0 0 4.92-16.451l-5.373-39.271H1134.94z" fill="#141414"/><path d="M1568.939 388.333c-18.38-50.796-125.785-44.595-133.314 46.643s-64.664 127.557 10.187 169.19 160.775 18.159 171.404-30.118c10.63-48.277.443-57.135 2.215-115.155s-9.302-75.875-50.492-70.56z" fill="#fff"/><path d="M1527.329 626.663c-27.341.001-56.335-7.345-82.004-21.623-50.372-28.018-41.549-54.505-28.194-94.597 6.671-20.025 14.973-44.948 17.497-75.549 1.879-22.768 10.274-42.218 24.277-56.247 12.11-12.133 28.381-20.094 45.814-22.416 29.812-3.973 56.348 8.757 64.88 31.01 17.623-2.164 29.479.126 37.267 7.187 10.735 9.734 14.665 28.419 13.564 64.495-.703 23.028.466 38.087 1.497 51.374 1.566 20.174 2.697 34.75-3.735 63.965-3.866 17.559-17.609 32.46-38.699 41.96-15.546 7.004-33.471 10.44-52.164 10.441zm-11.854-269.153c-3.433 0-6.935.23-10.491.704-17 2.265-32.861 10.023-44.663 21.846-13.664 13.69-21.859 32.708-23.698 54.998-2.546 30.841-10.89 55.89-17.594 76.017-13.503 40.537-21.653 65.005 27.27 92.217 42.687 23.743 94.646 28.103 132.374 11.107 20.499-9.233 33.841-23.64 37.567-40.566 6.369-28.926 5.247-43.378 3.694-63.381-1.035-13.337-2.209-28.454-1.503-51.59 1.067-34.955-2.793-53.781-12.908-62.952-7.437-6.744-19.021-8.836-36.455-6.586a1.004 1.004 0 0 1-1.068-.651c-6.937-19.167-27.772-31.163-52.525-31.163z" fill="#141414"/><path d="m1339.516 737.243-23.94 56.849c-6.922 16.438-1.168 35.476 13.701 45.328 15.827 10.486 37.016 7.333 49.103-7.307l48.647-58.922z" fill="#fff"/><path d="M1349.778 846.62c-7.257 0-14.579-2.076-21.055-6.367-15.254-10.108-21.172-29.685-14.069-46.55l23.939-56.849a1.002 1.002 0 0 1 1.302-.537l87.512 35.948a1 1 0 0 1 .392 1.562l-48.647 58.922a38.018 38.018 0 0 1-29.374 13.871zm-9.725-108.075-23.555 55.936c-6.729 15.979-1.123 34.529 13.331 44.106a36.025 36.025 0 0 0 47.779-7.11l47.784-57.875z" fill="#141414"/><path d="m1562.476 549.796 90.495 18.066a55.624 55.624 0 0 1 40.892 34.235l51.797 132.045s-53.592 1.427-76.18 33.046l5.315 62.622h-269.729s3.543-12.732-1.772-33.826-7.972-35.267-7.972-35.267l-55.806-23.474 36.023-118.77a55.623 55.623 0 0 1 37.493-37.207l85.56-25.236z" fill="#141414"/><path d="M1674.795 830.81h-269.729a1.001 1.001 0 0 1-.964-1.268c.035-.125 3.399-12.77-1.778-33.315-4.694-18.631-7.347-32.025-7.883-34.796l-55.313-23.267a.999.999 0 0 1-.569-1.212l36.023-118.771c5.553-18.305 19.82-32.464 38.167-37.875l85.561-25.236a.981.981 0 0 1 .187-.036l63.883-6.233a.928.928 0 0 1 .292.015l90.495 18.066c18.994 3.792 34.556 16.82 41.628 34.85l51.797 132.045a.999.999 0 0 1-.905 1.364c-.529.014-53.019 1.775-75.179 32.331l5.283 62.253a.996.996 0 0 1-.26.761.996.996 0 0 1-.736.324zm-268.474-2h267.385l-5.222-61.538a.99.99 0 0 1 .183-.666c20.554-28.771 66.872-32.875 75.554-33.395l-51.288-130.75c-6.823-17.394-21.835-29.962-40.157-33.62l-90.351-18.037-63.641 6.209-85.469 25.209c-17.699 5.221-31.463 18.879-36.819 36.538l-35.762 117.908 54.976 23.125c.31.13.533.407.595.738.027.141 2.714 14.389 7.959 35.207 4.429 17.582 2.808 29.33 2.057 33.072z" fill="#141414"/><path d="M1586.724 833.644a1 1 0 0 1-.994-.904c-.04-.41-3.957-41.68-4.126-96.391-.157-50.513 2.941-123.149 18.587-182.333a1 1 0 1 1 1.934.511c-15.589 58.968-18.676 131.408-18.521 181.794.169 54.623 4.078 95.817 4.117 96.227a1 1 0 0 1-.997 1.096zm-20.261-332.115v54.028s-13.743 17.943-43.888 16.825c-25.548-.919-27.188-12.376-27.064-15.83 0-.621.075-.994.075-.994v-21.696z" fill="#fff"/><path d="M1525.221 573.432c-.879 0-1.773-.016-2.683-.05-26.533-.955-28.16-13.151-28.026-16.866a6.774 6.774 0 0 1 .074-1.044v-21.61c0-.392.229-.747.585-.91l70.877-32.333a.999.999 0 0 1 1.415.909v54.028c0 .22-.072.434-.206.608-.145.189-3.635 4.687-10.917 9.08-6.305 3.805-16.7 8.188-31.119 8.188zm-28.655-17.677s-.056.302-.056.797c-.117 3.282 1.421 13.943 26.101 14.831 15.272.572 26.166-3.928 32.609-7.798 6.03-3.621 9.406-7.388 10.242-8.383v-52.117l-68.877 31.42v21.052a.936.936 0 0 1-.019.198z" fill="#141414"/><path d="M1566.463 501.529v11.879c-8.325 11.507-30.941 37.03-70.952 43.143 0-.621.075-.994.075-.994v-21.696z" fill="#141414"/><path d="M1460.017 440.251c.59 11.663 2.805 16.535 1.476 31.594s1.772 60.235 33.365 65.402 72.932-12.037 85.038-55.033c12.254 6.904 25.984-11.402 20.078-21.294-5.905-9.892-17.421-4.134-20.817 3.691s-4.429 11.073-4.429 11.073-9.744-28.936-13.14-46.8-3.396-24.212-3.396-24.212-39.711 32.478-98.175 35.579z" fill="#fff"/><path d="M1506.049 539.141c-3.835 0-7.635-.299-11.351-.907-32.239-5.273-35.574-50.907-34.201-66.477.869-9.852.197-15.368-.514-21.208-.375-3.078-.763-6.261-.965-10.249-.027-.55.396-1.02.946-1.049 57.471-3.047 97.202-35.032 97.597-35.355a1 1 0 0 1 1.633.773c0 .063.05 6.519 3.378 24.026 2.736 14.398 9.707 36.294 12.201 43.929.689-1.803 1.791-4.55 3.468-8.413 2.25-5.184 7.583-9.185 12.68-9.513 4.047-.257 7.56 1.766 9.913 5.708 3.589 6.011.565 14.182-4.276 19.147-4.778 4.9-10.818 6.405-16.034 4.092-7.312 24.653-23.202 38.075-35.341 45.014-11.979 6.848-25.762 10.482-39.134 10.482zm-44.978-97.948c.209 3.464.559 6.333.897 9.114.725 5.947 1.408 11.564.521 21.625-1.331 15.09 1.789 59.299 32.531 64.328 31.793 5.2 72.019-12.067 83.913-54.318a1.001 1.001 0 0 1 1.454-.6c4.7 2.647 10.211 1.458 14.738-3.185 4.202-4.309 7.029-11.636 3.991-16.725-1.977-3.312-4.75-4.95-8.067-4.737-4.32.278-9.038 3.853-10.975 8.313-3.326 7.666-4.383 10.946-4.393 10.979a1.002 1.002 0 0 1-.945.696h-.008a.998.998 0 0 1-.947-.681c-.098-.29-9.806-29.207-13.175-46.933-2.381-12.526-3.102-19.393-3.319-22.441-7.846 5.856-44.984 31.543-96.216 34.565z" fill="#141414"/><path d="M1494.601 492.111a.983.983 0 0 1-.388-.079l-4.138-1.742a6.17 6.17 0 0 1-3.522-7.457l6.426-21.573a1 1 0 0 1 1.916.571l-6.426 21.573a4.172 4.172 0 0 0 2.382 5.042l4.138 1.742a1 1 0 0 1-.388 1.923zm90.02-16.608c-.397 0-.774-.24-.93-.632-1.414-3.572.579-7.189 3.182-9.19 2.096-1.612 4.262-1.977 5.65-.951a1 1 0 0 1-1.189 1.608c-.601-.445-1.965-.054-3.242.928-2.007 1.543-3.571 4.266-2.541 6.869a1 1 0 0 1-.93 1.368zm-86.028 31.846c.919 7.005 7.214 11.963 14.184 11.303.162.002.321-.019.48-.04a13.05 13.05 0 0 0 10.643-8.637c.68-1.871.921-3.915.643-6.03z" fill="#141414"/><path d="M1512.63 517.885c.036.273.091.52.147.767.162.002.321-.019.48-.04a13.05 13.05 0 0 0 10.643-8.637 7.66 7.66 0 0 0-4.594-.809c-4.253.558-7.234 4.466-6.676 8.719z" fill="#fff"/><path d="M1511.511 519.712a14.006 14.006 0 0 1-13.909-12.233 1 1 0 0 1 .861-1.122l25.95-3.405a1 1 0 0 1 1.121.862c.294 2.239.061 4.426-.694 6.501-1.739 5.025-6.13 8.589-11.453 9.288a4.79 4.79 0 0 1-.563.048c-.441.041-.88.061-1.313.061zm-11.757-11.507a12.016 12.016 0 0 0 12.928 9.451 3.753 3.753 0 0 0 .437-.034c4.506-.591 8.364-3.721 9.836-7.974.536-1.475.765-3.007.687-4.576z" fill="#141414"/><circle cx="1518.748" cy="469.409" fill="#141414" r="3.839"/><circle cx="1473.719" cy="469.409" fill="#141414" r="3.839"/><path d="M1529.811 453.025a.992.992 0 0 1-.54-.159c-8.709-5.6-18.972-.899-19.074-.852a1 1 0 0 1-.852-1.809c.46-.217 11.351-5.229 21.009.979a1 1 0 0 1-.543 1.841zm-66.112 0a.999.999 0 0 1-.542-1.841c9.657-6.206 20.551-1.195 21.01-.979a1 1 0 0 1-.852 1.809c-.103-.047-10.365-4.746-19.075.852a1.006 1.006 0 0 1-.541.159z" fill="#141414"/><path d="m1665.937 767.188 3.543 9.473-75.958-40.747s-22.588-51.598-44.512-61.564c-21.924-9.965-29.453-1.107-30.118 5.758-16.387-3.986-21.481 6.422-17.716 12.18-11.516-3.1-16.495.707-15.059 10.408 1.098 7.418 31.419 12.434 38.948 22.178s15.307 45.365 31.031 51.787c10.23 4.179 63.025 50.922 98.663 83.07 20.157 18.183 49.468 21.951 73.573 9.466 26.98-13.974 40.713-44.747 33.096-74.162l-15.769-60.893c.001 0-53.591-6.102-79.722 33.046z" fill="#fff"/><path d="M1698.483 877.436c-16.073 0-32.021-5.802-44.394-16.962-55.789-50.327-90.725-79.764-98.371-82.887-10.733-4.384-17.788-21.612-23.456-35.455-2.948-7.201-5.495-13.42-7.987-16.646-3.569-4.619-12.976-8.311-21.273-11.569-9.249-3.63-17.236-6.766-17.874-11.074-.719-4.855.11-8.379 2.464-10.474 2.436-2.167 6.396-2.682 11.794-1.542-.803-2.52-.367-5.357 1.279-7.687 1.492-2.114 6.126-6.649 17.393-4.249.646-3.39 2.687-6.275 5.721-8.028 4.014-2.318 11.721-3.753 25.646 2.576 21.359 9.708 42.764 56.994 44.875 61.756l73.315 39.329-2.613-6.987a1.005 1.005 0 0 1 .104-.905c26.166-39.202 80.125-33.547 80.668-33.484a.998.998 0 0 1 .854.743l15.769 60.894c7.784 30.056-6.034 61.021-33.604 75.3-9.537 4.94-19.95 7.351-30.31 7.351zm-204.185-185.211c-2.352 0-4.15.546-5.376 1.637-1.818 1.619-2.429 4.542-1.815 8.688.469 3.163 8.683 6.387 16.626 9.505 8.957 3.516 18.219 7.152 22.125 12.208 2.658 3.44 5.253 9.775 8.257 17.111 5.526 13.497 12.404 30.295 22.36 34.361 10.068 4.112 59.369 47.543 98.955 83.253 19.729 17.798 48.843 21.545 72.443 9.321 26.735-13.847 40.136-43.875 32.588-73.023l-15.593-60.212c-6.244-.512-53.813-3.123-77.813 32.246l3.362 8.992a1 1 0 0 1-1.409 1.231l-75.958-40.747a.998.998 0 0 1-.443-.48c-.225-.512-22.687-51.362-44.011-61.055-13.151-5.978-20.21-4.749-23.816-2.665-3.973 2.295-4.744 6.086-4.892 7.609a.998.998 0 0 1-1.231.876c-10.854-2.641-15.054 1.369-16.358 3.215-1.626 2.301-1.737 5.223-.284 7.445a1 1 0 0 1-1.096 1.513c-2.549-.686-4.759-1.029-6.621-1.029z" fill="#141414"/><path d="M1700.482 791.613c-.137 0-.276-.029-.409-.088l-31.003-13.952a1 1 0 1 1 .82-1.824l31.003 13.952a1 1 0 0 1-.411 1.912zm-136.225-72.578c-.386 0-.752-.224-.917-.599-12.443-28.392-44.386-37.275-44.707-37.362a1 1 0 0 1 .52-1.932c.33.089 33.195 9.229 46.02 38.491a1 1 0 0 1-.916 1.402zm-15.3 10.439a1 1 0 0 1-.892-.545c-.076-.15-7.788-15.103-18.997-24.157-11.172-9.023-27.864-11.471-28.031-11.494a1 1 0 0 1 .279-1.98c.706.1 17.411 2.552 29.008 11.919 11.548 9.327 19.202 24.176 19.522 24.803a1 1 0 0 1-.889 1.454z" fill="#141414"/><path d="M1656.812 746.292a1 1 0 0 1-.931-.636l-32.976-84.137a1 1 0 0 1 1.861-.73l32.976 84.137a1 1 0 0 1-.93 1.366zm-262.904-.001a1 1 0 0 1-1-.989c-.217-20.054 6.108-35.875 11.688-49.833 4.173-10.44 8.115-20.302 8.772-30.483a.987.987 0 0 1 1.062-.934 1 1 0 0 1 .934 1.062c-.678 10.499-4.678 20.504-8.912 31.097-5.511 13.787-11.758 29.412-11.545 49.07a1 1 0 0 1-.989 1.011l-.01-.001z" fill="#fff"/><path d="M1336.321 1082.76a1 1 0 0 1-.995-.909l-3.104-34.011c-3.323-36.417 19.681-70.498 54.699-81.036l72.808-21.91a1 1 0 0 1 .576 1.915l-72.808 21.91c-34.112 10.265-56.521 43.464-53.283 78.939l3.104 34.011a1 1 0 0 1-.905 1.087c-.031.002-.061.004-.092.004z" fill="#141414"/><path d="M1442.713 832.417c-.446 0-.854-.302-.969-.755-16.164-63.847-7.706-226.023 13.923-266.969a1 1 0 1 1 1.768.935c-21.487 40.678-29.841 201.989-13.751 265.543a1 1 0 0 1-.971 1.246zM84.092 904.703h106.863l98.552 180.592-47.293 8.721a114.124 114.124 0 0 1-39.967.253c-44.401-7.608-80.171-40.625-91.303-84.275z" fill="#fff"/><path d="M221.524 1096.913c-6.495 0-12.989-.553-19.445-1.659-44.734-7.666-80.888-41.036-92.104-85.014L83.123 904.95a1 1 0 0 1 .969-1.247h106.863c.366 0 .702.2.878.521l98.553 180.592a1.001 1.001 0 0 1-.697 1.462l-47.293 8.721a115.01 115.01 0 0 1-20.872 1.914zM85.379 905.703l26.534 104.043c11.021 43.214 46.547 76.004 90.504 83.537a112.805 112.805 0 0 0 39.616-.25l45.936-8.47-97.607-178.859H85.379z" fill="#141414"/><path d="m107.052 919.889 23.945 104.87c7.614 33.348 37.276 57 71.482 57H344.2v37.899H171.102c-34.037 0-63.599-23.424-71.38-56.559L68.205 928.885c-2.612-11.124 4.64-22.163 15.887-24.182 10.481-1.881 20.59 4.805 22.96 15.186z" fill="#fff"/><path d="M344.2 1120.659H171.102c-34.674 0-64.427-23.575-72.353-57.331L67.231 929.114c-1.327-5.65-.303-11.433 2.884-16.283s8.088-8.086 13.8-9.112a20.906 20.906 0 0 1 24.111 15.948l23.945 104.871c3.633 15.909 12.659 30.272 25.418 40.446 12.758 10.173 28.771 15.776 45.089 15.776H344.2a1 1 0 0 1 1 1v37.899a1 1 0 0 1-1 1zM87.648 905.385c-1.115 0-2.245.098-3.38.302-5.167.927-9.6 3.854-12.481 8.241s-3.809 9.618-2.608 14.728l31.518 134.214c7.713 32.847 36.664 55.788 70.405 55.788H343.2v-35.899H202.479c-16.77 0-33.225-5.758-46.336-16.213s-22.388-25.216-26.12-41.564l-23.945-104.871a18.916 18.916 0 0 0-18.43-14.726z" fill="#141414"/><path d="M222.328 1134.901h38.385v213.775h-38.385z" fill="#fff"/><path d="M260.713 1349.676h-38.385a1 1 0 0 1-1-1v-213.775a1 1 0 0 1 1-1h38.385a1 1 0 0 1 1 1v213.775a1 1 0 0 1-1 1zm-37.385-2h36.385v-211.775h-36.385z" fill="#141414"/><path d="M274.934 1376.41h-66.827a4.012 4.012 0 0 1-4.012-4.012v-22.315a4.012 4.012 0 0 1 4.012-4.012h66.827a4.012 4.012 0 0 1 4.012 4.012v22.315a4.012 4.012 0 0 1-4.012 4.012z" fill="#fff"/><path d="M274.934 1377.41h-66.827a5.017 5.017 0 0 1-5.012-5.012v-22.315a5.017 5.017 0 0 1 5.012-5.012h66.827a5.017 5.017 0 0 1 5.012 5.012v22.315a5.018 5.018 0 0 1-5.012 5.012zm-66.828-30.339a3.015 3.015 0 0 0-3.012 3.012v22.315a3.015 3.015 0 0 0 3.012 3.012h66.827a3.015 3.015 0 0 0 3.012-3.012v-22.315a3.015 3.015 0 0 0-3.012-3.012z" fill="#141414"/><path d="M209.853 1119.659h63.335v21.737h-63.335z" fill="#fff"/><path d="M273.188 1142.397h-63.335a1 1 0 0 1-1-1v-21.737a1 1 0 0 1 1-1h63.335a1 1 0 0 1 1 1v21.737a1 1 0 0 1-1 1zm-62.335-2h61.335v-19.737h-61.335z" fill="#141414"/><path d="M322.768 1391.58H160.273a4.012 4.012 0 0 1-4.012-4.012v-22.315a4.012 4.012 0 0 1 4.012-4.012h162.495a4.012 4.012 0 0 1 4.012 4.012v22.315a4.013 4.013 0 0 1-4.012 4.012z" fill="#fff"/><path d="M322.768 1392.58H160.273a5.017 5.017 0 0 1-5.012-5.012v-22.315a5.017 5.017 0 0 1 5.012-5.012h162.495a5.017 5.017 0 0 1 5.012 5.012v22.315a5.018 5.018 0 0 1-5.012 5.012zm-162.495-30.339a3.015 3.015 0 0 0-3.012 3.012v22.315a3.015 3.015 0 0 0 3.012 3.012h162.495a3.015 3.015 0 0 0 3.012-3.012v-22.315a3.015 3.015 0 0 0-3.012-3.012zm497.948-53.136-3.181-11.805-65.137-242.157c-14.663-54.475-57.11-97.096-111.511-111.982l-76.312-20.864h-91.164l-29.601.005-.023-.005H250.6l-116.034.013v57.134c0 56.513 45.802 102.315 102.315 102.315h72.17l-1.143 215.541-.174 33.6h138.773l1.342-21.795.596-11.805 11.084-215.541h2.212l54.525 215.541 8.499 33.6h138.773z" fill="#141414"/><path d="M663.539 1331.9H524.766c-.458 0-.857-.311-.97-.755l-62.833-248.385h-.483l-11.035 214.592-.596 11.804-1.343 21.806a1 1 0 0 1-.998.938H307.734a1 1 0 0 1-1-1.005l1.312-248.135h-71.165c-56.969 0-103.315-46.347-103.315-103.315V922.31a1 1 0 0 1 1-1l146.726-.013c.033 0 .065.001.099.005l120.689-.005c.089 0 .178.012.264.036l76.312 20.864c54.522 14.919 97.52 58.099 112.212 112.687l65.137 242.157 3.182 11.804a.745.745 0 0 0 .006.023l5.318 21.795a1.003 1.003 0 0 1-.972 1.237zm-137.995-2h136.722l-5.014-20.545-3.179-11.794-65.137-242.157c-14.509-53.906-56.968-96.545-110.808-111.278l-76.183-20.828-120.632.005a.831.831 0 0 1-.099-.005l-145.649.013v56.134c0 55.866 45.45 101.315 101.315 101.315h72.17a1 1 0 0 1 1 1.005l-1.312 248.135h136.828l1.284-20.856.595-11.793 11.084-215.542a1 1 0 0 1 .999-.949h2.212c.458 0 .857.311.97.755z" fill="#141414"/><path d="m465.428 739.239 22.929 54.696s89.024 28.346 108.955 27.017 42.076-25.688 62.45-23.917c20.374 1.772 35.432 12.844 33.661 21.702-1.772 8.858-21.234.886-29.883 0s-22.379 10.187-22.379 10.187 21.728-3.986 22.379 9.301c.652 13.287-33.452 11.516-33.452 11.516l-146.702 21.584a52.734 52.734 0 0 1-52.245-23.986l-44.135-69.791z" fill="#fff"/><path d="M475.715 872.886c-18.234 0-35.488-9.309-45.42-25.014l-44.135-69.791a1 1 0 0 1 .406-1.433l78.423-38.309a1 1 0 0 1 1.36.511l22.751 54.27c6.805 2.151 89.332 28.083 108.145 26.833 9.021-.602 18.852-6.24 28.358-11.692 11.315-6.489 22.999-13.204 34.245-12.224 13.886 1.208 26.468 6.802 32.054 14.252 2.184 2.913 3.048 5.902 2.5 8.643-.317 1.585-1.138 2.811-2.438 3.644-4.187 2.676-12.642.653-20.102-1.132-3.196-.765-6.215-1.487-8.425-1.714-5.781-.591-14.21 4.634-18.652 7.75 4.431-.334 11.675-.232 16.066 3.247 2.293 1.817 3.533 4.323 3.687 7.448.114 2.333-.709 4.395-2.447 6.127-7.462 7.441-30.016 6.535-31.955 6.44L483.53 872.314a53.717 53.717 0 0 1-7.815.572zm-87.269-94.93 43.538 68.848c10.922 17.269 31.039 26.505 51.255 23.532l146.702-21.583a1 1 0 0 1 .197-.009c.234.012 23.534 1.133 30.541-5.855 1.339-1.335 1.947-2.844 1.86-4.613-.125-2.558-1.083-4.513-2.929-5.977-5.804-4.602-18.146-2.413-18.272-2.39a1.006 1.006 0 0 1-1.089-.567 1.002 1.002 0 0 1 .281-1.195c.574-.462 14.167-11.318 23.109-10.403 2.343.24 5.425.977 8.687 1.758 6.725 1.609 15.091 3.611 18.559 1.393.837-.536 1.347-1.305 1.556-2.352.434-2.167-.307-4.606-2.14-7.051-4.31-5.749-15.451-12.14-30.627-13.459-10.613-.918-22.027 5.63-33.076 11.966-9.703 5.565-19.738 11.32-29.221 11.952-19.896 1.323-105.681-25.902-109.324-27.062a1 1 0 0 1-.618-.566l-22.521-53.72z" fill="#141414"/><path d="M556.276 1265.165c-.438 0-.841-.292-.963-.735l-57.898-210.63c-2.865-10.422-12.414-17.701-23.223-17.701a1 1 0 1 1 0-2c11.706 0 22.048 7.883 25.15 19.17l57.898 210.63a1 1 0 0 1-.964 1.266zm-204.694 8.331a1 1 0 0 1-1-1V1051.93c0-26.312-21.407-47.72-47.72-47.72h-82.971c-19.112 0-34.661-15.549-34.661-34.661v-37.315a1 1 0 1 1 2 0v37.315c0 18.009 14.651 32.661 32.661 32.661h82.971c27.416 0 49.72 22.304 49.72 49.72v220.566a1 1 0 0 1-1 1zm47.839-498.819 2.659 147.621H134.574v-142.75s-28.53-34.694-78.532-27.188h-.075l.373-1.068.05-.174 40.26-115.213a103.5 103.5 0 0 1 70.008-63.099l76.221-20.354 52.089 3.554 65.112 20.875a103.484 103.484 0 0 1 64.516 60.166l40.832 102.191c0 .001-32.333 32.332-66.007 35.439z" fill="#fff"/><path d="M402.08 923.297H134.574a1 1 0 0 1-1-1V779.919c-2.793-3.182-30.866-33.558-77.383-26.57-.369.055-.785-.105-1.001-.41-.188-.264-.273-.603-.167-.909l40.683-116.456c11.938-31.285 38.362-55.101 70.694-63.736l76.221-20.354a.981.981 0 0 1 .326-.031l52.09 3.554c.08.005.16.021.237.045l65.111 20.875c29.787 9.543 53.529 31.685 65.139 60.748l40.832 102.191a.998.998 0 0 1-.222 1.078c-.323.323-32.381 32.035-65.697 35.635l2.643 146.699a1.004 1.004 0 0 1-1 1.019zm-266.506-2h265.487l-2.641-146.603a1.001 1.001 0 0 1 .908-1.014c17.168-1.584 34.015-11.038 45.124-18.69 10.438-7.189 17.904-14.179 19.798-16.002l-40.584-101.57c-11.387-28.507-34.675-50.225-63.892-59.585l-64.996-20.838-51.803-3.535-76.061 20.311c-31.713 8.469-57.631 31.83-69.331 62.49l-40.146 114.89c49.005-6.596 77.622 27.416 77.908 27.763.147.179.228.404.228.635v141.748z" fill="#141414"/><path d="M302.305 560.388c.025 1.317.05 2.087.05 2.087s-7.008 14.166-36.458 14.613c-29.449.447-36.532-19.484-36.532-19.484s2.286-22.739 2.137-40.409c-.025-5.592-.323-10.686-.994-14.389 0-.05-.025-.074-.025-.124l.05.025 74.58 24.777c-2.982 3.529-2.908 25.896-2.808 32.904z" fill="#fff"/><path d="M264.942 578.096c-14.96 0-24.025-5.321-29.026-9.84-5.574-5.039-7.418-10.104-7.494-10.317a1.005 1.005 0 0 1-.053-.435c.022-.227 2.279-22.889 2.132-40.301-.025-5.914-.363-10.827-.976-14.212a1.153 1.153 0 0 1-.043-.309 1.001 1.001 0 0 1 1.448-.895l74.498 24.748a1.001 1.001 0 0 1 .448 1.595c-1.81 2.142-2.819 14.798-2.571 32.242.024 1.303.049 2.067.049 2.071a.982.982 0 0 1-.103.476c-.298.601-7.621 14.718-37.339 15.17-.326.005-.65.007-.97.007zm-34.559-20.627c.845 2.137 8.228 18.627 34.529 18.627.321 0 .643-.002.969-.007 14.865-.226 23.755-4.048 28.595-7.215 4.486-2.936 6.411-5.862 6.871-6.643-.01-.336-.026-.964-.042-1.824v-.004c-.144-10.08.002-26.861 2.343-32.351l-71.908-23.89c.482 3.38.738 7.752.762 13.029.139 16.559-1.879 37.809-2.119 40.278z" fill="#141414"/><path d="M302.305 560.388c-33.128 1.615-58.651-20.95-70.803-43.193-.025-5.592-.323-10.686-.994-14.389l.025-.099 74.58 24.777c-2.982 3.529-2.908 25.896-2.808 32.904z" fill="#141414"/><path d="M232.801 517.031c-24.212-1.093-32.184-26.669-36.613-57.138s5.905-43.166 21.555-40.509c-4.134-21.259.124-45.767 62.216-45.767s76.856 19.046 75.38 44.512c-1.476 25.467-22.599 41.39-46.732 35.348s-75.806 63.554-75.806 63.554z" fill="#141414"/><path d="m238.149 432.854-9.596 49.015s-3.839-23.474-18.602-20.078-9.744 18.897-4.429 24.212 15.797 0 15.797 0 18.307 59.94 66.731 59.349 51.377-52.853 49.31-67.026 7.382-43.109 4.429-59.645c-35.728-4.724-59.054 22.736-103.64 14.173z" fill="#fff"/><path d="M287.36 546.356c-19.861 0-37.707-10.318-51.649-29.877-8.969-12.581-13.715-25.369-14.992-29.102-2.916 1.247-11.127 4.111-15.904-.667-3.783-3.783-6.812-11.535-5.111-17.46.86-2.993 3.297-6.886 10.022-8.433 3.541-.814 6.796-.251 9.668 1.677 5.005 3.361 7.731 10.116 9.063 14.658l8.71-44.489c.106-.541.63-.893 1.17-.79 23.939 4.596 41.604-1.274 58.684-6.953 14.569-4.844 28.336-9.42 44.898-7.229a1 1 0 0 1 .854.815c1.601 8.963-.338 21.267-2.213 33.165-1.623 10.3-3.155 20.029-2.211 26.512 1.166 7.99 1.101 34.771-13.974 52.419-8.768 10.265-20.985 15.564-36.313 15.751l-.702.003zm-66.042-61.353a.998.998 0 0 1 .956.707c.181.589 18.478 58.646 65.076 58.646.229 0 .457-.001.687-.004 14.727-.18 26.44-5.243 34.816-15.05 14.594-17.085 14.647-43.075 13.517-50.832-.989-6.782.566-16.657 2.214-27.111 1.798-11.411 3.656-23.2 2.34-31.779-15.79-1.901-29.145 2.54-43.271 7.237-17.092 5.682-34.761 11.555-58.713 7.203l-9.405 48.042a1 1 0 0 1-.981.808h-.016a1.001 1.001 0 0 1-.972-.838c-.021-.131-2.231-13.143-9.29-17.879-2.394-1.606-5.121-2.072-8.101-1.386-4.639 1.066-7.515 3.434-8.549 7.036-1.658 5.771 1.767 12.658 4.603 15.494 4.736 4.735 14.54-.136 14.639-.185a.973.973 0 0 1 .45-.109z" fill="#141414"/><path d="M215.56 480.654a1.002 1.002 0 0 1-.899-1.438c1.405-2.888.071-6.66-2.061-8.103-.915-.619-2.321-1.01-3.829.65a1 1 0 0 1-1.48-1.346c1.872-2.061 4.277-2.42 6.432-.96 2.813 1.906 4.63 6.742 2.737 10.634a1 1 0 0 1-.9.563zm86.441 17.556a1 1 0 0 1-.68-1.733l4.749-4.407a4.774 4.774 0 0 0 1.047-5.633l-8.998-18.353a1 1 0 1 1 1.795-.88l8.998 18.354a6.76 6.76 0 0 1-1.48 7.979l-4.749 4.407a1.009 1.009 0 0 1-.682.266z" fill="#141414"/><circle cx="279.021" cy="476.811" fill="#141414" r="3.816"/><circle cx="327.78" cy="475.839" fill="#141414" r="3.816"/><path d="M311.304 453.659a1 1 0 0 1-.65-1.761c.308-.262 7.665-6.375 18.441-1.126a1 1 0 0 1-.875 1.798c-9.611-4.68-16.202.794-16.268.85a.994.994 0 0 1-.648.239zm-48.699 2.312a1 1 0 0 1-.651-1.76c.31-.262 7.667-6.373 18.441-1.125a1 1 0 0 1-.875 1.798c-9.566-4.658-16.001.624-16.271.851a.993.993 0 0 1-.644.236zm40.512 55.258c-.264 7.06-6.071 12.582-13.072 12.572a3.373 3.373 0 0 1-.482.005 13.048 13.048 0 0 1-11.399-7.611 12.707 12.707 0 0 1-1.201-5.944z" fill="#141414"/><path d="M290.119 523.023c-.01.275-.043.526-.075.778a3.373 3.373 0 0 1-.482.005 13.048 13.048 0 0 1-11.399-7.611 7.652 7.652 0 0 1 4.499-1.232c4.287.16 7.618 3.774 7.457 8.06z" fill="#fff"/><path d="M289.81 524.812c-.092 0-.183-.003-.273-.006-5.377-.201-10.079-3.342-12.283-8.197a13.636 13.636 0 0 1-1.29-6.396.996.996 0 0 1 1.036-.962l26.154.978a1 1 0 0 1 .962 1.037 14.011 14.011 0 0 1-14.024 13.535 3.372 3.372 0 0 1-.282.011zm-11.846-13.523c.067 1.567.438 3.07 1.104 4.479 1.866 4.112 5.998 6.869 10.532 7.039.12.005.231.013.339 0a.496.496 0 0 1 .106-.005h.017a12.016 12.016 0 0 0 11.978-10.612z" fill="#141414"/><path d="m134.566 779.536 40.745-84.293" fill="#fff"/><path d="M134.565 780.536a1 1 0 0 1-.9-1.435l40.744-84.293a.999.999 0 1 1 1.801.87l-40.744 84.293a.998.998 0 0 1-.901.565z" fill="#141414"/><path d="m399.415 774.665-2.657-98.614" fill="#fff"/><path d="M399.414 775.665a1 1 0 0 1-.999-.973l-2.656-98.614a1 1 0 0 1 .973-1.026 1.011 1.011 0 0 1 1.027.973l2.656 98.614a1 1 0 0 1-.973 1.026h-.028zm47.771 555.237 51.276 29.754a16.582 16.582 0 0 1 8.26 14.342c0 9.158-7.424 16.582-16.582 16.582H321.637c-9.443 0-16.979-7.874-16.566-17.307l1.899-43.37h140.215z" fill="#141414"/><path d="M490.139 1392.58H321.637c-4.843 0-9.354-1.927-12.702-5.425s-5.074-8.088-4.862-12.926l1.899-43.371a1 1 0 0 1 .999-.956h140.214c.177 0 .35.046.502.135l51.276 29.753a17.637 17.637 0 0 1 8.758 15.207c0 9.696-7.888 17.583-17.582 17.583zm-182.211-60.678-1.857 42.415a15.44 15.44 0 0 0 4.31 11.455 15.443 15.443 0 0 0 11.257 4.808H490.14c8.592 0 15.582-6.99 15.582-15.582a15.632 15.632 0 0 0-7.762-13.478l-51.044-29.618zm356.944-1 51.276 29.754a16.582 16.582 0 0 1 8.26 14.342c0 9.158-7.424 16.582-16.582 16.582H539.325c-9.443 0-16.979-7.874-16.566-17.307l1.899-43.37h140.214z" fill="#141414"/><path d="M707.826 1392.58H539.325c-4.843 0-9.354-1.926-12.702-5.425-3.348-3.498-5.075-8.088-4.863-12.926l1.899-43.371a1 1 0 0 1 .999-.956h140.214c.177 0 .35.046.502.135l51.276 29.753a17.635 17.635 0 0 1 8.758 15.207c0 9.696-7.887 17.583-17.582 17.583zm-182.211-60.678-1.857 42.415a15.445 15.445 0 0 0 4.311 11.456 15.447 15.447 0 0 0 11.257 4.808h168.501c8.592 0 15.582-6.99 15.582-15.582a15.63 15.63 0 0 0-7.762-13.478l-51.044-29.618H525.615z" fill="#141414"/><path d="m448.446 1297.301-.597 11.804-1.342 21.795H307.734l.174-33.599z" fill="#fff"/><path d="M446.507 1331.9H307.734a1 1 0 0 1-1-1.005l.174-33.599a1 1 0 0 1 1-.995h140.537a1 1 0 0 1 .999 1.05l-.596 11.804-1.344 21.806a.998.998 0 0 1-.997.939zm-137.768-2h136.827l1.285-20.856.542-10.743h-138.49z" fill="#141414"/><path d="M663.539 1330.9H524.766l-8.499-33.599h138.772l3.182 11.804z" fill="#fff"/><path d="M663.539 1331.9H524.766c-.458 0-.857-.311-.97-.755l-8.499-33.599a1 1 0 0 1 .97-1.245h138.772a1 1 0 0 1 .966.74l3.182 11.804 5.324 21.818a1.002 1.002 0 0 1-.972 1.237zm-137.995-2h136.722l-5.017-20.558-2.977-11.042H517.551z" fill="#141414"/><path d="m460.511 1063.53-.052-.001a1 1 0 0 1-.948-1.049l.437-8.555c1.251-24.279-5.909-48.501-20.159-68.203-14.248-19.7-35.01-34.084-58.458-40.503a1 1 0 1 1 .528-1.929c23.888 6.539 45.036 21.192 59.552 41.26 14.517 20.07 21.81 44.744 20.536 69.477l-.437 8.555a1.002 1.002 0 0 1-.999.948zm-151.459 7.944a1 1 0 0 1-1-1v-15.887a1 1 0 1 1 2 0v15.887a1 1 0 0 1-1 1zm-65.621-248.455c4.134-76.77 27.854-171.257 27.854-171.257h100.883l32.48 31.889s-24.803 93.896-28.936 136.415z" fill="#fff"/><path d="M243.431 824.019a.998.998 0 0 1-.999-1.054c4.092-75.987 27.646-170.5 27.884-171.446a1 1 0 0 1 .97-.756h100.883c.262 0 .514.103.7.287l32.48 31.889a1 1 0 0 1 .267.969c-.248.938-24.829 94.304-28.908 136.256a1 1 0 0 1-.973.903l-132.281 2.953-.023-.001zm28.637-171.257c-2.23 9.071-23.538 97.24-27.58 169.232l130.316-2.909c4.17-40.785 26.679-127.3 28.729-135.127l-31.775-31.196z" fill="#141414"/><path d="M316.068 753.926c3.554 1.466 4.871 19.036-15.955 28.058-20.801 8.996-53.133 5.318-53.133 5.318L134.575 871.55l-5.989 4.498c-18.291 13.693-42.969 15.284-62.875 4.026-18.39-10.413-29.226-29.773-29.226-50.126 0-5.169.696-10.389 2.137-15.558l17.421-62.03c50.002-7.505 78.532 27.188 78.532 27.188l-2.759 4.2 2.759-1.466 102.961-54.351s5.293-13.868 8.549-21.249 8.723-17.719 15.955-15.358-.746 34.022-.746 34.022 17.868 2.585 31.289-1.392c13.445-3.976 19.061-16.825 27.461-14.911 8.425 1.914 8.127 14.315-.721 22.74 6.04.447 10.612 12.55-3.255 22.143z" fill="#fff"/><path d="M94.059 888.536a58.53 58.53 0 0 1-28.841-7.591c-18.341-10.384-29.733-29.925-29.733-50.997 0-5.329.731-10.654 2.174-15.826l17.422-62.032a.998.998 0 0 1 .814-.718c49.984-7.503 79.163 27.191 79.452 27.542a.999.999 0 0 1 .063 1.184l-.615.937 101.941-53.812c.849-2.212 5.494-14.279 8.434-20.943 3.562-8.073 9.215-18.508 17.181-15.905 7.3 2.383 1.953 26.836.185 34.121 4.062.47 18.593 1.811 29.764-1.499 6.183-1.829 10.672-5.606 14.632-8.94 4.527-3.811 8.445-7.1 13.335-5.987 3.271.743 5.574 2.968 6.482 6.265 1.416 5.142-.778 11.756-5.495 16.909 2.086.888 3.802 2.96 4.526 5.626.601 2.206 1.719 9.785-8.092 17.124.898 1.161 1.433 3.104 1.453 5.476.064 7.399-4.796 17.44-18.63 23.433-10.896 4.712-24.909 5.926-34.746 6.115-9.302.173-16.733-.5-18.499-.679L135.174 872.35l-5.988 4.498a58.583 58.583 0 0 1-35.127 11.688zM56.83 753.255l-17.246 61.406a56.93 56.93 0 0 0-2.1 15.287c0 20.353 11.004 39.226 28.719 49.256 19.552 11.057 43.804 9.504 61.782-3.956l5.988-4.498 112.406-84.248a.987.987 0 0 1 .713-.193c.32.036 32.311 3.542 52.624-5.243 12.937-5.604 17.482-14.822 17.424-21.58-.024-2.794-.865-4.393-1.454-4.636a1 1 0 0 1-.187-1.746c9.859-6.82 8.885-13.749 8.351-15.71-.71-2.608-2.559-4.462-4.601-4.614a.999.999 0 0 1-.615-1.721c5.826-5.548 7.305-12.131 6.186-16.195-.497-1.806-1.768-4.112-4.997-4.846-3.919-.892-7.314 1.957-11.604 5.567-4.11 3.459-8.769 7.38-15.353 9.328-13.475 3.993-30.978 1.529-31.716 1.423a1.003 1.003 0 0 1-.827-1.234c3.217-12.771 5.78-31.399 1.405-32.828-4.82-1.574-9.64 3.271-14.73 14.812-3.208 7.272-8.477 21.063-8.529 21.201a1 1 0 0 1-.468.528l-102.962 54.351-2.755 1.465a1 1 0 0 1-1.306-1.432l2.341-3.564c-3.914-4.352-31.478-32.823-76.489-26.38z" fill="#141414"/><path d="m131.816 783.748-37.792 20.373" fill="#fff"/><path d="M94.025 805.121a1 1 0 0 1-.476-1.88l37.792-20.373a1 1 0 0 1 .949 1.761l-37.792 20.373a.991.991 0 0 1-.473.119z" fill="#141414"/><path d="M319.324 731.783c-18.315 13.432-38.467 12.546-45.111 12.325" fill="#fff"/><path d="M278.687 745.202c-1.713 0-3.137-.048-4.212-.084l-.295-.01a1 1 0 0 1 .066-1.999l.297.01c6.534.219 26.419.89 44.188-12.142a1 1 0 1 1 1.183 1.612c-15.392 11.29-32.25 12.613-41.227 12.613z" fill="#141414"/><path d="M316.068 753.926c-7.53 7.898-28.347 10.777-38.534 9.67" fill="#fff"/><path d="M282.306 764.83c-1.765 0-3.408-.08-4.88-.24a1 1 0 0 1 .217-1.988c5.348.582 12.99.029 19.948-1.442 8.237-1.742 14.543-4.556 17.754-7.923a1 1 0 0 1 1.447 1.38c-6.514 6.831-23.02 10.213-34.486 10.213z" fill="#141414"/><path d="m372.168 651.762 2.885 27.198a5.634 5.634 0 0 0 5.684 5.039l23.91-.348z" fill="#fff"/><path d="M380.652 685a6.601 6.601 0 0 1-6.593-5.934l-2.886-27.198a1 1 0 0 1 1.695-.819l32.48 31.889a.999.999 0 0 1-.685 1.713l-23.91.348-.101.001zm-7.196-30.571 2.592 24.426a4.611 4.611 0 0 0 4.605 4.145h.07l21.515-.312zm574.82-450.887c-40.157-4.724-49.901 89.199-32.037 139.677s14.911 87.091 14.911 87.091l177.753-22.441s-12.992-34.003-7.086-93.476c5.905-59.474-47.834-191.164-153.541-110.851z" fill="#141414"/><path d="m841.179 511.804-37.525 82.676-131.222 5.02s-12.18-26.574-11.073-35.654-12.623-1.772-14.616 9.744 0 18.602 0 18.602-37.647-2.879-40.304 6.201 6.311 17.163 6.311 17.163-6.754 2.547-3.654 14.062c3.1 11.516 11.405 9.08 11.405 9.08s-5.647 11.294 6.976 18.823 49.162-11.294 49.162-11.294l136.28 29.344c18.669 4.02 37.791-4.523 47.253-21.112l54.085-94.821z" fill="#fff"/><path d="M822.24 677.567c-3.154 0-6.345-.333-9.531-1.019l-135.932-29.269c-3.889 1.972-37.354 18.531-49.812 11.1-6.903-4.118-8.546-9.369-8.708-13.05a16.044 16.044 0 0 1 .715-5.422 9.307 9.307 0 0 1-4.889-1.177c-2.789-1.564-4.792-4.542-5.952-8.853-2.467-9.161.969-13.087 2.988-14.534-2.342-2.479-7.926-9.42-5.64-17.231 2.599-8.877 32.487-7.501 39.999-7.011-.488-2.617-1.248-8.859.279-17.681.92-5.314 3.978-9.006 5.719-10.734 2.735-2.716 5.803-4.203 7.996-3.878.809.119 3.405.844 2.879 5.159-.97 7.953 8.924 30.507 10.715 34.508l129.933-4.97 37.27-82.113a.996.996 0 0 1 1.458-.423l73.079 47.833a1 1 0 0 1 .32 1.333l-54.085 94.821c-8.108 14.214-22.964 22.61-38.801 22.611zm-145.6-32.341c.07 0 .141.007.211.022l136.28 29.344c18.327 3.947 36.883-4.344 46.174-20.629l53.618-94.003-71.315-46.68-37.043 81.613a.998.998 0 0 1-.872.586l-131.223 5.02a1.018 1.018 0 0 1-.947-.583c-.502-1.095-12.284-26.938-11.155-36.191.22-1.801-.18-2.79-1.187-2.938-3.009-.443-10.098 5.148-11.452 12.974-1.925 11.12-.042 18.093-.022 18.162a1 1 0 0 1-1.039 1.267c-14.246-1.089-37.499-.562-39.268 5.484-2.453 8.38 5.936 16.062 6.021 16.139a.999.999 0 0 1-.317 1.678c-.232.092-5.846 2.45-3.041 12.867 1.011 3.753 2.682 6.313 4.968 7.611 2.602 1.475 5.17.775 5.193.768a1.002 1.002 0 0 1 1.172 1.408c-.211.426-5.052 10.571 6.595 17.517 12.006 7.165 47.831-11.139 48.191-11.324a.981.981 0 0 1 .458-.112zm127.014-50.746h.01z" fill="#141414"/><path d="m895.509 731.783-99.292 599.119 140.214-.002 71.871-366.742 25.984 366.744h140.18l-74.04-881.233-50.189-59.476-100.111 39.368z" fill="#fff"/><path d="M1174.467 1331.902h-140.182a1 1 0 0 1-.997-.929l-25.452-359.239-70.423 359.358a1 1 0 0 1-.981.808l-140.215.002a.998.998 0 0 1-.987-1.164l99.292-599.119.002-.014 54.617-302.222c.062-.341.296-.626.618-.753l100.111-39.368a1 1 0 0 1 1.131.286l50.188 59.476a.987.987 0 0 1 .231.562l74.041 881.232a1 1 0 0 1-.994 1.084zm-139.25-2h138.162l-73.923-879.832-49.521-58.684-98.925 38.901-54.518 301.673-99.097 597.941 138.212-.002 71.712-365.935a.98.98 0 0 1 1.043-.806 1 1 0 0 1 .936.927z" fill="#141414"/><path d="M1035.114 656.305h-73.656a1 1 0 1 1 0-2h73.656a1 1 0 1 1 0 2z" fill="#141414"/><path d="m1008.302 964.158-9.449-146.749" fill="#fff"/><path d="M1008.301 965.158a1 1 0 0 1-.997-.936l-9.449-146.749a1 1 0 0 1 .934-1.062.992.992 0 0 1 1.062.934l9.449 146.749a1 1 0 0 1-.999 1.064zm-35.059-574.963-75.501 27.544a40.913 40.913 0 0 0-22.896 20.802l-34.994 73.264 33.564 27.165s-4.242 6.496 8.631 57.873-4.257 162.033-4.257 162.033h79.066z" fill="#141414"/><path d="M956.855 759.875h-79.066a.998.998 0 0 1-.988-1.153c.171-1.105 16.951-111.045 4.275-161.637-10.758-42.936-9.682-54.793-8.847-57.79l-33.007-26.714a1 1 0 0 1-.273-1.208l34.993-73.264c4.758-9.96 13.088-17.528 23.456-21.31l75.502-27.544a1.001 1.001 0 0 1 1.342.984l-16.388 368.68a1 1 0 0 1-.999.956zm-77.905-2h76.948l16.278-366.227-74.094 27.03c-9.873 3.602-17.806 10.809-22.337 20.293l-34.653 72.552 32.95 26.668a1 1 0 0 1 .208 1.324c-.123.25-3.576 7.833 8.764 57.083 6.683 26.671 5.171 69.43 2.727 100.604-2.342 29.859-5.961 55.08-6.791 60.673zm171.28-374.209s100.392 17.717 126.375 50.782 36.921 75.993 7.677 116.922l-17.126 29.527V748.02h-89.762z" fill="#141414"/><path d="M1167.157 749.02h-89.763a1 1 0 0 1-.997-.926l-27.164-364.354a1.002 1.002 0 0 1 1.171-1.059c.252.044 25.481 4.538 53.559 13.02 37.818 11.424 62.523 24.252 73.429 38.13 14.003 17.82 22.563 37.189 24.756 56.014 2.541 21.819-3.196 42.715-17.052 62.107l-16.938 29.214V748.02c-.001.552-.448 1-1.001 1zm-88.835-2h87.835V580.897c0-.176.047-.349.135-.501l17.125-29.527c13.609-19.055 19.226-39.482 16.744-60.793-2.149-18.458-10.567-37.48-24.342-55.01-23.88-30.388-112.787-47.98-124.495-50.181z" fill="#141414"/><path d="M1098.703 396.398a.982.982 0 0 1-.277-.04l-42.691-12.337a1 1 0 1 1 .554-1.921l42.691 12.337a1 1 0 0 1-.277 1.961zm-48.466-59.388v53.183s-5.766 36.583-46.597 33.028c-17.173-1.491-22.541-11.879-23.013-23.41-.621-15.855 8.027-33.873 8.027-33.873z" fill="#fff"/><path d="M1009.055 424.463a63.45 63.45 0 0 1-5.502-.246c-15.053-1.307-23.326-9.732-23.925-24.365-.624-15.922 7.768-33.602 8.125-34.346a1 1 0 0 1 .477-.473l61.583-28.928a1 1 0 0 1 1.425.905v53.183c0 .052-.004.104-.012.156-.057.358-5.818 34.114-42.171 34.114zm-19.647-57.773c-1.133 2.47-8.342 18.802-7.782 33.083.56 13.673 7.995 21.228 22.101 22.453 38.851 3.377 45.129-29.83 45.511-32.113v-51.527z" fill="#141414"/><path d="M1050.237 337.01v24.081c-7.083 13.371-23.46 35.091-55.817 38.52a73.523 73.523 0 0 1-13.793.199c-.621-15.855 8.027-33.873 8.027-33.873z" fill="#141414"/><path d="M950.798 226.255c-11.294 16.166-8.415 45.841-6.644 62.893s-6.201 82.602 43.405 88.802c49.605 6.201 77.066-56.027 77.066-56.027s11.073 8.637 20.152-5.536c9.08-14.173-2.436-23.253-9.965-22.367s-16.609 23.253-16.609 23.253l-3.543-14.952c-.001-.002-72.194-26.018-103.862-76.066z" fill="#fff"/><path d="M994.334 379.374c-2.292 0-4.591-.144-6.899-.432-18.599-2.325-31.392-13.23-38.022-32.414-5.507-15.932-5.737-34.462-5.891-46.725-.054-4.308-.1-8.029-.362-10.553-1.7-16.371-4.866-46.843 6.819-63.569a.999.999 0 0 1 .819-.427h.022a.996.996 0 0 1 .822.465c31.117 49.177 102.637 75.4 103.355 75.659a1 1 0 0 1 .634.71l2.845 12.001c2.807-6.296 9.744-20.303 16.218-21.064 4.558-.534 9.786 2.16 12.444 6.409 1.787 2.856 3.966 8.927-1.521 17.49-3.121 4.873-6.833 7.707-11.032 8.425-4.271.732-7.858-.945-9.547-1.953-1.814 3.792-8.537 17.014-19.597 29.526-15.383 17.407-32.927 26.451-51.107 26.452zm-43.549-151.289c-10.269 16.375-7.268 45.257-5.636 60.958.271 2.615.318 6.378.372 10.735.313 25.17.896 72.021 42.161 77.179 48.317 6.032 75.755-54.823 76.026-55.439a1 1 0 0 1 1.53-.385c.037.03 4.08 3.101 9.032 2.241 3.612-.625 6.863-3.159 9.663-7.529 3.625-5.659 4.161-11.11 1.509-15.35-2.572-4.11-7.246-5.871-10.515-5.484-5.692.669-13.335 16.566-15.8 22.635a1.004 1.004 0 0 1-1.003.621.997.997 0 0 1-.896-.767l-3.42-14.432c-6.494-2.446-72.547-28.254-103.023-74.983z" fill="#141414"/><circle cx="954.784" cy="312.953" fill="#fff" r="21.592"/><path d="M954.784 335.545c-12.457 0-22.592-10.135-22.592-22.592s10.135-22.591 22.592-22.591 22.592 10.134 22.592 22.591-10.135 22.592-22.592 22.592zm0-43.183c-11.354 0-20.592 9.237-20.592 20.591s9.237 20.592 20.592 20.592 20.592-9.237 20.592-20.592c0-11.354-9.237-20.591-20.592-20.591z" fill="#141414"/><path d="M987.558 330.673a.999.999 0 0 1-.416-.091l-5.803-2.66a7.527 7.527 0 0 1-4.18-8.52l4.775-20.517a1 1 0 1 1 1.947.453l-4.775 20.517a5.519 5.519 0 0 0 3.066 6.248l5.803 2.66a1 1 0 0 1-.417 1.91z" fill="#141414"/><circle cx="958.844" cy="305.461" fill="#141414" r="4.06"/><circle cx="1007.711" cy="305.461" fill="#141414" r="4.06"/><path d="M951.906 286.825a.998.998 0 0 1-.626-1.78c.322-.257 7.986-6.249 17.454-1.593a1.001 1.001 0 0 1-.883 1.795c-8.341-4.103-15.253 1.304-15.321 1.359a.992.992 0 0 1-.624.219zm63.45-.391a.999.999 0 0 1-.584-.189c-.293-.211-7.271-5.105-15.371-.631a.999.999 0 1 1-.966-1.751c9.236-5.102 17.176.52 17.51.761a1 1 0 0 1-.589 1.81zm-26.712 60.189c.919 7.005 7.214 11.963 14.184 11.303.162.002.321-.019.48-.04a13.049 13.049 0 0 0 10.643-8.638c.68-1.871.921-3.915.643-6.03z" fill="#141414"/><path d="M1002.682 357.159c.036.273.091.52.147.767.162.002.321-.019.48-.04a13.049 13.049 0 0 0 10.643-8.638 7.66 7.66 0 0 0-4.594-.809c-4.254.559-7.234 4.467-6.676 8.72z" fill="#fff"/><path d="M1001.564 358.986a14.007 14.007 0 0 1-13.91-12.233 1.003 1.003 0 0 1 .861-1.122l25.95-3.404a1 1 0 0 1 1.121.862c.294 2.239.061 4.426-.694 6.501-1.739 5.025-6.13 8.589-11.453 9.288a4.822 4.822 0 0 1-.563.048c-.441.04-.879.06-1.312.06zm-11.758-11.507c1.275 5.941 6.746 10.033 12.929 9.452a.896.896 0 0 1 .105-.004c.148.008.227-.017.338-.031 4.499-.59 8.356-3.72 9.829-7.973.536-1.475.765-3.007.687-4.576zm17.905-11.934c-12.457 0-22.592-10.135-22.592-22.592s10.135-22.591 22.592-22.591 22.592 10.134 22.592 22.591-10.135 22.592-22.592 22.592zm0-43.183c-11.354 0-20.592 9.237-20.592 20.591s9.237 20.592 20.592 20.592 20.592-9.237 20.592-20.592c0-11.354-9.238-20.591-20.592-20.591z" fill="#141414"/><path d="M987.559 306.461h-12.525a1 1 0 1 1 0-2h12.525a1 1 0 1 1 0 2zm72.12 0h-31.721a1 1 0 1 1 0-2h31.721a1 1 0 1 1 0 2zm13.287 8.932a.994.994 0 0 1-.683-.27c-2.315-2.164-1.662-6.678.307-9.792 1.961-3.102 4.85-4.37 7.534-3.31a1 1 0 0 1-.735 1.86c-2.611-1.033-4.57 1.667-5.109 2.518-1.691 2.675-1.981 6.001-.632 7.263a1 1 0 0 1-.682 1.731z" fill="#141414"/><path d="M962.76 390.195c-21.304-13.081-28.936-25.674-22.145-31.439s52.558 19.628 52.558 19.628 11.887-10.63 23.66.886 14.135 43.995 14.135 43.995l49.901 134.938 32.119-42.094s40.452 20.964 57.873 50.196c0 0-62.532 110.597-96.783 107.939-34.251-2.657-53.149-29.527-60.53-67.617-7.382-38.09-36.69-156.198-36.69-156.198s-22.955 2.953-26.203-12.106 6.201-21.465 6.201-21.465-13.023-14.724 5.904-26.663z" fill="#fff"/><path d="M1075.311 675.292c-.443 0-.879-.017-1.312-.05-31.997-2.482-53.241-26.143-61.435-68.423-6.967-35.948-33.829-144.641-36.472-155.311-4.367.35-23.393 1.047-26.417-12.973-2.802-12.988 3.417-19.792 5.773-21.838-1.45-1.955-4.703-7.146-3.811-13.387.704-4.926 3.819-9.324 9.268-13.089-14.519-9.144-23.122-18.429-23.673-25.595-.203-2.648.742-4.941 2.733-6.631 6.869-5.839 46.15 15.363 53.085 19.181 4.66-3.786 15.028-7.865 24.479 1.381 11.629 11.375 14.217 41.831 14.422 44.495l49.222 133.102 31.017-40.649a.998.998 0 0 1 1.255-.281c.407.211 40.906 21.432 58.272 50.572a.998.998 0 0 1 .011 1.004c-.156.277-15.889 28.012-35.609 55.063-25.854 35.465-46.303 53.428-60.808 53.429zM976.857 449.43c.453 0 .857.309.97.759.293 1.181 29.398 118.569 36.7 156.249 5.582 28.801 20.457 63.771 59.626 66.81.388.03.783.045 1.178.045 32.304 0 89.776-98.969 94.369-106.974-15.928-26.238-50.907-45.927-56.435-48.926l-31.604 41.417a.999.999 0 0 1-1.732-.26l-49.9-134.938a.988.988 0 0 1-.06-.274c-.023-.321-2.472-32.236-13.837-43.353-4.59-4.49-9.706-6.014-15.212-4.531-4.183 1.127-7.054 3.651-7.082 3.676-.318.282-.78.333-1.151.128-17.462-9.688-46.866-23.614-51.426-19.74-1.504 1.277-2.188 2.943-2.034 4.954.51 6.637 9.502 15.935 24.056 24.871a1 1 0 0 1 .01 1.698c-5.74 3.621-8.994 7.838-9.672 12.535-.992 6.872 3.934 12.565 3.983 12.622a1.006 1.006 0 0 1-.189 1.49c-.36.248-8.842 6.257-5.785 20.426 3.02 13.999 24.881 11.354 25.098 11.325a.816.816 0 0 1 .129-.009z" fill="#141414"/><path d="M956.855 417.859a1.001 1.001 0 0 1-.689-1.726c10.115-9.593 24.572-3.294 24.718-3.23a1 1 0 0 1-.815 1.827c-.133-.06-13.394-5.808-22.525 2.854a.998.998 0 0 1-.689.275zm5.905-26.664a1 1 0 0 1-.389-1.922c13.652-5.765 21.61-.129 21.942.114a1 1 0 0 1-1.179 1.615c-.295-.213-7.438-5.186-19.985.114a.991.991 0 0 1-.389.079z" fill="#141414"/><path d="M976.856 450.43c-1.585-13.767-10-15.981-10-15.981" fill="#fff"/><path d="M976.856 451.43a1 1 0 0 1-.992-.886c-1.479-12.846-8.949-15.043-9.267-15.13-.53-.146-.846-.694-.703-1.225s.68-.846 1.218-.708c.37.098 9.095 2.553 10.738 16.834a1 1 0 0 1-.994 1.115z" fill="#141414"/><path d="M993.173 378.384c10.777 1.476 17.564 10.564 17.564 10.564" fill="#fff"/><path d="M1010.737 389.948a1 1 0 0 1-.802-.4c-.065-.088-6.681-8.773-16.898-10.173a1 1 0 1 1 .272-1.981c11.065 1.516 17.941 10.572 18.229 10.957a.998.998 0 0 1-.801 1.597z" fill="#141414"/><path d="m1080.868 558.204 12.992 26.279" fill="#fff"/><path d="M1093.86 585.483a.998.998 0 0 1-.897-.557l-12.992-26.279a1 1 0 0 1 1.793-.887l12.992 26.279a1 1 0 0 1-.896 1.444z" fill="#141414"/><path d="M1117.675 512.514a1 1 0 0 1-.811-1.584l23.528-32.792a1 1 0 1 1 1.625 1.167l-23.528 32.792a1.002 1.002 0 0 1-.814.417zm-241.716 20.477a1.002 1.002 0 0 1-.936-1.354c4.559-12.06 8.404-19.896 11.494-26.192 4.077-8.309 6.771-13.798 8.001-22.714a.993.993 0 0 1 1.127-.854 1 1 0 0 1 .854 1.127c-1.273 9.235-4.023 14.839-8.187 23.322-3.071 6.258-6.894 14.047-11.418 26.018a1 1 0 0 1-.935.647z" fill="#fff"/><path d="m796.217 1330.902-51.276 29.754a16.582 16.582 0 0 0-8.26 14.342c0 9.158 7.424 16.582 16.582 16.582h168.502c9.443 0 16.979-7.874 16.566-17.307l-1.899-43.37H796.217z" fill="#141414"/><path d="M921.765 1392.58H753.263c-9.694 0-17.581-7.887-17.581-17.582a17.634 17.634 0 0 1 8.757-15.207l51.276-29.753a.994.994 0 0 1 .502-.135h140.215a1 1 0 0 1 .999.956l1.899 43.371c.212 4.837-1.516 9.428-4.863 12.926-3.349 3.497-7.86 5.424-12.702 5.424zm-125.279-60.678-51.044 29.618a15.63 15.63 0 0 0-7.761 13.478c0 8.592 6.989 15.582 15.581 15.582h168.502c4.292 0 8.289-1.708 11.257-4.808s4.498-7.168 4.311-11.456l-1.857-42.415H796.486zm377.98-1 51.276 29.754a16.582 16.582 0 0 1 8.26 14.342c0 9.158-7.424 16.582-16.582 16.582h-168.502c-9.443 0-16.979-7.874-16.566-17.307l1.899-43.37h140.215z" fill="#141414"/><path d="M1217.42 1392.58h-168.501c-4.843 0-9.354-1.926-12.702-5.425-3.348-3.498-5.075-8.088-4.863-12.926l1.899-43.371a1 1 0 0 1 .999-.956h140.215c.176 0 .35.046.502.135l51.275 29.753a17.635 17.635 0 0 1 8.758 15.207c0 9.696-7.888 17.583-17.582 17.583zm-182.211-60.678-1.857 42.415a15.445 15.445 0 0 0 4.311 11.456 15.447 15.447 0 0 0 11.257 4.808h168.501c8.592 0 15.582-6.99 15.582-15.582a15.63 15.63 0 0 0-7.762-13.478l-51.043-29.618h-138.989z" fill="#141414"/><path d="M1228.18 1388.615a1 1 0 0 1-.65-1.761 15.564 15.564 0 0 0 5.472-11.857 15.63 15.63 0 0 0-7.762-13.478l-42.575-24.705a1 1 0 1 1 1.004-1.73l42.575 24.705a17.635 17.635 0 0 1 8.758 15.207c0 5.154-2.25 10.03-6.173 13.378a.985.985 0 0 1-.649.241z" fill="#fff"/><path d="M629.29 619.589c-5.523 0-11.22-1.024-16.1-2.759a1 1 0 1 1 .67-1.884c13.964 4.964 26.852 2.482 32.366-2.539 1.822-1.66 3.787-4.46 2.795-8.379-1.402-5.539-6.256-5.826-14.71-5.826h-.464c-3.812 0-8.1-.025-12.418-.826a1.001 1.001 0 0 1 .365-1.967c4.281.794 8.605.791 12.431.792h.368c7.826 0 14.538.11 16.367 7.334.964 3.807-.239 7.482-3.388 10.349-4.417 4.022-11.208 5.704-18.282 5.705z" fill="#141414"/><path d="M632.489 640.461c-3.521 0-7.532-.237-12.104-.771a1 1 0 1 1 .232-1.986c20.594 2.407 33.623-1.204 34.859-9.662.811-5.542-4.076-11.979-9.864-12.997a1 1 0 0 1 .346-1.97c6.88 1.209 12.467 8.624 11.497 15.256-.579 3.964-4.293 12.13-24.966 12.13z" fill="#141414"/><path d="M631.906 660.026a1 1 0 0 1-.085-1.997c18.363-1.579 29.319-6.688 29.309-13.668-.007-4.486-4.717-8.355-8.765-8.69a1 1 0 0 1-.914-1.079.992.992 0 0 1 1.08-.914c4.996.414 10.59 5.069 10.599 10.681.019 11.72-21.769 14.858-31.137 15.664a1.264 1.264 0 0 1-.087.003zm41.264-34.576c-.709 0-5.948-2.482-9.751-6.408-3.02-3.117-4.496-6.424-4.388-9.831a.987.987 0 0 1 1.03-.968 1 1 0 0 1 .968 1.031c-.256 8.083 10.896 13.731 12.325 14.192a1 1 0 0 1-.184 1.984zm130.484-29.97a1 1 0 0 1-.013-2l23.646-.3h.013a1 1 0 0 1 .013 2l-23.646.3h-.013z" fill="#141414"/><path d="M575.322 1391.58h-30.709l174.576-504.044h30.709z" fill="#fff"/><path d="M575.321 1392.58h-30.708a1 1 0 0 1-.945-1.327L718.244 887.21c.14-.403.52-.673.945-.673h30.708c.323 0 .627.156.814.42s.236.602.131.907l-174.576 504.043a1 1 0 0 1-.945.673zm-29.303-2h28.592l173.884-502.043h-28.592z" fill="#141414"/><path d="M690.725 864.947h79.132v43.471h-79.132z" fill="#fff"/><path d="M769.857 909.418h-79.132a1 1 0 0 1-1-1v-43.471a1 1 0 0 1 1-1h79.132a1 1 0 0 1 1 1v43.471a1 1 0 0 1-1 1zm-78.131-2h77.132v-41.471h-77.132z" fill="#141414"/><path d="M1357.743 1391.58h30.708l-174.576-504.044h-30.708z" fill="#fff"/><path d="M1388.451 1392.58h-30.709a1 1 0 0 1-.945-.673l-174.575-504.043a1 1 0 0 1 .945-1.327h30.708a1 1 0 0 1 .945.673l174.576 504.043a1 1 0 0 1-.945 1.327zm-29.997-2h28.593l-173.884-502.043h-28.592z" fill="#141414"/><path d="M1242.338 908.418h-79.132v-43.47h79.132z" fill="#fff"/><path d="M1242.339 909.418h-79.133a1 1 0 0 1-1-1v-43.471a1 1 0 0 1 1-1h79.133a1 1 0 0 1 1 1v43.471a1 1 0 0 1-1 1zm-78.133-2h77.133v-41.471h-77.133z" fill="#141414"/><path d="M1525.8 887.536H604.012a4.904 4.904 0 0 1-4.904-4.904v-27.277a4.905 4.905 0 0 1 4.904-4.904H1525.8a4.905 4.905 0 0 1 4.904 4.904v27.277a4.905 4.905 0 0 1-4.904 4.904z" fill="#fff"/><path d="M1525.8 888.536H604.012a5.91 5.91 0 0 1-5.904-5.904v-27.277a5.91 5.91 0 0 1 5.904-5.904H1525.8a5.91 5.91 0 0 1 5.903 5.904v27.277a5.91 5.91 0 0 1-5.903 5.904zm-921.788-37.085a3.909 3.909 0 0 0-3.904 3.904v27.277a3.909 3.909 0 0 0 3.904 3.904H1525.8a3.908 3.908 0 0 0 3.903-3.904v-27.277a3.908 3.908 0 0 0-3.903-3.904z" fill="#141414"/><path d="M1375.802 887.536H454.015a4.904 4.904 0 0 1-4.904-4.904v-27.277a4.905 4.905 0 0 1 4.904-4.904h921.788a4.905 4.905 0 0 1 4.904 4.904v27.277a4.905 4.905 0 0 1-4.905 4.904z" fill="#fff"/><path d="M1375.803 888.536H454.015a5.91 5.91 0 0 1-5.904-5.904v-27.277a5.91 5.91 0 0 1 5.904-5.904h921.788a5.91 5.91 0 0 1 5.903 5.904v27.277a5.91 5.91 0 0 1-5.903 5.904zm-921.788-37.085a3.909 3.909 0 0 0-3.904 3.904v27.277a3.909 3.909 0 0 0 3.904 3.904h921.788a3.908 3.908 0 0 0 3.903-3.904v-27.277a3.908 3.908 0 0 0-3.903-3.904z" fill="#141414"/><path d="M1362.821 850.451h-203.504a5.63 5.63 0 0 1-5.02-3.08l-49.614-97.675c-1.902-3.745.819-8.18 5.02-8.18h203.504a5.63 5.63 0 0 1 5.02 3.08l49.614 97.675c1.902 3.746-.819 8.18-5.02 8.18z" fill="#fff"/><path d="M1362.821 851.451h-203.504a6.6 6.6 0 0 1-5.911-3.628l-49.613-97.674c-1.053-2.071-.955-4.49.26-6.47s3.328-3.163 5.651-3.163h203.503c2.51 0 4.775 1.39 5.912 3.627l49.613 97.676a6.583 6.583 0 0 1-.261 6.47 6.582 6.582 0 0 1-5.65 3.162zm-253.117-108.935c-1.623 0-3.099.826-3.947 2.209s-.916 3.072-.181 4.518l49.613 97.675a4.609 4.609 0 0 0 4.128 2.534h203.504c1.622 0 3.098-.826 3.946-2.208s.916-3.072.182-4.519l-49.613-97.675a4.61 4.61 0 0 0-4.129-2.534z" fill="#141414"/><path d="M1351.48 850.451h-203.504a5.63 5.63 0 0 1-5.02-3.08l-49.614-97.675c-1.902-3.745.819-8.18 5.02-8.18h203.504a5.63 5.63 0 0 1 5.02 3.08l49.614 97.675c1.902 3.746-.819 8.18-5.02 8.18z" fill="#fff"/><path d="M1351.479 851.451h-203.504a6.6 6.6 0 0 1-5.911-3.628l-49.613-97.674a6.585 6.585 0 0 1 .261-6.471 6.584 6.584 0 0 1 5.65-3.162h203.504a6.6 6.6 0 0 1 5.911 3.627l49.613 97.676a6.581 6.581 0 0 1-.26 6.469 6.58 6.58 0 0 1-5.651 3.163zm-253.117-108.935a4.6 4.6 0 0 0-3.946 2.208 4.603 4.603 0 0 0-.182 4.52l49.613 97.674a4.609 4.609 0 0 0 4.128 2.534h203.504c1.623 0 3.099-.826 3.947-2.209s.916-3.072.181-4.518l-49.613-97.675a4.61 4.61 0 0 0-4.128-2.534z" fill="#141414"/><path d="m1336.322 802.648-30.351 47.803h-218.468l32.015-49.224zm-417.089-63.409H782.771a8.045 8.045 0 0 0-7.406 4.871l-40.583 95.158c-2.262 5.293 1.64 11.183 7.406 11.183H878.65a8.045 8.045 0 0 0 7.406-4.871l40.583-95.158c2.261-5.294-1.641-11.183-7.406-11.183zm-1.168 15.159-36.955 86.634a7.325 7.325 0 0 1-6.735 4.449H750.091c-5.244 0-8.797-5.344-6.735-10.19l36.955-86.633a7.323 7.323 0 0 1 6.735-4.449H911.33c5.243 0 8.797 5.368 6.735 10.189z" fill="#141414"/><path d="m918.065 754.398-36.955 86.634a7.325 7.325 0 0 1-6.735 4.449H750.091c-5.244 0-8.797-5.344-6.735-10.19l36.955-86.633a7.323 7.323 0 0 1 6.735-4.449H911.33c5.243 0 8.797 5.368 6.735 10.189z" fill="#fff"/><path d="M874.375 846.481H750.091a8.305 8.305 0 0 1-6.945-3.731 8.304 8.304 0 0 1-.71-7.851l36.955-86.634a8.34 8.34 0 0 1 7.654-5.056H911.33a8.3 8.3 0 0 1 6.945 3.742 8.277 8.277 0 0 1 .708 7.84l-36.954 86.633a8.339 8.339 0 0 1-7.654 5.057zm-87.33-101.272a6.337 6.337 0 0 0-5.816 3.844l-36.953 86.63c-.848 1.99-.651 4.164.539 5.963a6.31 6.31 0 0 0 5.276 2.834h124.284a6.338 6.338 0 0 0 5.816-3.845l36.953-86.63.001-.001a6.29 6.29 0 0 0-.539-5.952 6.306 6.306 0 0 0-5.276-2.844H787.045z" fill="#141414"/><path d="m918.065 754.398-36.955 86.634a7.325 7.325 0 0 1-6.735 4.449H750.091c-5.244 0-8.797-5.344-6.735-10.19l36.955-86.633a7.323 7.323 0 0 1 6.735-4.449H911.33c5.243 0 8.797 5.368 6.735 10.189z" fill="#fff"/><path d="M874.375 846.481H750.091a8.305 8.305 0 0 1-6.945-3.731 8.304 8.304 0 0 1-.71-7.851l36.955-86.634a8.34 8.34 0 0 1 7.654-5.056H911.33a8.3 8.3 0 0 1 6.945 3.742 8.277 8.277 0 0 1 .708 7.84l-36.954 86.633a8.339 8.339 0 0 1-7.654 5.057zm-87.33-101.272a6.337 6.337 0 0 0-5.816 3.844l-36.953 86.63c-.848 1.99-.651 4.164.539 5.963a6.31 6.31 0 0 0 5.276 2.834h124.284a6.338 6.338 0 0 0 5.816-3.845l36.953-86.63.001-.001a6.29 6.29 0 0 0-.539-5.952 6.306 6.306 0 0 0-5.276-2.844H787.045z" fill="#141414"/><path d="M883.069 835.125H683.386a2.027 2.027 0 0 0-2.027 2.027v11.273c0 1.119.907 2.027 2.027 2.027h199.683a2.027 2.027 0 0 0 2.027-2.027v-11.273c0-1.12-.908-2.027-2.027-2.027z" fill="#141414"/><circle cx="868.154" cy="842.788" fill="#fff" r="1.982"/><circle cx="850.881" cy="842.788" fill="#fff" r="1.982"/><circle cx="833.608" cy="842.788" fill="#fff" r="1.982"/><circle cx="816.335" cy="842.788" fill="#fff" r="1.982"/><path d="M936.015 404.776a1 1 0 0 1-.342-1.94l13.754-5.018a1 1 0 1 1 .685 1.879l-13.754 5.018a1.01 1.01 0 0 1-.343.061z" fill="#fff"/></svg>