<svg xmlns="http://www.w3.org/2000/svg" viewBox="0 0 3000 2571" width="3000" height="2571"><g transform="translate(854.2857142857143 358.57142857142856) rotate(0.0 631.4285714285716 495.7142857142857) scale(1.4232006171925213 1.4230718913773737)"><svg width="887.336" height="696.682" viewBox="0 0 887.336 696.682"><path d="M43.616 41.702H843.72v641.622H43.616z" fill="#fff"/><path d="M843.72 685.323H43.616a2 2 0 0 1-2-2V41.702a2 2 0 0 1 2-2H843.72a2 2 0 0 1 2 2v641.621a2 2 0 0 1-2 2zm-798.104-4H841.72V43.702H45.616z" fill="#25242e"/><path d="M2 2h883.336v66.744H2z" fill="#fff"/><path d="M885.336 70.744H2a2 2 0 0 1-2-2V2a2 2 0 0 1 2-2h883.336a2 2 0 0 1 2 2v66.744a2 2 0 0 1-2 2zM4 66.744h879.336V4H4z" fill="#25242e"/><rect fill="#fff" height="32.139" rx="15.945" width="883.336" x="2" y="662.543"/><path d="M869.391 696.682H17.945C8.05 696.682 0 688.632 0 678.737v-.249c0-9.895 8.05-17.945 17.945-17.945h851.446c9.895 0 17.945 8.05 17.945 17.945v.249c0 9.895-8.05 17.945-17.945 17.945zM17.945 664.543C10.256 664.543 4 670.798 4 678.488v.249c0 7.689 6.256 13.945 13.945 13.945h851.446c7.689 0 13.945-6.255 13.945-13.945v-.249c0-7.689-6.256-13.945-13.945-13.945z" fill="#25242e"/><path d="M60.977 68.744h765.382v593.799H60.977z" fill="#fff"/><path d="M826.359 664.543H60.977a2 2 0 0 1-2-2V68.744a2 2 0 0 1 2-2h765.382a2 2 0 0 1 2 2v593.799a2 2 0 0 1-2 2zm-763.382-4h761.382V70.744H62.977v589.799z" fill="#25242e"/></svg></g><g transform="translate(1041.4285714285716 551.4285714285714) rotate(0.0 337.1428571428571 321.4285714285714) scale(1.4292436575798664 1.4306761120963345)"><svg width="471.778" height="449.338" viewBox="0 0 471.778 449.338"><path d="M410.714 300.177s39.541 24.324 50.494 55.774c10.579 30.374 10.778 73.801 10.51 88.391-.051 2.772-2.73 4.997-6.021 4.997-2.804 0-5.236-1.628-5.866-3.93-3.268-11.937-13.487-47.76-21.874-61.018-10.698-16.91-29.945-19.552-29.945-19.552zm-179.543 0s-39.541 24.324-50.494 55.774c-10.579 30.374-10.778 73.801-10.51 88.391.051 2.772 2.73 4.997 6.021 4.997 2.804 0 5.236-1.628 5.866-3.93 3.268-11.937 13.487-47.76 21.874-61.018 10.698-16.91 29.945-19.552 29.945-19.552zm16.208 111.188h147.128v26.839H247.379z" fill="#dda6ff"/><path d="M376.478 98.85c44.722 105.362 52.218 218.867 36.257 316.318H229.15c-15.961-97.45-8.465-210.955 36.257-316.318z" fill="#b153e0"/><circle cx="320.943" cy="192.324" fill="#dda6ff" r="52.248"/><path d="M265.407 98.85C279.87 64.776 298.227 31.553 320.942 0c22.716 31.553 41.072 64.776 55.535 98.85z" fill="#dda6ff"/><path d="M2 252.797h137.785v72.068H2z" fill="#fff"/><path d="M139.785 326.865H2a2 2 0 0 1-2-2v-72.068a2 2 0 0 1 2-2h137.785a2 2 0 0 1 2 2v72.068a2 2 0 0 1-2 2zM4 322.865h133.785v-68.068H4z" fill="#25242e"/><path d="M193.673 64.004H56.683V15.892h136.99z" fill="#fff"/><g fill="#25242e"><path d="M193.673 66.005H56.683a2 2 0 0 1-2-2V15.893a2 2 0 0 1 2-2h136.99a2 2 0 0 1 2 2v48.112a2 2 0 0 1-2 2zm-134.99-4h132.99V17.893H58.683zm180.656 228.826h-99.554a2 2 0 0 1 0-4h99.554a2 2 0 0 1 0 4z"/><path d="M308.324 71.629a1.992 1.992 0 0 1-1.414-.586l-29.094-29.094h-84.143a2 2 0 0 1 0-4h84.971a2 2 0 0 1 1.414.586l29.68 29.68a2 2 0 0 1-1.414 3.414zm39.014 121.97a2 2 0 0 1-1.414-3.414l36.74-36.74a2 2 0 0 1 1.414-.586h84.235a2 2 0 0 1 0 4h-83.407l-36.154 36.154c-.39.391-.903.586-1.414.586z"/></g></svg></g><g transform="translate(1710.0 307.14285714285717) rotate(0.0 590.7142857142858 1040.0) scale(1.4255083954170682 1.4271893290151707)"><svg width="828.777" height="1457.41" viewBox="0 0 828.777 1457.41"><path d="m544.233 1235.714 164.913-51.19c-7.794 62.991-25.217 116.755-31.943 176.882-14.081 43.147-125.193 40.753-125.193 40.753l-1.307-27.983z" fill="#fff"/><path d="M554.907 1404.18c-1.85 0-2.888-.021-2.94-.021a2 2 0 0 1-1.955-1.906l-7.777-166.445a2 2 0 0 1 1.405-2.003l164.914-51.191a1.998 1.998 0 0 1 2.578 2.156c-3.834 30.976-10.042 59.975-16.045 88.02-6.418 29.979-12.479 58.294-15.896 88.839a2.003 2.003 0 0 1-.086.398c-6.091 18.663-29.46 31.417-69.458 37.91-23.839 3.869-46.785 4.243-54.74 4.243zm-.988-4.004c14.461.087 108.588-1.133 121.319-39.2 3.443-30.663 9.513-59.014 15.937-89.024 5.786-27.027 11.763-54.945 15.598-84.597l-160.47 49.812z" fill="#25242e"/><path d="M652.235 495.902c43.557 8.486 56.423-8.251 62.941 123.45 5.436 109.846 15.849 625.884 15.849 625.884l-195.308-.743-16.14-615.743c-46.857-32.184 40.252-150.852 132.658-132.848z" fill="#25242e"/><path d="M731.025 1247.236h-.008l-195.307-.743a2.001 2.001 0 0 1-1.992-1.948l-16.114-614.742c-14.473-10.591-17.132-30.047-7.261-53.583 9.691-23.105 30.01-46.407 54.354-62.334 28.16-18.423 59.383-25.508 87.92-19.947 5.332 1.039 10.304 1.709 14.69 2.302 16.02 2.162 27.595 3.724 35.401 20.017 7.518 15.689 11.573 44.566 14.465 102.996 5.375 108.618 15.746 620.781 15.851 625.942a1.998 1.998 0 0 1-1.999 2.04zm-193.359-4.735 191.318.728c-.726-35.7-10.605-518.715-15.805-623.777-2.826-57.099-6.904-86.496-14.077-101.465-6.874-14.346-16.455-15.639-32.329-17.781-4.44-.599-9.474-1.278-14.921-2.34-27.505-5.359-57.682 1.519-84.965 19.369-23.702 15.507-43.461 38.136-52.855 60.534-9.26 22.077-6.826 40.059 6.678 49.334a2 2 0 0 1 .867 1.596z" fill="#25242e"/><path d="M671.024 1277.236a2 2 0 0 1-1.999-1.96c-.101-5.161-10.208-517.275-15.846-625.82-2.807-54.043-4.97-78.448-12.239-116.446a2 2 0 1 1 3.928-.752c7.314 38.229 9.487 62.741 12.305 116.991 5.642 108.608 15.75 620.788 15.852 625.949a2.001 2.001 0 0 1-1.961 2.039l-.04-.001z" fill="#fff"/><path d="M729.505 1312.706h-191.49c-6.345 0-11.489-5.144-11.489-11.489v-54.383c0-6.345 5.144-11.489 11.489-11.489h191.489c6.345 0 11.489 5.144 11.489 11.489v54.383c.001 6.345-5.143 11.489-11.488 11.489z" fill="#fff"/><path d="M729.504 1314.706H538.016c-7.438 0-13.49-6.051-13.49-13.489v-54.383c0-7.438 6.051-13.489 13.49-13.489h191.489c7.438 0 13.489 6.051 13.489 13.489v54.383c0 7.438-6.051 13.489-13.49 13.489zm-191.488-77.362c-5.233 0-9.49 4.257-9.49 9.489v54.383c0 5.232 4.257 9.489 9.49 9.489h191.489c5.232 0 9.489-4.257 9.489-9.489v-54.383c0-5.232-4.257-9.489-9.489-9.489z" fill="#25242e"/><path d="M672.834 1314.706a2 2 0 0 1 0-4 4.803 4.803 0 0 0 4.798-4.798v-63.766a4.803 4.803 0 0 0-4.798-4.798 2 2 0 0 1 0-4c4.852 0 8.798 3.947 8.798 8.798v63.766c0 4.852-3.946 8.798-8.798 8.798z" fill="#25242e"/><path d="m542.408 1358.391-3.622 16.499s-51.556 19.754-60.476 23.073c-25.659 9.548-36.42 17.043-36.417 38.041h67.689l175.378-.177c.544-20.873-1.132-40.668-8.139-57.881 0 0 6.129-8.078 10.957-14.079 5.855-7.277-6.78-16.277-12.805-5.745-1.776 3.104-3.96 6.955-5.768 10.152-2.281 4.033-6.161 6.94-10.714 8.034l-28.638 6.885a48.846 48.846 0 0 1-27.521-1.38l-32.446-11.346 2.335-9.018c1.479-5.715-2.666-11.351-8.639-11.746l-8.684-.575c-5.921-.392-11.236 3.551-12.49 9.263z" fill="#dda6ff"/><path d="M509.582 1438.004h-67.69a2 2 0 0 1-2-2c-.003-22.142 11.633-30.209 37.72-39.916 8.12-3.021 52.199-19.903 59.451-22.681l3.391-15.446c1.455-6.627 7.715-11.291 14.574-10.829l8.684.575a11.57 11.57 0 0 1 8.651 4.769 11.3 11.3 0 0 1 1.792 9.475l-1.874 7.236 30.709 10.739a46.701 46.701 0 0 0 26.394 1.323l28.638-6.885c4.001-.961 7.441-3.54 9.44-7.074 1.811-3.199 3.996-7.053 5.773-10.16 2.216-3.872 5.638-5.989 9.357-5.806 3.418.167 6.632 2.32 7.998 5.36 1.26 2.804.802 5.879-1.256 8.437-3.816 4.744-8.506 10.864-10.238 13.135 5.987 15.252 8.487 33.607 7.861 57.623a2 2 0 0 1-1.997 1.948zm-65.657-4h65.655l173.424-.175c.44-23.044-2.124-40.603-8.037-55.129a1.996 1.996 0 0 1 .26-1.963c.061-.081 6.202-8.17 10.991-14.124 1.406-1.748 1.17-3.297.725-4.29-.753-1.676-2.622-2.911-4.544-3.005-2.225-.104-4.229 1.241-5.69 3.797a2628.92 2628.92 0 0 0-5.765 10.144c-2.543 4.496-6.912 7.774-11.986 8.994l-28.639 6.885a50.686 50.686 0 0 1-28.649-1.438l-32.446-11.346a2 2 0 0 1-1.276-2.389l2.335-9.018a7.313 7.313 0 0 0-1.162-6.13 7.59 7.59 0 0 0-5.673-3.12l-8.684-.575c-4.896-.328-9.369 2.984-10.403 7.695l-3.623 16.499a2.004 2.004 0 0 1-1.238 1.439c-.516.197-51.667 19.796-60.494 23.081-25.014 9.31-34.457 16.076-35.081 34.168zm98.483-75.614h.01z" fill="#dda6ff"/><path d="M487.85 1411.059c-6.896 0-13.391-3.936-16.38-10.324a2 2 0 1 1 3.623-1.695c2.792 5.967 9.529 9.178 16.025 7.636l58.666-13.93c7.316-1.738 13.248-7.21 15.48-14.282l2.713-8.598a2 2 0 1 1 3.815 1.203l-2.713 8.598c-2.653 8.407-9.692 14.909-18.371 16.97l-58.666 13.93a18.12 18.12 0 0 1-4.192.492zm159.516 13.493c-11.177 0-20.271-8.972-20.271-20s9.094-20 20.271-20c11.178 0 20.271 8.972 20.271 20s-9.094 20-20.271 20zm0-36c-8.972 0-16.271 7.178-16.271 16s7.299 16 16.271 16 16.271-7.178 16.271-16-7.3-16-16.271-16z" fill="#25242e"/><path d="M442.48 1455.41h67.101l173.785-.061c5.422-.423 9.47-5.097 9.04-10.439-.43-5.342-5.174-9.329-10.596-8.906H442.48c-5.439 0-9.849 4.344-9.849 9.703 0 5.359 4.409 9.703 9.849 9.703z" fill="#fff"/><path d="M509.581 1457.41H442.48c-6.534 0-11.849-5.25-11.849-11.703s5.315-11.703 11.849-11.703h239.254c6.485-.461 12.15 4.342 12.665 10.746a11.536 11.536 0 0 1-2.75 8.467c-2.058 2.412-4.943 3.877-8.127 4.126a2.027 2.027 0 0 1-.155.006zm-67.101-19.406c-4.328 0-7.849 3.456-7.849 7.703s3.521 7.703 7.849 7.703h67.101l173.702-.061a7.836 7.836 0 0 0 5.323-2.729 7.571 7.571 0 0 0 1.807-5.551c-.341-4.236-4.11-7.417-8.448-7.072a2.027 2.027 0 0 1-.155.006H442.48z" fill="#25242e"/><path d="m261.22 1234.669 165.172-50.348c-8.116 62.95-25.813 116.625-32.846 176.717-14.301 43.075-125.4 40.114-125.4 40.114l-1.165-27.99z" fill="#fff"/><path d="M272.43 1403.191c-2.718 0-4.271-.038-4.336-.04a2.001 2.001 0 0 1-1.945-1.917l-6.927-166.482a1.999 1.999 0 0 1 1.415-1.996l165.172-50.348a1.999 1.999 0 0 1 2.566 2.169c-3.991 30.957-10.347 59.925-16.494 87.94-6.57 29.944-12.776 58.228-16.349 88.753a2.008 2.008 0 0 1-.088.398c-6.186 18.631-29.619 31.267-69.65 37.555-22.587 3.549-44.358 3.968-53.364 3.968zm-2.364-4.013c14.524.123 108.595-.582 121.518-38.58 3.6-30.644 9.813-58.962 16.391-88.938 5.924-26.998 12.043-54.887 16.029-84.52l-160.721 48.991z" fill="#25242e"/><path d="M501.927 498.993c39.507 20.21 91.892 26.147 44.323 149.13-13.132 33.951-52.048 198.88-69.61 253.654-8.818 27.503-13.439 56.194-15.969 100.146-4.482 77.888-12.71 243.222-12.71 243.222l-195.301-1.74s11.804-188.39 15.088-255.967c2.55-52.47 9.065-88.282 20.601-122.257 22.754-67.014 22.104-67.246 81.514-265.481 25.843-71.945 48.25-143.582 132.064-100.707z" fill="#25242e"/><path d="M447.962 1247.145h-.018l-195.301-1.74a2 2 0 0 1-1.978-2.125c.118-1.884 11.84-189.148 15.086-255.94 2.458-50.575 8.65-87.301 20.705-122.803 18-53.012 21.162-63.599 51.417-164.872 7.92-26.511 17.693-59.226 30.075-100.54.01-.034.021-.068.034-.102l2.431-6.785c16.78-46.906 32.63-91.21 65.795-104.349 18.356-7.273 40.15-4.223 66.63 9.322 4.314 2.207 8.882 4.287 13.299 6.299 36.865 16.787 74.985 34.145 31.979 145.334-6.938 17.936-21.528 74.245-35.639 128.7-12.628 48.733-25.686 99.125-33.932 124.843-8.779 27.382-13.379 56.253-15.876 99.65-4.43 76.989-12.627 241.554-12.709 243.207a2.001 2.001 0 0 1-1.998 1.901zm-193.173-5.72 191.271 1.704c.934-18.721 8.444-168.827 12.615-241.32 2.518-43.758 7.171-72.916 16.061-100.642 8.211-25.609 21.254-75.946 33.868-124.625 14.79-57.077 28.76-110.988 35.781-129.14 18.783-48.561 23.394-82.809 14.098-104.703-8.165-19.228-25.573-27.155-44.003-35.548-4.458-2.03-9.069-4.129-13.463-6.377-25.394-12.991-46.111-15.987-63.336-9.165-31.482 12.472-47.036 55.949-63.502 101.978l-2.414 6.739c-12.374 41.288-22.142 73.986-30.059 100.484-30.274 101.338-33.438 111.931-51.462 165.014-11.928 35.129-18.059 71.529-20.498 121.711-3.06 62.977-13.651 232.973-14.957 253.89z" fill="#25242e"/><path d="M387.811 1276.839a2 2 0 0 1-1.999-2.123c.158-2.568 15.811-257.524 18.95-322.618 2.76-57.247 80.576-283.953 83.887-293.576a2 2 0 1 1 3.782 1.302c-.809 2.351-80.942 235.788-83.674 292.467-3.14 65.12-18.795 320.103-18.953 322.671a1.997 1.997 0 0 1-1.993 1.877z" fill="#fff"/><path d="m446.097 1312.607-191.487-.978c-6.345-.032-11.463-5.203-11.431-11.548l.278-54.382c.032-6.345 5.203-11.463 11.548-11.431l191.487.978c6.345.032 11.463 5.203 11.431 11.548l-.278 54.382c-.033 6.345-5.203 11.463-11.548 11.431z" fill="#fff"/><path d="M446.157 1314.607h-.07l-191.487-.978a13.406 13.406 0 0 1-9.519-4 13.403 13.403 0 0 1-3.902-9.559l.277-54.382c.038-7.438 6.128-13.491 13.558-13.42l191.487.978c3.603.019 6.983 1.439 9.518 4s3.92 5.955 3.902 9.558l-.277 54.382c-.037 7.414-6.082 13.421-13.487 13.421zm-.05-4h.049c5.21 0 9.462-4.225 9.489-9.441l.277-54.382a9.428 9.428 0 0 0-2.745-6.724 9.429 9.429 0 0 0-6.696-2.813l-191.487-.978h-.049c-5.21 0-9.462 4.225-9.489 9.441l-.277 54.382c-.013 2.535.962 4.922 2.745 6.724s4.162 2.801 6.696 2.814z" fill="#25242e"/><path d="M389.463 1314.353h-.046c-1.104-.006-1.995-.906-1.99-2.01s.922-2.02 2.01-1.99h.024a4.803 4.803 0 0 0 4.798-4.773l.326-63.765a4.767 4.767 0 0 0-1.388-3.4 4.762 4.762 0 0 0-3.385-1.422 2 2 0 0 1 .01-4h.01c2.35.012 4.555.938 6.208 2.608s2.557 3.884 2.545 6.234l-.326 63.765a8.74 8.74 0 0 1-2.608 6.208 8.74 8.74 0 0 1-6.188 2.545z" fill="#25242e"/><path d="m258.138 1358.249-3.6 16.504s-51.529 19.826-60.444 23.157c-25.645 9.584-36.397 17.093-36.364 38.092l67.689-.094 175.378-.42c.515-20.873-1.189-40.666-8.22-57.869 0 0 6.118-8.087 10.938-14.094 5.845-7.285-6.802-16.267-12.813-5.727-1.772 3.107-3.95 6.961-5.754 10.16-2.276 4.036-6.152 6.948-10.703 8.049l-28.629 6.924a48.841 48.841 0 0 1-27.523-1.342l-32.462-11.301 2.322-9.021c1.471-5.717-2.681-11.347-8.655-11.734l-8.685-.563c-5.919-.385-11.229 3.565-12.475 9.279z" fill="#dda6ff"/><path d="M157.73 1438.002a2 2 0 0 1-2-1.997c-.034-22.142 11.592-30.225 37.664-39.968 8.115-3.033 52.172-19.975 59.42-22.763l3.369-15.451c1.447-6.629 7.708-11.311 14.56-10.849l8.685.563c3.475.225 6.63 1.958 8.657 4.756a11.297 11.297 0 0 1 1.805 9.473l-1.864 7.239 30.724 10.696a46.731 46.731 0 0 0 26.396 1.287l28.628-6.924c4-.968 7.437-3.551 9.431-7.088a2658.87 2658.87 0 0 1 5.759-10.168c2.209-3.875 5.63-5.998 9.349-5.818 3.418.162 6.636 2.312 8.006 5.35 1.264 2.802.81 5.877-1.245 8.438-3.811 4.75-8.491 10.876-10.219 13.149 6.008 15.242 8.533 33.593 7.941 57.612a2 2 0 0 1-1.995 1.951l-175.378.42-67.691.094c0-.002-.001-.002-.002-.002zm102.362-79.326-3.599 16.504a2 2 0 0 1-1.236 1.44c-.516.198-51.641 19.867-60.462 23.164-25.002 9.343-34.435 16.123-35.034 34.215l65.655-.091 173.423-.416c.408-23.046-2.18-40.601-8.113-55.117a2.002 2.002 0 0 1 .256-1.963c.062-.081 6.191-8.179 10.973-14.139 1.404-1.75 1.166-3.299.718-4.291-.755-1.675-2.625-2.908-4.548-2.999-2.212-.105-4.227 1.247-5.686 3.804a2522.254 2522.254 0 0 0-5.75 10.152c-2.537 4.499-6.901 7.783-11.975 9.011l-28.628 6.924a50.715 50.715 0 0 1-28.651-1.397l-32.462-11.301a2 2 0 0 1-1.279-2.387l2.322-9.021a7.313 7.313 0 0 0-1.17-6.129 7.587 7.587 0 0 0-5.677-3.111l-8.685-.563c-4.901-.312-9.364 2.998-10.392 7.711zm-5.553 16.077h.01z" fill="#dda6ff"/><path d="M203.628 1410.992c-6.888 0-13.375-3.924-16.37-10.301a2 2 0 0 1 3.621-1.701c2.799 5.962 9.542 9.163 16.035 7.613l58.647-14.011c7.315-1.748 13.239-7.228 15.46-14.303l2.701-8.602a2 2 0 0 1 3.816 1.198l-2.701 8.602c-2.641 8.41-9.671 14.922-18.347 16.995l-58.647 14.011a17.99 17.99 0 0 1-4.215.499zm159.53 13.273c-5.398 0-10.476-2.068-14.302-5.827-3.841-3.773-5.96-8.797-5.968-14.145-.015-11.028 9.066-20.013 20.244-20.028h.028c11.166 0 20.255 8.953 20.271 19.972.008 5.348-2.098 10.377-5.928 14.161-3.822 3.776-8.906 5.86-14.315 5.867h-.03zm.003-36h-.022c-8.972.013-16.262 7.2-16.25 16.022.006 4.269 1.7 8.28 4.771 11.297 3.073 3.019 7.156 4.681 11.499 4.681h.024c4.352-.006 8.439-1.68 11.51-4.712 3.062-3.025 4.745-7.042 4.739-11.31-.013-8.815-7.31-15.978-16.271-15.978z" fill="#25242e"/><path d="m158.345 1455.407 67.101-.093 173.785-.302c5.422-.431 9.463-5.11 9.025-10.452-.437-5.341-5.187-9.322-10.609-8.891l-172.81.24-66.519.092c-5.439.008-9.843 4.358-9.836 9.716.008 5.359 4.423 9.697 9.863 9.69z" fill="#fff"/><path d="M158.331 1457.407c-6.526 0-11.84-5.239-11.849-11.687-.009-6.453 5.299-11.71 11.833-11.719l239.254-.332c6.475-.473 12.156 4.325 12.68 10.728a11.537 11.537 0 0 1-2.738 8.471c-2.054 2.415-4.939 3.884-8.122 4.137a1.988 1.988 0 0 1-.155.006l-173.785.302-67.102.093-.016.001zm.014-2h.01zm240.101-17.769c-.212 0-.425.008-.64.025a2.033 2.033 0 0 1-.156.006l-239.329.332c-4.328.006-7.844 3.466-7.838 7.713.006 4.244 3.526 7.692 7.849 7.692h.011l67.101-.093 173.702-.302a7.84 7.84 0 0 0 5.319-2.735 7.564 7.564 0 0 0 1.798-5.553c-.33-4.025-3.772-7.085-7.817-7.085z" fill="#25242e"/><path d="M523.733 819.02a2 2 0 0 1-1.999-1.958l-3.113-147.007-54.546-17.069a2 2 0 0 1 1.194-3.818l55.918 17.498a1.999 1.999 0 0 1 1.402 1.866l3.144 148.444a2 2 0 0 1-1.957 2.042c-.014.002-.029.002-.043.002z" fill="#fff"/><path d="m241.289 474.498 57.873-167.124c13.811-39.393 141.294 2.107 134.82 42.954-15.685 49.416-55.243 168.321-70.607 207.58-6.504 16.621-40.912 18.023-72.75 6.058-36.092-13.562-55.874-44.322-49.336-89.468z" fill="#b153e0"/><path d="M330.823 573.886c-12.219 0-26.467-2.623-40.902-8.047-18.852-7.084-32.876-18.445-41.684-33.766-9.173-15.957-12.177-35.424-8.928-57.862.018-.125.048-.249.089-.368l57.873-167.124c3.14-8.956 11.837-14.669 25.154-16.529 11.542-1.612 25.994-.355 41.794 3.631 19.003 4.795 37.526 13.026 50.82 22.581 15.472 11.121 22.705 22.96 20.917 34.239a2.066 2.066 0 0 1-.069.292c-15.671 49.375-55.381 168.685-70.65 207.704-3.912 9.998-17.132 15.249-34.414 15.249zm-87.582-98.914c-6.056 42.256 11.017 73.192 48.087 87.123 32.26 12.123 64.399 9.87 70.185-4.916 15.226-38.906 54.826-157.889 70.516-207.309 1.421-9.512-5.435-20.237-19.323-30.22-12.902-9.273-30.931-17.273-49.464-21.951-24.822-6.263-56.003-7.315-62.192 10.335z" fill="#b153e0"/><path d="M86.313 272.4s40.186-10.949 54.454 2.413c22.444 16.536 74.591 70.326 74.591 70.326-10.809 43.081-28.857 78.283-88.859 81.733l-52.611-46.898z" fill="#fff"/><path d="M126.499 428.872c-.49 0-.963-.18-1.331-.507l-52.611-46.897a2.003 2.003 0 0 1-.656-1.723l12.425-107.574a2 2 0 0 1 1.461-1.7c1.683-.458 41.28-11.042 56.259 2.801 22.369 16.522 72.617 68.277 74.748 70.476.481.497.672 1.208.504 1.879-4.454 17.751-11.485 40.227-26.446 56.591-14.908 16.306-35.92 25.024-64.238 26.652a4.41 4.41 0 0 1-.115.002zm-50.505-49.699 51.215 45.653c55.264-3.467 74.466-34.096 85.936-79.093-6.579-6.75-52.995-54.154-73.564-69.309a2.182 2.182 0 0 1-.181-.15c-11.904-11.148-44.346-3.968-51.258-2.274z" fill="#25242e"/><path d="M94.594 357.53c-31.235-29.78-45.165-23.73-51.944-16.878-13.986 14.136 4.651 37.757 14.544 46.33 15.681 13.588 28.607 9.951 33 4.316 6.728-8.629 6.622-22.276-13.589-41.097z" fill="#fff"/><path d="M78.212 398.352c-5.423 0-13.192-1.942-22.328-9.858-6.765-5.862-19.701-20.649-20.239-34.654-.22-5.718 1.659-10.628 5.583-14.594 11.945-12.074 30.365-6.409 54.746 16.836a2 2 0 0 1-2.135 3.3l-9.156-3.73c8.861 10.181 16.768 24.46 7.088 36.876-2.47 3.168-6.636 5.254-11.43 5.722-.662.064-1.373.102-2.129.102zM55.808 337.13c-4.567 0-8.483 1.641-11.736 4.929-3.114 3.147-4.604 7.06-4.429 11.627.45 11.719 11.526 25.429 18.861 31.784 9.338 8.092 16.821 9.253 21.45 8.798 3.652-.356 6.892-1.926 8.664-4.2 7.667-9.836 3.042-23.116-13.375-38.404a2 2 0 0 1 2.117-3.316l7.253 2.955c-11.423-9.44-21.051-14.173-28.805-14.173z" fill="#25242e"/><path d="M105.409 334.413c-31.549-29.447-45.472-23.201-52.178-16.278-13.836 14.284 5.05 37.706 15.034 46.174 15.824 13.421 28.711 9.647 33.044 3.966 6.636-8.7 6.386-22.345-14.023-40.951z" fill="#fff"/><path d="M89.16 375.457c-5.411 0-13.106-1.919-22.189-9.623-6.827-5.791-19.919-20.44-20.604-34.439-.28-5.715 1.546-10.645 5.428-14.652 11.852-12.234 30.35-6.782 54.979 16.208a1.999 1.999 0 0 1-2.093 3.324l-9.307-3.641c8.987 10.09 17.09 24.313 7.526 36.853-2.437 3.195-6.581 5.324-11.369 5.843-.733.08-1.524.127-2.371.127zm-22.545-61.013c-4.676 0-8.663 1.692-11.947 5.083-3.081 3.18-4.529 7.108-4.306 11.673.574 11.713 11.794 25.305 19.196 31.583 9.422 7.991 16.915 9.068 21.542 8.57 3.649-.395 6.871-2 8.619-4.292 7.563-9.916 2.798-23.146-13.78-38.26a2 2 0 0 1 2.075-3.341l7.447 2.913c-11.455-9.277-21.096-13.929-28.846-13.929z" fill="#25242e"/><path d="M120.356 297.659c-32.647-20.297-50.221-12.765-56.458-5.416-12.867 15.162 7.518 37.292 18.037 45.086 16.672 12.352 29.283 7.739 33.233 1.785 6.05-9.117 4.903-22.717-16.685-39.941z" fill="#fff"/><path d="M101.976 347.129c-5.301 0-12.537-1.752-21.231-8.193-7.193-5.329-21.22-19.085-22.824-33.009-.655-5.685.843-10.724 4.453-14.978 8.512-10.031 28.491-13.98 59.039 5.011a2 2 0 0 1-.918 3.694l-16.934 1.172c10.647 9.423 23.002 24.731 13.274 39.393-2.221 3.348-6.216 5.745-10.96 6.577a22.501 22.501 0 0 1-3.899.333zm-18.561-60.58c-11.143 0-16.529 5.265-17.992 6.988-2.865 3.376-4.052 7.391-3.529 11.932 1.343 11.65 13.433 24.475 21.231 30.253 9.926 7.354 17.475 7.94 22.058 7.135 3.615-.634 6.725-2.447 8.319-4.849 6.895-10.392 1.271-23.28-16.266-37.271a2 2 0 0 1 1.109-3.559l15.441-1.069c-13.02-7.234-22.967-9.56-30.371-9.56z" fill="#25242e"/><path d="M140.767 274.814c-15.915-17.373-34.404-28.124-52.25-33.819-21.303-6.797-44.794-.268-57.838 6.831-20.747 11.29-15.325 37.083 12.478 33.239 5.311-.734 15.125-11.216 30.955-2.527 6.053 3.322 12.517 8.59 19.119 16.809" fill="#fff"/><path d="M93.232 297.347a1.998 1.998 0 0 1-1.561-.748c-5.855-7.29-12.086-12.776-18.522-16.308-10.907-5.987-18.578-2.178-24.179.602-2.078 1.031-3.873 1.922-5.54 2.152-15.925 2.205-24.139-4.749-26.52-11.986-2.96-8.998 2.308-19.274 12.812-24.99 13.858-7.541 37.733-13.894 59.401-6.979 19.994 6.379 38.362 18.266 53.117 34.373a2 2 0 1 1-2.95 2.702c-14.285-15.594-32.053-27.097-51.384-33.265-20.471-6.531-43.108-.483-56.273 6.683-8.779 4.777-13.271 13.094-10.925 20.226 1.878 5.706 8.689 11.138 22.173 9.275 1.021-.142 2.545-.897 4.309-1.773 6.03-2.993 15.142-7.517 27.882-.525 6.897 3.786 13.531 9.61 19.715 17.31a2 2 0 0 1-1.555 3.251z" fill="#25242e"/><path d="m35.503 320.101-16.78-23.629 105.263-74.755 16.78 23.63z" fill="#25242e"/><path d="M152.078 219.557c4.634 6.525 3.1 15.571-3.425 20.205l-7.87 5.589-16.78-23.63 7.87-5.589c6.525-4.634 15.571-3.101 20.205 3.425z" fill="#b153e0"/><path d="M15.088 316.834a2.887 2.887 0 0 1-.683 4.026l-9.846 6.991a2.887 2.887 0 1 1-3.343-4.709l9.846-6.991a2.888 2.888 0 0 1 4.026.683z" fill="#25242e"/><path d="m4.238 319.03 5.201 7.324 26.074-6.251-16.78-23.631z" fill="#b153e0"/><path d="M141.908 378.074c-17.708-4.817-25.703-28.35-23.329-36.64-2.971-1.486-24.91-12.628-47.862-26.97s-14.833-40.038 8.008-35.067 55.322 21.449 77.043 33.53" fill="#fff"/><path d="M141.909 380.074c-.174 0-.35-.023-.526-.071-7.856-2.137-14.858-8.059-19.714-16.676-4.033-7.156-6.105-15.375-5.354-20.798-5.396-2.747-25.594-13.208-46.659-26.37-13.861-8.662-16.702-20.807-13.368-29.001 3.336-8.198 12.309-12.013 22.861-9.716 24.204 5.267 59.001 23.397 77.59 33.736a2.001 2.001 0 0 1-1.944 3.496C136.4 304.442 102 286.508 78.299 281.35c-8.684-1.89-15.7.912-18.305 7.315-2.703 6.643-.107 16.672 11.783 24.102 23.938 14.958 46.738 26.398 47.697 26.878a2 2 0 0 1 1.028 2.339c-1.024 3.577.259 11.584 4.652 19.38 4.327 7.677 10.463 12.926 17.279 14.78a2 2 0 0 1-.524 3.93z" fill="#25242e"/><path d="M363.375 557.908c-17.233 47.397-93.577 37.433-123.55 6.288-34.249-35.589-69.198-52.969-93.157-78.756-7.778-8.372.733-36.013.733-36.013a30535.408 30535.408 0 0 1-20.903-22.555l88.859-81.733s78.493 80.801 103.906 108.27c20.774 22.454 59.938 60.974 44.112 104.499z" fill="#b153e0"/><path d="M308.316 592.493c-25.785 0-54.039-10.396-69.931-26.911-18.023-18.729-36.616-32.663-53.019-44.957-14.794-11.088-28.769-21.561-40.163-33.825-3.658-3.937-4.689-11.606-3.064-22.794.904-6.228 2.372-11.758 3.024-14.052a34780.463 34780.463 0 0 1-20.132-21.724 2.002 2.002 0 0 1 .114-2.831l88.859-81.733a2 2 0 0 1 2.789.079c.785.808 78.801 81.132 103.94 108.305 1.118 1.208 2.289 2.463 3.502 3.763 21.099 22.607 56.412 60.446 41.021 102.778-6.13 16.859-19.821 27.984-39.594 32.172-5.525 1.171-11.372 1.73-17.346 1.73zM129.33 426.986c2.857 3.085 10.005 10.803 19.539 21.082a2 2 0 0 1 .445 1.948c-2.271 7.383-6.909 27.896-1.18 34.063 11.15 12.001 24.984 22.369 39.631 33.346 16.524 12.385 35.254 26.422 53.502 45.384 18.712 19.443 55.419 30.006 83.565 24.042 12.797-2.711 29.546-10.051 36.664-29.626l1.879.684-1.879-.684c14.554-40.028-18.388-75.325-40.186-98.682-1.217-1.304-2.393-2.563-3.514-3.775-23.273-25.156-91.984-95.988-102.517-106.838z" fill="#b153e0"/><path d="M296.053 431.077a1.996 1.996 0 0 1-1.444-.615l-38.333-39.956a2 2 0 1 1 2.887-2.769l38.333 39.956a2 2 0 0 1-1.443 3.384zm-148.651 20.35a2 2 0 0 1-1.355-3.472l88.859-81.733a2 2 0 1 1 2.708 2.944L148.756 450.9c-.384.353-.87.527-1.354.527z" fill="#25242e"/><path d="M299.162 307.374c20.102-53.895 58.485-76.343 126.81-88.679 36.951-6.672 128.672-17.654 176.128-21.045 52.037-3.718 109.036 18.311 132.133 70.851l-109.432 86.55-206.096 28.026z" fill="#b153e0"/><path d="M418.705 385.077c-.377 0-.749-.106-1.07-.311l-119.543-75.703a1.999 1.999 0 0 1-.804-2.388c19.219-51.525 55.199-76.745 128.329-89.949 37.009-6.682 129.299-17.71 176.341-21.071 27.226-1.943 54.905 3.215 77.943 14.528 25.765 12.653 45.186 32.54 56.164 57.513a2 2 0 0 1-.591 2.374l-109.432 86.549a1.998 1.998 0 0 1-.971.413l-206.097 28.027a2.015 2.015 0 0 1-.269.018zm-117.096-78.521 117.55 74.44 204.832-27.855 107.782-85.244c-10.698-23.439-29.214-42.131-53.634-54.124-22.413-11.007-49.366-16.027-75.895-14.129-46.94 3.354-139.008 14.354-175.915 21.018-35.848 6.472-61.5 15.512-80.728 28.446-20.163 13.565-34.171 31.845-43.992 57.448z" fill="#b153e0"/><path d="m349.565 361.558 39.401-44.836 179.946-17.072 119.852 65.663s20.936 83.897 24.319 108.121-11.348 44.391-11.348 44.391l-333.323 43.962c-52.396-42.829-12.205-71.707-14.094-127.949-1.769-52.69-5.156-67.266-4.753-72.28z" fill="#b153e0"/><path d="M368.412 563.786c-.459 0-.907-.158-1.266-.452-35.65-29.141-29.366-53.026-22.089-80.683 3.699-14.06 7.892-29.996 7.262-48.747-1.179-35.108-3.071-53.202-4.088-62.923-.521-4.986-.809-7.733-.66-9.583.035-.43.207-.836.491-1.16l39.401-44.836a1.997 1.997 0 0 1 1.313-.671l179.946-17.072a2.01 2.01 0 0 1 1.15.237l119.852 65.663c.489.268.845.729.979 1.27.21.84 21.001 84.278 24.359 108.33 3.455 24.742-11.093 44.997-11.714 45.847a2.003 2.003 0 0 1-1.354.803l-333.323 43.962a2.467 2.467 0 0 1-.259.015zm-16.88-201.437c-.016 1.587.258 4.208.677 8.216 1.022 9.77 2.924 27.956 4.108 63.205.649 19.336-3.623 35.573-7.392 49.898-7.443 28.29-12.834 48.781 20.086 76.021l331.578-43.732c2.438-3.675 13.4-21.575 10.514-42.248-3.148-22.543-21.861-98.179-24.068-107.065L568.49 301.698l-178.545 16.939z" fill="#b153e0"/><path d="M368.412 561.786s-6.311 13.863 1.452 37.914l339.848-47.432c-1.31-11.361-4.173-22.86-7.977-34.444z" fill="#f05467"/><path d="M368.41 563.786a2 2 0 0 1-.259-3.983l333.323-43.962a2 2 0 0 1 .523 3.966l-333.323 43.962a2.152 2.152 0 0 1-.264.017z" fill="#25242e"/><path d="M678.349 474.961 608.864 319.36s91.434-83.857 125.37-50.859c19.138 35.934 78.162 170.901 87.147 194.911 18.834 50.334-106.277 98.643-143.032 11.549z" fill="#b153e0"/><path d="M750.168 524.998c-8.386 0-16.62-1.13-24.315-3.413-22.427-6.653-39.487-22.5-49.338-45.826l-69.478-155.584a2 2 0 0 1 .474-2.29c3.79-3.476 93.227-84.744 128.117-50.819.148.145.273.311.371.494 18.779 35.262 78.062 170.584 87.254 195.149 7.778 20.788-7.567 43.574-37.318 55.412-11.465 4.563-23.77 6.877-35.767 6.877zM611.283 319.873l68.892 154.273.017.038c9.368 22.199 25.551 37.264 46.799 43.567 17.861 5.299 38.807 4.08 57.465-3.345 22.584-8.986 43.186-28.558 35.052-50.294-9.146-24.443-67.996-158.79-86.89-194.39-9.261-8.771-29.373-13.403-72.698 13.507-23.374 14.517-43.822 32.35-48.637 36.644z" fill="#b153e0"/><path d="M343.142 500.984a2 2 0 0 1-1.965-2.384c1.686-8.646 3.634-16.966 5.354-24.307 3.019-12.892 5.627-24.025 5.804-32.248.55-25.537-4.708-79.75-4.761-80.294a2 2 0 0 1 3.981-.389c.053.547 5.333 54.997 4.778 80.769-.187 8.641-2.838 19.964-5.909 33.074-1.711 7.307-3.651 15.588-5.322 24.16a2 2 0 0 1-1.96 1.619z" fill="#25242e"/><path d="m404.766 429.888-83.923 29.284a5.647 5.647 0 0 1-7.191-3.471l-3.453-9.897a5.647 5.647 0 0 1 3.471-7.191l83.923-29.284a5.647 5.647 0 0 1 7.191 3.471l3.453 9.897a5.646 5.646 0 0 1-3.471 7.191z" fill="#25242e"/><path d="m538.789 673.428-171.361 59.795c-6.391 2.23-13.379-1.143-15.609-7.534l-85.372-244.66c-2.23-6.391 1.143-13.379 7.534-15.609l171.361-59.795c6.391-2.23 13.379 1.143 15.609 7.534l85.372 244.66c2.23 6.391-1.143 13.379-7.534 15.609z" fill="#fff"/><path d="M363.403 735.908c-5.896 0-11.423-3.687-13.472-9.56l-85.372-244.66c-1.255-3.595-1.034-7.463.621-10.893s4.547-6.009 8.142-7.263l171.361-59.794a14.161 14.161 0 0 1 10.893.621 14.162 14.162 0 0 1 7.263 8.142l85.372 244.66c1.255 3.595 1.034 7.463-.621 10.893s-4.547 6.009-8.142 7.263l-171.361 59.794a14.176 14.176 0 0 1-4.684.797zm85.985-328.971c-1.138 0-2.28.192-3.387.578L274.64 467.309c-5.339 1.863-8.167 7.723-6.304 13.062l85.372 244.66c1.863 5.338 7.72 8.166 13.062 6.304l171.361-59.794a10.187 10.187 0 0 0 5.857-5.226 10.184 10.184 0 0 0 .447-7.836l-85.372-244.66a10.188 10.188 0 0 0-5.225-5.857 10.21 10.21 0 0 0-4.45-1.025zm89.401 266.491h.01z" fill="#25242e"/><circle cx="326.428" cy="470.575" fill="#25242e" r="7.162"/><circle cx="407.488" cy="442.29" fill="#25242e" r="7.162"/><path d="M533.903 626.174c36.112 15.497 83.914-4.984 83.914-4.984 24.812-12.281-18.57-118.442-52.476-117.397l-17.456 7.117c-15.326-7.117-40.004 8.311-44.46 32.14-5.883 31.453 4.561 72.003 30.478 83.124z" fill="#fff"/><path d="M565.117 633.944c-10.528 0-21.716-1.518-32.002-5.932-12.51-5.368-22.551-17.851-28.274-35.147-5.184-15.666-6.416-33.957-3.381-50.184 2.498-13.353 11.522-25.496 23.552-31.691 8.04-4.141 16.326-4.943 22.9-2.251l16.676-6.798c.22-.09.455-.14.693-.147 23.8-.759 50.32 46.253 58.831 80.263 5.492 21.948 3.572 36.482-5.406 40.926a3.045 3.045 0 0 1-.1.046c-.496.212-12.337 5.241-28.823 8.429-7.069 1.365-15.624 2.486-24.666 2.486zm-30.425-9.608c34.418 14.771 80.518-4.221 82.289-4.964 6.865-3.461 8.082-17.039 3.25-36.345-8.997-35.954-34.612-77.243-54.394-77.243h-.085l-17.112 6.976a2.003 2.003 0 0 1-1.597-.038c-5.568-2.585-12.93-1.921-20.201 1.823-10.957 5.642-19.176 16.705-21.452 28.87-2.914 15.583-1.73 33.147 3.247 48.192 5.36 16.196 14.612 27.819 26.055 32.729z" fill="#25242e"/><path d="M547.885 510.909c-56.821-29.933-96.811-23.335-119.474-8.13-19.615 13.16-11.831 38.341 15.498 31.943 7.216-1.689 39.317-12.087 69.822 10.764" fill="#fff"/><path d="M513.729 547.485c-.417 0-.838-.13-1.198-.399-27.707-20.754-56.801-13.313-66.362-10.868-.709.181-1.313.336-1.804.451-15.648 3.664-24.475-2.497-27.515-9.483-3.78-8.686.516-19.405 10.447-26.067 13.134-8.812 29.767-13.376 48.062-13.201 22.421.215 47.137 7.355 73.459 21.222a2 2 0 1 1-1.865 3.539c-25.753-13.567-49.854-20.552-71.633-20.762-17.496-.16-33.333 4.162-45.794 12.523-8.299 5.568-12.003 14.265-9.008 21.149 2.397 5.508 9.68 10.288 22.936 7.185.47-.11 1.047-.258 1.726-.431 10.02-2.563 40.511-10.361 69.751 11.542a2 2 0 0 1-1.202 3.6z" fill="#25242e"/><path d="M529.32 528.693s-70.328 13.435-96.577 23.803c-36.634 14.47-32.178 45.172 1.074 40.809 35.01-4.594 78.19-16.613 94.802-21.464" fill="#fff"/><path d="M427.842 595.709c-11.711 0-20.21-4.789-22.329-12.975-2.529-9.769 4.683-23.482 26.495-32.099 26.123-10.318 94.058-23.357 96.936-23.907a2 2 0 1 1 .751 3.929c-.702.134-70.444 13.518-96.218 23.699-19.436 7.677-26.113 19.572-24.093 27.375 1.941 7.498 11.428 11.262 24.171 9.59 34.785-4.565 77.676-16.487 94.501-21.401a2 2 0 0 1 1.121 3.839c-16.915 4.94-60.041 16.926-95.102 21.527a47.699 47.699 0 0 1-6.233.423z" fill="#25242e"/><path d="M532.56 552.937s-77.43 22.35-93.729 28.803c-35.924 14.224-28.816 46.848 3.358 40.506 35.669-7.031 79.481-21.433 87.131-23.195" fill="#fff"/><path d="M434.203 625.081c-12.342 0-18.837-6.424-20.716-12.817-1.614-5.494-.29-11.654 3.729-17.345 4.343-6.149 11.562-11.35 20.879-15.038 16.202-6.416 90.745-27.952 93.91-28.865 1.059-.309 2.169.305 2.476 1.367s-.306 2.17-1.367 2.476c-.773.224-77.523 22.396-93.547 28.741-18.669 7.393-24.617 19.456-22.243 27.537 2.358 8.023 11.966 11.615 24.478 9.148 25.769-5.079 55.558-13.947 73.356-19.246 6.704-1.996 11.547-3.438 13.712-3.936a2 2 0 0 1 .898 3.898c-2.042.47-6.834 1.896-13.468 3.872-17.866 5.318-47.769 14.22-73.724 19.336-3.045.6-5.833.872-8.373.872z" fill="#25242e"/><path d="M534.549 582.773c-26.155 7.175-56.479 22.694-74.181 37.96-17.703 15.266-2.047 37.2 23.211 27.479s47.351-20.557 50.324-22.038" fill="#fff"/><path d="M471.504 652.645c-8.781 0-15.26-4.04-18.419-9.316-4.547-7.594-2.201-17.058 5.977-24.11 17.834-15.379 48.658-31.159 74.958-38.374a2 2 0 0 1 1.059 3.857c-25.788 7.074-55.973 22.514-73.405 37.546-6.732 5.805-8.708 13.096-5.157 19.026 3.684 6.153 13.258 10.109 26.344 5.071 26.361-10.146 49.192-21.483 50.151-21.961a2 2 0 0 1 1.784 3.58c-.966.481-23.961 11.901-50.498 22.114-4.65 1.79-8.944 2.566-12.794 2.567z" fill="#25242e"/><path d="M821.38 463.412c20.209 51.364-19.746 91.302-63.382 109.169-30.993 12.69-46.893 42.177-76.954 54.844-14.17 5.971-42.736-10.944-42.736-10.944-19.845 6.364-29.526 8.761-29.526 8.761l-43.44-121.449 111.415-48.209c69.763-25.595 123.519-45.813 144.623 7.828z" fill="#b153e0"/><path d="M673.875 630.685c-13.848.001-31.778-9.74-35.801-12.03-19.12 6.112-28.715 8.504-28.812 8.528a2.002 2.002 0 0 1-2.364-1.268l-43.44-121.45a2 2 0 0 1 1.089-2.509l111.415-48.209a1.64 1.64 0 0 1 .105-.042l1.665-.611c69.199-25.39 123.856-45.446 145.509 9.584 9.444 24.004 6.689 47.87-7.967 69.018-12.226 17.64-32.297 32.817-56.519 42.735-15.383 6.298-27.245 17.073-38.717 27.493-11.346 10.306-23.079 20.963-38.219 27.343-2.362.996-5.066 1.417-7.944 1.418zm-35.567-16.205c.354 0 .707.094 1.019.279.277.164 27.862 16.334 40.941 10.822 14.509-6.114 25.474-16.073 37.082-26.618 11.729-10.653 23.855-21.668 39.891-28.234 23.514-9.628 42.957-24.3 54.747-41.312 13.859-19.999 16.464-42.57 7.531-65.274-9.269-23.56-25.641-33.848-51.499-32.397-24.206 1.362-54.19 12.364-88.909 25.104l-1.612.591-109.643 47.442 42.193 117.961c3.609-.961 12.812-3.511 27.648-8.269.2-.063.405-.095.611-.095z" fill="#b153e0"/><path d="M638.308 618.481a2 2 0 0 1-1.883-1.327l-44.684-124.926a2 2 0 1 1 3.767-1.347l44.684 124.926a2 2 0 0 1-1.884 2.674z" fill="#25242e"/><path d="m494.466 285.084 89.339-86.171c-4.07-8.532-22.624-24.958-48.042-.361-16.381 15.852-73.259 89.951-73.259 89.951s-15.7-50.867-20.04-67.226c-6.758-25.471-48.277-9.772-35.031 14.1 8.679 15.642 31.483 57.674 31.483 57.674z" fill="#b153e0"/><path d="M438.914 295.051a2 2 0 0 1-1.757-1.046c-.228-.42-22.898-42.202-31.474-57.657-3.983-7.178-3.789-14.455.547-20.489 4.993-6.949 14.84-10.851 23.417-9.271 7.45 1.37 12.688 6.405 14.75 14.177 3.6 13.568 15.192 51.449 18.881 63.454 11.046-14.326 56.505-72.985 71.094-87.103 7.518-7.276 19.207-15.457 32.189-13.116 9.28 1.673 16.379 8.458 19.048 14.053a1.997 1.997 0 0 1-.417 2.3l-89.338 86.171a2.01 2.01 0 0 1-1.104.541l-55.552 7.966c-.095.013-.19.02-.284.02zm-13.241-84.821c-6.235 0-12.677 3.065-16.195 7.962-2.393 3.33-4.386 8.846-.297 16.214 7.753 13.974 27.005 49.425 30.827 56.467l20.239-2.902c-2.333-7.578-15.775-51.322-19.717-66.182-1.643-6.192-5.765-10.194-11.607-11.269a17.97 17.97 0 0 0-3.25-.29zm136.351-22.634c-7.915 0-16.432 4.226-24.872 12.393-14.362 13.899-60.855 73.903-71.071 87.146l27.461-3.938 87.777-84.665c-2.188-3.588-7.391-9.139-15.468-10.596a21.502 21.502 0 0 0-3.827-.34zm-67.558 97.488h.01z" fill="#b153e0"/><path d="M444.217 303.904a1.997 1.997 0 0 1-1.752-1.034c-.281-.509-28.203-51.062-36.782-66.523-6.058-10.917-1.465-20.026 4.854-24.911a2.001 2.001 0 0 1 2.447 3.165c-6.482 5.011-7.903 12.414-3.802 19.805 8.581 15.465 36.504 66.021 36.785 66.53a1.999 1.999 0 0 1-1.75 2.968zm18.286-13.402a2 2 0 0 1-1.912-1.41c-.157-.509-15.762-51.092-20.062-67.303a18.786 18.786 0 0 0-1.398-3.707 2 2 0 1 1 3.562-1.818 22.764 22.764 0 0 1 1.702 4.5c3.6 13.569 15.194 51.454 18.881 63.456 10.399-13.474 52.257-67.448 68.676-84.658a2 2 0 1 1 2.895 2.761c-18.574 19.469-70.239 86.72-70.758 87.397-.382.498-.97.782-1.586.782zm21.801 8.283a2 2 0 0 1-1.403-3.426l98.427-96.816c-2.261-3.726-7.704-9.48-16.18-10.722a2 2 0 1 1 .58-3.958c9.687 1.419 17.096 8.35 19.881 14.189a2 2 0 0 1-.403 2.287l-99.5 97.872a1.993 1.993 0 0 1-1.402.574z" fill="#25242e"/><circle cx="548.885" cy="64.933" fill="#25242e" r="14.065"/><circle cx="543.278" cy="78.186" fill="#25242e" r="14.065"/><path d="M413.931 130.181c-17.685-41.412-10.23-79.538 35.723-95.213 47.546-16.219 79.878 9.013 94.432 50.816 5.732-17.967 27.165-12.528 32.323 2.615 3.817 11.204-4.195 26.863-24.754 26.532 1.397 47.561-33.266 68.557-69.011 77.603-41.49 10.5-82.99-22.492-68.713-62.353z" fill="#fff"/><path d="M466.882 196.497c-17.426 0-34.199-6.873-45.448-19.258-11.895-13.096-15.39-30.182-9.646-46.988-10.141-24.114-11.419-46.008-3.689-63.354 6.928-15.546 20.692-26.925 40.91-33.822 23.216-7.919 43.827-6.631 61.263 3.828 14.529 8.716 26.216 23.726 33.99 43.583 3.021-5.08 7.805-7.934 13.643-7.991l.174-.001c8.718 0 17.204 6.391 20.225 15.259 2.123 6.23.951 13.3-3.134 18.911-4.603 6.322-12.177 9.919-21.476 10.247.174 21.415-6.965 39.14-21.236 52.713-11.756 11.181-28.35 19.541-49.321 24.849a66.263 66.263 0 0 1-16.255 2.024zm10.582-164.522c-8.544 0-17.613 1.627-27.165 4.886-19.121 6.522-32.09 17.176-38.547 31.664-7.342 16.474-5.953 37.523 4.018 60.871a2 2 0 0 1 .043 1.46c-5.59 15.609-2.463 31.534 8.581 43.693 13.756 15.146 36.428 21.445 57.759 16.046 45.923-11.622 68.634-37.06 67.502-75.606a2 2 0 0 1 2.031-2.058c8.895.136 16.095-2.918 20.247-8.621 3.32-4.56 4.285-10.267 2.582-15.267-2.5-7.34-9.451-12.632-16.574-12.549-5.689.056-9.933 3.57-11.951 9.897a2 2 0 0 1-1.879 1.392c-.834.031-1.632-.529-1.915-1.342-7.405-21.27-19.157-37.213-33.984-46.109-9.282-5.569-19.566-8.357-30.748-8.357z" fill="#25242e"/><path d="M566.612 98.189c-.263 0-.531-.052-.788-.163l-14.243-6.113a2.001 2.001 0 0 1 1.578-3.676l14.243 6.113a2.001 2.001 0 0 1-.79 3.839z" fill="#25242e"/><path d="M556.784 101.542a2.001 2.001 0 0 1-1.828-2.812l6.204-13.978a2.001 2.001 0 0 1 3.657 1.623l-6.204 13.978a2.002 2.002 0 0 1-1.829 1.189z" fill="#25242e"/><path d="M480.291 140.556c-2.767-11.17-26.59-4.967-22.852 5.938-.719 5.174 4.818 11.377 13.382 9.776 8.256-1.543 14.211-10.703 9.47-15.714z" fill="#dda6ff"/><g fill="#25242e"><path d="M451.613 148.974c-.462 0-.922-.006-1.382-.017a2 2 0 0 1-1.95-2.049c.027-1.104.922-1.989 2.049-1.95 17.482.441 35.61-7.863 40.882-14.003a2 2 0 1 1 3.035 2.605c-6.386 7.439-25.236 15.414-42.634 15.414zm23.685-44.368a2 2 0 0 1-1.849-2.759c2.898-7.075 7.252-9.542 10.394-10.367 4.848-1.272 10.555.311 15.654 4.343a2.001 2.001 0 0 1-2.482 3.138c-4.104-3.245-8.533-4.562-12.158-3.611-3.29.863-5.883 3.559-7.708 8.014a2 2 0 0 1-1.851 1.242z"/><path d="M479.068 104.245c1.819 7.243 5.919 12.455 9.158 11.642s4.39-7.344 2.571-14.587c-.727-2.896-1.819-5.467-3.075-7.458-4.109-1.556-9.513 2.88-9.517 3.704-.009 2.04.268 4.331.863 6.699zm-52.883 17.634a2 2 0 0 1-1.919-2.565c2.158-7.335 6.236-10.235 9.277-11.377 4.692-1.763 10.531-.773 16.017 2.716a2 2 0 1 1-2.147 3.375c-4.416-2.807-8.958-3.663-12.464-2.346-3.184 1.195-5.486 4.143-6.845 8.761a2.004 2.004 0 0 1-1.919 1.436z"/><path d="M430.1 121.123c2.551 7.019 7.164 11.783 10.302 10.643 3.139-1.141 3.615-7.755 1.063-14.774-1.02-2.806-2.369-5.252-3.822-7.104-3.653-1.208-9.168 3.843-9.087 4.664.201 2.03.711 4.279 1.544 6.571z"/><circle cx="469.044" cy="14.066" r="14.065"/><circle cx="494.941" cy="14.755" r="14.065"/><circle cx="517.902" cy="24.777" r="14.065"/><circle cx="534.937" cy="43.656" r="14.065"/><circle cx="444.772" cy="21.71" r="14.065"/><circle cx="422.845" cy="33.854" r="14.065"/><circle cx="405.536" cy="50.763" r="14.065"/><circle cx="396.71" cy="72.97" r="14.065"/><circle cx="403.245" cy="92.472" r="14.065"/><circle cx="426.596" cy="86.277" r="14.065"/><circle cx="448.484" cy="75.236" r="14.065"/><circle cx="472.661" cy="64.569" r="14.065"/><circle cx="497.691" cy="68.483" r="14.065"/><circle cx="519.956" cy="81.038" r="14.065"/><path d="M418.888 42.849c-9.449 8.175-24.633 30.694-10.555 40.25 17.786 3.215 35.622-2.118 48.312-14.981 13.084-11.05 24.736-6.987 39.941-4.929 9.987 5.87 28.639 9.437 31.686 20.614 4.608 16.904 5.706 24.155 11.059 23.239 6.659-1.139 4.789-17.585 4.694-28.908-.203-24.104-8.321-44.305-28.017-54.388-14.889-6.87-31.957-9.838-48.315-9.111-19.804.544-34.317 16.513-48.805 28.214zm146.455 462.944a2.001 2.001 0 0 1-.806-3.831l138.089-60.712a2.001 2.001 0 0 1 1.61 3.662l-138.088 60.712a2.02 2.02 0 0 1-.805.169z"/><path d="M670.981 459.348a1.999 1.999 0 0 1-1.823-1.176l-38.713-85.581a2 2 0 0 1 3.644-1.648l38.713 85.581a2 2 0 0 1-1.821 2.824zm-189.774-84.403a2.002 2.002 0 0 1-1.979-1.724l-10.333-74.063a2 2 0 0 1 3.962-.552l10.333 74.063a2 2 0 0 1-1.983 2.276zm-26.052 0a2 2 0 0 1-1.999-1.947l-2.001-76.16a2 2 0 0 1 1.947-2.052c1.117-.042 2.022.843 2.052 1.947l2.001 76.16a2 2 0 0 1-1.947 2.052h-.053z"/></g></svg></g><g transform="translate(1137.142857142857 1180.0) rotate(0.0 -509.2857142857143 603.5714285714287) scale(-1.4236754227697017 1.4247154236319657)"><svg width="715.452" height="847.287" viewBox="0 0 715.452 847.287"><path d="m565.625 496.118 52.442 349.169h-21.816l-69.012-317.695m-212.466 0-47.714 317.695h21.815l69.012-317.695m-308.172 0L2 845.287h21.815l69.013-317.695" fill="#25242e"/><path d="M618.067 847.287h-21.815a2.001 2.001 0 0 1-1.955-1.575l-69.013-317.695a2 2 0 0 1 3.909-.849l68.67 316.119h17.88l-52.097-346.872a2 2 0 0 1 3.956-.594l52.441 349.169a2 2 0 0 1-1.978 2.297zm-329.193 0h-21.815a2 2 0 0 1-1.978-2.297l47.714-317.694a2 2 0 1 1 3.956.594l-47.37 315.397h17.88l68.67-316.119a2 2 0 0 1 3.909.849l-69.012 317.695a2 2 0 0 1-1.955 1.575zm-265.059 0H2a2 2 0 0 1-1.978-2.297l47.714-317.694a2 2 0 1 1 3.956.594L4.323 843.287h17.88l68.67-316.119a2 2 0 0 1 3.909.849L25.77 845.711a2 2 0 0 1-1.955 1.575z" fill="#25242e"/><path d="M40.259 511.339h302.094l31.184-39.033a14.39 14.39 0 0 0 3.147-8.982V352.43c0-20.191 16.368-36.558 36.558-36.558h45.71c65.78 0 121.916-47.565 132.715-112.452l30.502-183.264C623.853 9.693 632.883 2 643.481 2h57.04c7.95 0 14.016 7.109 12.766 14.96l-61.938 388.882a79.658 79.658 0 0 1-20.086 41.449l-58.658 63.659a51.625 51.625 0 0 1-37.964 16.642H49.992z" fill="#fff"/><path d="M359.036 2h284.446l-54.395 442.357-374.968-19.731z" fill="#fff"/><path d="M49.992 527.592 14.67 471.895a14.385 14.385 0 0 1-2.238-7.706V352.431c0-20.191 16.368-36.558 36.558-36.558H94.7c65.78 0 121.916-47.565 132.715-112.452l30.502-183.264c1.684-10.463 10.714-18.156 21.312-18.156h57.04c7.95 0 14.016 7.109 12.766 14.96l-61.938 388.882-237.106 121.75z" fill="#fff"/><path d="m67.903 511.339-25.516-39.403a14.387 14.387 0 0 1-2.311-7.821V352.431c0-20.191 16.368-36.558 36.558-36.558h45.71c65.78 0 121.916-47.565 132.715-112.452l30.502-183.264c1.684-10.463 10.714-18.156 21.312-18.156h57.04c7.95 0 14.016 7.109 12.766 14.96l-61.938 388.882L67.902 511.34z" fill="#fff"/><path d="M67.903 511.339c12.868-77.302 79.744-133.965 158.109-133.965h344.491l-21.14 143.262-481.461-9.297z" fill="#fff"/><path d="M67.906 513.339a2 2 0 0 1-1.975-2.328c3.576-21.482 11.258-41.663 22.833-59.984a2 2 0 1 1 3.382 2.136c-11.289 17.868-18.781 37.552-22.269 58.504a2 2 0 0 1-1.97 1.672zm64.73-103.958a2 2 0 0 1-1.167-3.625c4.227-3.032 19.021-12.322 27.279-15.799a1.999 1.999 0 1 1 1.552 3.686c-7.989 3.364-22.379 12.407-26.5 15.363-.353.253-.76.375-1.164.375zm46.057-22.886a2 2 0 0 1-.59-3.911 162.151 162.151 0 0 1 47.909-7.21h344.492a2 2 0 0 1 0 4H226.012a158.184 158.184 0 0 0-46.729 7.031c-.197.061-.396.09-.591.09z" fill="#25242e"/><path d="M506.998 527.592a51.625 51.625 0 0 0 37.964-16.642l58.658-63.659a79.658 79.658 0 0 0 20.086-41.449L685.644 16.96C686.894 9.109 680.828 2 672.878 2h-57.04c-10.598 0-19.628 7.693-21.312 18.156L564.024 203.42c-10.8 64.888-66.935 112.452-132.715 112.452h-45.71c-20.191 0-36.558 16.368-36.558 36.558v110.894c0 3.264-1.11 6.431-3.147 8.982l-31.184 39.033" fill="#fff"/><g fill="#25242e"><path d="M314.708 513.339a2 2 0 0 1-1.561-3.249l31.184-39.033a12.437 12.437 0 0 0 2.709-7.733V352.43c0-21.261 17.297-38.558 38.559-38.558h45.71c65.074 0 120.059-46.59 130.742-110.781l30.502-183.264C594.401 8.343 604.194 0 615.837 0a2 2 0 0 1 0 4A19.505 19.505 0 0 0 596.5 20.474l-30.504 183.275a136.697 136.697 0 0 1-46.419 81.757 136.698 136.698 0 0 1-88.268 32.367h-45.71c-19.056 0-34.559 15.503-34.559 34.558v110.894c0 3.703-1.273 7.336-3.584 10.23l-31.184 39.033a1.998 1.998 0 0 1-1.564.752z"/><path d="M376.685 404.605a2 2 0 0 1-2-2v-50.174c0-9.954 3.781-19.402 10.647-26.603a2 2 0 0 1 2.896 2.761 34.402 34.402 0 0 0-9.542 23.843v50.174a2 2 0 0 1-2 2zm133.335-96.782a2 2 0 0 1-.761-3.851 132.613 132.613 0 0 0 33.269-19.77 2 2 0 1 1 2.522 3.104 136.565 136.565 0 0 1-34.271 20.366c-.249.102-.506.15-.759.15zm47.877-33.32a2 2 0 0 1-1.469-3.356c17.515-18.992 29.019-42.525 33.268-68.055l30.501-183.264C622.045 8.343 631.839 0 643.482 0a2 2 0 0 1 0 4 19.505 19.505 0 0 0-19.337 16.474l-30.503 183.275c-4.377 26.3-16.229 50.544-34.273 70.11a1.997 1.997 0 0 1-1.471.644z"/><path d="M353.312 500.1a1.999 1.999 0 0 1-1.574-3.231l17.312-22.149a25.809 25.809 0 0 0 5.635-16.06v-56.055a2 2 0 0 1 4 0v56.055a29.809 29.809 0 0 1-6.497 18.54l-17.298 22.132a1.997 1.997 0 0 1-1.577.769zM229.59 513.339H67.903c-.678 0-1.31-.344-1.679-.913l-25.516-39.403a1.994 1.994 0 0 1-.239-.52l-2.311-7.821a2.011 2.011 0 0 1-.082-.587l.398-39.489-.398-72.164a38.52 38.52 0 0 1 13.602-29.404 2 2 0 1 1 2.59 3.048 34.522 34.522 0 0 0-12.192 26.345l.398 72.184-.396 39.22 2.144 7.256 24.767 38.247H229.59a2 2 0 0 1 0 4zm-92.569-196.113a2 2 0 0 1-.266-3.982c29.596-4.017 53.488-14.302 71.014-30.568 24.089-20.337 40.158-48.579 45.319-79.583l30.501-183.264C285.437 8.343 295.23 0 306.873 0a2 2 0 0 1 0 4 19.505 19.505 0 0 0-19.337 16.474l-30.503 183.275a136.678 136.678 0 0 1-46.614 81.921c-18.071 16.776-42.698 27.407-73.126 31.538a2.079 2.079 0 0 1-.271.018zm169.684 62.148a2.001 2.001 0 0 1-1.978-2.315l56.005-351.633C363.079 10.693 375.61 0 390.528 0a2 2 0 0 1 0 4c-12.941 0-23.811 9.276-25.846 22.055l-56.005 351.633a2.001 2.001 0 0 1-1.973 1.686z"/><path d="M534.643 529.592H49.992c-.685 0-1.322-.35-1.689-.929l-35.322-55.697a16.366 16.366 0 0 1-2.548-8.778V352.43c0-21.261 17.297-38.559 38.558-38.559h45.71c65.074 0 120.059-46.59 130.742-110.781l30.502-183.262C257.793 8.343 267.586 0 279.229 0h421.292c4.375 0 8.515 1.909 11.355 5.238s4.074 7.716 3.386 12.037l-61.938 388.882a81.404 81.404 0 0 1-20.59 42.49l-58.658 63.659c-10.123 10.986-24.496 17.287-39.435 17.287zm-483.551-4h483.551c13.824 0 27.125-5.831 36.493-15.997l58.658-63.659a77.418 77.418 0 0 0 19.581-40.409l61.938-388.882a10.91 10.91 0 0 0-2.479-8.811A10.91 10.91 0 0 0 700.522 4H279.229a19.505 19.505 0 0 0-19.337 16.474l-30.503 183.275a136.693 136.693 0 0 1-46.42 81.756 136.698 136.698 0 0 1-88.268 32.367h-45.71c-19.056 0-34.558 15.503-34.558 34.559v111.758c0 2.354.666 4.648 1.926 6.635l34.733 54.768z"/></g></svg></g><g transform="translate(532.8571428571429 1538.5714285714287) rotate(0.0 840.7142857142857 424.28571428571433) scale(1.437487023534728 1.4363091208047203)"><svg width="1169.7" height="590.8" viewBox="0 0 1169.7 590.8"><g><path d="M882.5 577c-3.9 0-7-3.1-7-7V400.7c0-3.9 3.1-7 7-7s7 3.1 7 7V570c0 3.9-3.1 7-7 7z" style="fill:#25242e"/><path style="fill:#fff" d="M868.6 18.9h27.9v399.9h-27.9z"/><path d="M896.5 420.3h-27.9c-.8 0-1.5-.7-1.5-1.5V18.9c0-.8.7-1.5 1.5-1.5h27.9c.8 0 1.5.7 1.5 1.5v399.9c0 .8-.7 1.5-1.5 1.5zm-26.4-3H895V20.4h-24.9v396.9z" style="fill:#25242e"/><g><path style="fill:#fff" d="M868.6 530.7h27.9v46.4h-27.9z"/><path d="M896.5 578.6h-27.9c-.8 0-1.5-.7-1.5-1.5v-46.4c0-.8.7-1.5 1.5-1.5h27.9c.8 0 1.5.7 1.5 1.5v46.4c0 .8-.7 1.5-1.5 1.5zm-26.4-3H895v-43.4h-24.9v43.4z" style="fill:#25242e"/></g><g><path d="M882.5 552.8h160.7c20.1 0 36.5 16.3 36.5 36.5H685.4c0-20.1 16.3-36.5 36.5-36.5h146.7" style="fill:#fff"/><path d="M1079.7 590.8H685.4c-.8 0-1.5-.7-1.5-1.5 0-20.9 17-38 38-38h146.7c.8 0 1.5.7 1.5 1.5s-.7 1.5-1.5 1.5H721.9c-18.8 0-34.2 14.9-34.9 33.5h391.2c-.8-18.6-16.2-33.5-34.9-33.5H882.5c-.8 0-1.5-.7-1.5-1.5s.7-1.5 1.5-1.5h160.7c20.9 0 38 17 38 38 0 .8-.7 1.5-1.5 1.5z" style="fill:#25242e"/></g><path d="M12.1 1.5h1145.4c5.9 0 10.6 4.8 10.6 10.6v20.3c0 5.9-4.8 10.6-10.6 10.6H12.1C6.3 43 1.5 38.3 1.5 32.4V12.1c0-5.8 4.8-10.6 10.6-10.6z" style="fill:#fff"/><path d="M1157.5 44.5H12.1C5.4 44.5 0 39.1 0 32.4V12.1C0 5.4 5.4 0 12.1 0h1145.4c6.7 0 12.1 5.4 12.1 12.1v20.3c.1 6.7-5.4 12.1-12.1 12.1zM12.1 3C7.1 3 3 7.1 3 12.1v20.3c0 5 4.1 9.1 9.1 9.1h1145.4c5 0 9.1-4.1 9.1-9.1V12.1c0-5-4.1-9.1-9.1-9.1H12.1z" style="fill:#25242e"/></g></svg></g><g transform="translate(154.28571428571428 887.1428571428571) rotate(0.0 719.2857142857143 750.0000000000001) scale(1.4282523056630134 1.4277419784696512)"><svg width="1007.225" height="1050.61" viewBox="0 0 1007.225 1050.61"><path d="M879.578 875.316c4.006 52.352 10.438 89.99 10.438 89.99s-133.882 69.91-125.578 8.286c-8.386-26.712-26.018-94.262-35.058-125.4-15.257-52.552 143.564-59.582 150.198 27.124z" fill="#fff"/><path d="M788.89 1000.988c-8.054 0-14.331-1.564-18.796-4.696-6.415-4.501-9.003-12.077-7.695-22.521-4.934-15.783-12.875-44.916-20.558-73.101-5.472-20.075-10.641-39.037-14.381-51.92-2.861-9.854-.179-18.873 7.756-26.081 19.158-17.404 64.347-20.573 98.673-6.923 28.69 11.409 45.625 32.511 47.684 59.418 3.952 51.646 10.352 89.429 10.416 89.805a1.999 1.999 0 0 1-1.046 2.109c-.231.121-23.437 12.191-49.611 21.804-21.965 8.065-39.497 12.106-52.442 12.106zm-1.092-189.629c-20.53 0-39.594 4.915-49.893 14.271-6.822 6.197-9.044 13.601-6.604 22.005 3.749 12.915 8.922 31.892 14.398 51.983 7.741 28.399 15.746 57.766 20.646 73.376.088.279.113.575.074.866-1.24 9.201.712 15.468 5.97 19.156 10.354 7.264 33.704 4.539 67.526-7.877 22.441-8.238 42.69-18.307 47.889-20.948-1.207-7.424-6.69-42.567-10.222-88.723-1.937-25.302-17.979-45.191-45.173-56.006-13.741-5.464-29.569-8.103-44.611-8.103z" fill="#25242e"/><path d="M556.128 894.981c-34.26 39.787-60.376 74.267-60.376 74.267s-142.527-49.979-91.86-86.024c13.909-25.851 53.333-83.369 71.315-111.995 29.245-46.553 136.714 58.957 80.921 123.752z" fill="#fff"/><path d="M495.752 971.247c-.222 0-.444-.036-.662-.112-4.049-1.42-99.221-35.155-103.906-68.271-1.097-7.754 2.66-14.816 11.167-20.995 9.288-17.154 29.343-47.659 47.053-74.596 9.237-14.051 17.963-27.322 24.11-37.107 5.662-9.014 14.45-13.272 25.438-12.311 24.527 2.146 55.139 30.095 68.238 62.301 11.587 28.488 8.197 55.525-9.546 76.13-33.823 39.279-60.036 73.825-60.297 74.17a2.005 2.005 0 0 1-1.595.791zm.174-209.527c-8.221 0-14.612 3.548-19.025 10.572-6.169 9.821-14.905 23.109-24.155 37.178-17.806 27.084-37.987 57.78-47.093 74.701a2.005 2.005 0 0 1-.602.683c-7.565 5.382-10.807 11.09-9.907 17.449 1.771 12.521 19.716 27.708 51.894 43.919 21.344 10.753 42.524 18.655 48.013 20.648 4.876-6.376 29.153-37.88 59.562-73.194 16.714-19.411 19.865-44.985 8.872-72.014-12.592-30.957-41.697-57.794-64.882-59.823a31.053 31.053 0 0 0-2.677-.119zm60.202 133.26h.01z" fill="#25242e"/><path d="m895.426 951.599 3.627 16.498s51.561 19.741 60.482 23.058c25.661 9.542 36.425 17.033 36.427 38.032l-67.689.017-175.379-.133c-.549-20.872 1.122-40.668 8.125-57.883 0 0-6.131-8.077-10.961-14.076-5.856-7.275 6.776-16.278 12.804-5.748a2630.77 2630.77 0 0 1 5.771 10.151c2.282 4.032 6.163 6.938 10.716 8.032l28.64 6.878a48.838 48.838 0 0 0 27.521-1.387l32.443-11.354-2.337-9.017c-1.481-5.714 2.663-11.352 8.636-11.749l8.684-.577c5.918-.395 11.234 3.546 12.49 9.258z" fill="#fff"/><path d="m928.273 1031.204-175.381-.133a2 2 0 0 1-1.997-1.947c-.632-24.018 1.863-42.373 7.847-57.625-1.733-2.271-6.424-8.39-10.241-13.133-2.059-2.557-2.518-5.632-1.259-8.436 1.365-3.04 4.579-5.195 7.997-5.363 3.726-.165 7.143 1.932 9.358 5.804 1.779 3.106 3.966 6.959 5.776 10.159 2 3.533 5.441 6.111 9.442 7.072l28.64 6.878a46.715 46.715 0 0 0 26.393-1.331l30.707-10.747-1.876-7.235a11.304 11.304 0 0 1 1.791-9.477c2.022-2.8 5.175-4.538 8.648-4.77l8.684-.577c6.844-.463 13.12 4.198 14.577 10.825l3.396 15.445c7.253 2.776 51.336 19.646 59.457 22.666 26.089 9.7 37.728 17.765 37.729 39.907a2 2 0 0 1-2 2zm-173.424-4.131 173.426.131 65.652-.017c-.628-18.092-10.072-24.856-35.09-34.157-8.828-3.283-59.983-22.868-60.499-23.065a1.998 1.998 0 0 1-1.238-1.438l-3.627-16.498c-1.036-4.71-5.495-8.029-10.405-7.693l-8.684.577a7.586 7.586 0 0 0-5.671 3.12 7.309 7.309 0 0 0-1.161 6.131l2.337 9.018a2.001 2.001 0 0 1-1.275 2.39l-32.443 11.354a50.709 50.709 0 0 1-28.648 1.444l-28.64-6.878c-5.075-1.219-9.445-4.496-11.989-8.99a2703.477 2703.477 0 0 0-5.767-10.143c-1.464-2.556-3.453-3.906-5.692-3.796-1.923.095-3.791 1.331-4.543 3.007-.446.992-.682 2.542.725 4.289 4.792 5.952 10.935 14.04 10.996 14.121.428.562.526 1.309.26 1.963-5.911 14.525-8.47 32.084-8.024 55.13z" fill="#25242e"/><path d="M790.478 1017.787c-5.406 0-10.491-2.075-14.318-5.844-3.837-3.777-5.95-8.803-5.951-14.151v.001c-.002-5.349 2.109-10.375 5.944-14.154 3.826-3.772 8.913-5.85 14.321-5.852h.007c5.406 0 10.491 2.075 14.318 5.844 3.837 3.777 5.95 8.804 5.951 14.151.002 5.348-2.109 10.374-5.944 14.153-3.826 3.772-8.913 5.85-14.321 5.852h-.007zm.003-36h-.005c-4.353.001-8.441 1.67-11.516 4.7-3.065 3.021-4.753 7.036-4.752 11.304v.001c.001 4.268 1.69 8.281 4.758 11.302 3.073 3.026 7.162 4.693 11.512 4.693h.005c4.353-.001 8.441-1.67 11.516-4.7 3.065-3.021 4.753-7.036 4.752-11.304-.001-4.269-1.69-8.282-4.758-11.302-3.075-3.027-7.163-4.694-11.512-4.694z" fill="#25242e"/><path d="m995.378 1048.593-67.101.017-173.785-.017c-5.423-.422-9.471-5.095-9.042-10.437.429-5.342 5.172-9.33 10.594-8.908l172.81-.044 66.519-.017c5.439-.001 9.85 4.342 9.851 9.7.002 5.359-4.406 9.704-9.846 9.706z" fill="#fff"/><path d="m928.279 1050.609-173.786-.017c-.052 0-.104-.002-.155-.006a11.817 11.817 0 0 1-8.129-4.124c-2.023-2.37-3-5.377-2.752-8.467.513-6.404 6.202-11.198 12.662-10.748l239.254-.061h.005c6.531 0 11.846 5.247 11.848 11.699.001 3.132-1.235 6.075-3.479 8.287a11.85 11.85 0 0 1-8.367 3.419h.001zm-173.705-4.016 173.703.017 67.1-.017h.001a7.87 7.87 0 0 0 5.56-2.268 7.584 7.584 0 0 0 2.287-5.438c-.002-4.246-3.521-7.7-7.848-7.7h-.003l-239.329.061c-.053 0-.104-.002-.156-.006-4.321-.338-8.105 2.836-8.446 7.074a7.564 7.564 0 0 0 1.808 5.55 7.835 7.835 0 0 0 5.323 2.727zm178.832-47.277c-.994 0-1.997-.082-3.003-.25l-59.467-9.975c-9.422-1.581-16.789-8.386-20.744-19.161a2.001 2.001 0 0 1 3.755-1.379c3.438 9.369 9.707 15.263 17.65 16.595l59.467 9.975c6.575 1.104 13.091-2.551 15.478-8.69a2.001 2.001 0 0 1 3.729 1.449c-2.703 6.957-9.51 11.436-16.865 11.436z" fill="#25242e"/><path d="M294.429 482.479c-16.457 89.578 8.969 196.754 140.831 196.754h256.999c5.424 59.286 4.702 147.788 9.917 206.003.845 9.428 29.309 24.086 43.243 28.441l139.884-16.874c4.906-7.041 15.022-13.136 14.024-26.141-5.958-77.655-29.049-170.721-35.345-218.095-12.697-95.549-46.26-150.311-132.497-161.61s-286.006-7.283-286.006-7.283-134.592-90.772-151.05-1.195z" fill="#b153e0"/><path d="M780.269 911.322a1.99 1.99 0 0 1-1.448-.621c-1.687-1.771-3.999-3.865-6.448-6.081-8.506-7.699-19.092-17.281-19.9-27.295-2.042-25.276-3.438-51.001-4.789-75.878-2.562-47.192-5.212-95.991-12.374-143.316-3.761-24.856-24.751-42.897-49.91-42.897H547.613a2 2 0 0 1 0-4h137.785a54.533 54.533 0 0 1 35.521 13.163 54.454 54.454 0 0 1 18.345 33.137c7.19 47.514 9.846 96.41 12.413 143.696 1.349 24.852 2.744 50.55 4.781 75.773.682 8.434 10.616 17.426 18.599 24.651 2.505 2.268 4.872 4.41 6.66 6.289a2 2 0 0 1-1.448 3.379z" fill="#25242e"/><path d="m745.418 913.677 139.884-16.873 5.785 20.707-145.669 16.851z" fill="#b153e0"/><path d="M745.415 915.678a2 2 0 0 1-1.982-1.761 1.999 1.999 0 0 1 1.746-2.225l139.884-16.874a1.999 1.999 0 1 1 .479 3.971l-139.884 16.874c-.082.01-.163.015-.243.015z" fill="#25242e"/><path d="M224.663 425.73c-70.874 104.693-31.265 253.504 100.597 253.504 108.389 0 132.161-.021 188.529-.002-18.763 27.234-52.494 72.756-77.115 104.817-6.331 8.245-8.046 37.836-5.356 50.32l119.127 76.662s47.645-1.71 55.245-14.227c20.732-34.149 81.342-160.325 109.242-217.946 44.985-92.903-6.911-179.543-93.148-190.842s-286.306-4.341-286.306-4.341S275.72 350.31 224.663 425.73z" fill="#b153e0"/><path d="m431.319 834.368-14.274 13.062 126.644 78.703 6.757-15.103z" fill="#b153e0"/><path d="M550.444 913.03c-.371 0-.745-.103-1.08-.318L430.237 836.05a2 2 0 0 1 2.164-3.364l119.127 76.662a2 2 0 0 1-1.084 3.682z" fill="#25242e"/><path d="m523.996 1025.789-165.926-92.14c10.259-23.818 20.055-32.989 37.024-47.866 0 0-2.332-11.084-3.21-15.721-1.647-8.699 14.175-11.424 13.984 1.195-.05 3.29.326 11.836.326 11.836a19.97 19.97 0 0 0 6.99 14.634l25.789 22.035a29.978 29.978 0 0 0 14.423 6.758l38.348 6.553 13.84-11.4a9.893 9.893 0 0 1 12.778.168l7.811 6.787c4.753 4.129 4.49 11.589-.542 15.374l-5.421 4.077s24.7 28.775 37.73 44.401a14.06 14.06 0 0 0 6.023 4.228c13.551 4.893 30.629 13.547 28.137 33.872l-38.011.076-11.464-.022a38.52 38.52 0 0 1-18.629-4.845z" fill="#fff"/><path d="m554.093 1032.655-11.473-.021a40.614 40.614 0 0 1-19.595-5.097L357.1 935.397a2 2 0 0 1-.866-2.539c10.185-23.646 19.674-32.886 36.664-47.808-.62-2.961-2.273-10.895-2.978-14.616-.592-3.125.516-6.003 3.039-7.895 2.834-2.123 6.822-2.489 9.922-.91 1.902.97 5.08 3.514 4.987 9.658-.049 3.193.32 11.632.324 11.717a18.023 18.023 0 0 0 6.291 13.201l25.788 22.035a27.991 27.991 0 0 0 13.462 6.308l37.445 6.398 13.134-10.818a11.86 11.86 0 0 1 15.361.202l7.811 6.787c2.724 2.365 4.213 5.79 4.086 9.396s-1.854 6.918-4.737 9.087l-3.716 2.794c5.402 6.302 25.241 29.471 36.359 42.804a12.074 12.074 0 0 0 5.165 3.628c13.919 5.025 32.114 14.224 29.443 35.996a2 2 0 0 1-1.981 1.757zm-193.462-99.872 164.336 91.258a36.624 36.624 0 0 0 17.661 4.593l11.465.021 36.188-.072c1.151-17.481-13.733-25.206-26.996-29.995a16.072 16.072 0 0 1-6.88-4.828c-12.872-15.436-37.464-44.092-37.711-44.379a2.004 2.004 0 0 1 .315-2.902l5.42-4.076a7.858 7.858 0 0 0 3.144-6.03 7.852 7.852 0 0 0-2.711-6.235l-7.811-6.787a7.871 7.871 0 0 0-10.195-.134l-13.84 11.4a2.01 2.01 0 0 1-1.608.428l-38.348-6.553a31.997 31.997 0 0 1-15.387-7.21l-25.787-22.035a21.996 21.996 0 0 1-7.69-16.1c-.015-.318-.377-8.608-.327-11.92.046-2.989-.924-5.076-2.804-6.034-1.745-.89-4.091-.663-5.706.547-.901.676-1.895 1.91-1.509 3.95.863 4.563 3.179 15.57 3.202 15.681a2.004 2.004 0 0 1-.639 1.916c-16.686 14.629-26.031 23.463-35.782 45.496z" fill="#25242e"/><path d="m352.856 952.454 159.201 91.053a38.52 38.52 0 0 0 19.137 5.083l57.871-.016a9 9 0 0 0 9.017-8.983 9 9 0 0 0-8.983-9.017l-46.405.034a38.513 38.513 0 0 1-18.755-4.858L361.52 935.403c-4.863-2.471-10.804-.381-13.048 4.591a9.563 9.563 0 0 0 4.384 12.46z" fill="#fff"/><path d="M531.183 1050.59a40.585 40.585 0 0 1-20.118-5.347l-159.16-91.029a11.548 11.548 0 0 1-5.256-15.044c1.313-2.907 3.694-5.091 6.703-6.149s6.231-.846 9.075.599l162.485 90.383a36.594 36.594 0 0 0 17.754 4.605h.026l46.406-.034a10.932 10.932 0 0 1 7.777 3.237c2.074 2.081 3.213 4.846 3.207 7.784s-1.155 5.698-3.237 7.771a10.878 10.878 0 0 1-7.783 3.207l-57.867.017h-.012zM357.217 936.356a7.63 7.63 0 0 0-2.537.438 7.503 7.503 0 0 0-4.386 4.022 7.551 7.551 0 0 0 3.468 9.854c.03.015.059.03.088.047l159.201 91.053a36.577 36.577 0 0 0 18.133 4.819h.01l57.872-.017h.015a6.96 6.96 0 0 0 4.943-2.04c1.324-1.32 2.056-3.076 2.06-4.946s-.721-3.629-2.041-4.954a6.958 6.958 0 0 0-4.946-2.06l-46.399.034h-.03a40.632 40.632 0 0 1-19.699-5.109L360.548 937.15a7.353 7.353 0 0 0-3.331-.794zm50.272 8.888c-6.539 0-12.953-3.195-16.784-9.069-6.023-9.238-3.408-21.654 5.829-27.678 9.237-6.021 21.654-3.408 27.678 5.829 6.023 9.238 3.408 21.654-5.829 27.678a19.893 19.893 0 0 1-10.894 3.24zm-.063-35.999c-3.068 0-6.075.888-8.706 2.604a15.896 15.896 0 0 0-6.918 10.104 15.894 15.894 0 0 0 2.255 12.036 15.896 15.896 0 0 0 10.104 6.918c4.184.881 8.456.079 12.036-2.255s6.037-5.923 6.918-10.104c.88-4.182.08-8.457-2.255-12.036a15.896 15.896 0 0 0-10.104-6.918 16.107 16.107 0 0 0-3.33-.349zm135.096 84.786a18.187 18.187 0 0 1-10.38-3.241l-49.539-34.378c-7.848-5.447-11.61-14.744-10.594-26.177a1.996 1.996 0 0 1 2.169-1.815 2 2 0 0 1 1.815 2.169c-.884 9.94 2.273 17.944 8.891 22.537l49.538 34.377c5.482 3.806 12.93 3.275 17.706-1.262a2 2 0 1 1 2.754 2.9c-3.406 3.236-7.865 4.89-12.36 4.89zM464.12 857.517a2 2 0 0 1-1.692-3.064c.51-1.258 1.322-8.191 2.041-14.317 1.557-13.28 3.494-29.809 6.587-36.137 8.218-16.819 29.814-43.222 52.68-71.175 23.272-28.451 47.338-57.872 62.371-82.76 4.352-7.204 4.478-15.88.338-23.208-4.136-7.32-11.622-11.688-20.027-11.688h-.027l-208.942.23h-.112a103.025 103.025 0 0 1-101.972-88.338l-13.2-91.664a2.001 2.001 0 0 1 1.694-2.265 2.005 2.005 0 0 1 2.265 1.694l13.2 91.664a99.032 99.032 0 0 0 33.215 60.765 99.043 99.043 0 0 0 64.798 24.144h.108l208.942-.23h.031c9.868 0 18.655 5.128 23.51 13.722 4.86 8.602 4.712 18.786-.396 27.243-15.18 25.132-39.337 54.664-62.699 83.225-22.713 27.768-44.167 53.995-52.182 70.397-2.793 5.716-4.767 22.553-6.208 34.847-1.383 11.789-1.829 14.91-2.712 16.104a2 2 0 0 1-1.611.811zm-1.606-3.19-.002.004.002-.004z" fill="#25242e"/><path d="m468.056 449.214 20.97 35.088-299.109 47.27 28.746-105.842z" fill="#56b1f0"/><path d="M694.955 721.585a2 2 0 0 1-1.791-2.887c8.084-16.345 14.802-30.042 19.969-40.713 10.873-22.456 16.375-45.134 16.353-67.403-.022-20.921-4.871-40.495-14.414-58.181-18.503-34.293-52.6-57.038-93.547-62.402-85.085-11.148-283.977-4.395-285.977-4.325a1.985 1.985 0 0 1-2.068-1.93 2 2 0 0 1 1.93-2.068c2.001-.07 201.222-6.834 286.635 4.356 42.237 5.534 77.428 29.032 96.548 64.47 9.86 18.274 14.871 38.486 14.894 60.075.023 22.88-5.613 46.146-16.753 69.152-5.171 10.68-11.895 24.388-19.982 40.742a2.003 2.003 0 0 1-1.797 1.114z" fill="#25242e"/><path d="m698.048 200.929-61.412 84.837-94.058-72.37c-14.13-7.237-197.549-4.892-122.839 85.483 37.413 32.414 54.265 46.08 122.668 95.997 50.531 36.875 122.891 76.061 178.448-2.668 26.172-37.088 66.175-97.816 80.978-119.29 18.532-27.802-90.868-91.534-103.785-71.989z" fill="#fff"/><path d="M643.744 439.904c-38.208.003-76.193-24.206-102.515-43.414-67.899-49.549-84.911-63.276-122.799-96.101a1.988 1.988 0 0 1-.231-.237c-19.929-24.106-23.623-44.31-10.981-60.05 27.593-34.354 125.458-34.026 136.273-28.487.108.056.211.121.308.195l92.426 71.114 60.18-83.137c2.239-3.352 6.589-4.854 12.906-4.461 25.476 1.574 81.243 34.731 93.888 60.216 3.573 7.202 3.675 13.42.3 18.483-5.303 7.693-13.857 20.448-23.762 35.218-18.008 26.852-40.418 60.27-57.246 84.116-18.413 26.094-40.262 41.381-64.938 45.438a84.896 84.896 0 0 1-13.809 1.107zM421.176 297.476c37.7 32.659 54.708 46.377 122.411 95.784 60.368 44.053 93.581 44.837 113.317 41.591 23.578-3.876 44.545-18.611 62.318-43.797 16.8-23.808 39.196-57.204 57.191-84.038 9.912-14.781 18.473-27.546 23.773-35.234 2.506-3.76 2.319-8.634-.572-14.461-5.49-11.066-20.703-25.107-40.693-37.56-18.794-11.708-38.364-19.731-49.857-20.442-3.308-.206-7.622.1-9.348 2.712a1.748 1.748 0 0 1-.049.07l-61.411 84.837a1.997 1.997 0 0 1-2.84.412l-93.896-72.246c-9.487-4.346-104.836-5.305-131.184 27.502-11.266 14.028-7.618 32.488 10.84 54.87zm276.872-96.547h.01z" fill="#25242e"/><path d="M617.654 313.349a2 2 0 0 1-1.604-3.193l18.981-25.583a2 2 0 0 1 3.213 2.384l-18.981 25.583a2.004 2.004 0 0 1-1.609.809z" fill="#25242e"/><path d="M801.834 272.917c14.822-21.834 25.635-38.754 25.635-38.754l30.292-12.65s7.265-73.097-5.62-88.758c-13.656-16.599-100.653-8.376-123.102 21.28l-30.991 46.894" fill="#fff"/><path d="M801.832 274.917a2 2 0 0 1-1.652-3.123c14.635-21.558 25.496-38.539 25.604-38.708.22-.343.539-.611.915-.769l29.185-12.187c.396-4.364 1.729-20.164 1.901-37.17.331-32.822-3.726-44.727-7.188-48.935-4.266-5.186-17.609-8.066-35.721-7.696-30.671.621-70.583 10.947-84.204 28.863l-30.955 46.839a2 2 0 0 1-3.337-2.205l30.991-46.894c.023-.036.049-.071.074-.104 14.499-19.154 54.918-29.841 87.351-30.498 19.623-.401 33.779 2.94 38.892 9.154 5.65 6.869 8.375 24.21 8.097 51.543-.204 20.088-2.013 38.5-2.031 38.683a2 2 0 0 1-1.22 1.648l-29.717 12.409c-1.949 3.036-12.102 18.791-25.327 38.272a2 2 0 0 1-1.658.878z" fill="#25242e"/><path d="M722.457 163.995s16.271-28.206 42.653-39.075c18.356-7.562 39.293-14.768 70.238-17.173 35.018-2.721 41.822 29.024 11.438 37.802-7.322 2.115-18.506 5.847-31.382 8.829" fill="#fff"/><path d="M722.455 165.996a2 2 0 0 1-1.73-3c.679-1.176 16.919-28.923 43.624-39.925 18.354-7.562 39.639-14.893 70.844-17.318 20.083-1.555 30.844 7.576 32.611 17.322 2.2 12.133-8.691 20.995-20.463 24.396-1.883.544-4.022 1.196-6.382 1.914-6.9 2.101-15.487 4.715-25.103 6.942a2 2 0 0 1-.902-3.896c9.482-2.196 17.998-4.789 24.84-6.872a483.55 483.55 0 0 1 6.438-1.93c10.043-2.901 19.392-10.161 17.637-19.839-1.447-7.978-10.786-15.414-28.365-14.047-30.652 2.382-51.58 9.592-69.631 17.028-25.457 10.488-41.523 37.949-41.683 38.226a2.004 2.004 0 0 1-1.735.999z" fill="#25242e"/><path d="M794.091 138.335s97.094-10.589 110.19-8.798c25.405 3.475 26.32 28.734.676 37.72-11.859 4.155-61.046 12.711-77.488 15.51" fill="#fff"/><path d="M827.467 184.768a2 2 0 0 1-.334-3.972c15.12-2.574 65.368-11.293 77.163-15.426 11.394-3.992 18.227-11.812 17.409-19.922-.727-7.198-7.507-12.535-17.695-13.929-12.711-1.739-108.733 8.699-109.702 8.805-1.09.11-2.087-.673-2.205-1.771a2 2 0 0 1 1.771-2.205c3.975-.434 97.491-10.597 110.679-8.791 12.113 1.657 20.211 8.359 21.132 17.491.767 7.604-4.028 18.479-20.066 24.099-11.76 4.121-58.335 12.278-77.813 15.594a2.321 2.321 0 0 1-.339.027z" fill="#25242e"/><path d="M825.254 196.836c22.573-2.943 71.866-9.608 85.747-13.433 39.029-10.753 20.691-37.888-2.747-37.567-22.145.304-88.437 9.982-88.437 9.982" fill="#fff"/><path d="M825.251 198.836a2 2 0 0 1-.255-3.983c21.072-2.747 71.583-9.55 85.475-13.378 14.526-4.002 22.224-10.751 21.119-18.517-1.175-8.261-11.626-15.125-22.925-15.125-.128 0-.255.001-.383.003-21.761.298-87.515 9.864-88.176 9.96a2.007 2.007 0 0 1-2.269-1.69 2.001 2.001 0 0 1 1.69-2.268c2.712-.396 66.676-9.7 88.699-10.002a30 30 0 0 1 .425-.003c13.193 0 25.456 8.427 26.897 18.561.672 4.722-.324 16.409-24.017 22.937-14.135 3.895-64.865 10.73-86.02 13.488a1.882 1.882 0 0 1-.26.017z" fill="#25242e"/><path d="M820.365 176.925c15.515-2.099 67.02-8.99 80.059-9.731 38.131-2.165 39.776 33.684-.782 39.16-12.807 1.729-50.912 6.713-72.172 9.49" fill="#fff"/><path d="M827.466 217.843a1.999 1.999 0 0 1-.255-3.983c21.469-2.803 59.393-7.764 72.163-9.488 14.799-1.998 29.209-9.985 28.117-21.386-.727-7.586-9.33-14.792-26.953-13.795-12.962.736-64.437 7.623-79.904 9.716a2 2 0 1 1-.537-3.964c15.504-2.098 67.108-9.002 80.215-9.746 20.268-1.152 30.253 7.914 31.161 17.407.978 10.208-8.482 22.615-31.563 25.731-12.777 1.725-50.708 6.687-72.181 9.491a1.957 1.957 0 0 1-.263.017z" fill="#25242e"/><path d="M819.775 197.13c14.711-2.282 51.072-7.591 70.366-7.495 24.563.122 31.284 26.753-6.707 35.199-8.228 1.829-79.576 12.899-91.021 14.358" fill="#fff"/><path d="M792.411 241.193a2 2 0 0 1-.25-3.984c11.327-1.444 82.754-12.529 90.84-14.327 19.689-4.378 25.876-13.384 25.191-19.767-.72-6.71-8.146-11.431-18.061-11.48l-.519-.001c-19.264 0-54.975 5.214-69.531 7.473a2.008 2.008 0 0 1-2.283-1.67 2 2 0 0 1 1.67-2.283c14.782-2.293 51.282-7.592 70.683-7.518 12.02.06 21.073 6.25 22.019 15.053.901 8.408-6.06 19.153-28.302 24.098-8.136 1.809-79.84 12.941-91.201 14.39a2.011 2.011 0 0 1-.256.016zm-29.007-59.308a2 2 0 0 1-1.203-3.6c10.27-7.702 19.567-25.323 19.659-25.5a2 2 0 1 1 3.545 1.854c-.396.755-9.806 18.596-20.804 26.845-.36.271-.781.401-1.197.401zm-291.104.883c28.831 3.147 80.024 29.757 138.61 83.203L529.249 409.57s-95.078-78.563-113.125-94.621-14.205-139.863 56.176-132.181z" fill="#25242e"/><path d="M529.249 411.57c-.461 0-.913-.159-1.274-.458-.95-.786-95.312-78.77-113.18-94.669-5.938-5.283-9.697-20.583-9.812-39.93-.124-20.887 3.98-42.27 11.262-58.664 15.128-34.064 38.948-38.959 56.271-37.07 26.345 2.875 76.89 26.377 139.741 83.714a2 2 0 0 1 .391 2.466l-81.661 143.599a2 2 0 0 1-1.738 1.012zm-63.067-227.143c-25.204 0-39.021 18.695-46.281 35.046-15.483 34.865-12.79 84.779-2.447 93.982 16.429 14.618 97.916 82.043 111.234 93.057l79.693-140.139c-61.588-55.906-110.744-78.828-136.298-81.617a54.352 54.352 0 0 0-5.901-.329z" fill="#25242e"/><path d="M471.036 268.096c2.198 8.671 24.212 128.769 19.191 168.731-.705 5.614 9.887 14.004 11.518 26.548 1.651 12.699-1.256 16.814-1.256 16.814L323.117 530.7l-121.04 69.251c-17.728-12.134-36.496-30.028-33.846-46.396 3.582-22.129 14.609-31.867 14.33-41.343-.063-2.159 3.46-79.156-.215-101.648-9.885-30.833-63.014-123.635-49.637-157.067 35.157-34.867 76.697-43.118 109.759-50.484 27.582-6.146 110.381-19.053 139.982-22.698 17.615-2.169 51.276-4.304 89.85 2.453" fill="#25242e"/><path d="M202.077 601.951c-.396 0-.79-.117-1.13-.35-14.296-9.785-37.812-29.08-34.69-48.365 2.019-12.474 6.296-21.007 9.733-27.862 2.616-5.22 4.683-9.343 4.572-13.104-.011-.37.037-1.764.178-5.737.672-18.93 2.712-76.436-.345-95.5-2.713-8.4-8.695-21.545-15.617-36.753-18.54-40.734-43.931-96.522-33.926-121.526a2.01 2.01 0 0 1 .448-.677c34.36-34.078 74.804-43.047 107.3-50.254l3.433-.762c27.227-6.066 109.605-18.967 140.173-22.73 16.744-2.062 50.76-4.483 90.438 2.467a2 2 0 0 1-.689 3.94c-39.172-6.862-72.739-4.474-89.261-2.438-30.498 3.755-112.659 16.62-139.792 22.665l-3.436.763c-31.897 7.074-71.573 15.874-105.049 48.892-8.953 23.626 15.858 78.141 34.001 118.003 7.013 15.408 13.069 28.715 15.831 37.331.03.094.054.19.069.288 3.155 19.306 1.096 77.356.419 96.433-.103 2.883-.184 5.16-.178 5.483.141 4.764-2.126 9.284-4.995 15.008-3.314 6.612-7.439 14.841-9.359 26.709-2.786 17.204 20.628 35.812 31.971 43.715l119.947-68.626c.141-.08.29-.143.445-.188l176.535-50.272c.57-1.408 1.84-5.769.656-14.871-.838-6.45-4.336-11.926-7.146-16.325-2.671-4.182-4.781-7.483-4.373-10.729 4.896-38.959-16.693-158.321-19.145-167.991a2 2 0 0 1 3.877-.983c2.569 10.133 24.3 129.18 19.236 169.472-.228 1.812 1.717 4.855 3.774 8.078 3.024 4.734 6.789 10.628 7.742 17.963 1.703 13.094-1.261 17.738-1.604 18.225a2.001 2.001 0 0 1-1.086.771L323.9 532.557l-120.83 69.13a2.001 2.001 0 0 1-.993.264z" fill="#25242e"/><path d="M250.669 203.191c5.753 26.222 37.375 58.098 90.195 43.101 42.175-11.974 48.713-45.063 33.202-62.928-6.384-7.338-18.517-6.507-20.312.817 13.014 10.21 15.005 36.798-18.655 46.355-40.263 11.432-61.413-17.115-64.946-32.389-1.693-7.558-21.462-3.788-19.484 5.044z" fill="#25242e"/><path d="M314.762 252.144c-16.349 0-28.637-4.819-36.978-9.809-14.828-8.87-25.695-23.343-29.068-38.714-1.106-4.957 2.961-9.502 9.892-11.054 5.848-1.309 12.353.039 13.496 5.142 1.949 8.424 9.229 20.074 21.092 27.079 11.812 6.974 25.725 8.261 41.356 3.823 14.49-4.114 23.567-11.954 25.559-22.076 1.512-7.682-1.539-16.034-7.592-20.782a1.999 1.999 0 0 1-.708-2.05c.861-3.514 3.64-6.083 7.622-7.048 5.659-1.372 12.143.798 16.142 5.395 7.567 8.716 10.059 20.716 6.666 32.102-4.647 15.6-19.529 28.015-40.83 34.062-9.844 2.797-18.725 3.93-26.649 3.93zm-51.981-56.041c-1.081 0-2.216.126-3.3.369-3.792.849-7.556 3.177-6.86 6.282l.001.008c3.141 14.315 13.314 27.826 27.216 36.141 11.704 7.002 31.699 13.636 60.48 5.465 19.956-5.667 33.84-17.096 38.089-31.357 3-10.068.812-20.661-5.852-28.336-3.498-4.019-8.768-4.96-12.181-4.131-1.242.301-3.273 1.074-4.266 3 6.556 5.823 9.653 14.988 7.926 23.765-1.33 6.761-6.787 19.018-28.392 25.151-16.486 4.682-31.87 3.221-44.481-4.227-12.884-7.607-20.814-20.366-22.959-29.636-.382-1.714-2.734-2.494-5.421-2.494zm82.543 250.16c-16.646-12.265-52.601-21.617-93.019-30.577-51.014-1.232-121.825 77.005-102.732 104.184 9.947.292 33.984 2.474 37.409 2.691 32.138 2.036 66.77 1.154 94.842-.856 14.882-1.065 72.182-69.045 63.5-75.442z" fill="#fff"/><path d="M225.818 525.722c-12.402 0-25.638-.319-38.962-1.163-.899-.058-3.205-.248-6.303-.505-8.878-.737-23.737-1.97-31.039-2.184a1.998 1.998 0 0 1-1.578-.85c-5.829-8.299-4.529-20.874 3.76-36.367 8.845-16.53 24.928-34.498 43.022-48.064 20.243-15.177 40.758-23.31 57.635-22.901.13.003.259.019.385.047 65.128 14.438 83.558 23.392 93.773 30.918 1.748 1.288 2.15 3.613 1.196 6.909-2.723 9.407-16.7 27.948-29.344 42.151-6.108 6.86-26.784 29.3-36.396 29.988-12.433.891-32.813 2.021-56.149 2.021zm-75.139-7.815c7.696.292 21.689 1.453 30.205 2.16 3.06.254 5.338.442 6.225.499 38.159 2.417 75.632.502 94.573-.855 10.949-.784 51.221-45.805 60.64-65.398 2.398-4.99 1.857-6.34 1.804-6.449-16.664-12.269-54.078-21.757-92.062-30.182-.312-.006-.627-.01-.94-.01-33.878 0-78.345 36.056-95.9 68.868-7.138 13.339-8.73 24.418-4.545 31.367z" fill="#25242e"/><path d="M321.248 434.298c36.275 12.383 55.218 39.594 61.058 51.476 20.421 41.542 7.176 66.413-7.506 65.769-20.129-.882-22.882-27.971-31.664-43.977-8.634-15.735-25.936-28.082-25.936-28.082" fill="#fff"/><path d="M375.355 553.555c-.214 0-.427-.004-.643-.014-15.965-.699-21.901-16.519-27.14-30.476-1.988-5.298-3.865-10.302-6.189-14.537-8.307-15.137-25.176-27.295-25.345-27.416a2.001 2.001 0 0 1 2.324-3.256c.722.515 17.774 12.797 26.526 28.748 2.462 4.486 4.479 9.859 6.429 15.056 5.27 14.04 10.246 27.301 23.57 27.885 4.253.183 8.39-2.257 11.298-6.706 9.233-14.129 3.123-38.286-5.675-56.184-1.814-3.691-18.915-36.471-59.91-50.465a1.999 1.999 0 0 1-1.246-2.539 1.996 1.996 0 0 1 2.539-1.246c42.518 14.514 60.317 48.642 62.207 52.485 17.818 36.249 8.663 55.193 5.434 60.136-3.561 5.45-8.7 8.529-14.179 8.529z" fill="#25242e"/><path d="M337.501 460.648c3.631 4.03 8.145 10.83 16.146 28.546 10.388 23 16.207 68.464-10.385 68.006-19.298-.332-14.648-27.856-18.322-45.503-2.042-9.808-8.897-20.634-14.909-29.191" fill="#fff"/><path d="M343.668 559.204c-.146 0-.292-.002-.439-.004-16.131-.278-17.413-17.303-18.544-32.322-.383-5.082-.778-10.337-1.702-14.773-2.037-9.787-9.301-20.924-14.587-28.449a2 2 0 1 1 3.273-2.299c5.49 7.815 13.042 19.421 15.229 29.934.977 4.69 1.383 10.078 1.774 15.288 1.293 17.159 3.009 28.422 14.624 28.622 5.637.075 9.764-1.99 12.652-6.381 8.68-13.193 3.182-42.627-4.124-58.802-8.365-18.521-12.687-24.563-15.811-28.03a2.001 2.001 0 0 1 2.972-2.678c3.33 3.696 7.893 10.04 16.482 29.062 7.394 16.368 13.721 47.599 3.82 62.646-3.57 5.433-8.826 8.185-15.619 8.186z" fill="#25242e"/><path d="M309.363 462.189c5.815 5.217 11.541 15.41 17.886 29.327 14.397 31.581 12.97 65.115-7.096 66.443-21.646 1.433-20.75-25.387-24.298-44.005-1.95-10.233-9.598-20.199-15.791-26.859" fill="#fff"/><path d="M318.446 560.017c-18.07.002-20.673-18.829-22.98-35.506-.498-3.595-.968-6.989-1.576-10.183-1.868-9.802-9.346-19.479-15.291-25.87a2 2 0 0 1 2.93-2.724c6.302 6.776 14.244 17.108 16.291 27.847.627 3.292 1.104 6.736 1.608 10.382 2.353 17.002 4.56 33.082 20.593 32.001 4.688-.31 8.352-2.623 10.893-6.876 6.807-11.394 4.552-34.727-5.484-56.742-6.964-15.276-12.331-24.118-17.401-28.667a2 2 0 0 1 2.672-2.976c5.5 4.935 11.165 14.182 18.369 29.984 10.716 23.507 12.837 47.801 5.278 60.453-3.208 5.371-8.071 8.419-14.062 8.816a29.13 29.13 0 0 1-1.84.061z" fill="#25242e"/><path d="M281.823 468.144c4.169 4.728 14.586 17.973 20.364 39.006 10.934 39.799-7.713 46.965-14.936 47.335-15.485.794-19.106-15.99-23.374-37.864" fill="#fff"/><path d="M286.206 556.512c-16.583.001-20.33-19.203-24.292-39.509a2 2 0 0 1 3.926-.766c4.474 22.921 7.871 36.938 21.31 36.25 3.518-.181 8.494-2.06 11.914-6.792 5.517-7.635 5.931-20.78 1.195-38.016-5.619-20.454-15.814-33.537-19.937-38.214a1.999 1.999 0 1 1 3-2.644c4.307 4.884 14.954 18.54 20.794 39.798 5.14 18.709 4.53 32.645-1.812 41.42-5.345 7.396-12.795 8.332-14.95 8.442a21.3 21.3 0 0 1-1.148.031z" fill="#25242e"/><path d="m252.305 415.687-63.449-10.604 40.905-39.155-97.051-112.43C88.237 296.791 66.334 323.69 29.951 365.711c-49.821 57.542-32.163 140.06 45.97 149.248 33.305 3.916 107.613 7.896 142.463 8.72" fill="#fff"/><path d="m218.385 525.68-.048-.001c-34.089-.807-108.369-4.702-142.649-8.733-33.716-3.965-59.268-22.259-70.104-50.192-12.552-32.355-3.794-71.573 22.856-102.353a7901.405 7901.405 0 0 0 15.274-17.709c27.726-32.215 49.626-57.661 87.6-94.628a2.001 2.001 0 0 1 2.909.126l97.051 112.431a1.998 1.998 0 0 1-.131 2.751l-38.021 36.396 59.514 9.945a2.002 2.002 0 0 1-.66 3.946l-63.449-10.604a2 2 0 0 1-1.053-3.417l39.532-37.842-94.421-109.384c-36.916 36.046-58.55 61.182-85.839 92.889-4.858 5.644-9.912 11.517-15.282 17.719-25.677 29.656-34.165 67.317-22.15 98.285 10.435 26.897 34.173 43.825 66.842 47.667 32.972 3.878 107.872 7.893 142.276 8.708a2.002 2.002 0 0 1-.047 4z" fill="#25242e"/><path d="M246.3 354.38c-12.315 12.232-57.444 50.703-57.444 50.703L19.239 380.024c14.675-27.142 76.654-92.875 120.291-132.846" fill="#25242e"/><path d="M188.856 407.083c-.097 0-.195-.007-.292-.021L18.946 382.003a2.001 2.001 0 0 1-1.468-2.93c14.403-26.637 75.171-91.667 120.701-133.37a1.999 1.999 0 1 1 2.701 2.95C96.963 288.88 38.869 350.784 22.421 378.473l165.827 24.499c5.733-4.896 45.351-38.795 56.643-50.011a2 2 0 1 1 2.818 2.838c-12.228 12.146-57.104 50.421-57.556 50.807-.364.31-.825.477-1.297.477zM513.787 681.23a2.002 2.002 0 0 1-1.607-3.19l32.17-43.491a2.004 2.004 0 0 1 2.798-.419 2.002 2.002 0 0 1 .419 2.798l-32.17 43.491a1.994 1.994 0 0 1-1.61.811z" fill="#25242e"/><path d="M367.275 81.067c-4.613-44.793-29.62-74.523-77.41-65.95-49.447 8.87-65.489 46.614-57.948 90.231-13.725-12.935-29.832 2.215-27.001 17.96 2.095 11.649 16.694 21.459 34.514 11.202 20.146 38.439 63.039 46.171 97.984 34.408 40.007-13.468 61.675-59.913 29.861-87.851z" fill="#fff"/><g fill="#25242e"><path d="M306.973 175.969c-8.497 0-16.832-1.167-24.675-3.513-18.94-5.666-34.003-17.827-43.676-35.233-8.298 4.229-16.67 4.757-23.765 1.458-6.293-2.927-10.746-8.541-11.911-15.019-1.669-9.282 2.723-19.054 10.441-23.236 5.135-2.781 10.703-2.603 15.808.374-2.83-21.136.112-39.93 8.594-54.598 10.176-17.601 27.578-28.722 51.723-33.053 21.024-3.77 38.58-.494 52.178 9.743 15.171 11.422 24.669 31.19 27.493 57.197 12.55 11.339 17.677 26.416 14.442 42.54-4.292 21.397-22.181 40.311-45.574 48.185-10.192 3.43-20.755 5.155-31.078 5.155zM239.43 132.51a2.002 2.002 0 0 1 1.772 1.072c11.152 21.28 34.441 38.65 65.348 38.652 9.412 0 19.526-1.61 30.227-5.211 21.723-7.312 38.974-25.469 42.928-45.181 2.992-14.912-1.891-28.859-13.747-39.271a2.001 2.001 0 0 1-.67-1.298c-2.602-25.254-11.593-44.337-26.003-55.185-12.671-9.54-29.177-12.569-49.064-9.001-22.933 4.113-39.407 14.583-48.967 31.118-8.655 14.969-11.201 34.612-7.364 56.804a2 2 0 0 1-3.342 1.797c-4.833-4.555-10.248-5.569-15.252-2.86-6.245 3.383-9.782 11.378-8.409 19.011.935 5.198 4.546 9.722 9.66 12.1 6.396 2.975 14.171 2.165 21.888-2.278.303-.179.648-.269.995-.269z"/><path d="M217.26 127.371a2 2 0 0 1-1.58-3.225l9.492-12.252a2.001 2.001 0 0 1 3.162 2.45l-9.492 12.252a2 2 0 0 1-1.582.775z"/><path d="M227.48 125.537c-.419 0-.843-.131-1.203-.404l-12.203-9.216a2 2 0 1 1 2.41-3.193l12.203 9.216a2 2 0 0 1-1.207 3.597zm44.34-77.383c35.648 20.02 83.844 14.061 100.76 7.767 5.402-39.609-45.258-78.026-82.715-40.804-66.542-10.65-82.302 59.808-66.605 85.565 2.697.537 7.433 3.114 8.657 4.666 3.909 8.399 31.588-23.86 39.903-57.194z"/><path d="M287.215 97.279h-.049a1.999 1.999 0 0 1-1.951-2.047c.232-9.764 6.352-20.357 19.237-20.545h.03a2 2 0 0 1 .028 4c-10.297.149-15.103 8.466-15.298 16.641a1.997 1.997 0 0 1-1.997 1.951z"/><path d="M305.746 87.057c1.66 7.469.363 14.112-2.898 14.836s-7.249-4.743-8.909-12.212c-.791-3.559-.911-6.93-.466-9.563.075-.442 7.566-3.315 7.954-2.843 1.803 2.202 3.41 5.692 4.319 9.782zm25.451-1.353h-.049a1.999 1.999 0 0 1-1.951-2.047c.232-9.764 6.352-20.358 19.237-20.546h.03a2 2 0 0 1 .028 4c-10.297.149-15.103 8.466-15.298 16.642a1.998 1.998 0 0 1-1.997 1.951z"/><path d="M349.729 75.481c1.66 7.469.363 14.112-2.898 14.836-3.26.725-7.249-4.743-8.909-12.212-.791-3.559-.911-6.93-.466-9.563.075-.442 7.566-3.315 7.953-2.843 1.804 2.202 3.411 5.692 4.32 9.782z"/></g><path d="M342.402 114.701c3.999 3.723 12.101 11.547 5.866 16.791-9.979 8.392-22.312-.882-26.276-7.878 0 0 12.144 8.2 21.393 1.756 6.695-4.664-.983-10.669-.983-10.669zm-17.995-.174c-7.872-8.176 18.987-21.683 19.506-7.664-6.222 4.138-12.717 6.73-19.506 7.664z" fill="#dda6ff"/><path d="M337.199 109.102c9.382 6.963 10.357 12.669 6.185 16.269-4.847 4.182-15.259 6.636-23.78-6.241 4.803-4.603 11.237-8.709 17.595-10.028z" fill="#fff"/><path d="M334.55 131.129c-.444 0-.891-.024-1.337-.071-5.092-.535-10.206-4.142-15.201-10.719a2 2 0 0 1 3.186-2.419c4.301 5.663 8.483 8.745 12.434 9.16 2.817.294 5.588-.758 8.447-3.224.866-.747 1.261-1.717 1.207-2.965-.133-3.084-2.981-7.076-7.258-10.168a1.999 1.999 0 1 1 2.344-3.241c5.391 3.898 8.722 8.848 8.91 13.238.106 2.479-.789 4.611-2.59 6.165-3.27 2.821-6.675 4.244-10.142 4.244z" fill="#25242e"/><path d="M319.604 121.13a2.001 2.001 0 0 1-1.56-3.251c4.991-6.23 13.515-9.043 23.384-12.301l1.854-.613a2 2 0 0 1 1.259 3.797l-1.86.615c-9.265 3.058-17.267 5.699-21.517 11.003a1.99 1.99 0 0 1-1.56.75z" fill="#25242e"/><path d="M358.961 49.557c-15.678 0-36.95-3.421-57.558-17.668a2 2 0 0 1 2.275-3.29c26.718 18.473 54.636 17.986 68.9 16.052a2.007 2.007 0 0 1 2.25 1.713 2 2 0 0 1-1.713 2.25c-3.849.523-8.659.943-14.154.943zm131.058 349.308a1.999 1.999 0 0 1-1.989-1.813c-.067-.716-6.725-71.79-9.468-93.542-2.617-20.752-7.367-34.622-7.415-34.76a2 2 0 0 1 3.779-1.31c.2.577 4.931 14.37 7.604 35.569 2.751 21.815 9.414 92.954 9.481 93.669a2 2 0 0 1-1.992 2.187zm-301.162 8.218a1.999 1.999 0 0 1-1.324-3.499l57.444-50.703a1.999 1.999 0 1 1 2.646 2.998l-57.444 50.703c-.38.336-.853.501-1.322.501z" fill="#fff"/></svg></g><g transform="translate(118.57142857142857 1177.142857142857) rotate(0.0 300.0 378.57142857142856) scale(1.4311577350497686 1.429672006266819)"><svg width="419.241" height="529.592" viewBox="0 0 419.241 529.592"><g><path style="fill:#fff" d="M14.93 2h84.684c10.598 0 19.628 7.693 21.312 18.156l30.502 183.264c10.8 64.888 66.935 112.452 132.715 112.452h45.709c20.191 0 36.558 16.368 36.558 36.559v110.894c0 3.264 1.11 6.431 3.147 8.982l47.683 55.286H180.81a51.625 51.625 0 0 1-37.964-16.642l-58.658-63.659a79.658 79.658 0 0 1-20.086-41.449L2.164 16.96C.913 9.109 6.98 2 14.93 2z"/><path style="fill:#25242e" d="M417.242 529.592H180.81c-14.938 0-29.312-6.301-39.436-17.286l-58.658-63.659a81.404 81.404 0 0 1-20.59-42.49L.189 17.275A14.903 14.903 0 0 1 3.576 5.237 14.903 14.903 0 0 1 14.93 0h84.685c11.644 0 21.437 8.343 23.286 19.838l30.5 183.253a132.69 132.69 0 0 0 45.06 79.361 132.693 132.693 0 0 0 85.683 31.419h45.71c21.262 0 38.559 17.297 38.559 38.559v110.894c0 2.8.963 5.547 2.71 7.734l47.635 55.227a2 2 0 0 1-1.516 3.307zM14.93 4a10.912 10.912 0 0 0-8.312 3.834 10.916 10.916 0 0 0-2.479 8.812l61.938 388.882a77.419 77.419 0 0 0 19.581 40.408l58.658 63.659c9.368 10.166 22.67 15.997 36.494 15.997h232.065l-44.831-51.979a16.498 16.498 0 0 1-3.633-10.289V352.431c0-19.056-15.503-34.559-34.559-34.559h-45.71a136.698 136.698 0 0 1-88.268-32.367 136.693 136.693 0 0 1-46.42-81.757L118.953 20.485C117.415 10.928 109.284 4 99.615 4H14.93z"/><path style="fill:#25242e" d="M362.139 500.1a1.996 1.996 0 0 1-1.575-.766l-20.224-25.793a16.447 16.447 0 0 1-3.573-10.217V352.431a34.566 34.566 0 0 0-8.242-22.4 2 2 0 1 1 3.045-2.593 38.569 38.569 0 0 1 9.197 24.994v110.894c0 2.799.963 5.546 2.71 7.734l20.235 25.807a2.001 2.001 0 0 1-.34 2.809 2.002 2.002 0 0 1-1.233.424zM107.02 104.71a2 2 0 0 1-1.971-1.672l-13.74-82.553C89.771 10.928 81.639 4 71.97 4a2 2 0 0 1 0-4c11.644 0 21.437 8.343 23.286 19.838l13.738 82.543a2 2 0 0 1-1.974 2.329z"/></g></svg></g><g transform="translate(1160.0 1227.142857142857) rotate(0.0 363.57142857142856 156.42857142857144) scale(1.4308371549897423 1.422330062407167)"><svg width="508.194" height="219.961" viewBox="0 0 508.194 219.961"><path d="M16.026 199.68h418.862l-7.909 19.046H0v-3.021c0-8.851 7.175-16.026 16.026-16.026z" fill="#b153e0"/><path d="m133.611 199.68 73.047-175.901A35.329 35.329 0 0 1 239.285 2h251.218c12.603 0 21.156 12.813 16.322 24.452L434.889 199.68z" fill="#b153e0"/><path d="m124.568 199.68 73.046-175.901A35.329 35.329 0 0 1 230.241 2h251.218c12.603 0 21.156 12.813 16.322 24.452L425.845 199.68z" fill="#fff"/><g fill="#25242e"><path d="M124.567 201.68a2 2 0 0 1-1.846-2.767l73.046-175.901A37.223 37.223 0 0 1 230.241 0h251.218c7.764 0 14.615 4.39 17.88 11.458a2 2 0 1 1-3.631 1.677C493.105 7.5 487.645 4 481.459 4H230.241a33.233 33.233 0 0 0-30.779 20.546l-73.047 175.901a2 2 0 0 1-1.848 1.233zm128.425 18.282a2 2 0 0 1-1.846-2.767l7.118-17.141a2 2 0 1 1 3.694 1.534l-7.118 17.141a2.002 2.002 0 0 1-1.848 1.233z"/></g></svg></g><g transform="translate(151.42857142857144 1237.142857142857) rotate(0.0 284.2857142857143 226.42857142857144) scale(1.4402234879462703 1.4383905997317425)"><svg width="394.78" height="314.836" viewBox="0 0 394.78 314.836"><g><g><g><g><path style="fill:#fff" d="M345.324 201.085c-16.646-12.265-52.601-21.617-93.019-30.577-51.014-1.232-121.825 77.005-102.732 104.184 9.947.292 33.984 2.474 37.409 2.691 32.138 2.036 66.77 1.154 94.842-.856 14.882-1.065 72.182-69.046 63.5-75.442z"/><path style="fill:#25242e" d="M225.816 280.543c-12.403 0-25.638-.319-38.96-1.163-.904-.057-3.233-.25-6.358-.509-8.863-.735-23.697-1.965-30.983-2.179a2 2 0 0 1-1.578-.849c-5.829-8.298-4.529-20.873 3.759-36.365 8.844-16.53 24.927-34.499 43.021-48.065 20.244-15.178 40.729-23.32 57.637-22.903.13.003.259.019.385.047 65.126 14.437 83.557 23.392 93.772 30.919 1.748 1.288 2.151 3.612 1.197 6.908-2.723 9.406-16.699 27.947-29.344 42.15-6.107 6.861-26.784 29.301-36.396 29.99-12.436.889-32.82 2.019-56.152 2.019zm-75.137-7.814c7.681.292 21.648 1.45 30.148 2.155 3.087.256 5.388.447 6.28.503 38.146 2.416 75.626.501 94.574-.855 10.949-.784 51.221-45.805 60.639-65.398 2.399-4.992 1.857-6.34 1.804-6.449-16.665-12.271-54.078-21.759-92.061-30.183a49.019 49.019 0 0 0-.94-.009c-33.88 0-78.347 36.056-95.901 68.87-7.136 13.338-8.728 24.417-4.543 31.366zm193.458-70.034h.01-.01z"/></g><g><g><g><path style="fill:#fff" d="M321.248 189.12c36.275 12.383 55.218 39.594 61.058 51.476 20.421 41.542 7.176 66.413-7.506 65.769-20.129-.882-22.882-27.971-31.664-43.977-8.634-15.735-25.936-28.082-25.936-28.082"/><path style="fill:#25242e" d="M375.355 308.377a15.4 15.4 0 0 1-.643-.014c-15.966-.699-21.902-16.52-27.141-30.477-1.987-5.297-3.865-10.301-6.188-14.536-8.307-15.137-25.177-27.295-25.346-27.416a2 2 0 0 1 2.324-3.256c.722.515 17.774 12.796 26.527 28.748 2.462 4.486 4.478 9.858 6.428 15.054 5.27 14.041 10.246 27.302 23.571 27.886 4.25.186 8.39-2.257 11.298-6.707 9.233-14.128 3.123-38.286-5.675-56.183-1.814-3.691-18.914-36.471-59.91-50.465a1.999 1.999 0 0 1-1.246-2.539 1.996 1.996 0 0 1 2.539-1.247c42.519 14.514 60.317 48.642 62.207 52.486 17.818 36.248 8.663 55.193 5.434 60.136-3.561 5.45-8.7 8.529-14.179 8.53z"/></g></g></g><g><g><g><path style="fill:#fff" d="M337.501 215.47c3.631 4.03 8.145 10.83 16.146 28.546 10.388 23 16.207 68.464-10.385 68.006-19.298-.332-14.648-27.856-18.322-45.503-2.042-9.808-8.897-20.634-14.909-29.191"/><path style="fill:#25242e" d="M343.668 314.025c-.146 0-.292-.001-.439-.004-16.131-.277-17.413-17.301-18.544-32.321-.383-5.082-.778-10.337-1.702-14.773-2.037-9.792-9.301-20.926-14.588-28.449a2 2 0 0 1 3.273-2.3c5.49 7.814 13.042 19.418 15.23 29.934.977 4.69 1.382 10.078 1.774 15.288 1.292 17.16 3.008 28.422 14.624 28.622 5.676.092 9.764-1.99 12.652-6.381 8.68-13.194 3.182-42.627-4.124-58.802-8.368-18.524-12.688-24.564-15.811-28.03a2.001 2.001 0 0 1 2.972-2.678c3.328 3.694 7.89 10.036 16.482 29.061 7.394 16.368 13.721 47.599 3.82 62.647-3.571 5.433-8.825 8.186-15.619 8.186z"/></g></g></g><g><g><g><path style="fill:#fff" d="M309.363 217.011c5.815 5.217 11.541 15.41 17.886 29.327 14.397 31.581 12.97 65.115-7.096 66.443-21.646 1.432-20.75-25.387-24.298-44.005-1.95-10.233-9.598-20.199-15.791-26.859"/><path style="fill:#25242e" d="M318.447 314.838c-18.071.002-20.674-18.829-22.98-35.506-.498-3.594-.968-6.989-1.576-10.182-1.867-9.8-9.346-19.478-15.291-25.871a2 2 0 0 1 2.93-2.724c6.303 6.778 14.245 17.11 16.291 27.846.627 3.293 1.104 6.737 1.608 10.383 2.352 17.002 4.551 33.056 20.593 32.001 4.688-.31 8.353-2.624 10.893-6.876 6.807-11.395 4.551-34.727-5.484-56.741-6.964-15.277-12.331-24.119-17.402-28.668a1.999 1.999 0 0 1-.152-2.824 1.998 1.998 0 0 1 2.824-.153c5.501 4.936 11.166 14.184 18.37 29.986 10.716 23.505 12.837 47.799 5.278 60.452-3.208 5.371-8.071 8.42-14.062 8.816-.631.041-1.246.061-1.84.061z"/></g></g></g><g><g><g><g><path style="fill:#fff" d="M281.823 222.965c4.169 4.728 14.586 17.973 20.364 39.006 10.934 39.799-7.713 46.965-14.936 47.335-15.485.794-19.106-15.99-23.374-37.864"/><path style="fill:#25242e" d="M286.205 311.333c-16.582.001-20.329-19.203-24.291-39.508a2 2 0 0 1 3.926-.766c4.368 22.384 7.734 36.273 20.38 36.273.304 0 .613-.008.929-.024 3.518-.18 8.494-2.059 11.914-6.791 5.517-7.635 5.931-20.781 1.195-38.017-5.618-20.453-15.813-33.537-19.936-38.212a2 2 0 0 1 3-2.646c4.307 4.885 14.954 18.541 20.793 39.798 5.14 18.709 4.53 32.644-1.811 41.419-5.346 7.397-12.795 8.332-14.951 8.443a21.3 21.3 0 0 1-1.148.031z"/></g></g></g></g></g><g><path style="fill:#fff" d="m252.305 170.508-63.449-10.604 40.905-39.155-97.052-112.43C88.237 51.613 66.334 78.511 29.951 120.533c-49.821 57.542-32.163 140.06 45.97 149.248 33.305 3.916 107.613 7.896 142.463 8.72"/><path style="fill:#25242e" d="M218.385 280.501h-.048c-34.081-.807-108.357-4.701-142.649-8.734-33.716-3.964-59.269-22.259-70.105-50.193-12.551-32.354-3.793-71.572 22.856-102.351a7829.917 7829.917 0 0 0 15.28-17.717c27.726-32.212 49.624-57.655 87.595-94.621a2.001 2.001 0 0 1 2.909.126l97.051 112.431a1.998 1.998 0 0 1-.131 2.751l-38.021 36.396 59.514 9.946a2.001 2.001 0 0 1-.66 3.945l-63.449-10.604a2 2 0 0 1-1.053-3.418l39.532-37.842-94.422-109.382c-36.913 36.043-58.546 61.177-85.833 92.881-4.86 5.646-9.917 11.521-15.289 17.726-25.677 29.656-34.164 67.317-22.15 98.286 10.435 26.897 34.173 43.826 66.843 47.667 32.982 3.878 107.88 7.894 142.276 8.708a2 2 0 0 1-.046 3.999z"/></g></g><g><path style="fill:#25242e" d="M246.3 109.201c-12.315 12.232-57.444 50.703-57.444 50.703L19.239 134.846C33.914 107.704 95.893 41.97 139.53 2"/><path style="fill:#25242e" d="M188.856 161.905c-.098 0-.195-.007-.292-.021l-169.617-25.06a1.999 1.999 0 0 1-1.468-2.93c14.402-26.635 75.17-91.665 120.7-133.369a1.999 1.999 0 1 1 2.701 2.95C96.962 43.703 38.869 105.607 22.421 133.294l165.827 24.5c5.733-4.897 45.351-38.795 56.643-50.011a2 2 0 1 1 2.818 2.838c-12.228 12.146-57.104 50.421-57.556 50.806-.364.31-.825.478-1.297.478z"/></g><path style="fill:#fff" d="M188.857 161.905a2 2 0 0 1-1.324-3.499l57.444-50.703a1.999 1.999 0 1 1 2.646 2.999l-57.444 50.703c-.38.335-.852.5-1.322.5z"/></g></svg></g><g transform="translate(597.1428571428571 1031.4285714285716) rotate(0.0 27.85714285714289 25.714285714285666) scale(1.447124304267163 1.397515527950308)"><svg width="38.5" height="36.8" viewBox="0 0 38.5 36.8"><g><path d="M29.7 13.8c4.1 3.6 13 14.2 6.3 20.1-9.8 8.6-22.3-3.7-26.5-10.6 0 0 12.4 11.3 21.4 4.6 6.6-4.9-1.2-14.1-1.2-14.1zm-18 .3C3.6 6.2 30.1-8.1 31 5.9c-5.7 4.2-12.3 7-19.3 8.2z" style="fill:#dda6ff"/><path d="M24.9 9.6C34.5 16.3 35 24.2 31 27.9c-4.7 4.3-16.4 3.3-29.5-13 8.2.8 16.4-1.1 23.4-5.3z" style="fill:#fff"/><path d="M24.6 31.6h-1.2c-4.2-.3-12.8-2.8-23.1-15.7-.5-.6-.4-1.6.2-2.1.6-.5 1.6-.4 2.1.2 9.6 12 17.3 14.3 21 14.6 2.6.2 4.8-.4 6.3-1.8 1.3-1.2 2-3 1.9-5-.2-3.7-3.1-7.7-7.8-10.9-.7-.5-.8-1.4-.4-2.1.5-.7 1.4-.8 2.1-.4 5.6 3.9 8.8 8.6 9.1 13.2.2 2.9-.8 5.5-2.8 7.4-1.8 1.7-4.4 2.6-7.4 2.6z" style="fill:#25242e"/><path d="M4.2 16.5c-1 0-1.9-.1-2.9-.2-.8-.1-1.4-.9-1.3-1.7.1-.8.9-1.4 1.7-1.3 9.8 1.2 24.2-5.4 28.6-8.4.7-.5 1.6-.3 2.1.4s.3 1.6-.4 2.1c-3.8 2.5-17 9.1-27.8 9.1z" style="fill:#25242e"/></g></svg></g></svg>